<?xml version="1.0" encoding="utf-8" standalone="no"?>
<!DOCTYPE svg PUBLIC "-//W3C//DTD SVG 1.1//EN"
  "http://www.w3.org/Graphics/SVG/1.1/DTD/svg11.dtd">
<svg xmlns:xlink="http://www.w3.org/1999/xlink" width="432pt" height="360pt" viewBox="0 0 432 360" xmlns="http://www.w3.org/2000/svg" version="1.1">
 <metadata>
  <rdf:RDF xmlns:dc="http://purl.org/dc/elements/1.1/" xmlns:cc="http://creativecommons.org/ns#" xmlns:rdf="http://www.w3.org/1999/02/22-rdf-syntax-ns#">
   <cc:Work>
    <dc:type rdf:resource="http://purl.org/dc/dcmitype/StillImage"/>
    <dc:date>2025-05-19T14:49:56.313853</dc:date>
    <dc:format>image/svg+xml</dc:format>
    <dc:creator>
     <cc:Agent>
      <dc:title>Matplotlib v3.9.2, https://matplotlib.org/</dc:title>
     </cc:Agent>
    </dc:creator>
   </cc:Work>
  </rdf:RDF>
 </metadata>
 <defs>
  <style type="text/css">*{stroke-linejoin: round; stroke-linecap: butt}</style>
 </defs>
 <g id="figure_1">
  <g id="patch_1">
   <path d="M 0 360 
L 432 360 
L 432 0 
L 0 0 
z
" style="fill: #ffffff"/>
  </g>
  <g id="axes_1">
   <g id="patch_2">
    <path d="M 53.28 326.74 
L 419.04 326.74 
L 419.04 14.148485 
L 53.28 14.148485 
z
" style="fill: #eaeaf2"/>
   </g>
   <g id="matplotlib.axis_1">
    <g id="xtick_1">
     <g id="text_1">
      <!-- 50 Most active users -->
      <g style="fill: #262626" transform="translate(86.842145 344.598281) scale(0.11 -0.11)">
       <defs>
        <path id="DejaVuSans-35" d="M 691 4666 
L 3169 4666 
L 3169 4134 
L 1269 4134 
L 1269 2991 
Q 1406 3038 1543 3061 
Q 1681 3084 1819 3084 
Q 2600 3084 3056 2656 
Q 3513 2228 3513 1497 
Q 3513 744 3044 326 
Q 2575 -91 1722 -91 
Q 1428 -91 1123 -41 
Q 819 9 494 109 
L 494 744 
Q 775 591 1075 516 
Q 1375 441 1709 441 
Q 2250 441 2565 725 
Q 2881 1009 2881 1497 
Q 2881 1984 2565 2268 
Q 2250 2553 1709 2553 
Q 1456 2553 1204 2497 
Q 953 2441 691 2322 
L 691 4666 
z
" transform="scale(0.015625)"/>
        <path id="DejaVuSans-30" d="M 2034 4250 
Q 1547 4250 1301 3770 
Q 1056 3291 1056 2328 
Q 1056 1369 1301 889 
Q 1547 409 2034 409 
Q 2525 409 2770 889 
Q 3016 1369 3016 2328 
Q 3016 3291 2770 3770 
Q 2525 4250 2034 4250 
z
M 2034 4750 
Q 2819 4750 3233 4129 
Q 3647 3509 3647 2328 
Q 3647 1150 3233 529 
Q 2819 -91 2034 -91 
Q 1250 -91 836 529 
Q 422 1150 422 2328 
Q 422 3509 836 4129 
Q 1250 4750 2034 4750 
z
" transform="scale(0.015625)"/>
        <path id="DejaVuSans-20" transform="scale(0.015625)"/>
        <path id="DejaVuSans-4d" d="M 628 4666 
L 1569 4666 
L 2759 1491 
L 3956 4666 
L 4897 4666 
L 4897 0 
L 4281 0 
L 4281 4097 
L 3078 897 
L 2444 897 
L 1241 4097 
L 1241 0 
L 628 0 
L 628 4666 
z
" transform="scale(0.015625)"/>
        <path id="DejaVuSans-6f" d="M 1959 3097 
Q 1497 3097 1228 2736 
Q 959 2375 959 1747 
Q 959 1119 1226 758 
Q 1494 397 1959 397 
Q 2419 397 2687 759 
Q 2956 1122 2956 1747 
Q 2956 2369 2687 2733 
Q 2419 3097 1959 3097 
z
M 1959 3584 
Q 2709 3584 3137 3096 
Q 3566 2609 3566 1747 
Q 3566 888 3137 398 
Q 2709 -91 1959 -91 
Q 1206 -91 779 398 
Q 353 888 353 1747 
Q 353 2609 779 3096 
Q 1206 3584 1959 3584 
z
" transform="scale(0.015625)"/>
        <path id="DejaVuSans-73" d="M 2834 3397 
L 2834 2853 
Q 2591 2978 2328 3040 
Q 2066 3103 1784 3103 
Q 1356 3103 1142 2972 
Q 928 2841 928 2578 
Q 928 2378 1081 2264 
Q 1234 2150 1697 2047 
L 1894 2003 
Q 2506 1872 2764 1633 
Q 3022 1394 3022 966 
Q 3022 478 2636 193 
Q 2250 -91 1575 -91 
Q 1294 -91 989 -36 
Q 684 19 347 128 
L 347 722 
Q 666 556 975 473 
Q 1284 391 1588 391 
Q 1994 391 2212 530 
Q 2431 669 2431 922 
Q 2431 1156 2273 1281 
Q 2116 1406 1581 1522 
L 1381 1569 
Q 847 1681 609 1914 
Q 372 2147 372 2553 
Q 372 3047 722 3315 
Q 1072 3584 1716 3584 
Q 2034 3584 2315 3537 
Q 2597 3491 2834 3397 
z
" transform="scale(0.015625)"/>
        <path id="DejaVuSans-74" d="M 1172 4494 
L 1172 3500 
L 2356 3500 
L 2356 3053 
L 1172 3053 
L 1172 1153 
Q 1172 725 1289 603 
Q 1406 481 1766 481 
L 2356 481 
L 2356 0 
L 1766 0 
Q 1100 0 847 248 
Q 594 497 594 1153 
L 594 3053 
L 172 3053 
L 172 3500 
L 594 3500 
L 594 4494 
L 1172 4494 
z
" transform="scale(0.015625)"/>
        <path id="DejaVuSans-61" d="M 2194 1759 
Q 1497 1759 1228 1600 
Q 959 1441 959 1056 
Q 959 750 1161 570 
Q 1363 391 1709 391 
Q 2188 391 2477 730 
Q 2766 1069 2766 1631 
L 2766 1759 
L 2194 1759 
z
M 3341 1997 
L 3341 0 
L 2766 0 
L 2766 531 
Q 2569 213 2275 61 
Q 1981 -91 1556 -91 
Q 1019 -91 701 211 
Q 384 513 384 1019 
Q 384 1609 779 1909 
Q 1175 2209 1959 2209 
L 2766 2209 
L 2766 2266 
Q 2766 2663 2505 2880 
Q 2244 3097 1772 3097 
Q 1472 3097 1187 3025 
Q 903 2953 641 2809 
L 641 3341 
Q 956 3463 1253 3523 
Q 1550 3584 1831 3584 
Q 2591 3584 2966 3190 
Q 3341 2797 3341 1997 
z
" transform="scale(0.015625)"/>
        <path id="DejaVuSans-63" d="M 3122 3366 
L 3122 2828 
Q 2878 2963 2633 3030 
Q 2388 3097 2138 3097 
Q 1578 3097 1268 2742 
Q 959 2388 959 1747 
Q 959 1106 1268 751 
Q 1578 397 2138 397 
Q 2388 397 2633 464 
Q 2878 531 3122 666 
L 3122 134 
Q 2881 22 2623 -34 
Q 2366 -91 2075 -91 
Q 1284 -91 818 406 
Q 353 903 353 1747 
Q 353 2603 823 3093 
Q 1294 3584 2113 3584 
Q 2378 3584 2631 3529 
Q 2884 3475 3122 3366 
z
" transform="scale(0.015625)"/>
        <path id="DejaVuSans-69" d="M 603 3500 
L 1178 3500 
L 1178 0 
L 603 0 
L 603 3500 
z
M 603 4863 
L 1178 4863 
L 1178 4134 
L 603 4134 
L 603 4863 
z
" transform="scale(0.015625)"/>
        <path id="DejaVuSans-76" d="M 191 3500 
L 800 3500 
L 1894 563 
L 2988 3500 
L 3597 3500 
L 2284 0 
L 1503 0 
L 191 3500 
z
" transform="scale(0.015625)"/>
        <path id="DejaVuSans-65" d="M 3597 1894 
L 3597 1613 
L 953 1613 
Q 991 1019 1311 708 
Q 1631 397 2203 397 
Q 2534 397 2845 478 
Q 3156 559 3463 722 
L 3463 178 
Q 3153 47 2828 -22 
Q 2503 -91 2169 -91 
Q 1331 -91 842 396 
Q 353 884 353 1716 
Q 353 2575 817 3079 
Q 1281 3584 2069 3584 
Q 2775 3584 3186 3129 
Q 3597 2675 3597 1894 
z
M 3022 2063 
Q 3016 2534 2758 2815 
Q 2500 3097 2075 3097 
Q 1594 3097 1305 2825 
Q 1016 2553 972 2059 
L 3022 2063 
z
" transform="scale(0.015625)"/>
        <path id="DejaVuSans-75" d="M 544 1381 
L 544 3500 
L 1119 3500 
L 1119 1403 
Q 1119 906 1312 657 
Q 1506 409 1894 409 
Q 2359 409 2629 706 
Q 2900 1003 2900 1516 
L 2900 3500 
L 3475 3500 
L 3475 0 
L 2900 0 
L 2900 538 
Q 2691 219 2414 64 
Q 2138 -91 1772 -91 
Q 1169 -91 856 284 
Q 544 659 544 1381 
z
M 1991 3584 
L 1991 3584 
z
" transform="scale(0.015625)"/>
        <path id="DejaVuSans-72" d="M 2631 2963 
Q 2534 3019 2420 3045 
Q 2306 3072 2169 3072 
Q 1681 3072 1420 2755 
Q 1159 2438 1159 1844 
L 1159 0 
L 581 0 
L 581 3500 
L 1159 3500 
L 1159 2956 
Q 1341 3275 1631 3429 
Q 1922 3584 2338 3584 
Q 2397 3584 2469 3576 
Q 2541 3569 2628 3553 
L 2631 2963 
z
" transform="scale(0.015625)"/>
       </defs>
       <use xlink:href="#DejaVuSans-35"/>
       <use xlink:href="#DejaVuSans-30" x="63.623047"/>
       <use xlink:href="#DejaVuSans-20" x="127.246094"/>
       <use xlink:href="#DejaVuSans-4d" x="159.033203"/>
       <use xlink:href="#DejaVuSans-6f" x="245.3125"/>
       <use xlink:href="#DejaVuSans-73" x="306.494141"/>
       <use xlink:href="#DejaVuSans-74" x="358.59375"/>
       <use xlink:href="#DejaVuSans-20" x="397.802734"/>
       <use xlink:href="#DejaVuSans-61" x="429.589844"/>
       <use xlink:href="#DejaVuSans-63" x="490.869141"/>
       <use xlink:href="#DejaVuSans-74" x="545.849609"/>
       <use xlink:href="#DejaVuSans-69" x="585.058594"/>
       <use xlink:href="#DejaVuSans-76" x="612.841797"/>
       <use xlink:href="#DejaVuSans-65" x="672.021484"/>
       <use xlink:href="#DejaVuSans-20" x="733.544922"/>
       <use xlink:href="#DejaVuSans-75" x="765.332031"/>
       <use xlink:href="#DejaVuSans-73" x="828.710938"/>
       <use xlink:href="#DejaVuSans-65" x="880.810547"/>
       <use xlink:href="#DejaVuSans-72" x="942.333984"/>
       <use xlink:href="#DejaVuSans-73" x="983.447266"/>
      </g>
     </g>
    </g>
    <g id="xtick_2">
     <g id="text_2">
      <!-- 200 Random users -->
      <g style="fill: #262626" transform="translate(276.900121 344.598281) scale(0.11 -0.11)">
       <defs>
        <path id="DejaVuSans-32" d="M 1228 531 
L 3431 531 
L 3431 0 
L 469 0 
L 469 531 
Q 828 903 1448 1529 
Q 2069 2156 2228 2338 
Q 2531 2678 2651 2914 
Q 2772 3150 2772 3378 
Q 2772 3750 2511 3984 
Q 2250 4219 1831 4219 
Q 1534 4219 1204 4116 
Q 875 4013 500 3803 
L 500 4441 
Q 881 4594 1212 4672 
Q 1544 4750 1819 4750 
Q 2544 4750 2975 4387 
Q 3406 4025 3406 3419 
Q 3406 3131 3298 2873 
Q 3191 2616 2906 2266 
Q 2828 2175 2409 1742 
Q 1991 1309 1228 531 
z
" transform="scale(0.015625)"/>
        <path id="DejaVuSans-52" d="M 2841 2188 
Q 3044 2119 3236 1894 
Q 3428 1669 3622 1275 
L 4263 0 
L 3584 0 
L 2988 1197 
Q 2756 1666 2539 1819 
Q 2322 1972 1947 1972 
L 1259 1972 
L 1259 0 
L 628 0 
L 628 4666 
L 2053 4666 
Q 2853 4666 3247 4331 
Q 3641 3997 3641 3322 
Q 3641 2881 3436 2590 
Q 3231 2300 2841 2188 
z
M 1259 4147 
L 1259 2491 
L 2053 2491 
Q 2509 2491 2742 2702 
Q 2975 2913 2975 3322 
Q 2975 3731 2742 3939 
Q 2509 4147 2053 4147 
L 1259 4147 
z
" transform="scale(0.015625)"/>
        <path id="DejaVuSans-6e" d="M 3513 2113 
L 3513 0 
L 2938 0 
L 2938 2094 
Q 2938 2591 2744 2837 
Q 2550 3084 2163 3084 
Q 1697 3084 1428 2787 
Q 1159 2491 1159 1978 
L 1159 0 
L 581 0 
L 581 3500 
L 1159 3500 
L 1159 2956 
Q 1366 3272 1645 3428 
Q 1925 3584 2291 3584 
Q 2894 3584 3203 3211 
Q 3513 2838 3513 2113 
z
" transform="scale(0.015625)"/>
        <path id="DejaVuSans-64" d="M 2906 2969 
L 2906 4863 
L 3481 4863 
L 3481 0 
L 2906 0 
L 2906 525 
Q 2725 213 2448 61 
Q 2172 -91 1784 -91 
Q 1150 -91 751 415 
Q 353 922 353 1747 
Q 353 2572 751 3078 
Q 1150 3584 1784 3584 
Q 2172 3584 2448 3432 
Q 2725 3281 2906 2969 
z
M 947 1747 
Q 947 1113 1208 752 
Q 1469 391 1925 391 
Q 2381 391 2643 752 
Q 2906 1113 2906 1747 
Q 2906 2381 2643 2742 
Q 2381 3103 1925 3103 
Q 1469 3103 1208 2742 
Q 947 2381 947 1747 
z
" transform="scale(0.015625)"/>
        <path id="DejaVuSans-6d" d="M 3328 2828 
Q 3544 3216 3844 3400 
Q 4144 3584 4550 3584 
Q 5097 3584 5394 3201 
Q 5691 2819 5691 2113 
L 5691 0 
L 5113 0 
L 5113 2094 
Q 5113 2597 4934 2840 
Q 4756 3084 4391 3084 
Q 3944 3084 3684 2787 
Q 3425 2491 3425 1978 
L 3425 0 
L 2847 0 
L 2847 2094 
Q 2847 2600 2669 2842 
Q 2491 3084 2119 3084 
Q 1678 3084 1418 2786 
Q 1159 2488 1159 1978 
L 1159 0 
L 581 0 
L 581 3500 
L 1159 3500 
L 1159 2956 
Q 1356 3278 1631 3431 
Q 1906 3584 2284 3584 
Q 2666 3584 2933 3390 
Q 3200 3197 3328 2828 
z
" transform="scale(0.015625)"/>
       </defs>
       <use xlink:href="#DejaVuSans-32"/>
       <use xlink:href="#DejaVuSans-30" x="63.623047"/>
       <use xlink:href="#DejaVuSans-30" x="127.246094"/>
       <use xlink:href="#DejaVuSans-20" x="190.869141"/>
       <use xlink:href="#DejaVuSans-52" x="222.65625"/>
       <use xlink:href="#DejaVuSans-61" x="289.888672"/>
       <use xlink:href="#DejaVuSans-6e" x="351.167969"/>
       <use xlink:href="#DejaVuSans-64" x="414.546875"/>
       <use xlink:href="#DejaVuSans-6f" x="478.023438"/>
       <use xlink:href="#DejaVuSans-6d" x="539.205078"/>
       <use xlink:href="#DejaVuSans-20" x="636.617188"/>
       <use xlink:href="#DejaVuSans-75" x="668.404297"/>
       <use xlink:href="#DejaVuSans-73" x="731.783203"/>
       <use xlink:href="#DejaVuSans-65" x="783.882812"/>
       <use xlink:href="#DejaVuSans-72" x="845.40625"/>
       <use xlink:href="#DejaVuSans-73" x="886.519531"/>
      </g>
     </g>
    </g>
   </g>
   <g id="matplotlib.axis_2">
    <g id="ytick_1">
     <g id="line2d_1">
      <path d="M 53.28 312.531295 
L 419.04 312.531295 
" clip-path="url(#pf85e7fe557)" style="fill: none; stroke: #ffffff; stroke-linecap: round"/>
     </g>
     <g id="text_3">
      <!-- 0 -->
      <g style="fill: #262626" transform="translate(36.78125 316.710435) scale(0.11 -0.11)">
       <use xlink:href="#DejaVuSans-30"/>
      </g>
     </g>
    </g>
    <g id="ytick_2">
     <g id="line2d_2">
      <path d="M 53.28 270.409655 
L 419.04 270.409655 
" clip-path="url(#pf85e7fe557)" style="fill: none; stroke: #ffffff; stroke-linecap: round"/>
     </g>
     <g id="text_4">
      <!-- 2 -->
      <g style="fill: #262626" transform="translate(36.78125 274.588796) scale(0.11 -0.11)">
       <use xlink:href="#DejaVuSans-32"/>
      </g>
     </g>
    </g>
    <g id="ytick_3">
     <g id="line2d_3">
      <path d="M 53.28 228.288015 
L 419.04 228.288015 
" clip-path="url(#pf85e7fe557)" style="fill: none; stroke: #ffffff; stroke-linecap: round"/>
     </g>
     <g id="text_5">
      <!-- 4 -->
      <g style="fill: #262626" transform="translate(36.78125 232.467156) scale(0.11 -0.11)">
       <defs>
        <path id="DejaVuSans-34" d="M 2419 4116 
L 825 1625 
L 2419 1625 
L 2419 4116 
z
M 2253 4666 
L 3047 4666 
L 3047 1625 
L 3713 1625 
L 3713 1100 
L 3047 1100 
L 3047 0 
L 2419 0 
L 2419 1100 
L 313 1100 
L 313 1709 
L 2253 4666 
z
" transform="scale(0.015625)"/>
       </defs>
       <use xlink:href="#DejaVuSans-34"/>
      </g>
     </g>
    </g>
    <g id="ytick_4">
     <g id="line2d_4">
      <path d="M 53.28 186.166375 
L 419.04 186.166375 
" clip-path="url(#pf85e7fe557)" style="fill: none; stroke: #ffffff; stroke-linecap: round"/>
     </g>
     <g id="text_6">
      <!-- 6 -->
      <g style="fill: #262626" transform="translate(36.78125 190.345516) scale(0.11 -0.11)">
       <defs>
        <path id="DejaVuSans-36" d="M 2113 2584 
Q 1688 2584 1439 2293 
Q 1191 2003 1191 1497 
Q 1191 994 1439 701 
Q 1688 409 2113 409 
Q 2538 409 2786 701 
Q 3034 994 3034 1497 
Q 3034 2003 2786 2293 
Q 2538 2584 2113 2584 
z
M 3366 4563 
L 3366 3988 
Q 3128 4100 2886 4159 
Q 2644 4219 2406 4219 
Q 1781 4219 1451 3797 
Q 1122 3375 1075 2522 
Q 1259 2794 1537 2939 
Q 1816 3084 2150 3084 
Q 2853 3084 3261 2657 
Q 3669 2231 3669 1497 
Q 3669 778 3244 343 
Q 2819 -91 2113 -91 
Q 1303 -91 875 529 
Q 447 1150 447 2328 
Q 447 3434 972 4092 
Q 1497 4750 2381 4750 
Q 2619 4750 2861 4703 
Q 3103 4656 3366 4563 
z
" transform="scale(0.015625)"/>
       </defs>
       <use xlink:href="#DejaVuSans-36"/>
      </g>
     </g>
    </g>
    <g id="ytick_5">
     <g id="line2d_5">
      <path d="M 53.28 144.044736 
L 419.04 144.044736 
" clip-path="url(#pf85e7fe557)" style="fill: none; stroke: #ffffff; stroke-linecap: round"/>
     </g>
     <g id="text_7">
      <!-- 8 -->
      <g style="fill: #262626" transform="translate(36.78125 148.223876) scale(0.11 -0.11)">
       <defs>
        <path id="DejaVuSans-38" d="M 2034 2216 
Q 1584 2216 1326 1975 
Q 1069 1734 1069 1313 
Q 1069 891 1326 650 
Q 1584 409 2034 409 
Q 2484 409 2743 651 
Q 3003 894 3003 1313 
Q 3003 1734 2745 1975 
Q 2488 2216 2034 2216 
z
M 1403 2484 
Q 997 2584 770 2862 
Q 544 3141 544 3541 
Q 544 4100 942 4425 
Q 1341 4750 2034 4750 
Q 2731 4750 3128 4425 
Q 3525 4100 3525 3541 
Q 3525 3141 3298 2862 
Q 3072 2584 2669 2484 
Q 3125 2378 3379 2068 
Q 3634 1759 3634 1313 
Q 3634 634 3220 271 
Q 2806 -91 2034 -91 
Q 1263 -91 848 271 
Q 434 634 434 1313 
Q 434 1759 690 2068 
Q 947 2378 1403 2484 
z
M 1172 3481 
Q 1172 3119 1398 2916 
Q 1625 2713 2034 2713 
Q 2441 2713 2670 2916 
Q 2900 3119 2900 3481 
Q 2900 3844 2670 4047 
Q 2441 4250 2034 4250 
Q 1625 4250 1398 4047 
Q 1172 3844 1172 3481 
z
" transform="scale(0.015625)"/>
       </defs>
       <use xlink:href="#DejaVuSans-38"/>
      </g>
     </g>
    </g>
    <g id="ytick_6">
     <g id="line2d_6">
      <path d="M 53.28 101.923096 
L 419.04 101.923096 
" clip-path="url(#pf85e7fe557)" style="fill: none; stroke: #ffffff; stroke-linecap: round"/>
     </g>
     <g id="text_8">
      <!-- 10 -->
      <g style="fill: #262626" transform="translate(29.7825 106.102236) scale(0.11 -0.11)">
       <defs>
        <path id="DejaVuSans-31" d="M 794 531 
L 1825 531 
L 1825 4091 
L 703 3866 
L 703 4441 
L 1819 4666 
L 2450 4666 
L 2450 531 
L 3481 531 
L 3481 0 
L 794 0 
L 794 531 
z
" transform="scale(0.015625)"/>
       </defs>
       <use xlink:href="#DejaVuSans-31"/>
       <use xlink:href="#DejaVuSans-30" x="63.623047"/>
      </g>
     </g>
    </g>
    <g id="ytick_7">
     <g id="line2d_7">
      <path d="M 53.28 59.801456 
L 419.04 59.801456 
" clip-path="url(#pf85e7fe557)" style="fill: none; stroke: #ffffff; stroke-linecap: round"/>
     </g>
     <g id="text_9">
      <!-- 12 -->
      <g style="fill: #262626" transform="translate(29.7825 63.980597) scale(0.11 -0.11)">
       <use xlink:href="#DejaVuSans-31"/>
       <use xlink:href="#DejaVuSans-32" x="63.623047"/>
      </g>
     </g>
    </g>
    <g id="ytick_8">
     <g id="line2d_8">
      <path d="M 53.28 17.679816 
L 419.04 17.679816 
" clip-path="url(#pf85e7fe557)" style="fill: none; stroke: #ffffff; stroke-linecap: round"/>
     </g>
     <g id="text_10">
      <!-- 14 -->
      <g style="fill: #262626" transform="translate(29.7825 21.858957) scale(0.11 -0.11)">
       <use xlink:href="#DejaVuSans-31"/>
       <use xlink:href="#DejaVuSans-34" x="63.623047"/>
      </g>
     </g>
    </g>
    <g id="text_11">
     <!-- BLEU -->
     <g style="fill: #262626" transform="translate(23.286875 186.08643) rotate(-90) scale(0.12 -0.12)">
      <defs>
       <path id="DejaVuSans-42" d="M 1259 2228 
L 1259 519 
L 2272 519 
Q 2781 519 3026 730 
Q 3272 941 3272 1375 
Q 3272 1813 3026 2020 
Q 2781 2228 2272 2228 
L 1259 2228 
z
M 1259 4147 
L 1259 2741 
L 2194 2741 
Q 2656 2741 2882 2914 
Q 3109 3088 3109 3444 
Q 3109 3797 2882 3972 
Q 2656 4147 2194 4147 
L 1259 4147 
z
M 628 4666 
L 2241 4666 
Q 2963 4666 3353 4366 
Q 3744 4066 3744 3513 
Q 3744 3084 3544 2831 
Q 3344 2578 2956 2516 
Q 3422 2416 3680 2098 
Q 3938 1781 3938 1306 
Q 3938 681 3513 340 
Q 3088 0 2303 0 
L 628 0 
L 628 4666 
z
" transform="scale(0.015625)"/>
       <path id="DejaVuSans-4c" d="M 628 4666 
L 1259 4666 
L 1259 531 
L 3531 531 
L 3531 0 
L 628 0 
L 628 4666 
z
" transform="scale(0.015625)"/>
       <path id="DejaVuSans-45" d="M 628 4666 
L 3578 4666 
L 3578 4134 
L 1259 4134 
L 1259 2753 
L 3481 2753 
L 3481 2222 
L 1259 2222 
L 1259 531 
L 3634 531 
L 3634 0 
L 628 0 
L 628 4666 
z
" transform="scale(0.015625)"/>
       <path id="DejaVuSans-55" d="M 556 4666 
L 1191 4666 
L 1191 1831 
Q 1191 1081 1462 751 
Q 1734 422 2344 422 
Q 2950 422 3222 751 
Q 3494 1081 3494 1831 
L 3494 4666 
L 4128 4666 
L 4128 1753 
Q 4128 841 3676 375 
Q 3225 -91 2344 -91 
Q 1459 -91 1007 375 
Q 556 841 556 1753 
L 556 4666 
z
" transform="scale(0.015625)"/>
      </defs>
      <use xlink:href="#DejaVuSans-42"/>
      <use xlink:href="#DejaVuSans-4c" x="68.603516"/>
      <use xlink:href="#DejaVuSans-45" x="124.316406"/>
      <use xlink:href="#DejaVuSans-55" x="187.5"/>
     </g>
    </g>
   </g>
   <g id="PolyCollection_1">
    <path d="M 96.391795 312.236337 
L 92.67972 312.236337 
L 92.535183 310.582334 
L 92.386485 308.928332 
L 92.231447 307.274329 
L 92.067032 305.620327 
L 91.889262 303.966325 
L 91.693171 302.312322 
L 91.472765 300.65832 
L 91.221048 299.004317 
L 90.93009 297.350315 
L 90.591196 295.696312 
L 90.195173 294.04231 
L 89.732716 292.388308 
L 89.194914 290.734305 
L 88.573868 289.080303 
L 87.863386 287.4263 
L 87.05971 285.772298 
L 86.162221 284.118296 
L 85.174032 282.464293 
L 84.102414 280.810291 
L 82.958971 279.156288 
L 81.759516 277.502286 
L 80.523614 275.848284 
L 79.273799 274.194281 
L 78.034491 272.540279 
L 76.830682 270.886276 
L 75.686499 269.232274 
L 74.623752 267.578272 
L 73.660598 265.924269 
L 72.810452 264.270267 
L 72.081246 262.616264 
L 71.475118 260.962262 
L 70.988582 259.308259 
L 70.61315 257.654257 
L 70.336384 256.000255 
L 70.143273 254.346252 
L 70.017803 252.69225 
L 69.94459 251.038247 
L 69.910405 249.384245 
L 69.905455 247.730243 
L 69.924292 246.07624 
L 69.966272 244.422238 
L 70.035507 242.768235 
L 70.140337 241.114233 
L 70.292369 239.460231 
L 70.505177 237.806228 
L 70.792814 236.152226 
L 71.168253 234.498223 
L 71.641935 232.844221 
L 72.220534 231.190219 
L 72.906071 229.536216 
L 73.695421 227.882214 
L 74.580264 226.228211 
L 75.547451 224.574209 
L 76.579737 222.920206 
L 77.656812 221.266204 
L 78.756504 219.612202 
L 79.85607 217.958199 
L 80.933459 216.304197 
L 81.968458 214.650194 
L 82.943649 212.996192 
L 83.845129 211.34219 
L 84.662969 209.688187 
L 85.391406 208.034185 
L 86.028795 206.380182 
L 86.577336 204.72618 
L 87.042629 203.072178 
L 87.433089 201.418175 
L 87.75928 199.764173 
L 88.033189 198.11017 
L 88.267501 196.456168 
L 88.474887 194.802166 
L 88.667363 193.148163 
L 88.855709 191.494161 
L 89.049011 189.840158 
L 89.254304 188.186156 
L 89.476362 186.532154 
L 89.717609 184.878151 
L 89.978185 183.224149 
L 90.256123 181.570146 
L 90.547656 179.916144 
L 90.8476 178.262141 
L 91.149818 176.608139 
L 91.447702 174.954137 
L 91.734666 173.300134 
L 92.004599 171.646132 
L 92.252262 169.992129 
L 92.473603 168.338127 
L 92.665967 166.684125 
L 92.8282 165.030122 
L 92.960654 163.37612 
L 93.065073 161.722117 
L 93.144409 160.068115 
L 93.202564 158.414113 
L 93.24408 156.76011 
L 93.273816 155.106108 
L 93.296624 153.452105 
L 93.31705 151.798103 
L 93.339079 150.144101 
L 93.365941 148.490098 
L 95.705574 148.490098 
L 95.705574 148.490098 
L 95.732436 150.144101 
L 95.754465 151.798103 
L 95.774891 153.452105 
L 95.7977 155.106108 
L 95.827436 156.76011 
L 95.868951 158.414113 
L 95.927106 160.068115 
L 96.006443 161.722117 
L 96.110861 163.37612 
L 96.243315 165.030122 
L 96.405549 166.684125 
L 96.597912 168.338127 
L 96.819253 169.992129 
L 97.066916 171.646132 
L 97.336849 173.300134 
L 97.623813 174.954137 
L 97.921697 176.608139 
L 98.223915 178.262141 
L 98.523859 179.916144 
L 98.815392 181.570146 
L 99.09333 183.224149 
L 99.353906 184.878151 
L 99.595153 186.532154 
L 99.817211 188.186156 
L 100.022504 189.840158 
L 100.215806 191.494161 
L 100.404153 193.148163 
L 100.596628 194.802166 
L 100.804015 196.456168 
L 101.038326 198.11017 
L 101.312235 199.764173 
L 101.638426 201.418175 
L 102.028887 203.072178 
L 102.494179 204.72618 
L 103.04272 206.380182 
L 103.680109 208.034185 
L 104.408546 209.688187 
L 105.226386 211.34219 
L 106.127866 212.996192 
L 107.103057 214.650194 
L 108.138056 216.304197 
L 109.215445 217.958199 
L 110.315011 219.612202 
L 111.414703 221.266204 
L 112.491778 222.920206 
L 113.524065 224.574209 
L 114.491251 226.228211 
L 115.376094 227.882214 
L 116.165444 229.536216 
L 116.850981 231.190219 
L 117.429581 232.844221 
L 117.903262 234.498223 
L 118.278701 236.152226 
L 118.566338 237.806228 
L 118.779147 239.460231 
L 118.931178 241.114233 
L 119.036008 242.768235 
L 119.105243 244.422238 
L 119.147223 246.07624 
L 119.166061 247.730243 
L 119.16111 249.384245 
L 119.126925 251.038247 
L 119.053712 252.69225 
L 118.928242 254.346252 
L 118.735131 256.000255 
L 118.458366 257.654257 
L 118.082933 259.308259 
L 117.596397 260.962262 
L 116.99027 262.616264 
L 116.261063 264.270267 
L 115.410917 265.924269 
L 114.447763 267.578272 
L 113.385016 269.232274 
L 112.240833 270.886276 
L 111.037024 272.540279 
L 109.797716 274.194281 
L 108.547901 275.848284 
L 107.312 277.502286 
L 106.112544 279.156288 
L 104.969101 280.810291 
L 103.897483 282.464293 
L 102.909294 284.118296 
L 102.011805 285.772298 
L 101.208129 287.4263 
L 100.497647 289.080303 
L 99.876601 290.734305 
L 99.338799 292.388308 
L 98.876342 294.04231 
L 98.480319 295.696312 
L 98.141425 297.350315 
L 97.850467 299.004317 
L 97.59875 300.65832 
L 97.378345 302.312322 
L 97.182253 303.966325 
L 97.004483 305.620327 
L 96.840068 307.274329 
L 96.68503 308.928332 
L 96.536332 310.582334 
L 96.391795 312.236337 
L 96.391795 312.236337 
z
" clip-path="url(#pf85e7fe557)" style="fill: none; stroke: #4c72b0; stroke-width: 1.5"/>
   </g>
   <g id="PolyCollection_2">
    <path d="M 146.629841 312.511597 
L 140.962886 312.511597 
L 140.676334 311.042624 
L 140.377343 309.573651 
L 140.06691 308.104678 
L 139.746203 306.635706 
L 139.416514 305.166733 
L 139.079186 303.69776 
L 138.735484 302.228787 
L 138.386427 300.759814 
L 138.032588 299.290841 
L 137.673873 297.821868 
L 137.309304 296.352896 
L 136.936842 294.883923 
L 136.553265 293.41495 
L 136.154147 291.945977 
L 135.733938 290.477004 
L 135.28619 289.008031 
L 134.803897 287.539058 
L 134.279967 286.070085 
L 133.707769 284.601113 
L 133.081754 283.13214 
L 132.398057 281.663167 
L 131.65507 280.194194 
L 130.853893 278.725221 
L 129.998648 277.256248 
L 129.096597 275.787275 
L 128.158047 274.318302 
L 127.196045 272.84933 
L 126.225865 271.380357 
L 125.264325 269.911384 
L 124.328974 268.442411 
L 123.437208 266.973438 
L 122.605377 265.504465 
L 121.847938 264.035492 
L 121.176726 262.566519 
L 120.600372 261.097547 
L 120.123931 259.628574 
L 119.748721 258.159601 
L 119.472398 256.690628 
L 119.289254 255.221655 
L 119.190724 253.752682 
L 119.166061 252.283709 
L 119.203142 250.814736 
L 119.28936 249.345764 
L 119.412526 247.876791 
L 119.561745 246.407818 
L 119.728192 244.938845 
L 119.905743 243.469872 
L 120.091413 242.000899 
L 120.285561 240.531926 
L 120.491857 239.062953 
L 120.716989 237.593981 
L 120.970136 236.125008 
L 121.262236 234.656035 
L 121.6051 233.187062 
L 122.010437 231.718089 
L 122.48885 230.249116 
L 123.048907 228.780143 
L 123.696327 227.31117 
L 124.43337 225.842198 
L 125.258472 224.373225 
L 126.166142 222.904252 
L 127.147145 221.435279 
L 128.188928 219.966306 
L 129.276265 218.497333 
L 130.392058 217.02836 
L 131.518221 215.559388 
L 132.636581 214.090415 
L 133.729722 212.621442 
L 134.781726 211.152469 
L 135.778752 209.683496 
L 136.709445 208.214523 
L 137.565162 206.74555 
L 138.34002 205.276577 
L 139.030804 203.807605 
L 139.63675 202.338632 
L 140.159253 200.869659 
L 140.601519 199.400686 
L 140.968215 197.931713 
L 141.265112 196.46274 
L 141.498767 194.993767 
L 141.676236 193.524794 
L 141.804822 192.055822 
L 141.891872 190.586849 
L 141.9446 189.117876 
L 141.969954 187.648903 
L 141.974499 186.17993 
L 141.964332 184.710957 
L 141.945013 183.241984 
L 141.921517 181.773011 
L 141.898206 180.304039 
L 141.878808 178.835066 
L 141.866416 177.366093 
L 141.863495 175.89712 
L 141.871898 174.428147 
L 141.892889 172.959174 
L 141.927169 171.490201 
L 141.974908 170.021228 
L 142.035784 168.552256 
L 142.109022 167.083283 
L 145.483705 167.083283 
L 145.483705 167.083283 
L 145.556943 168.552256 
L 145.617819 170.021228 
L 145.665558 171.490201 
L 145.699838 172.959174 
L 145.720829 174.428147 
L 145.729232 175.89712 
L 145.726311 177.366093 
L 145.713919 178.835066 
L 145.694521 180.304039 
L 145.67121 181.773011 
L 145.647715 183.241984 
L 145.628395 184.710957 
L 145.618228 186.17993 
L 145.622773 187.648903 
L 145.648127 189.117876 
L 145.700856 190.586849 
L 145.787905 192.055822 
L 145.916491 193.524794 
L 146.09396 194.993767 
L 146.327616 196.46274 
L 146.624512 197.931713 
L 146.991208 199.400686 
L 147.433474 200.869659 
L 147.955977 202.338632 
L 148.561924 203.807605 
L 149.252708 205.276577 
L 150.027566 206.74555 
L 150.883282 208.214523 
L 151.813975 209.683496 
L 152.811001 211.152469 
L 153.863005 212.621442 
L 154.956146 214.090415 
L 156.074506 215.559388 
L 157.200669 217.02836 
L 158.316462 218.497333 
L 159.403799 219.966306 
L 160.445582 221.435279 
L 161.426585 222.904252 
L 162.334256 224.373225 
L 163.159357 225.842198 
L 163.8964 227.31117 
L 164.54382 228.780143 
L 165.103877 230.249116 
L 165.582291 231.718089 
L 165.987627 233.187062 
L 166.330491 234.656035 
L 166.622591 236.125008 
L 166.875738 237.593981 
L 167.10087 239.062953 
L 167.307166 240.531926 
L 167.501315 242.000899 
L 167.686984 243.469872 
L 167.864535 244.938845 
L 168.030982 246.407818 
L 168.180201 247.876791 
L 168.303367 249.345764 
L 168.389585 250.814736 
L 168.426667 252.283709 
L 168.402003 253.752682 
L 168.303473 255.221655 
L 168.120329 256.690628 
L 167.844006 258.159601 
L 167.468796 259.628574 
L 166.992355 261.097547 
L 166.416001 262.566519 
L 165.744789 264.035492 
L 164.98735 265.504465 
L 164.155519 266.973438 
L 163.263753 268.442411 
L 162.328402 269.911384 
L 161.366862 271.380357 
L 160.396683 272.84933 
L 159.434681 274.318302 
L 158.49613 275.787275 
L 157.594079 277.256248 
L 156.738834 278.725221 
L 155.937657 280.194194 
L 155.19467 281.663167 
L 154.510974 283.13214 
L 153.884958 284.601113 
L 153.312761 286.070085 
L 152.78883 287.539058 
L 152.306538 289.008031 
L 151.858789 290.477004 
L 151.438581 291.945977 
L 151.039462 293.41495 
L 150.655886 294.883923 
L 150.283423 296.352896 
L 149.918854 297.821868 
L 149.560139 299.290841 
L 149.2063 300.759814 
L 148.857243 302.228787 
L 148.513541 303.69776 
L 148.176213 305.166733 
L 147.846524 306.635706 
L 147.525817 308.104678 
L 147.215384 309.573651 
L 146.916393 311.042624 
L 146.629841 312.511597 
L 146.629841 312.511597 
z
" clip-path="url(#pf85e7fe557)" style="fill: none; stroke: #dd8452; stroke-width: 1.5"/>
   </g>
   <g id="PolyCollection_3">
    <path d="M 196.910043 312.491018 
L 189.203896 312.491018 
L 188.923256 310.746116 
L 188.629334 309.001213 
L 188.320064 307.256311 
L 187.9931 305.511408 
L 187.645914 303.766505 
L 187.275924 302.021603 
L 186.880631 300.2767 
L 186.457791 298.531798 
L 186.005574 296.786895 
L 185.522745 295.041993 
L 185.008812 293.29709 
L 184.464171 291.552187 
L 183.890211 289.807285 
L 183.289383 288.062382 
L 182.665227 286.31748 
L 182.022345 284.572577 
L 181.366329 282.827675 
L 180.703635 281.082772 
L 180.041416 279.337869 
L 179.387314 277.592967 
L 178.749223 275.848064 
L 178.13504 274.103162 
L 177.552404 272.358259 
L 177.008443 270.613357 
L 176.509547 268.868454 
L 176.061166 267.123551 
L 175.667649 265.378649 
L 175.332136 263.633746 
L 175.056497 261.888844 
L 174.841331 260.143941 
L 174.686015 258.399038 
L 174.588805 256.654136 
L 174.546977 254.909233 
L 174.557008 253.164331 
L 174.614779 251.419428 
L 174.715787 249.674526 
L 174.855365 247.929623 
L 175.028892 246.18472 
L 175.231976 244.439818 
L 175.460619 242.694915 
L 175.711335 240.950013 
L 175.981232 239.20511 
L 176.268055 237.460208 
L 176.570175 235.715305 
L 176.886549 233.970402 
L 177.216634 232.2255 
L 177.560275 230.480597 
L 177.917578 228.735695 
L 178.288759 226.990792 
L 178.673998 225.24589 
L 179.073299 223.500987 
L 179.486362 221.756084 
L 179.912479 220.011182 
L 180.350456 218.266279 
L 180.79857 216.521377 
L 181.254556 214.776474 
L 181.715629 213.031571 
L 182.178538 211.286669 
L 182.639647 209.541766 
L 183.095037 207.796864 
L 183.540627 206.051961 
L 183.972307 204.307059 
L 184.386068 202.562156 
L 184.778138 200.817253 
L 185.145106 199.072351 
L 185.484033 197.327448 
L 185.792545 195.582546 
L 186.06891 193.837643 
L 186.312089 192.092741 
L 186.521768 190.347838 
L 186.698361 188.602935 
L 186.843001 186.858033 
L 186.957498 185.11313 
L 187.044286 183.368228 
L 187.106352 181.623325 
L 187.147145 179.878423 
L 187.170487 178.13352 
L 187.180456 176.388617 
L 187.181284 174.643715 
L 187.177241 172.898812 
L 187.172526 171.15391 
L 187.171158 169.409007 
L 187.176885 167.664105 
L 187.193092 165.919202 
L 187.222729 164.174299 
L 187.268254 162.429397 
L 187.33159 160.684494 
L 187.414103 158.939592 
L 187.51659 157.194689 
L 187.639289 155.449786 
L 187.781905 153.704884 
L 187.943648 151.959981 
L 188.12328 150.215079 
L 188.319172 148.470176 
L 188.529375 146.725274 
L 188.751686 144.980371 
L 188.983717 143.235468 
L 189.222971 141.490566 
L 189.466904 139.745663 
L 196.647035 139.745663 
L 196.647035 139.745663 
L 196.890969 141.490566 
L 197.130222 143.235468 
L 197.362254 144.980371 
L 197.584564 146.725274 
L 197.794768 148.470176 
L 197.99066 150.215079 
L 198.170291 151.959981 
L 198.332034 153.704884 
L 198.474651 155.449786 
L 198.59735 157.194689 
L 198.699836 158.939592 
L 198.782349 160.684494 
L 198.845686 162.429397 
L 198.891211 164.174299 
L 198.920847 165.919202 
L 198.937054 167.664105 
L 198.942781 169.409007 
L 198.941414 171.15391 
L 198.936698 172.898812 
L 198.932656 174.643715 
L 198.933484 176.388617 
L 198.943453 178.13352 
L 198.966794 179.878423 
L 199.007588 181.623325 
L 199.069653 183.368228 
L 199.156441 185.11313 
L 199.270938 186.858033 
L 199.415578 188.602935 
L 199.592172 190.347838 
L 199.80185 192.092741 
L 200.045029 193.837643 
L 200.321394 195.582546 
L 200.629906 197.327448 
L 200.968833 199.072351 
L 201.335802 200.817253 
L 201.727872 202.562156 
L 202.141633 204.307059 
L 202.573312 206.051961 
L 203.018903 207.796864 
L 203.474293 209.541766 
L 203.935402 211.286669 
L 204.398311 213.031571 
L 204.859384 214.776474 
L 205.31537 216.521377 
L 205.763483 218.266279 
L 206.201461 220.011182 
L 206.627577 221.756084 
L 207.040641 223.500987 
L 207.439942 225.24589 
L 207.825181 226.990792 
L 208.196361 228.735695 
L 208.553664 230.480597 
L 208.897306 232.2255 
L 209.22739 233.970402 
L 209.543764 235.715305 
L 209.845884 237.460208 
L 210.132707 239.20511 
L 210.402605 240.950013 
L 210.65332 242.694915 
L 210.881963 244.439818 
L 211.085048 246.18472 
L 211.258574 247.929623 
L 211.398153 249.674526 
L 211.49916 251.419428 
L 211.556931 253.164331 
L 211.566963 254.909233 
L 211.525135 256.654136 
L 211.427924 258.399038 
L 211.272608 260.143941 
L 211.057442 261.888844 
L 210.781804 263.633746 
L 210.44629 265.378649 
L 210.052773 267.123551 
L 209.604392 268.868454 
L 209.105496 270.613357 
L 208.561536 272.358259 
L 207.978899 274.103162 
L 207.364716 275.848064 
L 206.726626 277.592967 
L 206.072523 279.337869 
L 205.410305 281.082772 
L 204.747611 282.827675 
L 204.091595 284.572577 
L 203.448713 286.31748 
L 202.824556 288.062382 
L 202.223728 289.807285 
L 201.649768 291.552187 
L 201.105127 293.29709 
L 200.591194 295.041993 
L 200.108365 296.786895 
L 199.656149 298.531798 
L 199.233308 300.2767 
L 198.838016 302.021603 
L 198.468025 303.766505 
L 198.12084 305.511408 
L 197.793875 307.256311 
L 197.484605 309.001213 
L 197.190683 310.746116 
L 196.910043 312.491018 
L 196.910043 312.491018 
z
" clip-path="url(#pf85e7fe557)" style="fill: none; stroke: #55a868; stroke-width: 1.5"/>
   </g>
   <g id="PolyCollection_4">
    <path d="M 282.144106 312.531295 
L 276.381954 312.531295 
L 275.932454 310.501847 
L 275.436294 308.472399 
L 274.892062 306.442952 
L 274.299991 304.413504 
L 273.662458 302.384056 
L 272.984262 300.354609 
L 272.272567 298.325161 
L 271.536471 296.295713 
L 270.786196 294.266265 
L 270.032011 292.236818 
L 269.283042 290.20737 
L 268.546162 288.177922 
L 267.825207 286.148475 
L 267.120656 284.119027 
L 266.429912 282.089579 
L 265.748161 280.060132 
L 265.069708 278.030684 
L 264.389558 276.001236 
L 263.704993 273.971789 
L 263.016819 271.942341 
L 262.330074 269.912893 
L 261.654023 267.883445 
L 261.001446 265.853998 
L 260.387332 263.82455 
L 259.827237 261.795102 
L 259.335589 259.765655 
L 258.924281 257.736207 
L 258.601772 255.706759 
L 258.372838 253.677312 
L 258.238941 251.647864 
L 258.199073 249.618416 
L 258.2508 247.588968 
L 258.391232 245.559521 
L 258.617656 243.530073 
L 258.927667 241.500625 
L 259.318771 239.471178 
L 259.787593 237.44173 
L 260.328879 235.412282 
L 260.934618 233.382835 
L 261.593526 231.353387 
L 262.291101 229.323939 
L 263.010329 227.294491 
L 263.732976 225.265044 
L 264.441273 223.235596 
L 265.119718 221.206148 
L 265.756697 219.176701 
L 266.345629 217.147253 
L 266.885455 215.117805 
L 267.380382 213.088358 
L 267.838947 211.05891 
L 268.27254 209.029462 
L 268.693642 207.000014 
L 269.114054 204.970567 
L 269.543347 202.941119 
L 269.987764 200.911671 
L 270.449662 198.882224 
L 270.927537 196.852776 
L 271.416547 194.823328 
L 271.909419 192.793881 
L 272.397558 190.764433 
L 272.872204 188.734985 
L 273.325463 186.705537 
L 273.751119 184.67609 
L 274.145149 182.646642 
L 274.505935 180.617194 
L 274.834178 178.587747 
L 275.132586 176.558299 
L 275.405384 174.528851 
L 275.657726 172.499404 
L 275.895082 170.469956 
L 276.122663 168.440508 
L 276.344923 166.411061 
L 276.565201 164.381613 
L 276.785496 162.352165 
L 277.006407 160.322717 
L 277.227212 158.29327 
L 277.446071 156.263822 
L 277.660318 154.234374 
L 277.86679 152.204927 
L 278.062175 150.175479 
L 278.243315 148.146031 
L 278.407461 146.116584 
L 278.552454 144.087136 
L 278.676823 142.057688 
L 278.779828 140.02824 
L 278.861438 137.998793 
L 278.922288 135.969345 
L 278.963605 133.939897 
L 278.987143 131.91045 
L 278.99511 129.881002 
L 278.990101 127.851554 
L 278.975018 125.822107 
L 278.952983 123.792659 
L 278.927218 121.763211 
L 278.900907 119.733763 
L 278.877027 117.704316 
L 278.858176 115.674868 
L 278.846414 113.64542 
L 278.843124 111.615973 
L 279.682937 111.615973 
L 279.682937 111.615973 
L 279.679647 113.64542 
L 279.667884 115.674868 
L 279.649034 117.704316 
L 279.625154 119.733763 
L 279.598843 121.763211 
L 279.573078 123.792659 
L 279.551043 125.822107 
L 279.53596 127.851554 
L 279.53095 129.881002 
L 279.538917 131.91045 
L 279.562455 133.939897 
L 279.603773 135.969345 
L 279.664622 137.998793 
L 279.746233 140.02824 
L 279.849237 142.057688 
L 279.973607 144.087136 
L 280.118599 146.116584 
L 280.282746 148.146031 
L 280.463886 150.175479 
L 280.65927 152.204927 
L 280.865743 154.234374 
L 281.079989 156.263822 
L 281.298849 158.29327 
L 281.519654 160.322717 
L 281.740564 162.352165 
L 281.960859 164.381613 
L 282.181137 166.411061 
L 282.403398 168.440508 
L 282.630978 170.469956 
L 282.868335 172.499404 
L 283.120676 174.528851 
L 283.393474 176.558299 
L 283.691883 178.587747 
L 284.020126 180.617194 
L 284.380912 182.646642 
L 284.774942 184.67609 
L 285.200598 186.705537 
L 285.653856 188.734985 
L 286.128503 190.764433 
L 286.616642 192.793881 
L 287.109514 194.823328 
L 287.598524 196.852776 
L 288.076399 198.882224 
L 288.538297 200.911671 
L 288.982713 202.941119 
L 289.412006 204.970567 
L 289.832418 207.000014 
L 290.253521 209.029462 
L 290.687113 211.05891 
L 291.145678 213.088358 
L 291.640606 215.117805 
L 292.180432 217.147253 
L 292.769364 219.176701 
L 293.406343 221.206148 
L 294.084788 223.235596 
L 294.793084 225.265044 
L 295.515732 227.294491 
L 296.23496 229.323939 
L 296.932535 231.353387 
L 297.591443 233.382835 
L 298.197182 235.412282 
L 298.738468 237.44173 
L 299.207289 239.471178 
L 299.598394 241.500625 
L 299.908404 243.530073 
L 300.134829 245.559521 
L 300.275261 247.588968 
L 300.326987 249.618416 
L 300.287119 251.647864 
L 300.153223 253.677312 
L 299.924289 255.706759 
L 299.60178 257.736207 
L 299.190471 259.765655 
L 298.698823 261.795102 
L 298.138728 263.82455 
L 297.524615 265.853998 
L 296.872037 267.883445 
L 296.195986 269.912893 
L 295.509241 271.942341 
L 294.821068 273.971789 
L 294.136502 276.001236 
L 293.456353 278.030684 
L 292.777899 280.060132 
L 292.096149 282.089579 
L 291.405405 284.119027 
L 290.700854 286.148475 
L 289.979898 288.177922 
L 289.243019 290.20737 
L 288.494049 292.236818 
L 287.739865 294.266265 
L 286.98959 296.295713 
L 286.253493 298.325161 
L 285.541799 300.354609 
L 284.863603 302.384056 
L 284.22607 304.413504 
L 283.633999 306.442952 
L 283.089767 308.472399 
L 282.593607 310.501847 
L 282.144106 312.531295 
L 282.144106 312.531295 
z
" clip-path="url(#pf85e7fe557)" style="fill: none; stroke: #4c72b0; stroke-width: 1.5"/>
   </g>
   <g id="PolyCollection_5">
    <path d="M 331.675931 310.749053 
L 325.371342 310.749053 
L 324.897425 308.737608 
L 324.384553 306.726163 
L 323.83288 304.714717 
L 323.242834 302.703272 
L 322.615254 300.691827 
L 321.951562 298.680382 
L 321.253947 296.668936 
L 320.525519 294.657491 
L 319.7704 292.646046 
L 318.993718 290.634601 
L 318.201482 288.623155 
L 317.400331 286.61171 
L 316.597181 284.600265 
L 315.798801 282.58882 
L 315.011377 280.577374 
L 314.240127 278.565929 
L 313.489035 276.554484 
L 312.76076 274.543039 
L 312.056751 272.531593 
L 311.377581 270.520148 
L 310.723475 268.508703 
L 310.094975 266.497257 
L 309.493662 264.485812 
L 308.922818 262.474367 
L 308.38795 260.462922 
L 307.897047 258.451476 
L 307.46052 256.440031 
L 307.090781 254.428586 
L 306.80148 252.417141 
L 306.606463 250.405695 
L 306.518556 248.39425 
L 306.548325 246.382805 
L 306.70296 244.37136 
L 306.985426 242.359914 
L 307.393998 240.348469 
L 307.922236 238.337024 
L 308.559399 236.325579 
L 309.291244 234.314133 
L 310.101096 232.302688 
L 310.971037 230.291243 
L 311.883075 228.279798 
L 312.820157 226.268352 
L 313.766919 224.256907 
L 314.710133 222.245462 
L 315.638855 220.234017 
L 316.544317 218.222571 
L 317.419661 216.211126 
L 318.25958 214.199681 
L 319.05999 212.188236 
L 319.817768 210.17679 
L 320.530607 208.165345 
L 321.196982 206.1539 
L 321.816199 204.142455 
L 322.388478 202.131009 
L 322.91501 200.119564 
L 323.397944 198.108119 
L 323.840264 196.096673 
L 324.245557 194.085228 
L 324.617684 192.073783 
L 324.960384 190.062338 
L 325.276884 188.050892 
L 325.569559 186.039447 
L 325.839701 184.028002 
L 326.087427 182.016557 
L 326.311765 180.005111 
L 326.510883 177.993666 
L 326.682462 175.982221 
L 326.824139 173.970776 
L 326.933988 171.95933 
L 327.010952 169.947885 
L 327.055197 167.93644 
L 327.068316 165.924995 
L 327.053385 163.913549 
L 327.014838 161.902104 
L 326.958201 159.890659 
L 326.889698 157.879214 
L 326.815785 155.867768 
L 326.742677 153.856323 
L 326.675893 151.844878 
L 326.619906 149.833433 
L 326.577904 147.821987 
L 326.551697 145.810542 
L 326.541767 143.799097 
L 326.547444 141.787652 
L 326.56718 139.776206 
L 326.598871 137.764761 
L 326.640202 135.753316 
L 326.688944 133.74187 
L 326.743206 131.730425 
L 326.80159 129.71898 
L 326.86325 127.707535 
L 326.927873 125.696089 
L 326.995569 123.684644 
L 327.066725 121.673199 
L 327.141819 119.661754 
L 327.221246 117.650308 
L 327.305161 115.638863 
L 327.393371 113.627418 
L 327.485282 111.615973 
L 329.56199 111.615973 
L 329.56199 111.615973 
L 329.653901 113.627418 
L 329.742112 115.638863 
L 329.826027 117.650308 
L 329.905453 119.661754 
L 329.980548 121.673199 
L 330.051704 123.684644 
L 330.1194 125.696089 
L 330.184022 127.707535 
L 330.245683 129.71898 
L 330.304066 131.730425 
L 330.358329 133.74187 
L 330.407071 135.753316 
L 330.448401 137.764761 
L 330.480093 139.776206 
L 330.499829 141.787652 
L 330.505506 143.799097 
L 330.495576 145.810542 
L 330.469369 147.821987 
L 330.427367 149.833433 
L 330.37138 151.844878 
L 330.304596 153.856323 
L 330.231487 155.867768 
L 330.157575 157.879214 
L 330.089071 159.890659 
L 330.032434 161.902104 
L 329.993888 163.913549 
L 329.978957 165.924995 
L 329.992076 167.93644 
L 330.036321 169.947885 
L 330.113285 171.95933 
L 330.223133 173.970776 
L 330.364811 175.982221 
L 330.53639 177.993666 
L 330.735508 180.005111 
L 330.959846 182.016557 
L 331.207572 184.028002 
L 331.477713 186.039447 
L 331.770389 188.050892 
L 332.086889 190.062338 
L 332.429589 192.073783 
L 332.801715 194.085228 
L 333.207009 196.096673 
L 333.649329 198.108119 
L 334.132263 200.119564 
L 334.658795 202.131009 
L 335.231074 204.142455 
L 335.850291 206.1539 
L 336.516666 208.165345 
L 337.229504 210.17679 
L 337.987283 212.188236 
L 338.787693 214.199681 
L 339.627612 216.211126 
L 340.502955 218.222571 
L 341.408418 220.234017 
L 342.337139 222.245462 
L 343.280354 224.256907 
L 344.227116 226.268352 
L 345.164198 228.279798 
L 346.076236 230.291243 
L 346.946176 232.302688 
L 347.756028 234.314133 
L 348.487874 236.325579 
L 349.125037 238.337024 
L 349.653275 240.348469 
L 350.061847 242.359914 
L 350.344313 244.37136 
L 350.498948 246.382805 
L 350.528717 248.39425 
L 350.440809 250.405695 
L 350.245792 252.417141 
L 349.956492 254.428586 
L 349.586753 256.440031 
L 349.150226 258.451476 
L 348.659323 260.462922 
L 348.124455 262.474367 
L 347.553611 264.485812 
L 346.952297 266.497257 
L 346.323798 268.508703 
L 345.669692 270.520148 
L 344.990522 272.531593 
L 344.286513 274.543039 
L 343.558238 276.554484 
L 342.807146 278.565929 
L 342.035896 280.577374 
L 341.248471 282.58882 
L 340.450091 284.600265 
L 339.646942 286.61171 
L 338.845791 288.623155 
L 338.053555 290.634601 
L 337.276873 292.646046 
L 336.521753 294.657491 
L 335.793325 296.668936 
L 335.09571 298.680382 
L 334.432019 300.691827 
L 333.804439 302.703272 
L 333.214393 304.714717 
L 332.66272 306.726163 
L 332.149848 308.737608 
L 331.675931 310.749053 
L 331.675931 310.749053 
z
" clip-path="url(#pf85e7fe557)" style="fill: none; stroke: #dd8452; stroke-width: 1.5"/>
   </g>
   <g id="PolyCollection_6">
    <path d="M 381.505106 310.657593 
L 374.063379 310.657593 
L 373.482947 307.806073 
L 372.885906 304.954554 
L 372.260088 302.103035 
L 371.583093 299.251516 
L 370.825477 296.399996 
L 369.956328 293.548477 
L 368.950188 290.696958 
L 367.793753 287.845439 
L 366.490656 284.99392 
L 365.063004 282.1424 
L 363.549151 279.290881 
L 361.998235 276.439362 
L 360.463016 273.587843 
L 358.993057 270.736324 
L 357.630128 267.884804 
L 356.406832 265.033285 
L 355.348205 262.181766 
L 354.474904 259.330247 
L 353.80607 256.478727 
L 353.360267 253.627208 
L 353.153939 250.775689 
L 353.198055 247.92417 
L 353.494533 245.072651 
L 354.034128 242.221131 
L 354.796803 239.369612 
L 355.754439 236.518093 
L 356.874698 233.666574 
L 358.124438 230.815055 
L 359.471426 227.963535 
L 360.884049 225.112016 
L 362.329797 222.260497 
L 363.773924 219.408978 
L 365.179632 216.557458 
L 366.510372 213.705939 
L 367.733815 210.85442 
L 368.826208 208.002901 
L 369.775547 205.151382 
L 370.582438 202.299862 
L 371.258375 199.448343 
L 371.822106 196.596824 
L 372.295339 193.745305 
L 372.699112 190.893786 
L 373.051653 188.042266 
L 373.3679 185.190747 
L 373.66018 182.339228 
L 373.939232 179.487709 
L 374.214834 176.636189 
L 374.495616 173.78467 
L 374.788132 170.933151 
L 375.095619 168.081632 
L 375.417036 165.230113 
L 375.746855 162.378593 
L 376.075834 159.527074 
L 376.39262 156.675555 
L 376.685797 153.824036 
L 376.945844 150.972517 
L 377.166541 148.120997 
L 377.345577 145.269478 
L 377.484331 142.417959 
L 377.587033 139.56644 
L 377.659624 136.71492 
L 377.708619 133.863401 
L 377.740197 131.011882 
L 377.759632 128.160363 
L 377.771056 125.308844 
L 377.777469 122.457324 
L 377.780908 119.605805 
L 377.78267 116.754286 
L 377.783532 113.902767 
L 377.783935 111.051247 
L 377.784115 108.199728 
L 377.784192 105.348209 
L 377.784223 102.49669 
L 377.784235 99.645171 
L 377.784239 96.793651 
L 377.784238 93.942132 
L 377.784233 91.090613 
L 377.784218 88.239094 
L 377.784181 85.387575 
L 377.784097 82.536055 
L 377.783913 79.684536 
L 377.783529 76.833017 
L 377.782763 73.981498 
L 377.781307 71.129978 
L 377.77867 68.278459 
L 377.774122 65.42694 
L 377.766657 62.575421 
L 377.755006 59.723902 
L 377.73774 56.872382 
L 377.713474 54.020863 
L 377.681202 51.169344 
L 377.640701 48.317825 
L 377.592926 45.466306 
L 377.540275 42.614786 
L 377.486587 39.763267 
L 377.436786 36.911748 
L 377.39619 34.060229 
L 377.369589 31.208709 
L 377.360323 28.35719 
L 378.208161 28.35719 
L 378.208161 28.35719 
L 378.198895 31.208709 
L 378.172295 34.060229 
L 378.131699 36.911748 
L 378.081898 39.763267 
L 378.02821 42.614786 
L 377.975559 45.466306 
L 377.927784 48.317825 
L 377.887283 51.169344 
L 377.855011 54.020863 
L 377.830745 56.872382 
L 377.813478 59.723902 
L 377.801828 62.575421 
L 377.794363 65.42694 
L 377.789815 68.278459 
L 377.787178 71.129978 
L 377.785722 73.981498 
L 377.784956 76.833017 
L 377.784572 79.684536 
L 377.784388 82.536055 
L 377.784304 85.387575 
L 377.784267 88.239094 
L 377.784252 91.090613 
L 377.784247 93.942132 
L 377.784246 96.793651 
L 377.78425 99.645171 
L 377.784262 102.49669 
L 377.784293 105.348209 
L 377.78437 108.199728 
L 377.78455 111.051247 
L 377.784953 113.902767 
L 377.785815 116.754286 
L 377.787577 119.605805 
L 377.791016 122.457324 
L 377.797429 125.308844 
L 377.808853 128.160363 
L 377.828288 131.011882 
L 377.859865 133.863401 
L 377.908861 136.71492 
L 377.981452 139.56644 
L 378.084154 142.417959 
L 378.222908 145.269478 
L 378.401944 148.120997 
L 378.622641 150.972517 
L 378.882688 153.824036 
L 379.175865 156.675555 
L 379.492651 159.527074 
L 379.821629 162.378593 
L 380.151449 165.230113 
L 380.472866 168.081632 
L 380.780353 170.933151 
L 381.072869 173.78467 
L 381.35365 176.636189 
L 381.629253 179.487709 
L 381.908305 182.339228 
L 382.200585 185.190747 
L 382.516832 188.042266 
L 382.869373 190.893786 
L 383.273145 193.745305 
L 383.746379 196.596824 
L 384.31011 199.448343 
L 384.986047 202.299862 
L 385.792938 205.151382 
L 386.742277 208.002901 
L 387.83467 210.85442 
L 389.058113 213.705939 
L 390.388853 216.557458 
L 391.794561 219.408978 
L 393.238688 222.260497 
L 394.684436 225.112016 
L 396.097059 227.963535 
L 397.444047 230.815055 
L 398.693787 233.666574 
L 399.814046 236.518093 
L 400.771682 239.369612 
L 401.534357 242.221131 
L 402.073952 245.072651 
L 402.370429 247.92417 
L 402.414545 250.775689 
L 402.208217 253.627208 
L 401.762415 256.478727 
L 401.093581 259.330247 
L 400.22028 262.181766 
L 399.161653 265.033285 
L 397.938357 267.884804 
L 396.575428 270.736324 
L 395.105469 273.587843 
L 393.570249 276.439362 
L 392.019333 279.290881 
L 390.505481 282.1424 
L 389.077829 284.99392 
L 387.774732 287.845439 
L 386.618297 290.696958 
L 385.612157 293.548477 
L 384.743008 296.399996 
L 383.985392 299.251516 
L 383.308397 302.103035 
L 382.682579 304.954554 
L 382.085538 307.806073 
L 381.505106 310.657593 
L 381.505106 310.657593 
z
" clip-path="url(#pf85e7fe557)" style="fill: none; stroke: #55a868; stroke-width: 1.5"/>
   </g>
   <g id="patch_3">
    <path d="M 143.796364 312.531295 
L 143.796364 312.531295 
L 143.796364 312.531295 
L 143.796364 312.531295 
L 143.796364 312.531295 
z
" clip-path="url(#pf85e7fe557)" style="fill: none; stroke: #4c72b0; stroke-width: 1.5; stroke-linejoin: miter"/>
   </g>
   <g id="patch_4">
    <path d="M 143.796364 312.531295 
L 143.796364 312.531295 
L 143.796364 312.531295 
L 143.796364 312.531295 
L 143.796364 312.531295 
z
" clip-path="url(#pf85e7fe557)" style="fill: none; stroke: #dd8452; stroke-width: 1.5; stroke-linejoin: miter"/>
   </g>
   <g id="patch_5">
    <path d="M 143.796364 312.531295 
L 143.796364 312.531295 
L 143.796364 312.531295 
L 143.796364 312.531295 
L 143.796364 312.531295 
z
" clip-path="url(#pf85e7fe557)" style="fill: none; stroke: #55a868; stroke-width: 1.5; stroke-linejoin: miter"/>
   </g>
   <g id="line2d_9">
    <path d="M 94.535758 312.236337 
L 94.535758 183.215617 
" clip-path="url(#pf85e7fe557)" style="fill: none; stroke: #4c72b0; stroke-width: 2.25; stroke-linecap: round"/>
   </g>
   <g id="line2d_10">
    <path d="M 94.535758 263.384577 
L 94.535758 228.008543 
" clip-path="url(#pf85e7fe557)" style="fill: none; stroke: #4c72b0; stroke-width: 6.75; stroke-linecap: round"/>
   </g>
   <g id="line2d_11">
    <path d="M 94.535758 240.960992 
" clip-path="url(#pf85e7fe557)" style="fill: none; stroke: #4c72b0; stroke-width: 1.5; stroke-linecap: round"/>
    <defs>
     <path id="m59747d6b92" d="M 2.8125 0 
L -2.8125 -0 
" style="stroke: #ffffff; stroke-width: 1.35"/>
    </defs>
    <g clip-path="url(#pf85e7fe557)">
     <use xlink:href="#m59747d6b92" x="94.535758" y="240.960992" style="fill: #ffffff; stroke: #ffffff; stroke-width: 1.35"/>
    </g>
   </g>
   <g id="line2d_12">
    <path d="M 143.796364 312.511597 
L 143.796364 181.917634 
" clip-path="url(#pf85e7fe557)" style="fill: none; stroke: #dd8452; stroke-width: 2.25; stroke-linecap: round"/>
   </g>
   <g id="line2d_13">
    <path d="M 143.796364 265.412065 
L 143.796364 228.365604 
" clip-path="url(#pf85e7fe557)" style="fill: none; stroke: #dd8452; stroke-width: 6.75; stroke-linecap: round"/>
   </g>
   <g id="line2d_14">
    <path d="M 143.796364 249.945959 
" clip-path="url(#pf85e7fe557)" style="fill: none; stroke: #dd8452; stroke-width: 1.5; stroke-linecap: round"/>
    <g clip-path="url(#pf85e7fe557)">
     <use xlink:href="#m59747d6b92" x="143.796364" y="249.945959" style="fill: #ffffff; stroke: #ffffff; stroke-width: 1.35"/>
    </g>
   </g>
   <g id="line2d_15">
    <path d="M 193.05697 312.491018 
L 193.05697 147.316631 
" clip-path="url(#pf85e7fe557)" style="fill: none; stroke: #55a868; stroke-width: 2.25; stroke-linecap: round"/>
   </g>
   <g id="line2d_16">
    <path d="M 193.05697 266.225439 
L 193.05697 218.363343 
" clip-path="url(#pf85e7fe557)" style="fill: none; stroke: #55a868; stroke-width: 6.75; stroke-linecap: round"/>
   </g>
   <g id="line2d_17">
    <path d="M 193.05697 246.377479 
" clip-path="url(#pf85e7fe557)" style="fill: none; stroke: #55a868; stroke-width: 1.5; stroke-linecap: round"/>
    <g clip-path="url(#pf85e7fe557)">
     <use xlink:href="#m59747d6b92" x="193.05697" y="246.377479" style="fill: #ffffff; stroke: #ffffff; stroke-width: 1.35"/>
    </g>
   </g>
   <g id="line2d_18">
    <path d="M 279.26303 312.531295 
L 279.26303 163.855725 
" clip-path="url(#pf85e7fe557)" style="fill: none; stroke: #4c72b0; stroke-width: 2.25; stroke-linecap: round"/>
   </g>
   <g id="line2d_19">
    <path d="M 279.26303 263.744059 
L 279.26303 222.868059 
" clip-path="url(#pf85e7fe557)" style="fill: none; stroke: #4c72b0; stroke-width: 6.75; stroke-linecap: round"/>
   </g>
   <g id="line2d_20">
    <path d="M 279.26303 246.108963 
" clip-path="url(#pf85e7fe557)" style="fill: none; stroke: #4c72b0; stroke-width: 1.5; stroke-linecap: round"/>
    <g clip-path="url(#pf85e7fe557)">
     <use xlink:href="#m59747d6b92" x="279.26303" y="246.108963" style="fill: #ffffff; stroke: #ffffff; stroke-width: 1.35"/>
    </g>
   </g>
   <g id="line2d_21">
    <path d="M 328.523636 310.749053 
L 328.523636 183.565003 
" clip-path="url(#pf85e7fe557)" style="fill: none; stroke: #dd8452; stroke-width: 2.25; stroke-linecap: round"/>
   </g>
   <g id="line2d_22">
    <path d="M 328.523636 268.071869 
L 328.523636 228.601416 
" clip-path="url(#pf85e7fe557)" style="fill: none; stroke: #dd8452; stroke-width: 6.75; stroke-linecap: round"/>
   </g>
   <g id="line2d_23">
    <path d="M 328.523636 246.204428 
" clip-path="url(#pf85e7fe557)" style="fill: none; stroke: #dd8452; stroke-width: 1.5; stroke-linecap: round"/>
    <g clip-path="url(#pf85e7fe557)">
     <use xlink:href="#m59747d6b92" x="328.523636" y="246.204428" style="fill: #ffffff; stroke: #ffffff; stroke-width: 1.35"/>
    </g>
   </g>
   <g id="line2d_24">
    <path d="M 377.784242 310.657593 
L 377.784242 166.148477 
" clip-path="url(#pf85e7fe557)" style="fill: none; stroke: #55a868; stroke-width: 2.25; stroke-linecap: round"/>
   </g>
   <g id="line2d_25">
    <path d="M 377.784242 267.583735 
L 377.784242 226.839748 
" clip-path="url(#pf85e7fe557)" style="fill: none; stroke: #55a868; stroke-width: 6.75; stroke-linecap: round"/>
   </g>
   <g id="line2d_26">
    <path d="M 377.784242 247.552547 
" clip-path="url(#pf85e7fe557)" style="fill: none; stroke: #55a868; stroke-width: 1.5; stroke-linecap: round"/>
    <g clip-path="url(#pf85e7fe557)">
     <use xlink:href="#m59747d6b92" x="377.784242" y="247.552547" style="fill: #ffffff; stroke: #ffffff; stroke-width: 1.35"/>
    </g>
   </g>
   <g id="patch_6">
    <path d="M 53.28 326.74 
L 53.28 14.148485 
" style="fill: none; stroke: #ffffff; stroke-width: 1.25; stroke-linejoin: miter; stroke-linecap: square"/>
   </g>
   <g id="patch_7">
    <path d="M 419.04 326.74 
L 419.04 14.148485 
" style="fill: none; stroke: #ffffff; stroke-width: 1.25; stroke-linejoin: miter; stroke-linecap: square"/>
   </g>
   <g id="patch_8">
    <path d="M 53.28 326.74 
L 419.04 326.74 
" style="fill: none; stroke: #ffffff; stroke-width: 1.25; stroke-linejoin: miter; stroke-linecap: square"/>
   </g>
   <g id="patch_9">
    <path d="M 53.28 14.148485 
L 419.04 14.148485 
" style="fill: none; stroke: #ffffff; stroke-width: 1.25; stroke-linejoin: miter; stroke-linecap: square"/>
   </g>
   <g id="legend_1">
    <g id="patch_10">
     <path d="M 60.98 87.532235 
L 141.716563 87.532235 
Q 143.916562 87.532235 143.916562 85.332235 
L 143.916562 21.848485 
Q 143.916562 19.648485 141.716563 19.648485 
L 60.98 19.648485 
Q 58.78 19.648485 58.78 21.848485 
L 58.78 85.332235 
Q 58.78 87.532235 60.98 87.532235 
z
" style="fill: #eaeaf2; opacity: 0.8; stroke: #cccccc; stroke-linejoin: miter"/>
    </g>
    <g id="patch_11">
     <path d="M 63.18 32.406766 
L 85.18 32.406766 
L 85.18 24.706766 
L 63.18 24.706766 
L 63.18 32.406766 
z
" style="fill: none; stroke: #4c72b0; stroke-width: 1.5; stroke-linejoin: miter"/>
    </g>
    <g id="text_12">
     <!-- Distant -->
     <g style="fill: #262626" transform="translate(93.98 32.406766) scale(0.11 -0.11)">
      <defs>
       <path id="DejaVuSans-44" d="M 1259 4147 
L 1259 519 
L 2022 519 
Q 2988 519 3436 956 
Q 3884 1394 3884 2338 
Q 3884 3275 3436 3711 
Q 2988 4147 2022 4147 
L 1259 4147 
z
M 628 4666 
L 1925 4666 
Q 3281 4666 3915 4102 
Q 4550 3538 4550 2338 
Q 4550 1131 3912 565 
Q 3275 0 1925 0 
L 628 0 
L 628 4666 
z
" transform="scale(0.015625)"/>
      </defs>
      <use xlink:href="#DejaVuSans-44"/>
      <use xlink:href="#DejaVuSans-69" x="77.001953"/>
      <use xlink:href="#DejaVuSans-73" x="104.785156"/>
      <use xlink:href="#DejaVuSans-74" x="156.884766"/>
      <use xlink:href="#DejaVuSans-61" x="196.09375"/>
      <use xlink:href="#DejaVuSans-6e" x="257.373047"/>
      <use xlink:href="#DejaVuSans-74" x="320.751953"/>
     </g>
    </g>
    <g id="patch_12">
     <path d="M 63.18 48.552704 
L 85.18 48.552704 
L 85.18 40.852704 
L 63.18 40.852704 
L 63.18 48.552704 
z
" style="fill: none; stroke: #dd8452; stroke-width: 1.5; stroke-linejoin: miter"/>
    </g>
    <g id="text_13">
     <!-- Random -->
     <g style="fill: #262626" transform="translate(93.98 48.552704) scale(0.11 -0.11)">
      <use xlink:href="#DejaVuSans-52"/>
      <use xlink:href="#DejaVuSans-61" x="67.232422"/>
      <use xlink:href="#DejaVuSans-6e" x="128.511719"/>
      <use xlink:href="#DejaVuSans-64" x="191.890625"/>
      <use xlink:href="#DejaVuSans-6f" x="255.367188"/>
      <use xlink:href="#DejaVuSans-6d" x="316.548828"/>
     </g>
    </g>
    <g id="patch_13">
     <path d="M 63.18 64.698641 
L 85.18 64.698641 
L 85.18 56.998641 
L 63.18 56.998641 
L 63.18 64.698641 
z
" style="fill: none; stroke: #55a868; stroke-width: 1.5; stroke-linejoin: miter"/>
    </g>
    <g id="text_14">
     <!-- Similar -->
     <g style="fill: #262626" transform="translate(93.98 64.698641) scale(0.11 -0.11)">
      <defs>
       <path id="DejaVuSans-53" d="M 3425 4513 
L 3425 3897 
Q 3066 4069 2747 4153 
Q 2428 4238 2131 4238 
Q 1616 4238 1336 4038 
Q 1056 3838 1056 3469 
Q 1056 3159 1242 3001 
Q 1428 2844 1947 2747 
L 2328 2669 
Q 3034 2534 3370 2195 
Q 3706 1856 3706 1288 
Q 3706 609 3251 259 
Q 2797 -91 1919 -91 
Q 1588 -91 1214 -16 
Q 841 59 441 206 
L 441 856 
Q 825 641 1194 531 
Q 1563 422 1919 422 
Q 2459 422 2753 634 
Q 3047 847 3047 1241 
Q 3047 1584 2836 1778 
Q 2625 1972 2144 2069 
L 1759 2144 
Q 1053 2284 737 2584 
Q 422 2884 422 3419 
Q 422 4038 858 4394 
Q 1294 4750 2059 4750 
Q 2388 4750 2728 4690 
Q 3069 4631 3425 4513 
z
" transform="scale(0.015625)"/>
       <path id="DejaVuSans-6c" d="M 603 4863 
L 1178 4863 
L 1178 0 
L 603 0 
L 603 4863 
z
" transform="scale(0.015625)"/>
      </defs>
      <use xlink:href="#DejaVuSans-53"/>
      <use xlink:href="#DejaVuSans-69" x="63.476562"/>
      <use xlink:href="#DejaVuSans-6d" x="91.259766"/>
      <use xlink:href="#DejaVuSans-69" x="188.671875"/>
      <use xlink:href="#DejaVuSans-6c" x="216.455078"/>
      <use xlink:href="#DejaVuSans-61" x="244.238281"/>
      <use xlink:href="#DejaVuSans-72" x="305.517578"/>
     </g>
    </g>
    <g id="PathCollection_1">
     <defs>
      <path id="mb7790a742d" d="M 0 3 
C 0.795609 3 1.55874 2.683901 2.12132 2.12132 
C 2.683901 1.55874 3 0.795609 3 0 
C 3 -0.795609 2.683901 -1.55874 2.12132 -2.12132 
C 1.55874 -2.683901 0.795609 -3 0 -3 
C -0.795609 -3 -1.55874 -2.683901 -2.12132 -2.12132 
C -2.683901 -1.55874 -3 -0.795609 -3 0 
C -3 0.795609 -2.683901 1.55874 -2.12132 2.12132 
C -1.55874 2.683901 -0.795609 3 0 3 
z
" style="stroke: #000000; stroke-opacity: 0.7"/>
     </defs>
     <g>
      <use xlink:href="#mb7790a742d" x="74.18" y="77.957079" style="fill-opacity: 0.7; stroke: #000000; stroke-opacity: 0.7"/>
     </g>
    </g>
    <g id="text_15">
     <!-- Mean -->
     <g style="fill: #262626" transform="translate(93.98 80.844579) scale(0.11 -0.11)">
      <use xlink:href="#DejaVuSans-4d"/>
      <use xlink:href="#DejaVuSans-65" x="86.279297"/>
      <use xlink:href="#DejaVuSans-61" x="147.802734"/>
      <use xlink:href="#DejaVuSans-6e" x="209.082031"/>
     </g>
    </g>
   </g>
   <g id="PathCollection_2">
    <g clip-path="url(#pf85e7fe557)">
     <use xlink:href="#mb7790a742d" x="279.201455" y="242.521571" style="fill-opacity: 0.7; stroke: #000000; stroke-opacity: 0.7"/>
    </g>
   </g>
   <g id="PathCollection_3">
    <g clip-path="url(#pf85e7fe557)">
     <use xlink:href="#mb7790a742d" x="328.523636" y="243.092715" style="fill-opacity: 0.7; stroke: #000000; stroke-opacity: 0.7"/>
    </g>
   </g>
   <g id="PathCollection_4">
    <g clip-path="url(#pf85e7fe557)">
     <use xlink:href="#mb7790a742d" x="377.845818" y="244.69936" style="fill-opacity: 0.7; stroke: #000000; stroke-opacity: 0.7"/>
    </g>
   </g>
   <g id="PathCollection_5">
    <g clip-path="url(#pf85e7fe557)">
     <use xlink:href="#mb7790a742d" x="94.474182" y="241.701616" style="fill-opacity: 0.7; stroke: #000000; stroke-opacity: 0.7"/>
    </g>
   </g>
   <g id="PathCollection_6">
    <g clip-path="url(#pf85e7fe557)">
     <use xlink:href="#mb7790a742d" x="143.796364" y="248.631744" style="fill-opacity: 0.7; stroke: #000000; stroke-opacity: 0.7"/>
    </g>
   </g>
   <g id="PathCollection_7">
    <g clip-path="url(#pf85e7fe557)">
     <use xlink:href="#mb7790a742d" x="193.118545" y="236.134971" style="fill-opacity: 0.7; stroke: #000000; stroke-opacity: 0.7"/>
    </g>
   </g>
  </g>
 </g>
 <defs>
  <clipPath id="pf85e7fe557">
   <rect x="53.28" y="14.148485" width="365.76" height="312.591515"/>
  </clipPath>
 </defs>
</svg>
