<?xml version="1.0" encoding="utf-8" standalone="no"?>
<!DOCTYPE svg PUBLIC "-//W3C//DTD SVG 1.1//EN"
  "http://www.w3.org/Graphics/SVG/1.1/DTD/svg11.dtd">
<svg xmlns:xlink="http://www.w3.org/1999/xlink" width="432pt" height="360pt" viewBox="0 0 432 360" xmlns="http://www.w3.org/2000/svg" version="1.1">
 <metadata>
  <rdf:RDF xmlns:dc="http://purl.org/dc/elements/1.1/" xmlns:cc="http://creativecommons.org/ns#" xmlns:rdf="http://www.w3.org/1999/02/22-rdf-syntax-ns#">
   <cc:Work>
    <dc:type rdf:resource="http://purl.org/dc/dcmitype/StillImage"/>
    <dc:date>2025-05-19T12:34:19.886222</dc:date>
    <dc:format>image/svg+xml</dc:format>
    <dc:creator>
     <cc:Agent>
      <dc:title>Matplotlib v3.9.2, https://matplotlib.org/</dc:title>
     </cc:Agent>
    </dc:creator>
   </cc:Work>
  </rdf:RDF>
 </metadata>
 <defs>
  <style type="text/css">*{stroke-linejoin: round; stroke-linecap: butt}</style>
 </defs>
 <g id="figure_1">
  <g id="patch_1">
   <path d="M 0 360 
L 432 360 
L 432 0 
L 0 0 
z
" style="fill: #ffffff"/>
  </g>
  <g id="axes_1">
   <g id="patch_2">
    <path d="M 53.37 326.74 
L 419.04 326.74 
L 419.04 12.96 
L 53.37 12.96 
z
" style="fill: #eaeaf2"/>
   </g>
   <g id="matplotlib.axis_1">
    <g id="xtick_1">
     <g id="text_1">
      <!-- 50 Most active users -->
      <g style="fill: #262626" transform="translate(89.744691 344.598281) scale(0.11 -0.11)">
       <defs>
        <path id="DejaVuSans-35" d="M 691 4666 
L 3169 4666 
L 3169 4134 
L 1269 4134 
L 1269 2991 
Q 1406 3038 1543 3061 
Q 1681 3084 1819 3084 
Q 2600 3084 3056 2656 
Q 3513 2228 3513 1497 
Q 3513 744 3044 326 
Q 2575 -91 1722 -91 
Q 1428 -91 1123 -41 
Q 819 9 494 109 
L 494 744 
Q 775 591 1075 516 
Q 1375 441 1709 441 
Q 2250 441 2565 725 
Q 2881 1009 2881 1497 
Q 2881 1984 2565 2268 
Q 2250 2553 1709 2553 
Q 1456 2553 1204 2497 
Q 953 2441 691 2322 
L 691 4666 
z
" transform="scale(0.015625)"/>
        <path id="DejaVuSans-30" d="M 2034 4250 
Q 1547 4250 1301 3770 
Q 1056 3291 1056 2328 
Q 1056 1369 1301 889 
Q 1547 409 2034 409 
Q 2525 409 2770 889 
Q 3016 1369 3016 2328 
Q 3016 3291 2770 3770 
Q 2525 4250 2034 4250 
z
M 2034 4750 
Q 2819 4750 3233 4129 
Q 3647 3509 3647 2328 
Q 3647 1150 3233 529 
Q 2819 -91 2034 -91 
Q 1250 -91 836 529 
Q 422 1150 422 2328 
Q 422 3509 836 4129 
Q 1250 4750 2034 4750 
z
" transform="scale(0.015625)"/>
        <path id="DejaVuSans-20" transform="scale(0.015625)"/>
        <path id="DejaVuSans-4d" d="M 628 4666 
L 1569 4666 
L 2759 1491 
L 3956 4666 
L 4897 4666 
L 4897 0 
L 4281 0 
L 4281 4097 
L 3078 897 
L 2444 897 
L 1241 4097 
L 1241 0 
L 628 0 
L 628 4666 
z
" transform="scale(0.015625)"/>
        <path id="DejaVuSans-6f" d="M 1959 3097 
Q 1497 3097 1228 2736 
Q 959 2375 959 1747 
Q 959 1119 1226 758 
Q 1494 397 1959 397 
Q 2419 397 2687 759 
Q 2956 1122 2956 1747 
Q 2956 2369 2687 2733 
Q 2419 3097 1959 3097 
z
M 1959 3584 
Q 2709 3584 3137 3096 
Q 3566 2609 3566 1747 
Q 3566 888 3137 398 
Q 2709 -91 1959 -91 
Q 1206 -91 779 398 
Q 353 888 353 1747 
Q 353 2609 779 3096 
Q 1206 3584 1959 3584 
z
" transform="scale(0.015625)"/>
        <path id="DejaVuSans-73" d="M 2834 3397 
L 2834 2853 
Q 2591 2978 2328 3040 
Q 2066 3103 1784 3103 
Q 1356 3103 1142 2972 
Q 928 2841 928 2578 
Q 928 2378 1081 2264 
Q 1234 2150 1697 2047 
L 1894 2003 
Q 2506 1872 2764 1633 
Q 3022 1394 3022 966 
Q 3022 478 2636 193 
Q 2250 -91 1575 -91 
Q 1294 -91 989 -36 
Q 684 19 347 128 
L 347 722 
Q 666 556 975 473 
Q 1284 391 1588 391 
Q 1994 391 2212 530 
Q 2431 669 2431 922 
Q 2431 1156 2273 1281 
Q 2116 1406 1581 1522 
L 1381 1569 
Q 847 1681 609 1914 
Q 372 2147 372 2553 
Q 372 3047 722 3315 
Q 1072 3584 1716 3584 
Q 2034 3584 2315 3537 
Q 2597 3491 2834 3397 
z
" transform="scale(0.015625)"/>
        <path id="DejaVuSans-74" d="M 1172 4494 
L 1172 3500 
L 2356 3500 
L 2356 3053 
L 1172 3053 
L 1172 1153 
Q 1172 725 1289 603 
Q 1406 481 1766 481 
L 2356 481 
L 2356 0 
L 1766 0 
Q 1100 0 847 248 
Q 594 497 594 1153 
L 594 3053 
L 172 3053 
L 172 3500 
L 594 3500 
L 594 4494 
L 1172 4494 
z
" transform="scale(0.015625)"/>
        <path id="DejaVuSans-61" d="M 2194 1759 
Q 1497 1759 1228 1600 
Q 959 1441 959 1056 
Q 959 750 1161 570 
Q 1363 391 1709 391 
Q 2188 391 2477 730 
Q 2766 1069 2766 1631 
L 2766 1759 
L 2194 1759 
z
M 3341 1997 
L 3341 0 
L 2766 0 
L 2766 531 
Q 2569 213 2275 61 
Q 1981 -91 1556 -91 
Q 1019 -91 701 211 
Q 384 513 384 1019 
Q 384 1609 779 1909 
Q 1175 2209 1959 2209 
L 2766 2209 
L 2766 2266 
Q 2766 2663 2505 2880 
Q 2244 3097 1772 3097 
Q 1472 3097 1187 3025 
Q 903 2953 641 2809 
L 641 3341 
Q 956 3463 1253 3523 
Q 1550 3584 1831 3584 
Q 2591 3584 2966 3190 
Q 3341 2797 3341 1997 
z
" transform="scale(0.015625)"/>
        <path id="DejaVuSans-63" d="M 3122 3366 
L 3122 2828 
Q 2878 2963 2633 3030 
Q 2388 3097 2138 3097 
Q 1578 3097 1268 2742 
Q 959 2388 959 1747 
Q 959 1106 1268 751 
Q 1578 397 2138 397 
Q 2388 397 2633 464 
Q 2878 531 3122 666 
L 3122 134 
Q 2881 22 2623 -34 
Q 2366 -91 2075 -91 
Q 1284 -91 818 406 
Q 353 903 353 1747 
Q 353 2603 823 3093 
Q 1294 3584 2113 3584 
Q 2378 3584 2631 3529 
Q 2884 3475 3122 3366 
z
" transform="scale(0.015625)"/>
        <path id="DejaVuSans-69" d="M 603 3500 
L 1178 3500 
L 1178 0 
L 603 0 
L 603 3500 
z
M 603 4863 
L 1178 4863 
L 1178 4134 
L 603 4134 
L 603 4863 
z
" transform="scale(0.015625)"/>
        <path id="DejaVuSans-76" d="M 191 3500 
L 800 3500 
L 1894 563 
L 2988 3500 
L 3597 3500 
L 2284 0 
L 1503 0 
L 191 3500 
z
" transform="scale(0.015625)"/>
        <path id="DejaVuSans-65" d="M 3597 1894 
L 3597 1613 
L 953 1613 
Q 991 1019 1311 708 
Q 1631 397 2203 397 
Q 2534 397 2845 478 
Q 3156 559 3463 722 
L 3463 178 
Q 3153 47 2828 -22 
Q 2503 -91 2169 -91 
Q 1331 -91 842 396 
Q 353 884 353 1716 
Q 353 2575 817 3079 
Q 1281 3584 2069 3584 
Q 2775 3584 3186 3129 
Q 3597 2675 3597 1894 
z
M 3022 2063 
Q 3016 2534 2758 2815 
Q 2500 3097 2075 3097 
Q 1594 3097 1305 2825 
Q 1016 2553 972 2059 
L 3022 2063 
z
" transform="scale(0.015625)"/>
        <path id="DejaVuSans-75" d="M 544 1381 
L 544 3500 
L 1119 3500 
L 1119 1403 
Q 1119 906 1312 657 
Q 1506 409 1894 409 
Q 2359 409 2629 706 
Q 2900 1003 2900 1516 
L 2900 3500 
L 3475 3500 
L 3475 0 
L 2900 0 
L 2900 538 
Q 2691 219 2414 64 
Q 2138 -91 1772 -91 
Q 1169 -91 856 284 
Q 544 659 544 1381 
z
M 1991 3584 
L 1991 3584 
z
" transform="scale(0.015625)"/>
        <path id="DejaVuSans-72" d="M 2631 2963 
Q 2534 3019 2420 3045 
Q 2306 3072 2169 3072 
Q 1681 3072 1420 2755 
Q 1159 2438 1159 1844 
L 1159 0 
L 581 0 
L 581 3500 
L 1159 3500 
L 1159 2956 
Q 1341 3275 1631 3429 
Q 1922 3584 2338 3584 
Q 2397 3584 2469 3576 
Q 2541 3569 2628 3553 
L 2631 2963 
z
" transform="scale(0.015625)"/>
       </defs>
       <use xlink:href="#DejaVuSans-35"/>
       <use xlink:href="#DejaVuSans-30" x="63.623047"/>
       <use xlink:href="#DejaVuSans-20" x="127.246094"/>
       <use xlink:href="#DejaVuSans-4d" x="159.033203"/>
       <use xlink:href="#DejaVuSans-6f" x="245.3125"/>
       <use xlink:href="#DejaVuSans-73" x="306.494141"/>
       <use xlink:href="#DejaVuSans-74" x="358.59375"/>
       <use xlink:href="#DejaVuSans-20" x="397.802734"/>
       <use xlink:href="#DejaVuSans-61" x="429.589844"/>
       <use xlink:href="#DejaVuSans-63" x="490.869141"/>
       <use xlink:href="#DejaVuSans-74" x="545.849609"/>
       <use xlink:href="#DejaVuSans-69" x="585.058594"/>
       <use xlink:href="#DejaVuSans-76" x="612.841797"/>
       <use xlink:href="#DejaVuSans-65" x="672.021484"/>
       <use xlink:href="#DejaVuSans-20" x="733.544922"/>
       <use xlink:href="#DejaVuSans-75" x="765.332031"/>
       <use xlink:href="#DejaVuSans-73" x="828.710938"/>
       <use xlink:href="#DejaVuSans-65" x="880.810547"/>
       <use xlink:href="#DejaVuSans-72" x="942.333984"/>
       <use xlink:href="#DejaVuSans-73" x="983.447266"/>
      </g>
     </g>
    </g>
    <g id="xtick_2">
     <g id="text_2">
      <!-- 200 Random users -->
      <g style="fill: #262626" transform="translate(286.84426 344.598281) scale(0.11 -0.11)">
       <defs>
        <path id="DejaVuSans-32" d="M 1228 531 
L 3431 531 
L 3431 0 
L 469 0 
L 469 531 
Q 828 903 1448 1529 
Q 2069 2156 2228 2338 
Q 2531 2678 2651 2914 
Q 2772 3150 2772 3378 
Q 2772 3750 2511 3984 
Q 2250 4219 1831 4219 
Q 1534 4219 1204 4116 
Q 875 4013 500 3803 
L 500 4441 
Q 881 4594 1212 4672 
Q 1544 4750 1819 4750 
Q 2544 4750 2975 4387 
Q 3406 4025 3406 3419 
Q 3406 3131 3298 2873 
Q 3191 2616 2906 2266 
Q 2828 2175 2409 1742 
Q 1991 1309 1228 531 
z
" transform="scale(0.015625)"/>
        <path id="DejaVuSans-52" d="M 2841 2188 
Q 3044 2119 3236 1894 
Q 3428 1669 3622 1275 
L 4263 0 
L 3584 0 
L 2988 1197 
Q 2756 1666 2539 1819 
Q 2322 1972 1947 1972 
L 1259 1972 
L 1259 0 
L 628 0 
L 628 4666 
L 2053 4666 
Q 2853 4666 3247 4331 
Q 3641 3997 3641 3322 
Q 3641 2881 3436 2590 
Q 3231 2300 2841 2188 
z
M 1259 4147 
L 1259 2491 
L 2053 2491 
Q 2509 2491 2742 2702 
Q 2975 2913 2975 3322 
Q 2975 3731 2742 3939 
Q 2509 4147 2053 4147 
L 1259 4147 
z
" transform="scale(0.015625)"/>
        <path id="DejaVuSans-6e" d="M 3513 2113 
L 3513 0 
L 2938 0 
L 2938 2094 
Q 2938 2591 2744 2837 
Q 2550 3084 2163 3084 
Q 1697 3084 1428 2787 
Q 1159 2491 1159 1978 
L 1159 0 
L 581 0 
L 581 3500 
L 1159 3500 
L 1159 2956 
Q 1366 3272 1645 3428 
Q 1925 3584 2291 3584 
Q 2894 3584 3203 3211 
Q 3513 2838 3513 2113 
z
" transform="scale(0.015625)"/>
        <path id="DejaVuSans-64" d="M 2906 2969 
L 2906 4863 
L 3481 4863 
L 3481 0 
L 2906 0 
L 2906 525 
Q 2725 213 2448 61 
Q 2172 -91 1784 -91 
Q 1150 -91 751 415 
Q 353 922 353 1747 
Q 353 2572 751 3078 
Q 1150 3584 1784 3584 
Q 2172 3584 2448 3432 
Q 2725 3281 2906 2969 
z
M 947 1747 
Q 947 1113 1208 752 
Q 1469 391 1925 391 
Q 2381 391 2643 752 
Q 2906 1113 2906 1747 
Q 2906 2381 2643 2742 
Q 2381 3103 1925 3103 
Q 1469 3103 1208 2742 
Q 947 2381 947 1747 
z
" transform="scale(0.015625)"/>
        <path id="DejaVuSans-6d" d="M 3328 2828 
Q 3544 3216 3844 3400 
Q 4144 3584 4550 3584 
Q 5097 3584 5394 3201 
Q 5691 2819 5691 2113 
L 5691 0 
L 5113 0 
L 5113 2094 
Q 5113 2597 4934 2840 
Q 4756 3084 4391 3084 
Q 3944 3084 3684 2787 
Q 3425 2491 3425 1978 
L 3425 0 
L 2847 0 
L 2847 2094 
Q 2847 2600 2669 2842 
Q 2491 3084 2119 3084 
Q 1678 3084 1418 2786 
Q 1159 2488 1159 1978 
L 1159 0 
L 581 0 
L 581 3500 
L 1159 3500 
L 1159 2956 
Q 1356 3278 1631 3431 
Q 1906 3584 2284 3584 
Q 2666 3584 2933 3390 
Q 3200 3197 3328 2828 
z
" transform="scale(0.015625)"/>
       </defs>
       <use xlink:href="#DejaVuSans-32"/>
       <use xlink:href="#DejaVuSans-30" x="63.623047"/>
       <use xlink:href="#DejaVuSans-30" x="127.246094"/>
       <use xlink:href="#DejaVuSans-20" x="190.869141"/>
       <use xlink:href="#DejaVuSans-52" x="222.65625"/>
       <use xlink:href="#DejaVuSans-61" x="289.888672"/>
       <use xlink:href="#DejaVuSans-6e" x="351.167969"/>
       <use xlink:href="#DejaVuSans-64" x="414.546875"/>
       <use xlink:href="#DejaVuSans-6f" x="478.023438"/>
       <use xlink:href="#DejaVuSans-6d" x="539.205078"/>
       <use xlink:href="#DejaVuSans-20" x="636.617188"/>
       <use xlink:href="#DejaVuSans-75" x="668.404297"/>
       <use xlink:href="#DejaVuSans-73" x="731.783203"/>
       <use xlink:href="#DejaVuSans-65" x="783.882812"/>
       <use xlink:href="#DejaVuSans-72" x="845.40625"/>
       <use xlink:href="#DejaVuSans-73" x="886.519531"/>
      </g>
     </g>
    </g>
   </g>
   <g id="matplotlib.axis_2">
    <g id="ytick_1">
     <g id="line2d_1">
      <path d="M 53.37 312.477273 
L 419.04 312.477273 
" clip-path="url(#p1ead373a15)" style="fill: none; stroke: #ffffff; stroke-linecap: round"/>
     </g>
     <g id="text_3">
      <!-- 0 -->
      <g style="fill: #262626" transform="translate(36.87125 316.656413) scale(0.11 -0.11)">
       <use xlink:href="#DejaVuSans-30"/>
      </g>
     </g>
    </g>
    <g id="ytick_2">
     <g id="line2d_2">
      <path d="M 53.37 271.273838 
L 419.04 271.273838 
" clip-path="url(#p1ead373a15)" style="fill: none; stroke: #ffffff; stroke-linecap: round"/>
     </g>
     <g id="text_4">
      <!-- 10 -->
      <g style="fill: #262626" transform="translate(29.8725 275.452979) scale(0.11 -0.11)">
       <defs>
        <path id="DejaVuSans-31" d="M 794 531 
L 1825 531 
L 1825 4091 
L 703 3866 
L 703 4441 
L 1819 4666 
L 2450 4666 
L 2450 531 
L 3481 531 
L 3481 0 
L 794 0 
L 794 531 
z
" transform="scale(0.015625)"/>
       </defs>
       <use xlink:href="#DejaVuSans-31"/>
       <use xlink:href="#DejaVuSans-30" x="63.623047"/>
      </g>
     </g>
    </g>
    <g id="ytick_3">
     <g id="line2d_3">
      <path d="M 53.37 230.070404 
L 419.04 230.070404 
" clip-path="url(#p1ead373a15)" style="fill: none; stroke: #ffffff; stroke-linecap: round"/>
     </g>
     <g id="text_5">
      <!-- 20 -->
      <g style="fill: #262626" transform="translate(29.8725 234.249545) scale(0.11 -0.11)">
       <use xlink:href="#DejaVuSans-32"/>
       <use xlink:href="#DejaVuSans-30" x="63.623047"/>
      </g>
     </g>
    </g>
    <g id="ytick_4">
     <g id="line2d_4">
      <path d="M 53.37 188.86697 
L 419.04 188.86697 
" clip-path="url(#p1ead373a15)" style="fill: none; stroke: #ffffff; stroke-linecap: round"/>
     </g>
     <g id="text_6">
      <!-- 30 -->
      <g style="fill: #262626" transform="translate(29.8725 193.04611) scale(0.11 -0.11)">
       <defs>
        <path id="DejaVuSans-33" d="M 2597 2516 
Q 3050 2419 3304 2112 
Q 3559 1806 3559 1356 
Q 3559 666 3084 287 
Q 2609 -91 1734 -91 
Q 1441 -91 1130 -33 
Q 819 25 488 141 
L 488 750 
Q 750 597 1062 519 
Q 1375 441 1716 441 
Q 2309 441 2620 675 
Q 2931 909 2931 1356 
Q 2931 1769 2642 2001 
Q 2353 2234 1838 2234 
L 1294 2234 
L 1294 2753 
L 1863 2753 
Q 2328 2753 2575 2939 
Q 2822 3125 2822 3475 
Q 2822 3834 2567 4026 
Q 2313 4219 1838 4219 
Q 1578 4219 1281 4162 
Q 984 4106 628 3988 
L 628 4550 
Q 988 4650 1302 4700 
Q 1616 4750 1894 4750 
Q 2613 4750 3031 4423 
Q 3450 4097 3450 3541 
Q 3450 3153 3228 2886 
Q 3006 2619 2597 2516 
z
" transform="scale(0.015625)"/>
       </defs>
       <use xlink:href="#DejaVuSans-33"/>
       <use xlink:href="#DejaVuSans-30" x="63.623047"/>
      </g>
     </g>
    </g>
    <g id="ytick_5">
     <g id="line2d_5">
      <path d="M 53.37 147.663535 
L 419.04 147.663535 
" clip-path="url(#p1ead373a15)" style="fill: none; stroke: #ffffff; stroke-linecap: round"/>
     </g>
     <g id="text_7">
      <!-- 40 -->
      <g style="fill: #262626" transform="translate(29.8725 151.842676) scale(0.11 -0.11)">
       <defs>
        <path id="DejaVuSans-34" d="M 2419 4116 
L 825 1625 
L 2419 1625 
L 2419 4116 
z
M 2253 4666 
L 3047 4666 
L 3047 1625 
L 3713 1625 
L 3713 1100 
L 3047 1100 
L 3047 0 
L 2419 0 
L 2419 1100 
L 313 1100 
L 313 1709 
L 2253 4666 
z
" transform="scale(0.015625)"/>
       </defs>
       <use xlink:href="#DejaVuSans-34"/>
       <use xlink:href="#DejaVuSans-30" x="63.623047"/>
      </g>
     </g>
    </g>
    <g id="ytick_6">
     <g id="line2d_6">
      <path d="M 53.37 106.460101 
L 419.04 106.460101 
" clip-path="url(#p1ead373a15)" style="fill: none; stroke: #ffffff; stroke-linecap: round"/>
     </g>
     <g id="text_8">
      <!-- 50 -->
      <g style="fill: #262626" transform="translate(29.8725 110.639242) scale(0.11 -0.11)">
       <use xlink:href="#DejaVuSans-35"/>
       <use xlink:href="#DejaVuSans-30" x="63.623047"/>
      </g>
     </g>
    </g>
    <g id="ytick_7">
     <g id="line2d_7">
      <path d="M 53.37 65.256667 
L 419.04 65.256667 
" clip-path="url(#p1ead373a15)" style="fill: none; stroke: #ffffff; stroke-linecap: round"/>
     </g>
     <g id="text_9">
      <!-- 60 -->
      <g style="fill: #262626" transform="translate(29.8725 69.435807) scale(0.11 -0.11)">
       <defs>
        <path id="DejaVuSans-36" d="M 2113 2584 
Q 1688 2584 1439 2293 
Q 1191 2003 1191 1497 
Q 1191 994 1439 701 
Q 1688 409 2113 409 
Q 2538 409 2786 701 
Q 3034 994 3034 1497 
Q 3034 2003 2786 2293 
Q 2538 2584 2113 2584 
z
M 3366 4563 
L 3366 3988 
Q 3128 4100 2886 4159 
Q 2644 4219 2406 4219 
Q 1781 4219 1451 3797 
Q 1122 3375 1075 2522 
Q 1259 2794 1537 2939 
Q 1816 3084 2150 3084 
Q 2853 3084 3261 2657 
Q 3669 2231 3669 1497 
Q 3669 778 3244 343 
Q 2819 -91 2113 -91 
Q 1303 -91 875 529 
Q 447 1150 447 2328 
Q 447 3434 972 4092 
Q 1497 4750 2381 4750 
Q 2619 4750 2861 4703 
Q 3103 4656 3366 4563 
z
" transform="scale(0.015625)"/>
       </defs>
       <use xlink:href="#DejaVuSans-36"/>
       <use xlink:href="#DejaVuSans-30" x="63.623047"/>
      </g>
     </g>
    </g>
    <g id="ytick_8">
     <g id="line2d_8">
      <path d="M 53.37 24.053232 
L 419.04 24.053232 
" clip-path="url(#p1ead373a15)" style="fill: none; stroke: #ffffff; stroke-linecap: round"/>
     </g>
     <g id="text_10">
      <!-- 70 -->
      <g style="fill: #262626" transform="translate(29.8725 28.232373) scale(0.11 -0.11)">
       <defs>
        <path id="DejaVuSans-37" d="M 525 4666 
L 3525 4666 
L 3525 4397 
L 1831 0 
L 1172 0 
L 2766 4134 
L 525 4134 
L 525 4666 
z
" transform="scale(0.015625)"/>
       </defs>
       <use xlink:href="#DejaVuSans-37"/>
       <use xlink:href="#DejaVuSans-30" x="63.623047"/>
      </g>
     </g>
    </g>
    <g id="text_11">
     <!-- ROUGE-1 -->
     <g style="fill: #262626" transform="translate(23.376875 197.555938) rotate(-90) scale(0.12 -0.12)">
      <defs>
       <path id="DejaVuSans-4f" d="M 2522 4238 
Q 1834 4238 1429 3725 
Q 1025 3213 1025 2328 
Q 1025 1447 1429 934 
Q 1834 422 2522 422 
Q 3209 422 3611 934 
Q 4013 1447 4013 2328 
Q 4013 3213 3611 3725 
Q 3209 4238 2522 4238 
z
M 2522 4750 
Q 3503 4750 4090 4092 
Q 4678 3434 4678 2328 
Q 4678 1225 4090 567 
Q 3503 -91 2522 -91 
Q 1538 -91 948 565 
Q 359 1222 359 2328 
Q 359 3434 948 4092 
Q 1538 4750 2522 4750 
z
" transform="scale(0.015625)"/>
       <path id="DejaVuSans-55" d="M 556 4666 
L 1191 4666 
L 1191 1831 
Q 1191 1081 1462 751 
Q 1734 422 2344 422 
Q 2950 422 3222 751 
Q 3494 1081 3494 1831 
L 3494 4666 
L 4128 4666 
L 4128 1753 
Q 4128 841 3676 375 
Q 3225 -91 2344 -91 
Q 1459 -91 1007 375 
Q 556 841 556 1753 
L 556 4666 
z
" transform="scale(0.015625)"/>
       <path id="DejaVuSans-47" d="M 3809 666 
L 3809 1919 
L 2778 1919 
L 2778 2438 
L 4434 2438 
L 4434 434 
Q 4069 175 3628 42 
Q 3188 -91 2688 -91 
Q 1594 -91 976 548 
Q 359 1188 359 2328 
Q 359 3472 976 4111 
Q 1594 4750 2688 4750 
Q 3144 4750 3555 4637 
Q 3966 4525 4313 4306 
L 4313 3634 
Q 3963 3931 3569 4081 
Q 3175 4231 2741 4231 
Q 1884 4231 1454 3753 
Q 1025 3275 1025 2328 
Q 1025 1384 1454 906 
Q 1884 428 2741 428 
Q 3075 428 3337 486 
Q 3600 544 3809 666 
z
" transform="scale(0.015625)"/>
       <path id="DejaVuSans-45" d="M 628 4666 
L 3578 4666 
L 3578 4134 
L 1259 4134 
L 1259 2753 
L 3481 2753 
L 3481 2222 
L 1259 2222 
L 1259 531 
L 3634 531 
L 3634 0 
L 628 0 
L 628 4666 
z
" transform="scale(0.015625)"/>
       <path id="DejaVuSans-2d" d="M 313 2009 
L 1997 2009 
L 1997 1497 
L 313 1497 
L 313 2009 
z
" transform="scale(0.015625)"/>
      </defs>
      <use xlink:href="#DejaVuSans-52"/>
      <use xlink:href="#DejaVuSans-4f" x="69.482422"/>
      <use xlink:href="#DejaVuSans-55" x="148.193359"/>
      <use xlink:href="#DejaVuSans-47" x="221.386719"/>
      <use xlink:href="#DejaVuSans-45" x="298.876953"/>
      <use xlink:href="#DejaVuSans-2d" x="362.060547"/>
      <use xlink:href="#DejaVuSans-31" x="398.144531"/>
     </g>
    </g>
   </g>
   <g id="PolyCollection_1">
    <path d="M 105.204146 222.905828 
L 85.916945 222.905828 
L 84.83734 221.914254 
L 83.740947 220.92268 
L 82.645025 219.931105 
L 81.568074 218.939531 
L 80.529132 217.947957 
L 79.546951 216.956383 
L 78.639089 215.964809 
L 77.820971 214.973234 
L 77.104986 213.98166 
L 76.499684 212.990086 
L 76.009142 211.998512 
L 75.632567 211.006938 
L 75.364164 210.015363 
L 75.193314 209.023789 
L 75.105045 208.032215 
L 75.080788 207.040641 
L 75.09937 206.049067 
L 75.138173 205.057492 
L 75.174398 204.065918 
L 75.186354 203.074344 
L 75.154683 202.08277 
L 75.063461 201.091196 
L 74.901117 200.099621 
L 74.661123 199.108047 
L 74.342416 198.116473 
L 73.949558 197.124899 
L 73.492602 196.133325 
L 72.986699 195.14175 
L 72.451451 194.150176 
L 71.910032 193.158602 
L 71.388138 192.167028 
L 70.912784 191.175454 
L 70.511023 190.183879 
L 70.20864 189.192305 
L 70.028892 188.200731 
L 69.991364 187.209157 
L 70.110999 186.217582 
L 70.397378 185.226008 
L 70.854278 184.234434 
L 71.479541 183.24286 
L 72.265265 182.251286 
L 73.198292 181.259711 
L 74.260952 180.268137 
L 75.432011 179.276563 
L 76.687745 178.284989 
L 78.003064 177.293415 
L 79.352615 176.30184 
L 80.711783 175.310266 
L 82.057559 174.318692 
L 83.369217 173.327118 
L 84.628809 172.335544 
L 85.821457 171.343969 
L 86.935489 170.352395 
L 87.962411 169.360821 
L 88.896785 168.369247 
L 89.736009 167.377673 
L 90.480058 166.386098 
L 91.131184 165.394524 
L 91.693598 164.40295 
L 92.173144 163.411376 
L 92.576969 162.419802 
L 92.913176 161.428227 
L 93.19049 160.436653 
L 93.417907 159.445079 
L 93.604367 158.453505 
L 93.758431 157.461931 
L 93.888002 156.470356 
L 94.000082 155.478782 
L 94.100585 154.487208 
L 94.194225 153.495634 
L 94.284467 152.504059 
L 94.373548 151.512485 
L 94.462562 150.520911 
L 94.551603 149.529337 
L 94.639939 148.537763 
L 94.726209 147.546188 
L 94.808633 146.554614 
L 94.885202 145.56304 
L 94.953866 144.571466 
L 95.012676 143.579892 
L 95.059917 142.588317 
L 95.094198 141.596743 
L 95.114527 140.605169 
L 95.120353 139.613595 
L 95.111604 138.622021 
L 95.088702 137.630446 
L 95.052569 136.638872 
L 95.00462 135.647298 
L 94.94674 134.655724 
L 94.881242 133.66415 
L 94.810804 132.672575 
L 94.738384 131.681001 
L 94.667104 130.689427 
L 94.600123 129.697853 
L 94.540484 128.706279 
L 94.490965 127.714704 
L 94.45393 126.72313 
L 94.431195 125.731556 
L 94.423933 124.739982 
L 96.697158 124.739982 
L 96.697158 124.739982 
L 96.689896 125.731556 
L 96.667161 126.72313 
L 96.630126 127.714704 
L 96.580608 128.706279 
L 96.520969 129.697853 
L 96.453987 130.689427 
L 96.382708 131.681001 
L 96.310287 132.672575 
L 96.23985 133.66415 
L 96.174351 134.655724 
L 96.116471 135.647298 
L 96.068523 136.638872 
L 96.03239 137.630446 
L 96.009488 138.622021 
L 96.000739 139.613595 
L 96.006565 140.605169 
L 96.026893 141.596743 
L 96.061175 142.588317 
L 96.108416 143.579892 
L 96.167226 144.571466 
L 96.235889 145.56304 
L 96.312459 146.554614 
L 96.394882 147.546188 
L 96.481152 148.537763 
L 96.569488 149.529337 
L 96.658529 150.520911 
L 96.747544 151.512485 
L 96.836624 152.504059 
L 96.926866 153.495634 
L 97.020507 154.487208 
L 97.12101 155.478782 
L 97.233089 156.470356 
L 97.362661 157.461931 
L 97.516725 158.453505 
L 97.703184 159.445079 
L 97.930602 160.436653 
L 98.207915 161.428227 
L 98.544123 162.419802 
L 98.947947 163.411376 
L 99.427494 164.40295 
L 99.989907 165.394524 
L 100.641033 166.386098 
L 101.385083 167.377673 
L 102.224307 168.369247 
L 103.15868 169.360821 
L 104.185603 170.352395 
L 105.299634 171.343969 
L 106.492283 172.335544 
L 107.751874 173.327118 
L 109.063532 174.318692 
L 110.409308 175.310266 
L 111.768477 176.30184 
L 113.118027 177.293415 
L 114.433347 178.284989 
L 115.68908 179.276563 
L 116.860139 180.268137 
L 117.922799 181.259711 
L 118.855826 182.251286 
L 119.641551 183.24286 
L 120.266814 184.234434 
L 120.723713 185.226008 
L 121.010093 186.217582 
L 121.129728 187.209157 
L 121.092199 188.200731 
L 120.912452 189.192305 
L 120.610069 190.183879 
L 120.208308 191.175454 
L 119.732954 192.167028 
L 119.21106 193.158602 
L 118.669641 194.150176 
L 118.134392 195.14175 
L 117.628489 196.133325 
L 117.171533 197.124899 
L 116.778675 198.116473 
L 116.459969 199.108047 
L 116.219975 200.099621 
L 116.057631 201.091196 
L 115.966409 202.08277 
L 115.934737 203.074344 
L 115.946694 204.065918 
L 115.982919 205.057492 
L 116.021721 206.049067 
L 116.040303 207.040641 
L 116.016047 208.032215 
L 115.927778 209.023789 
L 115.756928 210.015363 
L 115.488525 211.006938 
L 115.11195 211.998512 
L 114.621408 212.990086 
L 114.016105 213.98166 
L 113.30012 214.973234 
L 112.482002 215.964809 
L 111.57414 216.956383 
L 110.59196 217.947957 
L 109.553018 218.939531 
L 108.476067 219.931105 
L 107.380145 220.92268 
L 106.283752 221.914254 
L 105.204146 222.905828 
L 105.204146 222.905828 
z
" clip-path="url(#p1ead373a15)" style="fill: none; stroke: #4c72b0; stroke-width: 1.5"/>
   </g>
   <g id="PolyCollection_2">
    <path d="M 153.883514 221.799707 
L 139.514305 221.799707 
L 138.937531 221.045257 
L 138.354757 220.290806 
L 137.770208 219.536356 
L 137.188061 218.781905 
L 136.612309 218.027454 
L 136.04661 217.273004 
L 135.494154 216.518553 
L 134.957522 215.764103 
L 134.438583 215.009652 
L 133.938399 214.255202 
L 133.45717 213.500751 
L 132.994214 212.746301 
L 132.547991 211.99185 
L 132.116161 211.2374 
L 131.695694 210.482949 
L 131.283012 209.728499 
L 130.874171 208.974048 
L 130.465066 208.219597 
L 130.051652 207.465147 
L 129.630176 206.710696 
L 129.197399 205.956246 
L 128.750807 205.201795 
L 128.288786 204.447345 
L 127.810767 203.692894 
L 127.317321 202.938444 
L 126.810203 202.183993 
L 126.292341 201.429543 
L 125.767778 200.675092 
L 125.241553 199.920642 
L 124.719547 199.166191 
L 124.208286 198.411741 
L 123.714721 197.65729 
L 123.245988 196.902839 
L 122.80917 196.148389 
L 122.411056 195.393938 
L 122.05793 194.639488 
L 121.755368 193.885037 
L 121.508084 193.130587 
L 121.319801 192.376136 
L 121.193171 191.621686 
L 121.129728 190.867235 
L 121.129883 190.112785 
L 121.192959 189.358334 
L 121.317255 188.603884 
L 121.500132 187.849433 
L 121.738133 187.094982 
L 122.027106 186.340532 
L 122.362346 185.586081 
L 122.738734 184.831631 
L 123.150883 184.07718 
L 123.593277 183.32273 
L 124.060401 182.568279 
L 124.546859 181.813829 
L 125.047486 181.059378 
L 125.557438 180.304928 
L 126.07227 179.550477 
L 126.587997 178.796027 
L 127.101135 178.041576 
L 127.60873 177.287126 
L 128.108363 176.532675 
L 128.598147 175.778224 
L 129.076701 175.023774 
L 129.543115 174.269323 
L 129.996904 173.514873 
L 130.437952 172.760422 
L 130.866447 172.005972 
L 131.282824 171.251521 
L 131.687694 170.497071 
L 132.081792 169.74262 
L 132.465916 168.98817 
L 132.840893 168.233719 
L 133.207535 167.479269 
L 133.566626 166.724818 
L 133.918908 165.970367 
L 134.265077 165.215917 
L 134.605794 164.461466 
L 134.941701 163.707016 
L 135.273433 162.952565 
L 135.601634 162.198115 
L 135.926979 161.443664 
L 136.250174 160.689214 
L 136.571962 159.934763 
L 136.893114 159.180313 
L 137.214418 158.425862 
L 137.536646 157.671412 
L 137.860533 156.916961 
L 138.186734 156.16251 
L 138.51579 155.40806 
L 138.848088 154.653609 
L 139.183827 153.899159 
L 139.522992 153.144708 
L 139.865329 152.390258 
L 140.210342 151.635807 
L 140.557284 150.881357 
L 140.905178 150.126906 
L 141.252832 149.372456 
L 141.598872 148.618005 
L 141.941785 147.863555 
L 142.279959 147.109104 
L 151.117861 147.109104 
L 151.117861 147.109104 
L 151.456035 147.863555 
L 151.798947 148.618005 
L 152.144988 149.372456 
L 152.492642 150.126906 
L 152.840536 150.881357 
L 153.187478 151.635807 
L 153.532491 152.390258 
L 153.874828 153.144708 
L 154.213993 153.899159 
L 154.549732 154.653609 
L 154.88203 155.40806 
L 155.211086 156.16251 
L 155.537287 156.916961 
L 155.861174 157.671412 
L 156.183402 158.425862 
L 156.504705 159.180313 
L 156.825858 159.934763 
L 157.147646 160.689214 
L 157.470841 161.443664 
L 157.796185 162.198115 
L 158.124387 162.952565 
L 158.456118 163.707016 
L 158.792025 164.461466 
L 159.132743 165.215917 
L 159.478912 165.970367 
L 159.831193 166.724818 
L 160.190285 167.479269 
L 160.556927 168.233719 
L 160.931904 168.98817 
L 161.316028 169.74262 
L 161.710126 170.497071 
L 162.114996 171.251521 
L 162.531373 172.005972 
L 162.959868 172.760422 
L 163.400916 173.514873 
L 163.854705 174.269323 
L 164.321119 175.023774 
L 164.799673 175.778224 
L 165.289457 176.532675 
L 165.78909 177.287126 
L 166.296684 178.041576 
L 166.809823 178.796027 
L 167.325549 179.550477 
L 167.840382 180.304928 
L 168.350334 181.059378 
L 168.850961 181.813829 
L 169.337419 182.568279 
L 169.804542 183.32273 
L 170.246937 184.07718 
L 170.659086 184.831631 
L 171.035474 185.586081 
L 171.370714 186.340532 
L 171.659687 187.094982 
L 171.897688 187.849433 
L 172.080565 188.603884 
L 172.20486 189.358334 
L 172.267937 190.112785 
L 172.268092 190.867235 
L 172.204648 191.621686 
L 172.078019 192.376136 
L 171.889736 193.130587 
L 171.642452 193.885037 
L 171.33989 194.639488 
L 170.986763 195.393938 
L 170.58865 196.148389 
L 170.151832 196.902839 
L 169.683099 197.65729 
L 169.189533 198.411741 
L 168.678273 199.166191 
L 168.156267 199.920642 
L 167.630042 200.675092 
L 167.105479 201.429543 
L 166.587617 202.183993 
L 166.080499 202.938444 
L 165.587053 203.692894 
L 165.109034 204.447345 
L 164.647013 205.201795 
L 164.200421 205.956246 
L 163.767644 206.710696 
L 163.346168 207.465147 
L 162.932754 208.219597 
L 162.523648 208.974048 
L 162.114808 209.728499 
L 161.702126 210.482949 
L 161.281659 211.2374 
L 160.849829 211.99185 
L 160.403606 212.746301 
L 159.94065 213.500751 
L 159.459421 214.255202 
L 158.959237 215.009652 
L 158.440298 215.764103 
L 157.903666 216.518553 
L 157.351209 217.273004 
L 156.785511 218.027454 
L 156.209759 218.781905 
L 155.627612 219.536356 
L 155.043062 220.290806 
L 154.460288 221.045257 
L 153.883514 221.799707 
L 153.883514 221.799707 
z
" clip-path="url(#p1ead373a15)" style="fill: none; stroke: #dd8452; stroke-width: 1.5"/>
   </g>
   <g id="PolyCollection_3">
    <path d="M 202.113664 225.94124 
L 193.560885 225.94124 
L 193.263567 224.992677 
L 192.964176 224.044114 
L 192.662268 223.095551 
L 192.356978 222.146988 
L 192.047072 221.198425 
L 191.731012 220.249862 
L 191.407033 219.301299 
L 191.073225 218.352736 
L 190.727607 217.404173 
L 190.368206 216.45561 
L 189.993103 215.507047 
L 189.600489 214.558484 
L 189.188689 213.609921 
L 188.756183 212.661358 
L 188.301626 211.712795 
L 187.823855 210.764232 
L 187.32192 209.815669 
L 186.79511 208.867106 
L 186.242999 207.918543 
L 185.665514 206.96998 
L 185.063007 206.021417 
L 184.436336 205.072854 
L 183.786956 204.124291 
L 183.116994 203.175728 
L 182.429302 202.227165 
L 181.727491 201.278602 
L 181.015918 200.330039 
L 180.299634 199.381476 
L 179.584283 198.432913 
L 178.875961 197.48435 
L 178.181029 196.535787 
L 177.505905 195.587224 
L 176.856839 194.638661 
L 176.239682 193.690098 
L 175.659679 192.741535 
L 175.121287 191.792972 
L 174.628032 190.844409 
L 174.182428 189.895846 
L 173.785944 188.947283 
L 173.439032 187.99872 
L 173.141212 187.050157 
L 172.891199 186.101594 
L 172.687077 185.153031 
L 172.526484 184.204468 
L 172.406825 183.255905 
L 172.325469 182.307342 
L 172.279944 181.358779 
L 172.268092 180.410216 
L 172.288206 179.461653 
L 172.339112 178.51309 
L 172.420213 177.564527 
L 172.531483 176.615964 
L 172.673425 175.667401 
L 172.846972 174.718838 
L 173.053378 173.770275 
L 173.294069 172.821712 
L 173.570485 171.873149 
L 173.883932 170.924586 
L 174.235434 169.976023 
L 174.625615 169.02746 
L 175.054611 168.078897 
L 175.522022 167.130334 
L 176.026904 166.181771 
L 176.567801 165.233208 
L 177.142806 164.284645 
L 177.749658 163.336082 
L 178.385838 162.387519 
L 179.048671 161.438956 
L 179.735416 160.490393 
L 180.443332 159.54183 
L 181.169706 158.593267 
L 181.911853 157.644704 
L 182.66708 156.696141 
L 183.432622 155.747578 
L 184.205564 154.799015 
L 184.982752 153.850452 
L 185.760725 152.901889 
L 186.535662 151.953326 
L 187.30337 151.004763 
L 188.059312 150.0562 
L 188.798685 149.107637 
L 189.516543 148.159074 
L 190.207955 147.210511 
L 190.868193 146.261948 
L 191.49293 145.313385 
L 192.078438 144.364822 
L 192.621762 143.416259 
L 193.120862 142.467696 
L 193.574711 141.519133 
L 193.983333 140.57057 
L 194.347793 139.622007 
L 194.670122 138.673444 
L 194.953195 137.724881 
L 195.200572 136.776318 
L 195.416301 135.827755 
L 195.604717 134.879192 
L 195.770229 133.930629 
L 195.917125 132.982066 
L 196.049402 132.033503 
L 199.625146 132.033503 
L 199.625146 132.033503 
L 199.757423 132.982066 
L 199.90432 133.930629 
L 200.069831 134.879192 
L 200.258247 135.827755 
L 200.473976 136.776318 
L 200.721353 137.724881 
L 201.004426 138.673444 
L 201.326755 139.622007 
L 201.691215 140.57057 
L 202.099838 141.519133 
L 202.553686 142.467696 
L 203.052786 143.416259 
L 203.59611 144.364822 
L 204.181618 145.313385 
L 204.806355 146.261948 
L 205.466593 147.210511 
L 206.158005 148.159074 
L 206.875863 149.107637 
L 207.615236 150.0562 
L 208.371178 151.004763 
L 209.138886 151.953326 
L 209.913823 152.901889 
L 210.691796 153.850452 
L 211.468984 154.799015 
L 212.241926 155.747578 
L 213.007468 156.696141 
L 213.762695 157.644704 
L 214.504842 158.593267 
L 215.231216 159.54183 
L 215.939132 160.490393 
L 216.625878 161.438956 
L 217.288711 162.387519 
L 217.92489 163.336082 
L 218.531742 164.284645 
L 219.106748 165.233208 
L 219.647644 166.181771 
L 220.152526 167.130334 
L 220.619937 168.078897 
L 221.048933 169.02746 
L 221.439114 169.976023 
L 221.790616 170.924586 
L 222.104063 171.873149 
L 222.38048 172.821712 
L 222.62117 173.770275 
L 222.827576 174.718838 
L 223.001124 175.667401 
L 223.143065 176.615964 
L 223.254336 177.564527 
L 223.335436 178.51309 
L 223.386342 179.461653 
L 223.406456 180.410216 
L 223.394605 181.358779 
L 223.349079 182.307342 
L 223.267724 183.255905 
L 223.148064 184.204468 
L 222.987472 185.153031 
L 222.783349 186.101594 
L 222.533336 187.050157 
L 222.235516 187.99872 
L 221.888604 188.947283 
L 221.49212 189.895846 
L 221.046516 190.844409 
L 220.553262 191.792972 
L 220.014869 192.741535 
L 219.434866 193.690098 
L 218.817709 194.638661 
L 218.168643 195.587224 
L 217.493519 196.535787 
L 216.798587 197.48435 
L 216.090265 198.432913 
L 215.374914 199.381476 
L 214.65863 200.330039 
L 213.947057 201.278602 
L 213.245246 202.227165 
L 212.557554 203.175728 
L 211.887592 204.124291 
L 211.238213 205.072854 
L 210.611542 206.021417 
L 210.009034 206.96998 
L 209.431549 207.918543 
L 208.879439 208.867106 
L 208.352628 209.815669 
L 207.850693 210.764232 
L 207.372923 211.712795 
L 206.918365 212.661358 
L 206.485859 213.609921 
L 206.074059 214.558484 
L 205.681445 215.507047 
L 205.306343 216.45561 
L 204.946941 217.404173 
L 204.601324 218.352736 
L 204.267515 219.301299 
L 203.943536 220.249862 
L 203.627476 221.198425 
L 203.31757 222.146988 
L 203.01228 223.095551 
L 202.710372 224.044114 
L 202.410982 224.992677 
L 202.113664 225.94124 
L 202.113664 225.94124 
z
" clip-path="url(#p1ead373a15)" style="fill: none; stroke: #55a868; stroke-width: 1.5"/>
   </g>
   <g id="PolyCollection_4">
    <path d="M 288.083394 312.477273 
L 286.575429 312.477273 
L 286.467524 309.595914 
L 286.351325 306.714555 
L 286.226691 303.833196 
L 286.093592 300.951837 
L 285.952194 298.070478 
L 285.802941 295.189118 
L 285.646596 292.307759 
L 285.484236 289.4264 
L 285.317184 286.545041 
L 285.14688 283.663682 
L 284.974704 280.782323 
L 284.801788 277.900964 
L 284.628822 275.019605 
L 284.455903 272.138246 
L 284.282452 269.256887 
L 284.107197 266.375528 
L 283.928249 263.494169 
L 283.743253 260.61281 
L 283.549607 257.731451 
L 283.344726 254.850092 
L 283.126322 251.968733 
L 282.892686 249.087374 
L 282.642922 246.206015 
L 282.377124 243.324656 
L 282.096457 240.443297 
L 281.803133 237.561938 
L 281.500279 234.680579 
L 281.191698 231.799219 
L 280.881565 228.91786 
L 280.574084 226.036501 
L 280.273176 223.155142 
L 279.982222 220.273783 
L 279.703938 217.392424 
L 279.440361 214.511065 
L 279.192981 211.629706 
L 278.962958 208.748347 
L 278.751393 205.866988 
L 278.559589 202.985629 
L 278.389238 200.10427 
L 278.242502 197.222911 
L 278.121974 194.341552 
L 278.030522 191.460193 
L 277.971066 188.578834 
L 277.946333 185.697475 
L 277.958641 182.816116 
L 278.009753 179.934757 
L 278.100818 177.053398 
L 278.232381 174.172039 
L 278.40443 171.29068 
L 278.61644 168.40932 
L 278.867364 165.527961 
L 279.155549 162.646602 
L 279.478589 159.765243 
L 279.833132 156.883884 
L 280.214707 154.002525 
L 280.617638 151.121166 
L 281.03509 148.239807 
L 281.459294 145.358448 
L 281.881949 142.477089 
L 282.294759 139.59573 
L 282.690049 136.714371 
L 283.061365 133.833012 
L 283.403973 130.951653 
L 283.71518 128.070294 
L 283.994428 125.188935 
L 284.243148 122.307576 
L 284.464402 119.426217 
L 284.662357 116.544858 
L 284.84168 113.663499 
L 285.006929 110.78214 
L 285.162029 107.900781 
L 285.309891 105.019421 
L 285.452219 102.138062 
L 285.589506 99.256703 
L 285.721224 96.375344 
L 285.846129 93.493985 
L 285.962661 90.612626 
L 286.069339 87.731267 
L 286.165109 84.849908 
L 286.249589 81.968549 
L 286.323173 79.08719 
L 286.386996 76.205831 
L 286.44278 73.324472 
L 286.492577 70.443113 
L 286.538486 67.561754 
L 286.582377 64.680395 
L 286.62567 61.799036 
L 286.669208 58.917677 
L 286.713234 56.036318 
L 286.757466 53.154959 
L 286.80125 50.2736 
L 286.84375 47.392241 
L 286.884143 44.510882 
L 286.921787 41.629522 
L 286.956324 38.748163 
L 286.987722 35.866804 
L 287.016244 32.985445 
L 287.042372 30.104086 
L 287.0667 27.222727 
L 287.592123 27.222727 
L 287.592123 27.222727 
L 287.616451 30.104086 
L 287.642579 32.985445 
L 287.671101 35.866804 
L 287.702499 38.748163 
L 287.737036 41.629522 
L 287.77468 44.510882 
L 287.815073 47.392241 
L 287.857573 50.2736 
L 287.901357 53.154959 
L 287.945589 56.036318 
L 287.989615 58.917677 
L 288.033153 61.799036 
L 288.076446 64.680395 
L 288.120337 67.561754 
L 288.166246 70.443113 
L 288.216043 73.324472 
L 288.271827 76.205831 
L 288.33565 79.08719 
L 288.409234 81.968549 
L 288.493714 84.849908 
L 288.589484 87.731267 
L 288.696162 90.612626 
L 288.812693 93.493985 
L 288.937599 96.375344 
L 289.069317 99.256703 
L 289.206604 102.138062 
L 289.348931 105.019421 
L 289.496794 107.900781 
L 289.651894 110.78214 
L 289.817143 113.663499 
L 289.996466 116.544858 
L 290.194421 119.426217 
L 290.415675 122.307576 
L 290.664395 125.188935 
L 290.943642 128.070294 
L 291.25485 130.951653 
L 291.597458 133.833012 
L 291.968774 136.714371 
L 292.364064 139.59573 
L 292.776874 142.477089 
L 293.199529 145.358448 
L 293.623733 148.239807 
L 294.041185 151.121166 
L 294.444116 154.002525 
L 294.825691 156.883884 
L 295.180234 159.765243 
L 295.503273 162.646602 
L 295.791459 165.527961 
L 296.042382 168.40932 
L 296.254393 171.29068 
L 296.426442 174.172039 
L 296.558005 177.053398 
L 296.64907 179.934757 
L 296.700182 182.816116 
L 296.71249 185.697475 
L 296.687757 188.578834 
L 296.628301 191.460193 
L 296.536849 194.341552 
L 296.416321 197.222911 
L 296.269585 200.10427 
L 296.099234 202.985629 
L 295.90743 205.866988 
L 295.695865 208.748347 
L 295.465842 211.629706 
L 295.218461 214.511065 
L 294.954885 217.392424 
L 294.6766 220.273783 
L 294.385647 223.155142 
L 294.084738 226.036501 
L 293.777258 228.91786 
L 293.467125 231.799219 
L 293.158544 234.680579 
L 292.85569 237.561938 
L 292.562366 240.443297 
L 292.281699 243.324656 
L 292.015901 246.206015 
L 291.766137 249.087374 
L 291.532501 251.968733 
L 291.314097 254.850092 
L 291.109216 257.731451 
L 290.91557 260.61281 
L 290.730574 263.494169 
L 290.551626 266.375528 
L 290.376371 269.256887 
L 290.20292 272.138246 
L 290.030001 275.019605 
L 289.857035 277.900964 
L 289.684119 280.782323 
L 289.511943 283.663682 
L 289.341639 286.545041 
L 289.174587 289.4264 
L 289.012227 292.307759 
L 288.855882 295.189118 
L 288.706629 298.070478 
L 288.565231 300.951837 
L 288.432132 303.833196 
L 288.307498 306.714555 
L 288.191299 309.595914 
L 288.083394 312.477273 
L 288.083394 312.477273 
z
" clip-path="url(#p1ead373a15)" style="fill: none; stroke: #4c72b0; stroke-width: 1.5"/>
   </g>
   <g id="PolyCollection_5">
    <path d="M 340.152524 285.008316 
L 336.783027 285.008316 
L 336.561119 282.665285 
L 336.325457 280.322254 
L 336.076253 277.979223 
L 335.813694 275.636192 
L 335.538031 273.293161 
L 335.249694 270.95013 
L 334.949423 268.607099 
L 334.63839 266.264068 
L 334.31828 263.921037 
L 333.991329 261.578006 
L 333.660285 259.234975 
L 333.328309 256.891944 
L 332.998814 254.548913 
L 332.675257 252.205882 
L 332.360916 249.862851 
L 332.058677 247.51982 
L 331.770847 245.176788 
L 331.499025 242.833757 
L 331.244022 240.490726 
L 331.005844 238.147695 
L 330.783723 235.804664 
L 330.57619 233.461633 
L 330.381169 231.118602 
L 330.196097 228.775571 
L 330.018056 226.43254 
L 329.843932 224.089509 
L 329.670595 221.746478 
L 329.495119 219.403447 
L 329.315036 217.060416 
L 329.128613 214.717385 
L 328.935147 212.374354 
L 328.735233 210.031323 
L 328.530977 207.688292 
L 328.326106 205.34526 
L 328.125959 203.002229 
L 327.937312 200.659198 
L 327.768046 198.316167 
L 327.626681 195.973136 
L 327.521795 193.630105 
L 327.461383 191.287074 
L 327.452237 188.944043 
L 327.499378 186.601012 
L 327.605632 184.257981 
L 327.771361 181.91495 
L 327.994404 179.571919 
L 328.270211 177.228888 
L 328.592161 174.885857 
L 328.952032 172.542826 
L 329.340568 170.199795 
L 329.748096 167.856764 
L 330.165131 165.513732 
L 330.58292 163.170701 
L 330.993886 160.82767 
L 331.391943 158.484639 
L 331.772665 156.141608 
L 332.133317 153.798577 
L 332.472755 151.455546 
L 332.791217 149.112515 
L 333.090045 146.769484 
L 333.371349 144.426453 
L 333.637674 142.083422 
L 333.891668 139.740391 
L 334.135792 137.39736 
L 334.372096 135.054329 
L 334.602048 132.711298 
L 334.826447 130.368267 
L 335.04541 128.025236 
L 335.258413 125.682204 
L 335.464406 123.339173 
L 335.661959 120.996142 
L 335.849442 118.653111 
L 336.025211 116.31008 
L 336.18779 113.967049 
L 336.336031 111.624018 
L 336.469237 109.280987 
L 336.587241 106.937956 
L 336.690435 104.594925 
L 336.77975 102.251894 
L 336.856587 99.908863 
L 336.92272 97.565832 
L 336.980162 95.222801 
L 337.031026 92.87977 
L 337.077389 90.536739 
L 337.121164 88.193708 
L 337.164003 85.850676 
L 337.207234 83.507645 
L 337.251823 81.164614 
L 337.298383 78.821583 
L 337.347205 76.478552 
L 337.398308 74.135521 
L 337.451512 71.79249 
L 337.5065 69.449459 
L 337.562884 67.106428 
L 337.620248 64.763397 
L 337.678186 62.420366 
L 337.736314 60.077335 
L 337.794267 57.734304 
L 337.851699 55.391273 
L 337.908258 53.048242 
L 339.027293 53.048242 
L 339.027293 53.048242 
L 339.083853 55.391273 
L 339.141284 57.734304 
L 339.199238 60.077335 
L 339.257365 62.420366 
L 339.315303 64.763397 
L 339.372668 67.106428 
L 339.429051 69.449459 
L 339.484039 71.79249 
L 339.537243 74.135521 
L 339.588347 76.478552 
L 339.637168 78.821583 
L 339.683728 81.164614 
L 339.728317 83.507645 
L 339.771548 85.850676 
L 339.814388 88.193708 
L 339.858162 90.536739 
L 339.904525 92.87977 
L 339.955389 95.222801 
L 340.012831 97.565832 
L 340.078964 99.908863 
L 340.155802 102.251894 
L 340.245116 104.594925 
L 340.34831 106.937956 
L 340.466314 109.280987 
L 340.59952 111.624018 
L 340.747762 113.967049 
L 340.910341 116.31008 
L 341.086109 118.653111 
L 341.273592 120.996142 
L 341.471145 123.339173 
L 341.677138 125.682204 
L 341.890142 128.025236 
L 342.109104 130.368267 
L 342.333504 132.711298 
L 342.563455 135.054329 
L 342.799759 137.39736 
L 343.043884 139.740391 
L 343.297877 142.083422 
L 343.564202 144.426453 
L 343.845507 146.769484 
L 344.144334 149.112515 
L 344.462796 151.455546 
L 344.802234 153.798577 
L 345.162886 156.141608 
L 345.543609 158.484639 
L 345.941665 160.82767 
L 346.352632 163.170701 
L 346.77042 165.513732 
L 347.187455 167.856764 
L 347.594984 170.199795 
L 347.98352 172.542826 
L 348.34339 174.885857 
L 348.66534 177.228888 
L 348.941147 179.571919 
L 349.164191 181.91495 
L 349.32992 184.257981 
L 349.436173 186.601012 
L 349.483315 188.944043 
L 349.474168 191.287074 
L 349.413757 193.630105 
L 349.30887 195.973136 
L 349.167506 198.316167 
L 348.99824 200.659198 
L 348.809592 203.002229 
L 348.609445 205.34526 
L 348.404575 207.688292 
L 348.200318 210.031323 
L 348.000404 212.374354 
L 347.806938 214.717385 
L 347.620515 217.060416 
L 347.440432 219.403447 
L 347.264956 221.746478 
L 347.09162 224.089509 
L 346.917496 226.43254 
L 346.739455 228.775571 
L 346.554382 231.118602 
L 346.359361 233.461633 
L 346.151828 235.804664 
L 345.929707 238.147695 
L 345.691529 240.490726 
L 345.436526 242.833757 
L 345.164704 245.176788 
L 344.876874 247.51982 
L 344.574635 249.862851 
L 344.260294 252.205882 
L 343.936737 254.548913 
L 343.607242 256.891944 
L 343.275267 259.234975 
L 342.944222 261.578006 
L 342.617271 263.921037 
L 342.297161 266.264068 
L 341.986128 268.607099 
L 341.685858 270.95013 
L 341.39752 273.293161 
L 341.121857 275.636192 
L 340.859299 277.979223 
L 340.610095 280.322254 
L 340.374433 282.665285 
L 340.152524 285.008316 
L 340.152524 285.008316 
z
" clip-path="url(#p1ead373a15)" style="fill: none; stroke: #dd8452; stroke-width: 1.5"/>
   </g>
   <g id="PolyCollection_6">
    <path d="M 391.298246 289.586476 
L 387.914034 289.586476 
L 387.721438 287.320518 
L 387.527232 285.054561 
L 387.333348 282.788603 
L 387.141148 280.522645 
L 386.951235 278.256688 
L 386.763316 275.99073 
L 386.576138 273.724772 
L 386.387522 271.458815 
L 386.194491 269.192857 
L 385.993513 266.926899 
L 385.780822 264.660942 
L 385.55281 262.394984 
L 385.306436 260.129026 
L 385.039612 257.863069 
L 384.751517 255.597111 
L 384.442793 253.331153 
L 384.115586 251.065196 
L 383.773428 248.799238 
L 383.420957 246.53328 
L 383.063498 244.267322 
L 382.706563 242.001365 
L 382.355324 239.735407 
L 382.014115 237.469449 
L 381.686037 235.203492 
L 381.372704 232.937534 
L 381.074171 230.671576 
L 380.789039 228.405619 
L 380.514734 226.139661 
L 380.247923 223.873703 
L 379.985003 221.607746 
L 379.722622 219.341788 
L 379.458159 217.07583 
L 379.190117 214.809873 
L 378.91839 212.543915 
L 378.644375 210.277957 
L 378.370946 208.012 
L 378.102274 205.746042 
L 377.843554 203.480084 
L 377.600644 201.214127 
L 377.379682 198.948169 
L 377.186697 196.682211 
L 377.027263 194.416254 
L 376.906209 192.150296 
L 376.827408 189.884338 
L 376.793643 187.618381 
L 376.806561 185.352423 
L 376.866691 183.086465 
L 376.97353 180.820508 
L 377.125673 178.55455 
L 377.320977 176.288592 
L 377.556737 174.022635 
L 377.829863 171.756677 
L 378.137047 169.490719 
L 378.474897 167.224762 
L 378.840035 164.958804 
L 379.229153 162.692846 
L 379.639017 160.426889 
L 380.066433 158.160931 
L 380.508175 155.894973 
L 380.9609 153.629016 
L 381.421058 151.363058 
L 381.884834 149.0971 
L 382.348122 146.831143 
L 382.80657 144.565185 
L 383.255678 142.299227 
L 383.69097 140.03327 
L 384.108198 137.767312 
L 384.503591 135.501354 
L 384.874084 133.235397 
L 385.217518 130.969439 
L 385.53278 128.703481 
L 385.81985 126.437524 
L 386.079763 124.171566 
L 386.31447 121.905608 
L 386.526626 119.639651 
L 386.719323 117.373693 
L 386.895795 115.107735 
L 387.059144 112.841778 
L 387.212098 110.57582 
L 387.356841 108.309862 
L 387.494917 106.043905 
L 387.627226 103.777947 
L 387.754092 101.511989 
L 387.875387 99.246032 
L 387.990702 96.980074 
L 388.099522 94.714116 
L 388.201387 92.448159 
L 388.296029 90.182201 
L 388.383455 87.916243 
L 388.463979 85.650286 
L 388.538211 83.384328 
L 388.606998 81.11837 
L 388.671338 78.852413 
L 388.732284 76.586455 
L 388.790839 74.320497 
L 388.84787 72.05454 
L 388.904044 69.788582 
L 388.959779 67.522624 
L 389.015236 65.256667 
L 390.197044 65.256667 
L 390.197044 65.256667 
L 390.252501 67.522624 
L 390.308236 69.788582 
L 390.364409 72.05454 
L 390.421441 74.320497 
L 390.479996 76.586455 
L 390.540942 78.852413 
L 390.605282 81.11837 
L 390.674069 83.384328 
L 390.748301 85.650286 
L 390.828825 87.916243 
L 390.91625 90.182201 
L 391.010893 92.448159 
L 391.112758 94.714116 
L 391.221577 96.980074 
L 391.336893 99.246032 
L 391.458188 101.511989 
L 391.585053 103.777947 
L 391.717363 106.043905 
L 391.855439 108.309862 
L 392.000181 110.57582 
L 392.153136 112.841778 
L 392.316485 115.107735 
L 392.492957 117.373693 
L 392.685653 119.639651 
L 392.89781 121.905608 
L 393.132517 124.171566 
L 393.39243 126.437524 
L 393.6795 128.703481 
L 393.994761 130.969439 
L 394.338196 133.235397 
L 394.708688 135.501354 
L 395.104082 137.767312 
L 395.52131 140.03327 
L 395.956601 142.299227 
L 396.40571 144.565185 
L 396.864158 146.831143 
L 397.327446 149.0971 
L 397.791221 151.363058 
L 398.25138 153.629016 
L 398.704105 155.894973 
L 399.145847 158.160931 
L 399.573263 160.426889 
L 399.983127 162.692846 
L 400.372245 164.958804 
L 400.737383 167.224762 
L 401.075233 169.490719 
L 401.382417 171.756677 
L 401.655543 174.022635 
L 401.891303 176.288592 
L 402.086607 178.55455 
L 402.23875 180.820508 
L 402.345589 183.086465 
L 402.405719 185.352423 
L 402.418636 187.618381 
L 402.384872 189.884338 
L 402.30607 192.150296 
L 402.185017 194.416254 
L 402.025583 196.682211 
L 401.832598 198.948169 
L 401.611635 201.214127 
L 401.368726 203.480084 
L 401.110005 205.746042 
L 400.841334 208.012 
L 400.567904 210.277957 
L 400.29389 212.543915 
L 400.022162 214.809873 
L 399.754121 217.07583 
L 399.489658 219.341788 
L 399.227277 221.607746 
L 398.964357 223.873703 
L 398.697545 226.139661 
L 398.423241 228.405619 
L 398.138108 230.671576 
L 397.839575 232.937534 
L 397.526243 235.203492 
L 397.198165 237.469449 
L 396.856956 239.735407 
L 396.505716 242.001365 
L 396.148782 244.267322 
L 395.791322 246.53328 
L 395.438851 248.799238 
L 395.096694 251.065196 
L 394.769487 253.331153 
L 394.460762 255.597111 
L 394.172668 257.863069 
L 393.905844 260.129026 
L 393.65947 262.394984 
L 393.431458 264.660942 
L 393.218767 266.926899 
L 393.017789 269.192857 
L 392.824758 271.458815 
L 392.636142 273.724772 
L 392.448964 275.99073 
L 392.261044 278.256688 
L 392.071131 280.522645 
L 391.878932 282.788603 
L 391.685048 285.054561 
L 391.490842 287.320518 
L 391.298246 289.586476 
L 391.298246 289.586476 
z
" clip-path="url(#p1ead373a15)" style="fill: none; stroke: #55a868; stroke-width: 1.5"/>
   </g>
   <g id="patch_3">
    <path d="M 146.69891 312.477273 
L 146.69891 312.477273 
L 146.69891 312.477273 
L 146.69891 312.477273 
L 146.69891 312.477273 
z
" clip-path="url(#p1ead373a15)" style="fill: none; stroke: #4c72b0; stroke-width: 1.5; stroke-linejoin: miter"/>
   </g>
   <g id="patch_4">
    <path d="M 146.69891 312.477273 
L 146.69891 312.477273 
L 146.69891 312.477273 
L 146.69891 312.477273 
L 146.69891 312.477273 
z
" clip-path="url(#p1ead373a15)" style="fill: none; stroke: #dd8452; stroke-width: 1.5; stroke-linejoin: miter"/>
   </g>
   <g id="patch_5">
    <path d="M 146.69891 312.477273 
L 146.69891 312.477273 
L 146.69891 312.477273 
L 146.69891 312.477273 
L 146.69891 312.477273 
z
" clip-path="url(#p1ead373a15)" style="fill: none; stroke: #55a868; stroke-width: 1.5; stroke-linejoin: miter"/>
   </g>
   <g id="line2d_9">
    <path d="M 95.560546 222.905828 
L 95.560546 154.76342 
" clip-path="url(#p1ead373a15)" style="fill: none; stroke: #4c72b0; stroke-width: 2.25; stroke-linecap: round"/>
   </g>
   <g id="line2d_10">
    <path d="M 95.560546 209.420353 
L 95.560546 183.296114 
" clip-path="url(#p1ead373a15)" style="fill: none; stroke: #4c72b0; stroke-width: 6.75; stroke-linecap: round"/>
   </g>
   <g id="line2d_11">
    <path d="M 95.560546 192.241655 
" clip-path="url(#p1ead373a15)" style="fill: none; stroke: #4c72b0; stroke-width: 1.5; stroke-linecap: round"/>
    <defs>
     <path id="mbd44425e84" d="M 2.8125 0 
L -2.8125 -0 
" style="stroke: #ffffff; stroke-width: 1.35"/>
    </defs>
    <g clip-path="url(#p1ead373a15)">
     <use xlink:href="#mbd44425e84" x="95.560546" y="192.241655" style="fill: #ffffff; stroke: #ffffff; stroke-width: 1.35"/>
    </g>
   </g>
   <g id="line2d_12">
    <path d="M 146.69891 221.799707 
L 146.69891 147.109104 
" clip-path="url(#p1ead373a15)" style="fill: none; stroke: #dd8452; stroke-width: 2.25; stroke-linecap: round"/>
   </g>
   <g id="line2d_13">
    <path d="M 146.69891 199.426399 
L 146.69891 177.232763 
" clip-path="url(#p1ead373a15)" style="fill: none; stroke: #dd8452; stroke-width: 6.75; stroke-linecap: round"/>
   </g>
   <g id="line2d_14">
    <path d="M 146.69891 189.127983 
" clip-path="url(#p1ead373a15)" style="fill: none; stroke: #dd8452; stroke-width: 1.5; stroke-linecap: round"/>
    <g clip-path="url(#p1ead373a15)">
     <use xlink:href="#mbd44425e84" x="146.69891" y="189.127983" style="fill: #ffffff; stroke: #ffffff; stroke-width: 1.35"/>
    </g>
   </g>
   <g id="line2d_15">
    <path d="M 197.837274 225.94124 
L 197.837274 132.033503 
" clip-path="url(#p1ead373a15)" style="fill: none; stroke: #55a868; stroke-width: 2.25; stroke-linecap: round"/>
   </g>
   <g id="line2d_16">
    <path d="M 197.837274 193.790096 
L 197.837274 166.654873 
" clip-path="url(#p1ead373a15)" style="fill: none; stroke: #55a868; stroke-width: 6.75; stroke-linecap: round"/>
   </g>
   <g id="line2d_17">
    <path d="M 197.837274 180.812142 
" clip-path="url(#p1ead373a15)" style="fill: none; stroke: #55a868; stroke-width: 1.5; stroke-linecap: round"/>
    <g clip-path="url(#p1ead373a15)">
     <use xlink:href="#mbd44425e84" x="197.837274" y="180.812142" style="fill: #ffffff; stroke: #ffffff; stroke-width: 1.35"/>
    </g>
   </g>
   <g id="line2d_18">
    <path d="M 287.329411 312.477273 
L 287.329411 65.256667 
" clip-path="url(#p1ead373a15)" style="fill: none; stroke: #4c72b0; stroke-width: 2.25; stroke-linecap: round"/>
   </g>
   <g id="line2d_19">
    <path d="M 287.329411 220.914085 
L 287.329411 157.964394 
" clip-path="url(#p1ead373a15)" style="fill: none; stroke: #4c72b0; stroke-width: 6.75; stroke-linecap: round"/>
   </g>
   <g id="line2d_20">
    <path d="M 287.329411 187.60788 
" clip-path="url(#p1ead373a15)" style="fill: none; stroke: #4c72b0; stroke-width: 1.5; stroke-linecap: round"/>
    <g clip-path="url(#p1ead373a15)">
     <use xlink:href="#mbd44425e84" x="287.329411" y="187.60788" style="fill: #ffffff; stroke: #ffffff; stroke-width: 1.35"/>
    </g>
   </g>
   <g id="line2d_21">
    <path d="M 338.467776 285.008316 
L 338.467776 92.725623 
" clip-path="url(#p1ead373a15)" style="fill: none; stroke: #dd8452; stroke-width: 2.25; stroke-linecap: round"/>
   </g>
   <g id="line2d_22">
    <path d="M 338.467776 224.184199 
L 338.467776 170.731348 
" clip-path="url(#p1ead373a15)" style="fill: none; stroke: #dd8452; stroke-width: 6.75; stroke-linecap: round"/>
   </g>
   <g id="line2d_23">
    <path d="M 338.467776 192.573683 
" clip-path="url(#p1ead373a15)" style="fill: none; stroke: #dd8452; stroke-width: 1.5; stroke-linecap: round"/>
    <g clip-path="url(#p1ead373a15)">
     <use xlink:href="#mbd44425e84" x="338.467776" y="192.573683" style="fill: #ffffff; stroke: #ffffff; stroke-width: 1.35"/>
    </g>
   </g>
   <g id="line2d_24">
    <path d="M 389.60614 289.586476 
L 389.60614 78.991145 
" clip-path="url(#p1ead373a15)" style="fill: none; stroke: #55a868; stroke-width: 2.25; stroke-linecap: round"/>
   </g>
   <g id="line2d_25">
    <path d="M 389.60614 222.34476 
L 389.60614 163.70357 
" clip-path="url(#p1ead373a15)" style="fill: none; stroke: #55a868; stroke-width: 6.75; stroke-linecap: round"/>
   </g>
   <g id="line2d_26">
    <path d="M 389.60614 191.290701 
" clip-path="url(#p1ead373a15)" style="fill: none; stroke: #55a868; stroke-width: 1.5; stroke-linecap: round"/>
    <g clip-path="url(#p1ead373a15)">
     <use xlink:href="#mbd44425e84" x="389.60614" y="191.290701" style="fill: #ffffff; stroke: #ffffff; stroke-width: 1.35"/>
    </g>
   </g>
   <g id="patch_6">
    <path d="M 53.37 326.74 
L 53.37 12.96 
" style="fill: none; stroke: #ffffff; stroke-width: 1.25; stroke-linejoin: miter; stroke-linecap: square"/>
   </g>
   <g id="patch_7">
    <path d="M 419.04 326.74 
L 419.04 12.96 
" style="fill: none; stroke: #ffffff; stroke-width: 1.25; stroke-linejoin: miter; stroke-linecap: square"/>
   </g>
   <g id="patch_8">
    <path d="M 53.37 326.74 
L 419.04 326.74 
" style="fill: none; stroke: #ffffff; stroke-width: 1.25; stroke-linejoin: miter; stroke-linecap: square"/>
   </g>
   <g id="patch_9">
    <path d="M 53.37 12.96 
L 419.04 12.96 
" style="fill: none; stroke: #ffffff; stroke-width: 1.25; stroke-linejoin: miter; stroke-linecap: square"/>
   </g>
   <g id="legend_1">
    <g id="patch_10">
     <path d="M 61.07 86.34375 
L 141.806563 86.34375 
Q 144.006563 86.34375 144.006563 84.14375 
L 144.006563 20.66 
Q 144.006563 18.46 141.806563 18.46 
L 61.07 18.46 
Q 58.87 18.46 58.87 20.66 
L 58.87 84.14375 
Q 58.87 86.34375 61.07 86.34375 
z
" style="fill: #eaeaf2; opacity: 0.8; stroke: #cccccc; stroke-linejoin: miter"/>
    </g>
    <g id="patch_11">
     <path d="M 63.27 31.218281 
L 85.27 31.218281 
L 85.27 23.518281 
L 63.27 23.518281 
L 63.27 31.218281 
z
" style="fill: none; stroke: #4c72b0; stroke-width: 1.5; stroke-linejoin: miter"/>
    </g>
    <g id="text_12">
     <!-- Distant -->
     <g style="fill: #262626" transform="translate(94.07 31.218281) scale(0.11 -0.11)">
      <defs>
       <path id="DejaVuSans-44" d="M 1259 4147 
L 1259 519 
L 2022 519 
Q 2988 519 3436 956 
Q 3884 1394 3884 2338 
Q 3884 3275 3436 3711 
Q 2988 4147 2022 4147 
L 1259 4147 
z
M 628 4666 
L 1925 4666 
Q 3281 4666 3915 4102 
Q 4550 3538 4550 2338 
Q 4550 1131 3912 565 
Q 3275 0 1925 0 
L 628 0 
L 628 4666 
z
" transform="scale(0.015625)"/>
      </defs>
      <use xlink:href="#DejaVuSans-44"/>
      <use xlink:href="#DejaVuSans-69" x="77.001953"/>
      <use xlink:href="#DejaVuSans-73" x="104.785156"/>
      <use xlink:href="#DejaVuSans-74" x="156.884766"/>
      <use xlink:href="#DejaVuSans-61" x="196.09375"/>
      <use xlink:href="#DejaVuSans-6e" x="257.373047"/>
      <use xlink:href="#DejaVuSans-74" x="320.751953"/>
     </g>
    </g>
    <g id="patch_12">
     <path d="M 63.27 47.364219 
L 85.27 47.364219 
L 85.27 39.664219 
L 63.27 39.664219 
L 63.27 47.364219 
z
" style="fill: none; stroke: #dd8452; stroke-width: 1.5; stroke-linejoin: miter"/>
    </g>
    <g id="text_13">
     <!-- Random -->
     <g style="fill: #262626" transform="translate(94.07 47.364219) scale(0.11 -0.11)">
      <use xlink:href="#DejaVuSans-52"/>
      <use xlink:href="#DejaVuSans-61" x="67.232422"/>
      <use xlink:href="#DejaVuSans-6e" x="128.511719"/>
      <use xlink:href="#DejaVuSans-64" x="191.890625"/>
      <use xlink:href="#DejaVuSans-6f" x="255.367188"/>
      <use xlink:href="#DejaVuSans-6d" x="316.548828"/>
     </g>
    </g>
    <g id="patch_13">
     <path d="M 63.27 63.510156 
L 85.27 63.510156 
L 85.27 55.810156 
L 63.27 55.810156 
L 63.27 63.510156 
z
" style="fill: none; stroke: #55a868; stroke-width: 1.5; stroke-linejoin: miter"/>
    </g>
    <g id="text_14">
     <!-- Similar -->
     <g style="fill: #262626" transform="translate(94.07 63.510156) scale(0.11 -0.11)">
      <defs>
       <path id="DejaVuSans-53" d="M 3425 4513 
L 3425 3897 
Q 3066 4069 2747 4153 
Q 2428 4238 2131 4238 
Q 1616 4238 1336 4038 
Q 1056 3838 1056 3469 
Q 1056 3159 1242 3001 
Q 1428 2844 1947 2747 
L 2328 2669 
Q 3034 2534 3370 2195 
Q 3706 1856 3706 1288 
Q 3706 609 3251 259 
Q 2797 -91 1919 -91 
Q 1588 -91 1214 -16 
Q 841 59 441 206 
L 441 856 
Q 825 641 1194 531 
Q 1563 422 1919 422 
Q 2459 422 2753 634 
Q 3047 847 3047 1241 
Q 3047 1584 2836 1778 
Q 2625 1972 2144 2069 
L 1759 2144 
Q 1053 2284 737 2584 
Q 422 2884 422 3419 
Q 422 4038 858 4394 
Q 1294 4750 2059 4750 
Q 2388 4750 2728 4690 
Q 3069 4631 3425 4513 
z
" transform="scale(0.015625)"/>
       <path id="DejaVuSans-6c" d="M 603 4863 
L 1178 4863 
L 1178 0 
L 603 0 
L 603 4863 
z
" transform="scale(0.015625)"/>
      </defs>
      <use xlink:href="#DejaVuSans-53"/>
      <use xlink:href="#DejaVuSans-69" x="63.476562"/>
      <use xlink:href="#DejaVuSans-6d" x="91.259766"/>
      <use xlink:href="#DejaVuSans-69" x="188.671875"/>
      <use xlink:href="#DejaVuSans-6c" x="216.455078"/>
      <use xlink:href="#DejaVuSans-61" x="244.238281"/>
      <use xlink:href="#DejaVuSans-72" x="305.517578"/>
     </g>
    </g>
    <g id="PathCollection_1">
     <defs>
      <path id="m18ac535bee" d="M 0 3 
C 0.795609 3 1.55874 2.683901 2.12132 2.12132 
C 2.683901 1.55874 3 0.795609 3 0 
C 3 -0.795609 2.683901 -1.55874 2.12132 -2.12132 
C 1.55874 -2.683901 0.795609 -3 0 -3 
C -0.795609 -3 -1.55874 -2.683901 -2.12132 -2.12132 
C -2.683901 -1.55874 -3 -0.795609 -3 0 
C -3 0.795609 -2.683901 1.55874 -2.12132 2.12132 
C -1.55874 2.683901 -0.795609 3 0 3 
z
" style="stroke: #000000; stroke-opacity: 0.7"/>
     </defs>
     <g>
      <use xlink:href="#m18ac535bee" x="74.27" y="76.768594" style="fill-opacity: 0.7; stroke: #000000; stroke-opacity: 0.7"/>
     </g>
    </g>
    <g id="text_15">
     <!-- Mean -->
     <g style="fill: #262626" transform="translate(94.07 79.656094) scale(0.11 -0.11)">
      <use xlink:href="#DejaVuSans-4d"/>
      <use xlink:href="#DejaVuSans-65" x="86.279297"/>
      <use xlink:href="#DejaVuSans-61" x="147.802734"/>
      <use xlink:href="#DejaVuSans-6e" x="209.082031"/>
     </g>
    </g>
   </g>
   <g id="PathCollection_2">
    <g clip-path="url(#p1ead373a15)">
     <use xlink:href="#m18ac535bee" x="287.265489" y="190.255237" style="fill-opacity: 0.7; stroke: #000000; stroke-opacity: 0.7"/>
    </g>
   </g>
   <g id="PathCollection_3">
    <g clip-path="url(#p1ead373a15)">
     <use xlink:href="#m18ac535bee" x="338.467776" y="192.710172" style="fill-opacity: 0.7; stroke: #000000; stroke-opacity: 0.7"/>
    </g>
   </g>
   <g id="PathCollection_4">
    <g clip-path="url(#p1ead373a15)">
     <use xlink:href="#m18ac535bee" x="389.670063" y="191.94853" style="fill-opacity: 0.7; stroke: #000000; stroke-opacity: 0.7"/>
    </g>
   </g>
   <g id="PathCollection_5">
    <g clip-path="url(#p1ead373a15)">
     <use xlink:href="#m18ac535bee" x="95.496623" y="194.259178" style="fill-opacity: 0.7; stroke: #000000; stroke-opacity: 0.7"/>
    </g>
   </g>
   <g id="PathCollection_6">
    <g clip-path="url(#p1ead373a15)">
     <use xlink:href="#m18ac535bee" x="146.69891" y="187.926896" style="fill-opacity: 0.7; stroke: #000000; stroke-opacity: 0.7"/>
    </g>
   </g>
   <g id="PathCollection_7">
    <g clip-path="url(#p1ead373a15)">
     <use xlink:href="#m18ac535bee" x="197.901197" y="181.370491" style="fill-opacity: 0.7; stroke: #000000; stroke-opacity: 0.7"/>
    </g>
   </g>
  </g>
 </g>
 <defs>
  <clipPath id="p1ead373a15">
   <rect x="53.37" y="12.96" width="365.67" height="313.78"/>
  </clipPath>
 </defs>
</svg>
