<?xml version="1.0" encoding="utf-8" standalone="no"?>
<!DOCTYPE svg PUBLIC "-//W3C//DTD SVG 1.1//EN"
  "http://www.w3.org/Graphics/SVG/1.1/DTD/svg11.dtd">
<svg xmlns:xlink="http://www.w3.org/1999/xlink" width="432pt" height="360pt" viewBox="0 0 432 360" xmlns="http://www.w3.org/2000/svg" version="1.1">
 <metadata>
  <rdf:RDF xmlns:dc="http://purl.org/dc/elements/1.1/" xmlns:cc="http://creativecommons.org/ns#" xmlns:rdf="http://www.w3.org/1999/02/22-rdf-syntax-ns#">
   <cc:Work>
    <dc:type rdf:resource="http://purl.org/dc/dcmitype/StillImage"/>
    <dc:date>2025-05-19T12:33:36.262911</dc:date>
    <dc:format>image/svg+xml</dc:format>
    <dc:creator>
     <cc:Agent>
      <dc:title>Matplotlib v3.9.2, https://matplotlib.org/</dc:title>
     </cc:Agent>
    </dc:creator>
   </cc:Work>
  </rdf:RDF>
 </metadata>
 <defs>
  <style type="text/css">*{stroke-linejoin: round; stroke-linecap: butt}</style>
 </defs>
 <g id="figure_1">
  <g id="patch_1">
   <path d="M 0 360 
L 432 360 
L 432 0 
L 0 0 
z
" style="fill: #ffffff"/>
  </g>
  <g id="axes_1">
   <g id="patch_2">
    <path d="M 63.72 326.74 
L 419.04 326.74 
L 419.04 12.96 
L 63.72 12.96 
z
" style="fill: #eaeaf2"/>
   </g>
   <g id="matplotlib.axis_1">
    <g id="xtick_1">
     <g id="text_1">
      <!-- 50 Most active users -->
      <g style="fill: #262626" transform="translate(97.986506 344.598281) scale(0.11 -0.11)">
       <defs>
        <path id="DejaVuSans-35" d="M 691 4666 
L 3169 4666 
L 3169 4134 
L 1269 4134 
L 1269 2991 
Q 1406 3038 1543 3061 
Q 1681 3084 1819 3084 
Q 2600 3084 3056 2656 
Q 3513 2228 3513 1497 
Q 3513 744 3044 326 
Q 2575 -91 1722 -91 
Q 1428 -91 1123 -41 
Q 819 9 494 109 
L 494 744 
Q 775 591 1075 516 
Q 1375 441 1709 441 
Q 2250 441 2565 725 
Q 2881 1009 2881 1497 
Q 2881 1984 2565 2268 
Q 2250 2553 1709 2553 
Q 1456 2553 1204 2497 
Q 953 2441 691 2322 
L 691 4666 
z
" transform="scale(0.015625)"/>
        <path id="DejaVuSans-30" d="M 2034 4250 
Q 1547 4250 1301 3770 
Q 1056 3291 1056 2328 
Q 1056 1369 1301 889 
Q 1547 409 2034 409 
Q 2525 409 2770 889 
Q 3016 1369 3016 2328 
Q 3016 3291 2770 3770 
Q 2525 4250 2034 4250 
z
M 2034 4750 
Q 2819 4750 3233 4129 
Q 3647 3509 3647 2328 
Q 3647 1150 3233 529 
Q 2819 -91 2034 -91 
Q 1250 -91 836 529 
Q 422 1150 422 2328 
Q 422 3509 836 4129 
Q 1250 4750 2034 4750 
z
" transform="scale(0.015625)"/>
        <path id="DejaVuSans-20" transform="scale(0.015625)"/>
        <path id="DejaVuSans-4d" d="M 628 4666 
L 1569 4666 
L 2759 1491 
L 3956 4666 
L 4897 4666 
L 4897 0 
L 4281 0 
L 4281 4097 
L 3078 897 
L 2444 897 
L 1241 4097 
L 1241 0 
L 628 0 
L 628 4666 
z
" transform="scale(0.015625)"/>
        <path id="DejaVuSans-6f" d="M 1959 3097 
Q 1497 3097 1228 2736 
Q 959 2375 959 1747 
Q 959 1119 1226 758 
Q 1494 397 1959 397 
Q 2419 397 2687 759 
Q 2956 1122 2956 1747 
Q 2956 2369 2687 2733 
Q 2419 3097 1959 3097 
z
M 1959 3584 
Q 2709 3584 3137 3096 
Q 3566 2609 3566 1747 
Q 3566 888 3137 398 
Q 2709 -91 1959 -91 
Q 1206 -91 779 398 
Q 353 888 353 1747 
Q 353 2609 779 3096 
Q 1206 3584 1959 3584 
z
" transform="scale(0.015625)"/>
        <path id="DejaVuSans-73" d="M 2834 3397 
L 2834 2853 
Q 2591 2978 2328 3040 
Q 2066 3103 1784 3103 
Q 1356 3103 1142 2972 
Q 928 2841 928 2578 
Q 928 2378 1081 2264 
Q 1234 2150 1697 2047 
L 1894 2003 
Q 2506 1872 2764 1633 
Q 3022 1394 3022 966 
Q 3022 478 2636 193 
Q 2250 -91 1575 -91 
Q 1294 -91 989 -36 
Q 684 19 347 128 
L 347 722 
Q 666 556 975 473 
Q 1284 391 1588 391 
Q 1994 391 2212 530 
Q 2431 669 2431 922 
Q 2431 1156 2273 1281 
Q 2116 1406 1581 1522 
L 1381 1569 
Q 847 1681 609 1914 
Q 372 2147 372 2553 
Q 372 3047 722 3315 
Q 1072 3584 1716 3584 
Q 2034 3584 2315 3537 
Q 2597 3491 2834 3397 
z
" transform="scale(0.015625)"/>
        <path id="DejaVuSans-74" d="M 1172 4494 
L 1172 3500 
L 2356 3500 
L 2356 3053 
L 1172 3053 
L 1172 1153 
Q 1172 725 1289 603 
Q 1406 481 1766 481 
L 2356 481 
L 2356 0 
L 1766 0 
Q 1100 0 847 248 
Q 594 497 594 1153 
L 594 3053 
L 172 3053 
L 172 3500 
L 594 3500 
L 594 4494 
L 1172 4494 
z
" transform="scale(0.015625)"/>
        <path id="DejaVuSans-61" d="M 2194 1759 
Q 1497 1759 1228 1600 
Q 959 1441 959 1056 
Q 959 750 1161 570 
Q 1363 391 1709 391 
Q 2188 391 2477 730 
Q 2766 1069 2766 1631 
L 2766 1759 
L 2194 1759 
z
M 3341 1997 
L 3341 0 
L 2766 0 
L 2766 531 
Q 2569 213 2275 61 
Q 1981 -91 1556 -91 
Q 1019 -91 701 211 
Q 384 513 384 1019 
Q 384 1609 779 1909 
Q 1175 2209 1959 2209 
L 2766 2209 
L 2766 2266 
Q 2766 2663 2505 2880 
Q 2244 3097 1772 3097 
Q 1472 3097 1187 3025 
Q 903 2953 641 2809 
L 641 3341 
Q 956 3463 1253 3523 
Q 1550 3584 1831 3584 
Q 2591 3584 2966 3190 
Q 3341 2797 3341 1997 
z
" transform="scale(0.015625)"/>
        <path id="DejaVuSans-63" d="M 3122 3366 
L 3122 2828 
Q 2878 2963 2633 3030 
Q 2388 3097 2138 3097 
Q 1578 3097 1268 2742 
Q 959 2388 959 1747 
Q 959 1106 1268 751 
Q 1578 397 2138 397 
Q 2388 397 2633 464 
Q 2878 531 3122 666 
L 3122 134 
Q 2881 22 2623 -34 
Q 2366 -91 2075 -91 
Q 1284 -91 818 406 
Q 353 903 353 1747 
Q 353 2603 823 3093 
Q 1294 3584 2113 3584 
Q 2378 3584 2631 3529 
Q 2884 3475 3122 3366 
z
" transform="scale(0.015625)"/>
        <path id="DejaVuSans-69" d="M 603 3500 
L 1178 3500 
L 1178 0 
L 603 0 
L 603 3500 
z
M 603 4863 
L 1178 4863 
L 1178 4134 
L 603 4134 
L 603 4863 
z
" transform="scale(0.015625)"/>
        <path id="DejaVuSans-76" d="M 191 3500 
L 800 3500 
L 1894 563 
L 2988 3500 
L 3597 3500 
L 2284 0 
L 1503 0 
L 191 3500 
z
" transform="scale(0.015625)"/>
        <path id="DejaVuSans-65" d="M 3597 1894 
L 3597 1613 
L 953 1613 
Q 991 1019 1311 708 
Q 1631 397 2203 397 
Q 2534 397 2845 478 
Q 3156 559 3463 722 
L 3463 178 
Q 3153 47 2828 -22 
Q 2503 -91 2169 -91 
Q 1331 -91 842 396 
Q 353 884 353 1716 
Q 353 2575 817 3079 
Q 1281 3584 2069 3584 
Q 2775 3584 3186 3129 
Q 3597 2675 3597 1894 
z
M 3022 2063 
Q 3016 2534 2758 2815 
Q 2500 3097 2075 3097 
Q 1594 3097 1305 2825 
Q 1016 2553 972 2059 
L 3022 2063 
z
" transform="scale(0.015625)"/>
        <path id="DejaVuSans-75" d="M 544 1381 
L 544 3500 
L 1119 3500 
L 1119 1403 
Q 1119 906 1312 657 
Q 1506 409 1894 409 
Q 2359 409 2629 706 
Q 2900 1003 2900 1516 
L 2900 3500 
L 3475 3500 
L 3475 0 
L 2900 0 
L 2900 538 
Q 2691 219 2414 64 
Q 2138 -91 1772 -91 
Q 1169 -91 856 284 
Q 544 659 544 1381 
z
M 1991 3584 
L 1991 3584 
z
" transform="scale(0.015625)"/>
        <path id="DejaVuSans-72" d="M 2631 2963 
Q 2534 3019 2420 3045 
Q 2306 3072 2169 3072 
Q 1681 3072 1420 2755 
Q 1159 2438 1159 1844 
L 1159 0 
L 581 0 
L 581 3500 
L 1159 3500 
L 1159 2956 
Q 1341 3275 1631 3429 
Q 1922 3584 2338 3584 
Q 2397 3584 2469 3576 
Q 2541 3569 2628 3553 
L 2631 2963 
z
" transform="scale(0.015625)"/>
       </defs>
       <use xlink:href="#DejaVuSans-35"/>
       <use xlink:href="#DejaVuSans-30" x="63.623047"/>
       <use xlink:href="#DejaVuSans-20" x="127.246094"/>
       <use xlink:href="#DejaVuSans-4d" x="159.033203"/>
       <use xlink:href="#DejaVuSans-6f" x="245.3125"/>
       <use xlink:href="#DejaVuSans-73" x="306.494141"/>
       <use xlink:href="#DejaVuSans-74" x="358.59375"/>
       <use xlink:href="#DejaVuSans-20" x="397.802734"/>
       <use xlink:href="#DejaVuSans-61" x="429.589844"/>
       <use xlink:href="#DejaVuSans-63" x="490.869141"/>
       <use xlink:href="#DejaVuSans-74" x="545.849609"/>
       <use xlink:href="#DejaVuSans-69" x="585.058594"/>
       <use xlink:href="#DejaVuSans-76" x="612.841797"/>
       <use xlink:href="#DejaVuSans-65" x="672.021484"/>
       <use xlink:href="#DejaVuSans-20" x="733.544922"/>
       <use xlink:href="#DejaVuSans-75" x="765.332031"/>
       <use xlink:href="#DejaVuSans-73" x="828.710938"/>
       <use xlink:href="#DejaVuSans-65" x="880.810547"/>
       <use xlink:href="#DejaVuSans-72" x="942.333984"/>
       <use xlink:href="#DejaVuSans-73" x="983.447266"/>
      </g>
     </g>
    </g>
    <g id="xtick_2">
     <g id="text_2">
      <!-- 200 Random users -->
      <g style="fill: #262626" transform="translate(290.991747 344.598281) scale(0.11 -0.11)">
       <defs>
        <path id="DejaVuSans-32" d="M 1228 531 
L 3431 531 
L 3431 0 
L 469 0 
L 469 531 
Q 828 903 1448 1529 
Q 2069 2156 2228 2338 
Q 2531 2678 2651 2914 
Q 2772 3150 2772 3378 
Q 2772 3750 2511 3984 
Q 2250 4219 1831 4219 
Q 1534 4219 1204 4116 
Q 875 4013 500 3803 
L 500 4441 
Q 881 4594 1212 4672 
Q 1544 4750 1819 4750 
Q 2544 4750 2975 4387 
Q 3406 4025 3406 3419 
Q 3406 3131 3298 2873 
Q 3191 2616 2906 2266 
Q 2828 2175 2409 1742 
Q 1991 1309 1228 531 
z
" transform="scale(0.015625)"/>
        <path id="DejaVuSans-52" d="M 2841 2188 
Q 3044 2119 3236 1894 
Q 3428 1669 3622 1275 
L 4263 0 
L 3584 0 
L 2988 1197 
Q 2756 1666 2539 1819 
Q 2322 1972 1947 1972 
L 1259 1972 
L 1259 0 
L 628 0 
L 628 4666 
L 2053 4666 
Q 2853 4666 3247 4331 
Q 3641 3997 3641 3322 
Q 3641 2881 3436 2590 
Q 3231 2300 2841 2188 
z
M 1259 4147 
L 1259 2491 
L 2053 2491 
Q 2509 2491 2742 2702 
Q 2975 2913 2975 3322 
Q 2975 3731 2742 3939 
Q 2509 4147 2053 4147 
L 1259 4147 
z
" transform="scale(0.015625)"/>
        <path id="DejaVuSans-6e" d="M 3513 2113 
L 3513 0 
L 2938 0 
L 2938 2094 
Q 2938 2591 2744 2837 
Q 2550 3084 2163 3084 
Q 1697 3084 1428 2787 
Q 1159 2491 1159 1978 
L 1159 0 
L 581 0 
L 581 3500 
L 1159 3500 
L 1159 2956 
Q 1366 3272 1645 3428 
Q 1925 3584 2291 3584 
Q 2894 3584 3203 3211 
Q 3513 2838 3513 2113 
z
" transform="scale(0.015625)"/>
        <path id="DejaVuSans-64" d="M 2906 2969 
L 2906 4863 
L 3481 4863 
L 3481 0 
L 2906 0 
L 2906 525 
Q 2725 213 2448 61 
Q 2172 -91 1784 -91 
Q 1150 -91 751 415 
Q 353 922 353 1747 
Q 353 2572 751 3078 
Q 1150 3584 1784 3584 
Q 2172 3584 2448 3432 
Q 2725 3281 2906 2969 
z
M 947 1747 
Q 947 1113 1208 752 
Q 1469 391 1925 391 
Q 2381 391 2643 752 
Q 2906 1113 2906 1747 
Q 2906 2381 2643 2742 
Q 2381 3103 1925 3103 
Q 1469 3103 1208 2742 
Q 947 2381 947 1747 
z
" transform="scale(0.015625)"/>
        <path id="DejaVuSans-6d" d="M 3328 2828 
Q 3544 3216 3844 3400 
Q 4144 3584 4550 3584 
Q 5097 3584 5394 3201 
Q 5691 2819 5691 2113 
L 5691 0 
L 5113 0 
L 5113 2094 
Q 5113 2597 4934 2840 
Q 4756 3084 4391 3084 
Q 3944 3084 3684 2787 
Q 3425 2491 3425 1978 
L 3425 0 
L 2847 0 
L 2847 2094 
Q 2847 2600 2669 2842 
Q 2491 3084 2119 3084 
Q 1678 3084 1418 2786 
Q 1159 2488 1159 1978 
L 1159 0 
L 581 0 
L 581 3500 
L 1159 3500 
L 1159 2956 
Q 1356 3278 1631 3431 
Q 1906 3584 2284 3584 
Q 2666 3584 2933 3390 
Q 3200 3197 3328 2828 
z
" transform="scale(0.015625)"/>
       </defs>
       <use xlink:href="#DejaVuSans-32"/>
       <use xlink:href="#DejaVuSans-30" x="63.623047"/>
       <use xlink:href="#DejaVuSans-30" x="127.246094"/>
       <use xlink:href="#DejaVuSans-20" x="190.869141"/>
       <use xlink:href="#DejaVuSans-52" x="222.65625"/>
       <use xlink:href="#DejaVuSans-61" x="289.888672"/>
       <use xlink:href="#DejaVuSans-6e" x="351.167969"/>
       <use xlink:href="#DejaVuSans-64" x="414.546875"/>
       <use xlink:href="#DejaVuSans-6f" x="478.023438"/>
       <use xlink:href="#DejaVuSans-6d" x="539.205078"/>
       <use xlink:href="#DejaVuSans-20" x="636.617188"/>
       <use xlink:href="#DejaVuSans-75" x="668.404297"/>
       <use xlink:href="#DejaVuSans-73" x="731.783203"/>
       <use xlink:href="#DejaVuSans-65" x="783.882812"/>
       <use xlink:href="#DejaVuSans-72" x="845.40625"/>
       <use xlink:href="#DejaVuSans-73" x="886.519531"/>
      </g>
     </g>
    </g>
   </g>
   <g id="matplotlib.axis_2">
    <g id="ytick_1">
     <g id="line2d_1">
      <path d="M 63.72 312.477273 
L 419.04 312.477273 
" clip-path="url(#p2274c9cb1e)" style="fill: none; stroke: #ffffff; stroke-linecap: round"/>
     </g>
     <g id="text_3">
      <!-- 0.0 -->
      <g style="fill: #262626" transform="translate(36.726563 316.656413) scale(0.11 -0.11)">
       <defs>
        <path id="DejaVuSans-2e" d="M 684 794 
L 1344 794 
L 1344 0 
L 684 0 
L 684 794 
z
" transform="scale(0.015625)"/>
       </defs>
       <use xlink:href="#DejaVuSans-30"/>
       <use xlink:href="#DejaVuSans-2e" x="63.623047"/>
       <use xlink:href="#DejaVuSans-30" x="95.410156"/>
      </g>
     </g>
    </g>
    <g id="ytick_2">
     <g id="line2d_2">
      <path d="M 63.72 276.820455 
L 419.04 276.820455 
" clip-path="url(#p2274c9cb1e)" style="fill: none; stroke: #ffffff; stroke-linecap: round"/>
     </g>
     <g id="text_4">
      <!-- 2.5 -->
      <g style="fill: #262626" transform="translate(36.726563 280.999595) scale(0.11 -0.11)">
       <use xlink:href="#DejaVuSans-32"/>
       <use xlink:href="#DejaVuSans-2e" x="63.623047"/>
       <use xlink:href="#DejaVuSans-35" x="95.410156"/>
      </g>
     </g>
    </g>
    <g id="ytick_3">
     <g id="line2d_3">
      <path d="M 63.72 241.163636 
L 419.04 241.163636 
" clip-path="url(#p2274c9cb1e)" style="fill: none; stroke: #ffffff; stroke-linecap: round"/>
     </g>
     <g id="text_5">
      <!-- 5.0 -->
      <g style="fill: #262626" transform="translate(36.726563 245.342777) scale(0.11 -0.11)">
       <use xlink:href="#DejaVuSans-35"/>
       <use xlink:href="#DejaVuSans-2e" x="63.623047"/>
       <use xlink:href="#DejaVuSans-30" x="95.410156"/>
      </g>
     </g>
    </g>
    <g id="ytick_4">
     <g id="line2d_4">
      <path d="M 63.72 205.506818 
L 419.04 205.506818 
" clip-path="url(#p2274c9cb1e)" style="fill: none; stroke: #ffffff; stroke-linecap: round"/>
     </g>
     <g id="text_6">
      <!-- 7.5 -->
      <g style="fill: #262626" transform="translate(36.726563 209.685959) scale(0.11 -0.11)">
       <defs>
        <path id="DejaVuSans-37" d="M 525 4666 
L 3525 4666 
L 3525 4397 
L 1831 0 
L 1172 0 
L 2766 4134 
L 525 4134 
L 525 4666 
z
" transform="scale(0.015625)"/>
       </defs>
       <use xlink:href="#DejaVuSans-37"/>
       <use xlink:href="#DejaVuSans-2e" x="63.623047"/>
       <use xlink:href="#DejaVuSans-35" x="95.410156"/>
      </g>
     </g>
    </g>
    <g id="ytick_5">
     <g id="line2d_5">
      <path d="M 63.72 169.85 
L 419.04 169.85 
" clip-path="url(#p2274c9cb1e)" style="fill: none; stroke: #ffffff; stroke-linecap: round"/>
     </g>
     <g id="text_7">
      <!-- 10.0 -->
      <g style="fill: #262626" transform="translate(29.727813 174.029141) scale(0.11 -0.11)">
       <defs>
        <path id="DejaVuSans-31" d="M 794 531 
L 1825 531 
L 1825 4091 
L 703 3866 
L 703 4441 
L 1819 4666 
L 2450 4666 
L 2450 531 
L 3481 531 
L 3481 0 
L 794 0 
L 794 531 
z
" transform="scale(0.015625)"/>
       </defs>
       <use xlink:href="#DejaVuSans-31"/>
       <use xlink:href="#DejaVuSans-30" x="63.623047"/>
       <use xlink:href="#DejaVuSans-2e" x="127.246094"/>
       <use xlink:href="#DejaVuSans-30" x="159.033203"/>
      </g>
     </g>
    </g>
    <g id="ytick_6">
     <g id="line2d_6">
      <path d="M 63.72 134.193182 
L 419.04 134.193182 
" clip-path="url(#p2274c9cb1e)" style="fill: none; stroke: #ffffff; stroke-linecap: round"/>
     </g>
     <g id="text_8">
      <!-- 12.5 -->
      <g style="fill: #262626" transform="translate(29.727813 138.372322) scale(0.11 -0.11)">
       <use xlink:href="#DejaVuSans-31"/>
       <use xlink:href="#DejaVuSans-32" x="63.623047"/>
       <use xlink:href="#DejaVuSans-2e" x="127.246094"/>
       <use xlink:href="#DejaVuSans-35" x="159.033203"/>
      </g>
     </g>
    </g>
    <g id="ytick_7">
     <g id="line2d_7">
      <path d="M 63.72 98.536364 
L 419.04 98.536364 
" clip-path="url(#p2274c9cb1e)" style="fill: none; stroke: #ffffff; stroke-linecap: round"/>
     </g>
     <g id="text_9">
      <!-- 15.0 -->
      <g style="fill: #262626" transform="translate(29.727813 102.715504) scale(0.11 -0.11)">
       <use xlink:href="#DejaVuSans-31"/>
       <use xlink:href="#DejaVuSans-35" x="63.623047"/>
       <use xlink:href="#DejaVuSans-2e" x="127.246094"/>
       <use xlink:href="#DejaVuSans-30" x="159.033203"/>
      </g>
     </g>
    </g>
    <g id="ytick_8">
     <g id="line2d_8">
      <path d="M 63.72 62.879545 
L 419.04 62.879545 
" clip-path="url(#p2274c9cb1e)" style="fill: none; stroke: #ffffff; stroke-linecap: round"/>
     </g>
     <g id="text_10">
      <!-- 17.5 -->
      <g style="fill: #262626" transform="translate(29.727813 67.058686) scale(0.11 -0.11)">
       <use xlink:href="#DejaVuSans-31"/>
       <use xlink:href="#DejaVuSans-37" x="63.623047"/>
       <use xlink:href="#DejaVuSans-2e" x="127.246094"/>
       <use xlink:href="#DejaVuSans-35" x="159.033203"/>
      </g>
     </g>
    </g>
    <g id="ytick_9">
     <g id="line2d_9">
      <path d="M 63.72 27.222727 
L 419.04 27.222727 
" clip-path="url(#p2274c9cb1e)" style="fill: none; stroke: #ffffff; stroke-linecap: round"/>
     </g>
     <g id="text_11">
      <!-- 20.0 -->
      <g style="fill: #262626" transform="translate(29.727813 31.401868) scale(0.11 -0.11)">
       <use xlink:href="#DejaVuSans-32"/>
       <use xlink:href="#DejaVuSans-30" x="63.623047"/>
       <use xlink:href="#DejaVuSans-2e" x="127.246094"/>
       <use xlink:href="#DejaVuSans-30" x="159.033203"/>
      </g>
     </g>
    </g>
    <g id="text_12">
     <!-- ROUGE-2 -->
     <g style="fill: #262626" transform="translate(23.232188 197.555938) rotate(-90) scale(0.12 -0.12)">
      <defs>
       <path id="DejaVuSans-4f" d="M 2522 4238 
Q 1834 4238 1429 3725 
Q 1025 3213 1025 2328 
Q 1025 1447 1429 934 
Q 1834 422 2522 422 
Q 3209 422 3611 934 
Q 4013 1447 4013 2328 
Q 4013 3213 3611 3725 
Q 3209 4238 2522 4238 
z
M 2522 4750 
Q 3503 4750 4090 4092 
Q 4678 3434 4678 2328 
Q 4678 1225 4090 567 
Q 3503 -91 2522 -91 
Q 1538 -91 948 565 
Q 359 1222 359 2328 
Q 359 3434 948 4092 
Q 1538 4750 2522 4750 
z
" transform="scale(0.015625)"/>
       <path id="DejaVuSans-55" d="M 556 4666 
L 1191 4666 
L 1191 1831 
Q 1191 1081 1462 751 
Q 1734 422 2344 422 
Q 2950 422 3222 751 
Q 3494 1081 3494 1831 
L 3494 4666 
L 4128 4666 
L 4128 1753 
Q 4128 841 3676 375 
Q 3225 -91 2344 -91 
Q 1459 -91 1007 375 
Q 556 841 556 1753 
L 556 4666 
z
" transform="scale(0.015625)"/>
       <path id="DejaVuSans-47" d="M 3809 666 
L 3809 1919 
L 2778 1919 
L 2778 2438 
L 4434 2438 
L 4434 434 
Q 4069 175 3628 42 
Q 3188 -91 2688 -91 
Q 1594 -91 976 548 
Q 359 1188 359 2328 
Q 359 3472 976 4111 
Q 1594 4750 2688 4750 
Q 3144 4750 3555 4637 
Q 3966 4525 4313 4306 
L 4313 3634 
Q 3963 3931 3569 4081 
Q 3175 4231 2741 4231 
Q 1884 4231 1454 3753 
Q 1025 3275 1025 2328 
Q 1025 1384 1454 906 
Q 1884 428 2741 428 
Q 3075 428 3337 486 
Q 3600 544 3809 666 
z
" transform="scale(0.015625)"/>
       <path id="DejaVuSans-45" d="M 628 4666 
L 3578 4666 
L 3578 4134 
L 1259 4134 
L 1259 2753 
L 3481 2753 
L 3481 2222 
L 1259 2222 
L 1259 531 
L 3634 531 
L 3634 0 
L 628 0 
L 628 4666 
z
" transform="scale(0.015625)"/>
       <path id="DejaVuSans-2d" d="M 313 2009 
L 1997 2009 
L 1997 1497 
L 313 1497 
L 313 2009 
z
" transform="scale(0.015625)"/>
      </defs>
      <use xlink:href="#DejaVuSans-52"/>
      <use xlink:href="#DejaVuSans-4f" x="69.482422"/>
      <use xlink:href="#DejaVuSans-55" x="148.193359"/>
      <use xlink:href="#DejaVuSans-47" x="221.386719"/>
      <use xlink:href="#DejaVuSans-45" x="298.876953"/>
      <use xlink:href="#DejaVuSans-2d" x="362.060547"/>
      <use xlink:href="#DejaVuSans-32" x="398.144531"/>
     </g>
    </g>
   </g>
   <g id="PolyCollection_1">
    <path d="M 113.710722 304.890716 
L 96.07764 304.890716 
L 95.24017 304.076707 
L 94.371426 303.262699 
L 93.475572 302.44869 
L 92.557496 301.634682 
L 91.622854 300.820674 
L 90.678085 300.006665 
L 89.730395 299.192657 
L 88.787698 298.378648 
L 87.858513 297.56464 
L 86.951797 296.750631 
L 86.076734 295.936623 
L 85.24247 295.122615 
L 84.457809 294.308606 
L 83.730875 293.494598 
L 83.068773 292.680589 
L 82.477255 291.866581 
L 81.960415 291.052573 
L 81.520437 290.238564 
L 81.157422 289.424556 
L 80.869297 288.610547 
L 80.65183 287.796539 
L 80.498754 286.98253 
L 80.402003 286.168522 
L 80.35205 285.354514 
L 80.338337 284.540505 
L 80.349779 283.726497 
L 80.375316 282.912488 
L 80.404485 282.09848 
L 80.427985 281.284471 
L 80.438193 280.470463 
L 80.429618 279.656455 
L 80.399241 278.842446 
L 80.346745 278.028438 
L 80.274597 277.214429 
L 80.187979 276.400421 
L 80.094577 275.586413 
L 80.004218 274.772404 
L 79.928386 273.958396 
L 79.87963 273.144387 
L 79.870909 272.330379 
L 79.914894 271.51637 
L 80.023279 270.702362 
L 80.206131 269.888354 
L 80.471323 269.074345 
L 80.824078 268.260337 
L 81.26666 267.446328 
L 81.79821 266.63232 
L 82.41476 265.818311 
L 83.109402 265.004303 
L 83.872618 264.190295 
L 84.692728 263.376286 
L 85.556452 262.562278 
L 86.44953 261.748269 
L 87.357368 260.934261 
L 88.265683 260.120253 
L 89.161095 259.306244 
L 90.031636 258.492236 
L 90.867162 257.678227 
L 91.659638 256.864219 
L 92.403296 256.05021 
L 93.094658 255.236202 
L 93.732445 254.422194 
L 94.317371 253.608185 
L 94.851866 252.794177 
L 95.339726 251.980168 
L 95.785744 251.16616 
L 96.195327 250.352151 
L 96.574133 249.538143 
L 96.927746 248.724135 
L 97.261397 247.910126 
L 97.579755 247.096118 
L 97.886771 246.282109 
L 98.185594 245.468101 
L 98.478542 244.654093 
L 98.767123 243.840084 
L 99.052099 243.026076 
L 99.33357 242.212067 
L 99.611097 241.398059 
L 99.883813 240.58405 
L 100.150551 239.770042 
L 100.409965 238.956034 
L 100.66064 238.142025 
L 100.901193 237.328017 
L 101.130366 236.514008 
L 101.347095 235.7 
L 101.550571 234.885991 
L 101.740288 234.071983 
L 101.916072 233.257975 
L 102.07809 232.443966 
L 102.226853 231.629958 
L 102.363193 230.815949 
L 102.488229 230.001941 
L 102.603315 229.187933 
L 102.70998 228.373924 
L 102.809856 227.559916 
L 102.904598 226.745907 
L 102.995808 225.931899 
L 103.084957 225.11789 
L 103.173323 224.303882 
L 106.615039 224.303882 
L 106.615039 224.303882 
L 106.703404 225.11789 
L 106.792554 225.931899 
L 106.883763 226.745907 
L 106.978506 227.559916 
L 107.078381 228.373924 
L 107.185047 229.187933 
L 107.300133 230.001941 
L 107.425168 230.815949 
L 107.561508 231.629958 
L 107.710272 232.443966 
L 107.87229 233.257975 
L 108.048074 234.071983 
L 108.237791 234.885991 
L 108.441267 235.7 
L 108.657995 236.514008 
L 108.887168 237.328017 
L 109.127722 238.142025 
L 109.378397 238.956034 
L 109.637811 239.770042 
L 109.904549 240.58405 
L 110.177264 241.398059 
L 110.454791 242.212067 
L 110.736263 243.026076 
L 111.021238 243.840084 
L 111.30982 244.654093 
L 111.602768 245.468101 
L 111.901591 246.282109 
L 112.208607 247.096118 
L 112.526965 247.910126 
L 112.860616 248.724135 
L 113.214229 249.538143 
L 113.593035 250.352151 
L 114.002618 251.16616 
L 114.448636 251.980168 
L 114.936496 252.794177 
L 115.47099 253.608185 
L 116.055917 254.422194 
L 116.693704 255.236202 
L 117.385066 256.05021 
L 118.128724 256.864219 
L 118.9212 257.678227 
L 119.756726 258.492236 
L 120.627267 259.306244 
L 121.522679 260.120253 
L 122.430994 260.934261 
L 123.338832 261.748269 
L 124.231909 262.562278 
L 125.095634 263.376286 
L 125.915744 264.190295 
L 126.67896 265.004303 
L 127.373602 265.818311 
L 127.990152 266.63232 
L 128.521702 267.446328 
L 128.964283 268.260337 
L 129.317039 269.074345 
L 129.582231 269.888354 
L 129.765082 270.702362 
L 129.873467 271.51637 
L 129.917453 272.330379 
L 129.908732 273.144387 
L 129.859976 273.958396 
L 129.784143 274.772404 
L 129.693785 275.586413 
L 129.600383 276.400421 
L 129.513765 277.214429 
L 129.441616 278.028438 
L 129.38912 278.842446 
L 129.358744 279.656455 
L 129.350168 280.470463 
L 129.360377 281.284471 
L 129.383877 282.09848 
L 129.413046 282.912488 
L 129.438583 283.726497 
L 129.450024 284.540505 
L 129.436311 285.354514 
L 129.386359 286.168522 
L 129.289608 286.98253 
L 129.136532 287.796539 
L 128.919065 288.610547 
L 128.63094 289.424556 
L 128.267925 290.238564 
L 127.827947 291.052573 
L 127.311106 291.866581 
L 126.719589 292.680589 
L 126.057487 293.494598 
L 125.330553 294.308606 
L 124.545892 295.122615 
L 123.711628 295.936623 
L 122.836565 296.750631 
L 121.929849 297.56464 
L 121.000663 298.378648 
L 120.057967 299.192657 
L 119.110277 300.006665 
L 118.165507 300.820674 
L 117.230866 301.634682 
L 116.31279 302.44869 
L 115.416936 303.262699 
L 114.548192 304.076707 
L 113.710722 304.890716 
L 113.710722 304.890716 
z
" clip-path="url(#p2274c9cb1e)" style="fill: none; stroke: #4c72b0; stroke-width: 1.5"/>
   </g>
   <g id="PolyCollection_2">
    <path d="M 157.847526 307.194781 
L 152.033923 307.194781 
L 151.759929 306.219135 
L 151.481564 305.24349 
L 151.19809 304.267844 
L 150.907321 303.292198 
L 150.605449 302.316553 
L 150.28697 301.340907 
L 149.944751 300.365261 
L 149.570232 299.389616 
L 149.153791 298.41397 
L 148.685254 297.438324 
L 148.154514 296.462679 
L 147.552248 295.487033 
L 146.870661 294.511387 
L 146.104218 293.535742 
L 145.250312 292.560096 
L 144.309796 291.58445 
L 143.287363 290.608805 
L 142.191719 289.633159 
L 141.03554 288.657513 
L 139.83521 287.681868 
L 138.610335 286.706222 
L 137.383085 285.730576 
L 136.17737 284.754931 
L 135.017918 283.779285 
L 133.929297 282.803639 
L 132.93494 281.827994 
L 132.056238 280.852348 
L 131.31174 279.876702 
L 130.71652 278.901057 
L 130.28174 277.925411 
L 130.014425 276.949765 
L 129.917453 275.97412 
L 129.989744 274.998474 
L 130.226616 274.022828 
L 130.620249 273.047183 
L 131.160218 272.071537 
L 131.834031 271.095891 
L 132.627621 270.120246 
L 133.525766 269.1446 
L 134.512412 268.168954 
L 135.570898 267.193309 
L 136.684117 266.217663 
L 137.834626 265.242017 
L 139.00476 264.266372 
L 140.176781 263.290726 
L 141.333103 262.31508 
L 142.456607 261.339435 
L 143.531041 260.363789 
L 144.54151 259.388143 
L 145.475001 258.412498 
L 146.320908 257.436852 
L 147.071509 256.461206 
L 147.722342 255.485561 
L 148.272423 254.509915 
L 148.724295 253.534269 
L 149.083874 252.558624 
L 149.360093 251.582978 
L 149.564378 250.607332 
L 149.709972 249.631687 
L 149.811164 248.656041 
L 149.882483 247.680395 
L 149.937907 246.70475 
L 149.990148 245.729104 
L 150.050068 244.753458 
L 150.126249 243.777813 
L 150.224759 242.802167 
L 150.349096 241.826521 
L 150.500318 240.850876 
L 150.677328 239.87523 
L 150.877268 238.899584 
L 151.095982 237.923939 
L 151.328507 236.948293 
L 151.569536 235.972647 
L 151.813826 234.997002 
L 152.056513 234.021356 
L 152.293335 233.04571 
L 152.520747 232.070065 
L 152.735951 231.094419 
L 152.936848 230.118773 
L 153.121944 229.143128 
L 153.29024 228.167482 
L 153.441114 227.191836 
L 153.574231 226.216191 
L 153.689482 225.240545 
L 153.786962 224.264899 
L 153.866983 223.289254 
L 153.930107 222.313608 
L 153.9772 221.337962 
L 154.009477 220.362317 
L 154.028533 219.386671 
L 154.036347 218.411025 
L 154.035251 217.43538 
L 154.027857 216.459734 
L 154.016955 215.484088 
L 154.005377 214.508443 
L 153.995855 213.532797 
L 153.990867 212.557151 
L 153.992496 211.581506 
L 154.002323 210.60586 
L 155.879126 210.60586 
L 155.879126 210.60586 
L 155.888953 211.581506 
L 155.890582 212.557151 
L 155.885594 213.532797 
L 155.876072 214.508443 
L 155.864495 215.484088 
L 155.853592 216.459734 
L 155.846198 217.43538 
L 155.845102 218.411025 
L 155.852916 219.386671 
L 155.871973 220.362317 
L 155.904249 221.337962 
L 155.951342 222.313608 
L 156.014466 223.289254 
L 156.094487 224.264899 
L 156.191967 225.240545 
L 156.307218 226.216191 
L 156.440335 227.191836 
L 156.591209 228.167482 
L 156.759505 229.143128 
L 156.944601 230.118773 
L 157.145498 231.094419 
L 157.360702 232.070065 
L 157.588114 233.04571 
L 157.824936 234.021356 
L 158.067623 234.997002 
L 158.311913 235.972647 
L 158.552942 236.948293 
L 158.785467 237.923939 
L 159.004181 238.899584 
L 159.204121 239.87523 
L 159.381131 240.850876 
L 159.532354 241.826521 
L 159.65669 242.802167 
L 159.7552 243.777813 
L 159.831381 244.753458 
L 159.891301 245.729104 
L 159.943542 246.70475 
L 159.998966 247.680395 
L 160.070285 248.656041 
L 160.171477 249.631687 
L 160.317071 250.607332 
L 160.521356 251.582978 
L 160.797576 252.558624 
L 161.157154 253.534269 
L 161.609026 254.509915 
L 162.159107 255.485561 
L 162.80994 256.461206 
L 163.560541 257.436852 
L 164.406448 258.412498 
L 165.339939 259.388143 
L 166.350408 260.363789 
L 167.424842 261.339435 
L 168.548346 262.31508 
L 169.704668 263.290726 
L 170.87669 264.266372 
L 172.046823 265.242017 
L 173.197332 266.217663 
L 174.310552 267.193309 
L 175.369037 268.168954 
L 176.355683 269.1446 
L 177.253828 270.120246 
L 178.047418 271.095891 
L 178.721231 272.071537 
L 179.2612 273.047183 
L 179.654833 274.022828 
L 179.891705 274.998474 
L 179.963996 275.97412 
L 179.867024 276.949765 
L 179.599709 277.925411 
L 179.164929 278.901057 
L 178.56971 279.876702 
L 177.825211 280.852348 
L 176.946509 281.827994 
L 175.952152 282.803639 
L 174.863531 283.779285 
L 173.704079 284.754931 
L 172.498364 285.730576 
L 171.271114 286.706222 
L 170.046239 287.681868 
L 168.845909 288.657513 
L 167.68973 289.633159 
L 166.594086 290.608805 
L 165.571653 291.58445 
L 164.631137 292.560096 
L 163.777231 293.535742 
L 163.010788 294.511387 
L 162.329201 295.487033 
L 161.726935 296.462679 
L 161.196195 297.438324 
L 160.727658 298.41397 
L 160.311218 299.389616 
L 159.936698 300.365261 
L 159.594479 301.340907 
L 159.276 302.316553 
L 158.974128 303.292198 
L 158.683359 304.267844 
L 158.399885 305.24349 
L 158.121521 306.219135 
L 157.847526 307.194781 
L 157.847526 307.194781 
z
" clip-path="url(#p2274c9cb1e)" style="fill: none; stroke: #dd8452; stroke-width: 1.5"/>
   </g>
   <g id="PolyCollection_3">
    <path d="M 208.110362 304.538835 
L 201.864174 304.538835 
L 201.613367 303.679463 
L 201.364695 302.820092 
L 201.117168 301.96072 
L 200.86849 301.101349 
L 200.615035 300.241978 
L 200.351913 299.382606 
L 200.073107 298.523235 
L 199.771693 297.663863 
L 199.440109 296.804492 
L 199.070484 295.945121 
L 198.654989 295.085749 
L 198.186206 294.226378 
L 197.657507 293.367006 
L 197.06342 292.507635 
L 196.399974 291.648264 
L 195.665015 290.788892 
L 194.858472 289.929521 
L 193.982571 289.070149 
L 193.041973 288.210778 
L 192.043826 287.351407 
L 190.997732 286.492035 
L 189.915606 285.632664 
L 188.811444 284.773292 
L 187.701 283.913921 
L 186.601385 283.05455 
L 185.530606 282.195178 
L 184.507069 281.335807 
L 183.549064 280.476435 
L 182.674256 279.617064 
L 181.89918 278.757693 
L 181.238781 277.898321 
L 180.705977 277.03895 
L 180.311267 276.179578 
L 180.062382 275.320207 
L 179.963996 274.460836 
L 180.017499 273.601464 
L 180.220853 272.742093 
L 180.568561 271.882721 
L 181.051756 271.02335 
L 181.658435 270.163979 
L 182.373855 269.304607 
L 183.181077 268.445236 
L 184.06165 267.585864 
L 184.996402 266.726493 
L 185.96628 265.867122 
L 186.953189 265.00775 
L 187.940762 264.148379 
L 188.914993 263.289007 
L 189.86469 262.429636 
L 190.781694 261.570265 
L 191.66088 260.710893 
L 192.499913 259.851522 
L 193.29883 258.99215 
L 194.059475 258.132779 
L 194.784856 257.273408 
L 195.478511 256.414036 
L 196.143924 255.554665 
L 196.784051 254.695293 
L 197.400999 253.835922 
L 197.995862 252.976551 
L 198.568702 252.117179 
L 199.118671 251.257808 
L 199.644212 250.398436 
L 200.143324 249.539065 
L 200.613827 248.679694 
L 201.053615 247.820322 
L 201.460851 246.960951 
L 201.834109 246.101579 
L 202.172456 245.242208 
L 202.47547 244.382837 
L 202.743236 243.523465 
L 202.976301 242.664094 
L 203.175628 241.804722 
L 203.342557 240.945351 
L 203.478762 240.08598 
L 203.586224 239.226608 
L 203.667212 238.367237 
L 203.724254 237.507865 
L 203.760106 236.648494 
L 203.777703 235.789123 
L 203.780097 234.929751 
L 203.770378 234.07038 
L 203.751582 233.211008 
L 203.726608 232.351637 
L 203.698126 231.492266 
L 203.668518 230.632894 
L 203.639834 229.773523 
L 203.613776 228.914151 
L 203.59172 228.05478 
L 203.574746 227.195409 
L 203.563694 226.336037 
L 203.559225 225.476666 
L 203.56187 224.617294 
L 203.572069 223.757923 
L 203.59019 222.898552 
L 203.616521 222.03918 
L 203.651248 221.179809 
L 203.694406 220.320437 
L 203.745841 219.461066 
L 206.228696 219.461066 
L 206.228696 219.461066 
L 206.28013 220.320437 
L 206.323288 221.179809 
L 206.358015 222.03918 
L 206.384347 222.898552 
L 206.402468 223.757923 
L 206.412667 224.617294 
L 206.415311 225.476666 
L 206.410842 226.336037 
L 206.399791 227.195409 
L 206.382816 228.05478 
L 206.36076 228.914151 
L 206.334703 229.773523 
L 206.306018 230.632894 
L 206.27641 231.492266 
L 206.247928 232.351637 
L 206.222954 233.211008 
L 206.204159 234.07038 
L 206.194439 234.929751 
L 206.196833 235.789123 
L 206.21443 236.648494 
L 206.250282 237.507865 
L 206.307324 238.367237 
L 206.388312 239.226608 
L 206.495775 240.08598 
L 206.631979 240.945351 
L 206.798908 241.804722 
L 206.998236 242.664094 
L 207.2313 243.523465 
L 207.499066 244.382837 
L 207.802081 245.242208 
L 208.140427 246.101579 
L 208.513686 246.960951 
L 208.920921 247.820322 
L 209.360709 248.679694 
L 209.831213 249.539065 
L 210.330324 250.398436 
L 210.855865 251.257808 
L 211.405834 252.117179 
L 211.978674 252.976551 
L 212.573537 253.835922 
L 213.190486 254.695293 
L 213.830612 255.554665 
L 214.496025 256.414036 
L 215.18968 257.273408 
L 215.915062 258.132779 
L 216.675706 258.99215 
L 217.474624 259.851522 
L 218.313657 260.710893 
L 219.192842 261.570265 
L 220.109847 262.429636 
L 221.059543 263.289007 
L 222.033775 264.148379 
L 223.021348 265.00775 
L 224.008257 265.867122 
L 224.978134 266.726493 
L 225.912886 267.585864 
L 226.793459 268.445236 
L 227.600681 269.304607 
L 228.316101 270.163979 
L 228.92278 271.02335 
L 229.405975 271.882721 
L 229.753683 272.742093 
L 229.957038 273.601464 
L 230.01054 274.460836 
L 229.912154 275.320207 
L 229.66327 276.179578 
L 229.268559 277.03895 
L 228.735755 277.898321 
L 228.075357 278.757693 
L 227.300281 279.617064 
L 226.425472 280.476435 
L 225.467468 281.335807 
L 224.44393 282.195178 
L 223.373151 283.05455 
L 222.273536 283.913921 
L 221.163092 284.773292 
L 220.058931 285.632664 
L 218.976804 286.492035 
L 217.93071 287.351407 
L 216.932563 288.210778 
L 215.991965 289.070149 
L 215.116065 289.929521 
L 214.309522 290.788892 
L 213.574562 291.648264 
L 212.911116 292.507635 
L 212.317029 293.367006 
L 211.78833 294.226378 
L 211.319547 295.085749 
L 210.904052 295.945121 
L 210.534427 296.804492 
L 210.202844 297.663863 
L 209.901429 298.523235 
L 209.622623 299.382606 
L 209.359501 300.241978 
L 209.106047 301.101349 
L 208.857368 301.96072 
L 208.609841 302.820092 
L 208.361169 303.679463 
L 208.110362 304.538835 
L 208.110362 304.538835 
z
" clip-path="url(#p2274c9cb1e)" style="fill: none; stroke: #55a868; stroke-width: 1.5"/>
   </g>
   <g id="PolyCollection_4">
    <path d="M 305.013362 312.477273 
L 280.124077 312.477273 
L 279.519779 309.836027 
L 279.075429 307.194781 
L 278.787256 304.553535 
L 278.642941 301.91229 
L 278.62416 299.271044 
L 278.709448 296.629798 
L 278.876867 293.988552 
L 279.10612 291.347306 
L 279.379902 288.706061 
L 279.684471 286.064815 
L 280.009611 283.423569 
L 280.348198 280.782323 
L 280.695636 278.141077 
L 281.049328 275.499832 
L 281.408286 272.858586 
L 281.772857 270.21734 
L 282.144504 267.576094 
L 282.525541 264.934848 
L 282.918742 262.293603 
L 283.326813 259.652357 
L 283.751764 257.011111 
L 284.194268 254.369865 
L 284.653145 251.72862 
L 285.125057 249.087374 
L 285.604522 246.446128 
L 286.084233 243.804882 
L 286.555671 241.163636 
L 287.00991 238.522391 
L 287.438497 235.881145 
L 287.834285 233.239899 
L 288.192099 230.598653 
L 288.509171 227.957407 
L 288.785292 225.316162 
L 289.022692 222.674916 
L 289.225672 220.03367 
L 289.40006 217.392424 
L 289.552549 214.751178 
L 289.690006 212.109933 
L 289.818817 209.468687 
L 289.944343 206.827441 
L 290.070531 204.186195 
L 290.199728 201.544949 
L 290.332694 198.903704 
L 290.468813 196.262458 
L 290.606459 193.621212 
L 290.743447 190.979966 
L 290.877508 188.338721 
L 291.0067 185.697475 
L 291.129699 183.056229 
L 291.245933 180.414983 
L 291.355544 177.773737 
L 291.459211 175.132492 
L 291.557873 172.491246 
L 291.652431 169.85 
L 291.743469 167.208754 
L 291.831067 164.567508 
L 291.914722 161.926263 
L 291.993393 159.285017 
L 292.065639 156.643771 
L 292.129834 154.002525 
L 292.184404 151.361279 
L 292.228063 148.720034 
L 292.259994 146.078788 
L 292.279987 143.437542 
L 292.288488 140.796296 
L 292.286593 138.155051 
L 292.275976 135.513805 
L 292.25877 132.872559 
L 292.237414 130.231313 
L 292.214481 127.590067 
L 292.192501 124.948822 
L 292.173787 122.307576 
L 292.160284 119.66633 
L 292.153449 117.025084 
L 292.154168 114.383838 
L 292.162721 111.742593 
L 292.178793 109.101347 
L 292.201533 106.460101 
L 292.229651 103.818855 
L 292.261538 101.177609 
L 292.295408 98.536364 
L 292.329432 95.895118 
L 292.361869 93.253872 
L 292.391167 90.612626 
L 292.416042 87.97138 
L 292.435532 85.330135 
L 292.449025 82.688889 
L 292.456267 80.047643 
L 292.457362 77.406397 
L 292.45276 74.765152 
L 292.443229 72.123906 
L 292.429826 69.48266 
L 292.413841 66.841414 
L 292.39673 64.200168 
L 292.380019 61.558923 
L 292.365199 58.917677 
L 292.353604 56.276431 
L 292.346308 53.635185 
L 292.344021 50.993939 
L 292.793417 50.993939 
L 292.793417 50.993939 
L 292.791131 53.635185 
L 292.783834 56.276431 
L 292.77224 58.917677 
L 292.75742 61.558923 
L 292.740709 64.200168 
L 292.723598 66.841414 
L 292.707613 69.48266 
L 292.69421 72.123906 
L 292.684679 74.765152 
L 292.680077 77.406397 
L 292.681172 80.047643 
L 292.688414 82.688889 
L 292.701907 85.330135 
L 292.721397 87.97138 
L 292.746272 90.612626 
L 292.77557 93.253872 
L 292.808007 95.895118 
L 292.842031 98.536364 
L 292.875901 101.177609 
L 292.907788 103.818855 
L 292.935906 106.460101 
L 292.958646 109.101347 
L 292.974718 111.742593 
L 292.983271 114.383838 
L 292.98399 117.025084 
L 292.977155 119.66633 
L 292.963652 122.307576 
L 292.944938 124.948822 
L 292.922958 127.590067 
L 292.900025 130.231313 
L 292.878669 132.872559 
L 292.861463 135.513805 
L 292.850846 138.155051 
L 292.848951 140.796296 
L 292.857452 143.437542 
L 292.877445 146.078788 
L 292.909376 148.720034 
L 292.953035 151.361279 
L 293.007605 154.002525 
L 293.0718 156.643771 
L 293.144046 159.285017 
L 293.222717 161.926263 
L 293.306372 164.567508 
L 293.39397 167.208754 
L 293.485008 169.85 
L 293.579566 172.491246 
L 293.678228 175.132492 
L 293.781895 177.773737 
L 293.891506 180.414983 
L 294.00774 183.056229 
L 294.130739 185.697475 
L 294.259931 188.338721 
L 294.393992 190.979966 
L 294.53098 193.621212 
L 294.668626 196.262458 
L 294.804745 198.903704 
L 294.937711 201.544949 
L 295.066908 204.186195 
L 295.193096 206.827441 
L 295.318622 209.468687 
L 295.447433 212.109933 
L 295.58489 214.751178 
L 295.737379 217.392424 
L 295.911767 220.03367 
L 296.114747 222.674916 
L 296.352147 225.316162 
L 296.628268 227.957407 
L 296.94534 230.598653 
L 297.303154 233.239899 
L 297.698942 235.881145 
L 298.127529 238.522391 
L 298.581768 241.163636 
L 299.053206 243.804882 
L 299.532917 246.446128 
L 300.012382 249.087374 
L 300.484294 251.72862 
L 300.94317 254.369865 
L 301.385675 257.011111 
L 301.810626 259.652357 
L 302.218697 262.293603 
L 302.611898 264.934848 
L 302.992935 267.576094 
L 303.364582 270.21734 
L 303.729153 272.858586 
L 304.088111 275.499832 
L 304.441803 278.141077 
L 304.789241 280.782323 
L 305.127828 283.423569 
L 305.452968 286.064815 
L 305.757537 288.706061 
L 306.031319 291.347306 
L 306.260572 293.988552 
L 306.427991 296.629798 
L 306.513279 299.271044 
L 306.494498 301.91229 
L 306.350183 304.553535 
L 306.06201 307.194781 
L 305.61766 309.836027 
L 305.013362 312.477273 
L 305.013362 312.477273 
z
" clip-path="url(#p2274c9cb1e)" style="fill: none; stroke: #4c72b0; stroke-width: 1.5"/>
   </g>
   <g id="PolyCollection_5">
    <path d="M 352.262 312.477273 
L 332.968526 312.477273 
L 332.499722 309.595914 
L 332.219101 306.714555 
L 332.110311 303.833196 
L 332.142803 300.951837 
L 332.278337 298.070478 
L 332.478031 295.189118 
L 332.708448 292.307759 
L 332.945637 289.4264 
L 333.176663 286.545041 
L 333.398773 283.663682 
L 333.616856 280.782323 
L 333.840091 277.900964 
L 334.078644 275.019605 
L 334.341099 272.138246 
L 334.632935 269.256887 
L 334.956067 266.375528 
L 335.309188 263.494169 
L 335.688515 260.61281 
L 336.088578 257.731451 
L 336.5028 254.850092 
L 336.923803 251.968733 
L 337.343549 249.087374 
L 337.753482 246.206015 
L 338.144875 243.324656 
L 338.509429 240.443297 
L 338.840109 237.561938 
L 339.132006 234.680579 
L 339.383042 231.799219 
L 339.594297 228.91786 
L 339.769856 226.036501 
L 339.916191 223.155142 
L 340.041197 220.273783 
L 340.153083 217.392424 
L 340.25932 214.511065 
L 340.365849 211.629706 
L 340.476632 208.748347 
L 340.593586 205.866988 
L 340.716839 202.985629 
L 340.845201 200.10427 
L 340.97672 197.222911 
L 341.109206 194.341552 
L 341.240644 191.460193 
L 341.369429 188.578834 
L 341.494455 185.697475 
L 341.615047 182.816116 
L 341.730815 179.934757 
L 341.841469 177.053398 
L 341.946652 174.172039 
L 342.045833 171.29068 
L 342.138285 168.40932 
L 342.22315 165.527961 
L 342.299563 162.646602 
L 342.366812 159.765243 
L 342.424481 156.883884 
L 342.472546 154.002525 
L 342.5114 151.121166 
L 342.541817 148.239807 
L 342.564848 145.358448 
L 342.581699 142.477089 
L 342.593606 139.59573 
L 342.601728 136.714371 
L 342.607073 133.833012 
L 342.610468 130.951653 
L 342.612547 128.070294 
L 342.613775 125.188935 
L 342.614475 122.307576 
L 342.614859 119.426217 
L 342.615063 116.544858 
L 342.615167 113.663499 
L 342.615219 110.78214 
L 342.615243 107.900781 
L 342.615254 105.019421 
L 342.615258 102.138062 
L 342.615259 99.256703 
L 342.615255 96.375344 
L 342.615246 93.493985 
L 342.615227 90.612626 
L 342.615186 87.731267 
L 342.615104 84.849908 
L 342.614948 81.968549 
L 342.614661 79.08719 
L 342.614151 76.205831 
L 342.61328 73.324472 
L 342.611847 70.443113 
L 342.609582 67.561754 
L 342.606143 64.680395 
L 342.601124 61.799036 
L 342.5941 58.917677 
L 342.584678 56.036318 
L 342.572585 53.154959 
L 342.557762 50.2736 
L 342.540462 47.392241 
L 342.521309 44.510882 
L 342.50132 41.629522 
L 342.481841 38.748163 
L 342.464415 35.866804 
L 342.450592 32.985445 
L 342.441697 30.104086 
L 342.438627 27.222727 
L 342.7919 27.222727 
L 342.7919 27.222727 
L 342.788829 30.104086 
L 342.779934 32.985445 
L 342.766111 35.866804 
L 342.748686 38.748163 
L 342.729206 41.629522 
L 342.709217 44.510882 
L 342.690065 47.392241 
L 342.672764 50.2736 
L 342.657941 53.154959 
L 342.645848 56.036318 
L 342.636426 58.917677 
L 342.629402 61.799036 
L 342.624384 64.680395 
L 342.620944 67.561754 
L 342.618679 70.443113 
L 342.617247 73.324472 
L 342.616375 76.205831 
L 342.615865 79.08719 
L 342.615578 81.968549 
L 342.615422 84.849908 
L 342.615341 87.731267 
L 342.6153 90.612626 
L 342.61528 93.493985 
L 342.615271 96.375344 
L 342.615268 99.256703 
L 342.615268 102.138062 
L 342.615272 105.019421 
L 342.615283 107.900781 
L 342.615307 110.78214 
L 342.615359 113.663499 
L 342.615463 116.544858 
L 342.615667 119.426217 
L 342.616052 122.307576 
L 342.616751 125.188935 
L 342.61798 128.070294 
L 342.620059 130.951653 
L 342.623453 133.833012 
L 342.628798 136.714371 
L 342.63692 139.59573 
L 342.648827 142.477089 
L 342.665679 145.358448 
L 342.688709 148.239807 
L 342.719126 151.121166 
L 342.75798 154.002525 
L 342.806045 156.883884 
L 342.863714 159.765243 
L 342.930963 162.646602 
L 343.007376 165.527961 
L 343.092241 168.40932 
L 343.184694 171.29068 
L 343.283874 174.172039 
L 343.389057 177.053398 
L 343.499711 179.934757 
L 343.615479 182.816116 
L 343.736071 185.697475 
L 343.861097 188.578834 
L 343.989883 191.460193 
L 344.12132 194.341552 
L 344.253807 197.222911 
L 344.385325 200.10427 
L 344.513687 202.985629 
L 344.63694 205.866988 
L 344.753894 208.748347 
L 344.864677 211.629706 
L 344.971206 214.511065 
L 345.077444 217.392424 
L 345.189329 220.273783 
L 345.314335 223.155142 
L 345.46067 226.036501 
L 345.636229 228.91786 
L 345.847484 231.799219 
L 346.09852 234.680579 
L 346.390417 237.561938 
L 346.721097 240.443297 
L 347.085652 243.324656 
L 347.477044 246.206015 
L 347.886977 249.087374 
L 348.306723 251.968733 
L 348.727727 254.850092 
L 349.141948 257.731451 
L 349.542011 260.61281 
L 349.921338 263.494169 
L 350.274459 266.375528 
L 350.597592 269.256887 
L 350.889427 272.138246 
L 351.151882 275.019605 
L 351.390435 277.900964 
L 351.61367 280.782323 
L 351.831753 283.663682 
L 352.053863 286.545041 
L 352.284889 289.4264 
L 352.522079 292.307759 
L 352.752495 295.189118 
L 352.952189 298.070478 
L 353.087723 300.951837 
L 353.120215 303.833196 
L 353.011426 306.714555 
L 352.730804 309.595914 
L 352.262 312.477273 
L 352.262 312.477273 
z
" clip-path="url(#p2274c9cb1e)" style="fill: none; stroke: #dd8452; stroke-width: 1.5"/>
   </g>
   <g id="PolyCollection_6">
    <path d="M 402.04646 312.477273 
L 383.277153 312.477273 
L 382.827566 309.595914 
L 382.549475 306.714555 
L 382.434523 303.833196 
L 382.462511 300.951837 
L 382.605587 298.070478 
L 382.833001 295.189118 
L 383.115482 292.307759 
L 383.428524 289.4264 
L 383.754185 286.545041 
L 384.081429 283.663682 
L 384.405293 280.782323 
L 384.725369 277.900964 
L 385.044035 275.019605 
L 385.364853 272.138246 
L 385.69131 269.256887 
L 386.026006 266.375528 
L 386.370211 263.494169 
L 386.723731 260.61281 
L 387.084943 257.731451 
L 387.450955 254.850092 
L 387.817821 251.968733 
L 388.180821 249.087374 
L 388.534781 246.206015 
L 388.874448 243.324656 
L 389.194904 240.443297 
L 389.491982 237.561938 
L 389.762646 234.680579 
L 390.005291 231.799219 
L 390.219904 228.91786 
L 390.408061 226.036501 
L 390.572739 223.155142 
L 390.717964 220.273783 
L 390.848322 217.392424 
L 390.968423 214.511065 
L 391.082367 211.629706 
L 391.193326 208.748347 
L 391.303263 205.866988 
L 391.412864 202.985629 
L 391.521642 200.10427 
L 391.628208 197.222911 
L 391.730625 194.341552 
L 391.826793 191.460193 
L 391.91479 188.578834 
L 391.993124 185.697475 
L 392.060873 182.816116 
L 392.117716 179.934757 
L 392.163873 177.053398 
L 392.199992 174.172039 
L 392.227017 171.29068 
L 392.246072 168.40932 
L 392.258372 165.527961 
L 392.265185 162.646602 
L 392.267827 159.765243 
L 392.26767 156.883884 
L 392.266159 154.002525 
L 392.264802 151.121166 
L 392.265118 148.239807 
L 392.268543 145.358448 
L 392.276308 142.477089 
L 392.289295 139.59573 
L 392.307914 136.714371 
L 392.332035 133.833012 
L 392.360979 130.951653 
L 392.393598 128.070294 
L 392.42841 125.188935 
L 392.463791 122.307576 
L 392.498165 119.426217 
L 392.530176 116.544858 
L 392.55881 113.663499 
L 392.58345 110.78214 
L 392.603872 107.900781 
L 392.620189 105.019421 
L 392.632768 102.138062 
L 392.642128 99.256703 
L 392.648851 96.375344 
L 392.65351 93.493985 
L 392.656613 90.612626 
L 392.658581 87.731267 
L 392.659728 84.849908 
L 392.660267 81.968549 
L 392.660311 79.08719 
L 392.659882 76.205831 
L 392.658916 73.324472 
L 392.657269 70.443113 
L 392.654724 67.561754 
L 392.651009 64.680395 
L 392.645815 61.799036 
L 392.638839 58.917677 
L 392.629835 56.036318 
L 392.618679 53.154959 
L 392.605434 50.2736 
L 392.590406 47.392241 
L 392.574176 44.510882 
L 392.557594 41.629522 
L 392.541719 38.748163 
L 392.527717 35.866804 
L 392.516727 32.985445 
L 392.509705 30.104086 
L 392.50729 27.222727 
L 392.816324 27.222727 
L 392.816324 27.222727 
L 392.813909 30.104086 
L 392.806887 32.985445 
L 392.795897 35.866804 
L 392.781895 38.748163 
L 392.766019 41.629522 
L 392.749437 44.510882 
L 392.733208 47.392241 
L 392.71818 50.2736 
L 392.704935 53.154959 
L 392.693779 56.036318 
L 392.684775 58.917677 
L 392.677799 61.799036 
L 392.672605 64.680395 
L 392.668889 67.561754 
L 392.666345 70.443113 
L 392.664698 73.324472 
L 392.663731 76.205831 
L 392.663302 79.08719 
L 392.663346 81.968549 
L 392.663885 84.849908 
L 392.665032 87.731267 
L 392.667 90.612626 
L 392.670104 93.493985 
L 392.674762 96.375344 
L 392.681486 99.256703 
L 392.690846 102.138062 
L 392.703424 105.019421 
L 392.719742 107.900781 
L 392.740163 110.78214 
L 392.764803 113.663499 
L 392.793437 116.544858 
L 392.825449 119.426217 
L 392.859823 122.307576 
L 392.895204 125.188935 
L 392.930016 128.070294 
L 392.962634 130.951653 
L 392.991579 133.833012 
L 393.015699 136.714371 
L 393.034319 139.59573 
L 393.047305 142.477089 
L 393.05507 145.358448 
L 393.058496 148.239807 
L 393.058811 151.121166 
L 393.057454 154.002525 
L 393.055944 156.883884 
L 393.055786 159.765243 
L 393.058428 162.646602 
L 393.065242 165.527961 
L 393.077542 168.40932 
L 393.096596 171.29068 
L 393.123622 174.172039 
L 393.159741 177.053398 
L 393.205898 179.934757 
L 393.262741 182.816116 
L 393.33049 185.697475 
L 393.408823 188.578834 
L 393.49682 191.460193 
L 393.592988 194.341552 
L 393.695405 197.222911 
L 393.801971 200.10427 
L 393.91075 202.985629 
L 394.020351 205.866988 
L 394.130288 208.748347 
L 394.241246 211.629706 
L 394.355191 214.511065 
L 394.475291 217.392424 
L 394.60565 220.273783 
L 394.750874 223.155142 
L 394.915553 226.036501 
L 395.10371 228.91786 
L 395.318323 231.799219 
L 395.560967 234.680579 
L 395.831632 237.561938 
L 396.128709 240.443297 
L 396.449166 243.324656 
L 396.788833 246.206015 
L 397.142792 249.087374 
L 397.505792 251.968733 
L 397.872659 254.850092 
L 398.23867 257.731451 
L 398.599882 260.61281 
L 398.953402 263.494169 
L 399.297608 266.375528 
L 399.632303 269.256887 
L 399.958761 272.138246 
L 400.279578 275.019605 
L 400.598245 277.900964 
L 400.91832 280.782323 
L 401.242185 283.663682 
L 401.569428 286.545041 
L 401.895089 289.4264 
L 402.208131 292.307759 
L 402.490613 295.189118 
L 402.718026 298.070478 
L 402.861103 300.951837 
L 402.889091 303.833196 
L 402.774139 306.714555 
L 402.496048 309.595914 
L 402.04646 312.477273 
L 402.04646 312.477273 
z
" clip-path="url(#p2274c9cb1e)" style="fill: none; stroke: #55a868; stroke-width: 1.5"/>
   </g>
   <g id="patch_3">
    <path d="M 154.940725 312.477273 
L 154.940725 312.477273 
L 154.940725 312.477273 
L 154.940725 312.477273 
L 154.940725 312.477273 
z
" clip-path="url(#p2274c9cb1e)" style="fill: none; stroke: #4c72b0; stroke-width: 1.5; stroke-linejoin: miter"/>
   </g>
   <g id="patch_4">
    <path d="M 154.940725 312.477273 
L 154.940725 312.477273 
L 154.940725 312.477273 
L 154.940725 312.477273 
L 154.940725 312.477273 
z
" clip-path="url(#p2274c9cb1e)" style="fill: none; stroke: #dd8452; stroke-width: 1.5; stroke-linejoin: miter"/>
   </g>
   <g id="patch_5">
    <path d="M 154.940725 312.477273 
L 154.940725 312.477273 
L 154.940725 312.477273 
L 154.940725 312.477273 
L 154.940725 312.477273 
z
" clip-path="url(#p2274c9cb1e)" style="fill: none; stroke: #55a868; stroke-width: 1.5; stroke-linejoin: miter"/>
   </g>
   <g id="line2d_10">
    <path d="M 104.894181 304.890716 
L 104.894181 237.127161 
" clip-path="url(#p2274c9cb1e)" style="fill: none; stroke: #4c72b0; stroke-width: 2.25; stroke-linecap: round"/>
   </g>
   <g id="line2d_11">
    <path d="M 104.894181 288.64377 
L 104.894181 266.341456 
" clip-path="url(#p2274c9cb1e)" style="fill: none; stroke: #4c72b0; stroke-width: 6.75; stroke-linecap: round"/>
   </g>
   <g id="line2d_12">
    <path d="M 104.894181 276.232796 
" clip-path="url(#p2274c9cb1e)" style="fill: none; stroke: #4c72b0; stroke-width: 1.5; stroke-linecap: round"/>
    <defs>
     <path id="mc677d35d03" d="M 2.8125 0 
L -2.8125 -0 
" style="stroke: #ffffff; stroke-width: 1.35"/>
    </defs>
    <g clip-path="url(#p2274c9cb1e)">
     <use xlink:href="#mc677d35d03" x="104.894181" y="276.232796" style="fill: #ffffff; stroke: #ffffff; stroke-width: 1.35"/>
    </g>
   </g>
   <g id="line2d_13">
    <path d="M 154.940725 300.375852 
L 154.940725 243.991572 
" clip-path="url(#p2274c9cb1e)" style="fill: none; stroke: #dd8452; stroke-width: 2.25; stroke-linecap: round"/>
   </g>
   <g id="line2d_14">
    <path d="M 154.940725 282.27353 
L 154.940725 266.695119 
" clip-path="url(#p2274c9cb1e)" style="fill: none; stroke: #dd8452; stroke-width: 6.75; stroke-linecap: round"/>
   </g>
   <g id="line2d_15">
    <path d="M 154.940725 275.895743 
" clip-path="url(#p2274c9cb1e)" style="fill: none; stroke: #dd8452; stroke-width: 1.5; stroke-linecap: round"/>
    <g clip-path="url(#p2274c9cb1e)">
     <use xlink:href="#mc677d35d03" x="154.940725" y="275.895743" style="fill: #ffffff; stroke: #ffffff; stroke-width: 1.35"/>
    </g>
   </g>
   <g id="line2d_16">
    <path d="M 204.987268 292.658342 
L 204.987268 253.06806 
" clip-path="url(#p2274c9cb1e)" style="fill: none; stroke: #55a868; stroke-width: 2.25; stroke-linecap: round"/>
   </g>
   <g id="line2d_17">
    <path d="M 204.987268 280.659117 
L 204.987268 267.632871 
" clip-path="url(#p2274c9cb1e)" style="fill: none; stroke: #55a868; stroke-width: 6.75; stroke-linecap: round"/>
   </g>
   <g id="line2d_18">
    <path d="M 204.987268 273.763673 
" clip-path="url(#p2274c9cb1e)" style="fill: none; stroke: #55a868; stroke-width: 1.5; stroke-linecap: round"/>
    <g clip-path="url(#p2274c9cb1e)">
     <use xlink:href="#mc677d35d03" x="204.987268" y="273.763673" style="fill: #ffffff; stroke: #ffffff; stroke-width: 1.35"/>
    </g>
   </g>
   <g id="line2d_19">
    <path d="M 292.568719 312.477273 
L 292.568719 178.764205 
" clip-path="url(#p2274c9cb1e)" style="fill: none; stroke: #4c72b0; stroke-width: 2.25; stroke-linecap: round"/>
   </g>
   <g id="line2d_20">
    <path d="M 292.568719 312.477273 
L 292.568719 256.401454 
" clip-path="url(#p2274c9cb1e)" style="fill: none; stroke: #4c72b0; stroke-width: 6.75; stroke-linecap: round"/>
   </g>
   <g id="line2d_21">
    <path d="M 292.568719 285.867707 
" clip-path="url(#p2274c9cb1e)" style="fill: none; stroke: #4c72b0; stroke-width: 1.5; stroke-linecap: round"/>
    <g clip-path="url(#p2274c9cb1e)">
     <use xlink:href="#mc677d35d03" x="292.568719" y="285.867707" style="fill: #ffffff; stroke: #ffffff; stroke-width: 1.35"/>
    </g>
   </g>
   <g id="line2d_22">
    <path d="M 342.615263 312.477273 
L 342.615263 174.45088 
" clip-path="url(#p2274c9cb1e)" style="fill: none; stroke: #dd8452; stroke-width: 2.25; stroke-linecap: round"/>
   </g>
   <g id="line2d_23">
    <path d="M 342.615263 312.477273 
L 342.615263 256.545009 
" clip-path="url(#p2274c9cb1e)" style="fill: none; stroke: #dd8452; stroke-width: 6.75; stroke-linecap: round"/>
   </g>
   <g id="line2d_24">
    <path d="M 342.615263 284.604483 
" clip-path="url(#p2274c9cb1e)" style="fill: none; stroke: #dd8452; stroke-width: 1.5; stroke-linecap: round"/>
    <g clip-path="url(#p2274c9cb1e)">
     <use xlink:href="#mc677d35d03" x="342.615263" y="284.604483" style="fill: #ffffff; stroke: #ffffff; stroke-width: 1.35"/>
    </g>
   </g>
   <g id="line2d_25">
    <path d="M 392.661807 312.477273 
L 392.661807 193.621212 
" clip-path="url(#p2274c9cb1e)" style="fill: none; stroke: #55a868; stroke-width: 2.25; stroke-linecap: round"/>
   </g>
   <g id="line2d_26">
    <path d="M 392.661807 312.477273 
L 392.661807 260.61281 
" clip-path="url(#p2274c9cb1e)" style="fill: none; stroke: #55a868; stroke-width: 6.75; stroke-linecap: round"/>
   </g>
   <g id="line2d_27">
    <path d="M 392.661807 288.100975 
" clip-path="url(#p2274c9cb1e)" style="fill: none; stroke: #55a868; stroke-width: 1.5; stroke-linecap: round"/>
    <g clip-path="url(#p2274c9cb1e)">
     <use xlink:href="#mc677d35d03" x="392.661807" y="288.100975" style="fill: #ffffff; stroke: #ffffff; stroke-width: 1.35"/>
    </g>
   </g>
   <g id="patch_6">
    <path d="M 63.72 326.74 
L 63.72 12.96 
" style="fill: none; stroke: #ffffff; stroke-width: 1.25; stroke-linejoin: miter; stroke-linecap: square"/>
   </g>
   <g id="patch_7">
    <path d="M 419.04 326.74 
L 419.04 12.96 
" style="fill: none; stroke: #ffffff; stroke-width: 1.25; stroke-linejoin: miter; stroke-linecap: square"/>
   </g>
   <g id="patch_8">
    <path d="M 63.72 326.74 
L 419.04 326.74 
" style="fill: none; stroke: #ffffff; stroke-width: 1.25; stroke-linejoin: miter; stroke-linecap: square"/>
   </g>
   <g id="patch_9">
    <path d="M 63.72 12.96 
L 419.04 12.96 
" style="fill: none; stroke: #ffffff; stroke-width: 1.25; stroke-linejoin: miter; stroke-linecap: square"/>
   </g>
   <g id="legend_1">
    <g id="patch_10">
     <path d="M 71.42 86.34375 
L 152.156563 86.34375 
Q 154.356562 86.34375 154.356562 84.14375 
L 154.356562 20.66 
Q 154.356562 18.46 152.156563 18.46 
L 71.42 18.46 
Q 69.22 18.46 69.22 20.66 
L 69.22 84.14375 
Q 69.22 86.34375 71.42 86.34375 
z
" style="fill: #eaeaf2; opacity: 0.8; stroke: #cccccc; stroke-linejoin: miter"/>
    </g>
    <g id="patch_11">
     <path d="M 73.62 31.218281 
L 95.62 31.218281 
L 95.62 23.518281 
L 73.62 23.518281 
L 73.62 31.218281 
z
" style="fill: none; stroke: #4c72b0; stroke-width: 1.5; stroke-linejoin: miter"/>
    </g>
    <g id="text_13">
     <!-- Distant -->
     <g style="fill: #262626" transform="translate(104.42 31.218281) scale(0.11 -0.11)">
      <defs>
       <path id="DejaVuSans-44" d="M 1259 4147 
L 1259 519 
L 2022 519 
Q 2988 519 3436 956 
Q 3884 1394 3884 2338 
Q 3884 3275 3436 3711 
Q 2988 4147 2022 4147 
L 1259 4147 
z
M 628 4666 
L 1925 4666 
Q 3281 4666 3915 4102 
Q 4550 3538 4550 2338 
Q 4550 1131 3912 565 
Q 3275 0 1925 0 
L 628 0 
L 628 4666 
z
" transform="scale(0.015625)"/>
      </defs>
      <use xlink:href="#DejaVuSans-44"/>
      <use xlink:href="#DejaVuSans-69" x="77.001953"/>
      <use xlink:href="#DejaVuSans-73" x="104.785156"/>
      <use xlink:href="#DejaVuSans-74" x="156.884766"/>
      <use xlink:href="#DejaVuSans-61" x="196.09375"/>
      <use xlink:href="#DejaVuSans-6e" x="257.373047"/>
      <use xlink:href="#DejaVuSans-74" x="320.751953"/>
     </g>
    </g>
    <g id="patch_12">
     <path d="M 73.62 47.364219 
L 95.62 47.364219 
L 95.62 39.664219 
L 73.62 39.664219 
L 73.62 47.364219 
z
" style="fill: none; stroke: #dd8452; stroke-width: 1.5; stroke-linejoin: miter"/>
    </g>
    <g id="text_14">
     <!-- Random -->
     <g style="fill: #262626" transform="translate(104.42 47.364219) scale(0.11 -0.11)">
      <use xlink:href="#DejaVuSans-52"/>
      <use xlink:href="#DejaVuSans-61" x="67.232422"/>
      <use xlink:href="#DejaVuSans-6e" x="128.511719"/>
      <use xlink:href="#DejaVuSans-64" x="191.890625"/>
      <use xlink:href="#DejaVuSans-6f" x="255.367188"/>
      <use xlink:href="#DejaVuSans-6d" x="316.548828"/>
     </g>
    </g>
    <g id="patch_13">
     <path d="M 73.62 63.510156 
L 95.62 63.510156 
L 95.62 55.810156 
L 73.62 55.810156 
L 73.62 63.510156 
z
" style="fill: none; stroke: #55a868; stroke-width: 1.5; stroke-linejoin: miter"/>
    </g>
    <g id="text_15">
     <!-- Similar -->
     <g style="fill: #262626" transform="translate(104.42 63.510156) scale(0.11 -0.11)">
      <defs>
       <path id="DejaVuSans-53" d="M 3425 4513 
L 3425 3897 
Q 3066 4069 2747 4153 
Q 2428 4238 2131 4238 
Q 1616 4238 1336 4038 
Q 1056 3838 1056 3469 
Q 1056 3159 1242 3001 
Q 1428 2844 1947 2747 
L 2328 2669 
Q 3034 2534 3370 2195 
Q 3706 1856 3706 1288 
Q 3706 609 3251 259 
Q 2797 -91 1919 -91 
Q 1588 -91 1214 -16 
Q 841 59 441 206 
L 441 856 
Q 825 641 1194 531 
Q 1563 422 1919 422 
Q 2459 422 2753 634 
Q 3047 847 3047 1241 
Q 3047 1584 2836 1778 
Q 2625 1972 2144 2069 
L 1759 2144 
Q 1053 2284 737 2584 
Q 422 2884 422 3419 
Q 422 4038 858 4394 
Q 1294 4750 2059 4750 
Q 2388 4750 2728 4690 
Q 3069 4631 3425 4513 
z
" transform="scale(0.015625)"/>
       <path id="DejaVuSans-6c" d="M 603 4863 
L 1178 4863 
L 1178 0 
L 603 0 
L 603 4863 
z
" transform="scale(0.015625)"/>
      </defs>
      <use xlink:href="#DejaVuSans-53"/>
      <use xlink:href="#DejaVuSans-69" x="63.476562"/>
      <use xlink:href="#DejaVuSans-6d" x="91.259766"/>
      <use xlink:href="#DejaVuSans-69" x="188.671875"/>
      <use xlink:href="#DejaVuSans-6c" x="216.455078"/>
      <use xlink:href="#DejaVuSans-61" x="244.238281"/>
      <use xlink:href="#DejaVuSans-72" x="305.517578"/>
     </g>
    </g>
    <g id="PathCollection_1">
     <defs>
      <path id="m045ac23f13" d="M 0 3 
C 0.795609 3 1.55874 2.683901 2.12132 2.12132 
C 2.683901 1.55874 3 0.795609 3 0 
C 3 -0.795609 2.683901 -1.55874 2.12132 -2.12132 
C 1.55874 -2.683901 0.795609 -3 0 -3 
C -0.795609 -3 -1.55874 -2.683901 -2.12132 -2.12132 
C -2.683901 -1.55874 -3 -0.795609 -3 0 
C -3 0.795609 -2.683901 1.55874 -2.12132 2.12132 
C -1.55874 2.683901 -0.795609 3 0 3 
z
" style="stroke: #000000; stroke-opacity: 0.7"/>
     </defs>
     <g>
      <use xlink:href="#m045ac23f13" x="84.62" y="76.768594" style="fill-opacity: 0.7; stroke: #000000; stroke-opacity: 0.7"/>
     </g>
    </g>
    <g id="text_16">
     <!-- Mean -->
     <g style="fill: #262626" transform="translate(104.42 79.656094) scale(0.11 -0.11)">
      <use xlink:href="#DejaVuSans-4d"/>
      <use xlink:href="#DejaVuSans-65" x="86.279297"/>
      <use xlink:href="#DejaVuSans-61" x="147.802734"/>
      <use xlink:href="#DejaVuSans-6e" x="209.082031"/>
     </g>
    </g>
   </g>
   <g id="PathCollection_2">
    <g clip-path="url(#p2274c9cb1e)">
     <use xlink:href="#m045ac23f13" x="292.506161" y="272.97757" style="fill-opacity: 0.7; stroke: #000000; stroke-opacity: 0.7"/>
    </g>
   </g>
   <g id="PathCollection_3">
    <g clip-path="url(#p2274c9cb1e)">
     <use xlink:href="#m045ac23f13" x="342.615263" y="275.740932" style="fill-opacity: 0.7; stroke: #000000; stroke-opacity: 0.7"/>
    </g>
   </g>
   <g id="PathCollection_4">
    <g clip-path="url(#p2274c9cb1e)">
     <use xlink:href="#m045ac23f13" x="392.724365" y="277.319699" style="fill-opacity: 0.7; stroke: #000000; stroke-opacity: 0.7"/>
    </g>
   </g>
   <g id="PathCollection_5">
    <g clip-path="url(#p2274c9cb1e)">
     <use xlink:href="#m045ac23f13" x="104.831623" y="275.513282" style="fill-opacity: 0.7; stroke: #000000; stroke-opacity: 0.7"/>
    </g>
   </g>
   <g id="PathCollection_6">
    <g clip-path="url(#p2274c9cb1e)">
     <use xlink:href="#m045ac23f13" x="154.940725" y="272.066583" style="fill-opacity: 0.7; stroke: #000000; stroke-opacity: 0.7"/>
    </g>
   </g>
   <g id="PathCollection_7">
    <g clip-path="url(#p2274c9cb1e)">
     <use xlink:href="#m045ac23f13" x="205.049826" y="272.472645" style="fill-opacity: 0.7; stroke: #000000; stroke-opacity: 0.7"/>
    </g>
   </g>
  </g>
 </g>
 <defs>
  <clipPath id="p2274c9cb1e">
   <rect x="63.72" y="12.96" width="355.32" height="313.78"/>
  </clipPath>
 </defs>
</svg>
