<?xml version="1.0" encoding="utf-8" standalone="no"?>
<!DOCTYPE svg PUBLIC "-//W3C//DTD SVG 1.1//EN"
  "http://www.w3.org/Graphics/SVG/1.1/DTD/svg11.dtd">
<svg xmlns:xlink="http://www.w3.org/1999/xlink" width="432pt" height="360pt" viewBox="0 0 432 360" xmlns="http://www.w3.org/2000/svg" version="1.1">
 <metadata>
  <rdf:RDF xmlns:dc="http://purl.org/dc/elements/1.1/" xmlns:cc="http://creativecommons.org/ns#" xmlns:rdf="http://www.w3.org/1999/02/22-rdf-syntax-ns#">
   <cc:Work>
    <dc:type rdf:resource="http://purl.org/dc/dcmitype/StillImage"/>
    <dc:date>2025-05-19T12:19:50.968619</dc:date>
    <dc:format>image/svg+xml</dc:format>
    <dc:creator>
     <cc:Agent>
      <dc:title>Matplotlib v3.9.2, https://matplotlib.org/</dc:title>
     </cc:Agent>
    </dc:creator>
   </cc:Work>
  </rdf:RDF>
 </metadata>
 <defs>
  <style type="text/css">*{stroke-linejoin: round; stroke-linecap: butt}</style>
 </defs>
 <g id="figure_1">
  <g id="patch_1">
   <path d="M 0 360 
L 432 360 
L 432 0 
L 0 0 
z
" style="fill: #ffffff"/>
  </g>
  <g id="axes_1">
   <g id="patch_2">
    <path d="M 53.28 326.74 
L 419.04 326.74 
L 419.04 12.96 
L 53.28 12.96 
z
" style="fill: #eaeaf2"/>
   </g>
   <g id="matplotlib.axis_1">
    <g id="xtick_1">
     <g id="text_1">
      <!-- 50 Most active users -->
      <g style="fill: #262626" transform="translate(89.018564 344.598281) scale(0.11 -0.11)">
       <defs>
        <path id="DejaVuSans-35" d="M 691 4666 
L 3169 4666 
L 3169 4134 
L 1269 4134 
L 1269 2991 
Q 1406 3038 1543 3061 
Q 1681 3084 1819 3084 
Q 2600 3084 3056 2656 
Q 3513 2228 3513 1497 
Q 3513 744 3044 326 
Q 2575 -91 1722 -91 
Q 1428 -91 1123 -41 
Q 819 9 494 109 
L 494 744 
Q 775 591 1075 516 
Q 1375 441 1709 441 
Q 2250 441 2565 725 
Q 2881 1009 2881 1497 
Q 2881 1984 2565 2268 
Q 2250 2553 1709 2553 
Q 1456 2553 1204 2497 
Q 953 2441 691 2322 
L 691 4666 
z
" transform="scale(0.015625)"/>
        <path id="DejaVuSans-30" d="M 2034 4250 
Q 1547 4250 1301 3770 
Q 1056 3291 1056 2328 
Q 1056 1369 1301 889 
Q 1547 409 2034 409 
Q 2525 409 2770 889 
Q 3016 1369 3016 2328 
Q 3016 3291 2770 3770 
Q 2525 4250 2034 4250 
z
M 2034 4750 
Q 2819 4750 3233 4129 
Q 3647 3509 3647 2328 
Q 3647 1150 3233 529 
Q 2819 -91 2034 -91 
Q 1250 -91 836 529 
Q 422 1150 422 2328 
Q 422 3509 836 4129 
Q 1250 4750 2034 4750 
z
" transform="scale(0.015625)"/>
        <path id="DejaVuSans-20" transform="scale(0.015625)"/>
        <path id="DejaVuSans-4d" d="M 628 4666 
L 1569 4666 
L 2759 1491 
L 3956 4666 
L 4897 4666 
L 4897 0 
L 4281 0 
L 4281 4097 
L 3078 897 
L 2444 897 
L 1241 4097 
L 1241 0 
L 628 0 
L 628 4666 
z
" transform="scale(0.015625)"/>
        <path id="DejaVuSans-6f" d="M 1959 3097 
Q 1497 3097 1228 2736 
Q 959 2375 959 1747 
Q 959 1119 1226 758 
Q 1494 397 1959 397 
Q 2419 397 2687 759 
Q 2956 1122 2956 1747 
Q 2956 2369 2687 2733 
Q 2419 3097 1959 3097 
z
M 1959 3584 
Q 2709 3584 3137 3096 
Q 3566 2609 3566 1747 
Q 3566 888 3137 398 
Q 2709 -91 1959 -91 
Q 1206 -91 779 398 
Q 353 888 353 1747 
Q 353 2609 779 3096 
Q 1206 3584 1959 3584 
z
" transform="scale(0.015625)"/>
        <path id="DejaVuSans-73" d="M 2834 3397 
L 2834 2853 
Q 2591 2978 2328 3040 
Q 2066 3103 1784 3103 
Q 1356 3103 1142 2972 
Q 928 2841 928 2578 
Q 928 2378 1081 2264 
Q 1234 2150 1697 2047 
L 1894 2003 
Q 2506 1872 2764 1633 
Q 3022 1394 3022 966 
Q 3022 478 2636 193 
Q 2250 -91 1575 -91 
Q 1294 -91 989 -36 
Q 684 19 347 128 
L 347 722 
Q 666 556 975 473 
Q 1284 391 1588 391 
Q 1994 391 2212 530 
Q 2431 669 2431 922 
Q 2431 1156 2273 1281 
Q 2116 1406 1581 1522 
L 1381 1569 
Q 847 1681 609 1914 
Q 372 2147 372 2553 
Q 372 3047 722 3315 
Q 1072 3584 1716 3584 
Q 2034 3584 2315 3537 
Q 2597 3491 2834 3397 
z
" transform="scale(0.015625)"/>
        <path id="DejaVuSans-74" d="M 1172 4494 
L 1172 3500 
L 2356 3500 
L 2356 3053 
L 1172 3053 
L 1172 1153 
Q 1172 725 1289 603 
Q 1406 481 1766 481 
L 2356 481 
L 2356 0 
L 1766 0 
Q 1100 0 847 248 
Q 594 497 594 1153 
L 594 3053 
L 172 3053 
L 172 3500 
L 594 3500 
L 594 4494 
L 1172 4494 
z
" transform="scale(0.015625)"/>
        <path id="DejaVuSans-61" d="M 2194 1759 
Q 1497 1759 1228 1600 
Q 959 1441 959 1056 
Q 959 750 1161 570 
Q 1363 391 1709 391 
Q 2188 391 2477 730 
Q 2766 1069 2766 1631 
L 2766 1759 
L 2194 1759 
z
M 3341 1997 
L 3341 0 
L 2766 0 
L 2766 531 
Q 2569 213 2275 61 
Q 1981 -91 1556 -91 
Q 1019 -91 701 211 
Q 384 513 384 1019 
Q 384 1609 779 1909 
Q 1175 2209 1959 2209 
L 2766 2209 
L 2766 2266 
Q 2766 2663 2505 2880 
Q 2244 3097 1772 3097 
Q 1472 3097 1187 3025 
Q 903 2953 641 2809 
L 641 3341 
Q 956 3463 1253 3523 
Q 1550 3584 1831 3584 
Q 2591 3584 2966 3190 
Q 3341 2797 3341 1997 
z
" transform="scale(0.015625)"/>
        <path id="DejaVuSans-63" d="M 3122 3366 
L 3122 2828 
Q 2878 2963 2633 3030 
Q 2388 3097 2138 3097 
Q 1578 3097 1268 2742 
Q 959 2388 959 1747 
Q 959 1106 1268 751 
Q 1578 397 2138 397 
Q 2388 397 2633 464 
Q 2878 531 3122 666 
L 3122 134 
Q 2881 22 2623 -34 
Q 2366 -91 2075 -91 
Q 1284 -91 818 406 
Q 353 903 353 1747 
Q 353 2603 823 3093 
Q 1294 3584 2113 3584 
Q 2378 3584 2631 3529 
Q 2884 3475 3122 3366 
z
" transform="scale(0.015625)"/>
        <path id="DejaVuSans-69" d="M 603 3500 
L 1178 3500 
L 1178 0 
L 603 0 
L 603 3500 
z
M 603 4863 
L 1178 4863 
L 1178 4134 
L 603 4134 
L 603 4863 
z
" transform="scale(0.015625)"/>
        <path id="DejaVuSans-76" d="M 191 3500 
L 800 3500 
L 1894 563 
L 2988 3500 
L 3597 3500 
L 2284 0 
L 1503 0 
L 191 3500 
z
" transform="scale(0.015625)"/>
        <path id="DejaVuSans-65" d="M 3597 1894 
L 3597 1613 
L 953 1613 
Q 991 1019 1311 708 
Q 1631 397 2203 397 
Q 2534 397 2845 478 
Q 3156 559 3463 722 
L 3463 178 
Q 3153 47 2828 -22 
Q 2503 -91 2169 -91 
Q 1331 -91 842 396 
Q 353 884 353 1716 
Q 353 2575 817 3079 
Q 1281 3584 2069 3584 
Q 2775 3584 3186 3129 
Q 3597 2675 3597 1894 
z
M 3022 2063 
Q 3016 2534 2758 2815 
Q 2500 3097 2075 3097 
Q 1594 3097 1305 2825 
Q 1016 2553 972 2059 
L 3022 2063 
z
" transform="scale(0.015625)"/>
        <path id="DejaVuSans-75" d="M 544 1381 
L 544 3500 
L 1119 3500 
L 1119 1403 
Q 1119 906 1312 657 
Q 1506 409 1894 409 
Q 2359 409 2629 706 
Q 2900 1003 2900 1516 
L 2900 3500 
L 3475 3500 
L 3475 0 
L 2900 0 
L 2900 538 
Q 2691 219 2414 64 
Q 2138 -91 1772 -91 
Q 1169 -91 856 284 
Q 544 659 544 1381 
z
M 1991 3584 
L 1991 3584 
z
" transform="scale(0.015625)"/>
        <path id="DejaVuSans-72" d="M 2631 2963 
Q 2534 3019 2420 3045 
Q 2306 3072 2169 3072 
Q 1681 3072 1420 2755 
Q 1159 2438 1159 1844 
L 1159 0 
L 581 0 
L 581 3500 
L 1159 3500 
L 1159 2956 
Q 1341 3275 1631 3429 
Q 1922 3584 2338 3584 
Q 2397 3584 2469 3576 
Q 2541 3569 2628 3553 
L 2631 2963 
z
" transform="scale(0.015625)"/>
       </defs>
       <use xlink:href="#DejaVuSans-35"/>
       <use xlink:href="#DejaVuSans-30" x="63.623047"/>
       <use xlink:href="#DejaVuSans-20" x="127.246094"/>
       <use xlink:href="#DejaVuSans-4d" x="159.033203"/>
       <use xlink:href="#DejaVuSans-6f" x="245.3125"/>
       <use xlink:href="#DejaVuSans-73" x="306.494141"/>
       <use xlink:href="#DejaVuSans-74" x="358.59375"/>
       <use xlink:href="#DejaVuSans-20" x="397.802734"/>
       <use xlink:href="#DejaVuSans-61" x="429.589844"/>
       <use xlink:href="#DejaVuSans-63" x="490.869141"/>
       <use xlink:href="#DejaVuSans-74" x="545.849609"/>
       <use xlink:href="#DejaVuSans-69" x="585.058594"/>
       <use xlink:href="#DejaVuSans-76" x="612.841797"/>
       <use xlink:href="#DejaVuSans-65" x="672.021484"/>
       <use xlink:href="#DejaVuSans-20" x="733.544922"/>
       <use xlink:href="#DejaVuSans-75" x="765.332031"/>
       <use xlink:href="#DejaVuSans-73" x="828.710938"/>
       <use xlink:href="#DejaVuSans-65" x="880.810547"/>
       <use xlink:href="#DejaVuSans-72" x="942.333984"/>
       <use xlink:href="#DejaVuSans-73" x="983.447266"/>
      </g>
     </g>
    </g>
    <g id="xtick_2">
     <g id="text_2">
      <!-- 200 Random users -->
      <g style="fill: #262626" transform="translate(284.517589 344.598281) scale(0.11 -0.11)">
       <defs>
        <path id="DejaVuSans-32" d="M 1228 531 
L 3431 531 
L 3431 0 
L 469 0 
L 469 531 
Q 828 903 1448 1529 
Q 2069 2156 2228 2338 
Q 2531 2678 2651 2914 
Q 2772 3150 2772 3378 
Q 2772 3750 2511 3984 
Q 2250 4219 1831 4219 
Q 1534 4219 1204 4116 
Q 875 4013 500 3803 
L 500 4441 
Q 881 4594 1212 4672 
Q 1544 4750 1819 4750 
Q 2544 4750 2975 4387 
Q 3406 4025 3406 3419 
Q 3406 3131 3298 2873 
Q 3191 2616 2906 2266 
Q 2828 2175 2409 1742 
Q 1991 1309 1228 531 
z
" transform="scale(0.015625)"/>
        <path id="DejaVuSans-52" d="M 2841 2188 
Q 3044 2119 3236 1894 
Q 3428 1669 3622 1275 
L 4263 0 
L 3584 0 
L 2988 1197 
Q 2756 1666 2539 1819 
Q 2322 1972 1947 1972 
L 1259 1972 
L 1259 0 
L 628 0 
L 628 4666 
L 2053 4666 
Q 2853 4666 3247 4331 
Q 3641 3997 3641 3322 
Q 3641 2881 3436 2590 
Q 3231 2300 2841 2188 
z
M 1259 4147 
L 1259 2491 
L 2053 2491 
Q 2509 2491 2742 2702 
Q 2975 2913 2975 3322 
Q 2975 3731 2742 3939 
Q 2509 4147 2053 4147 
L 1259 4147 
z
" transform="scale(0.015625)"/>
        <path id="DejaVuSans-6e" d="M 3513 2113 
L 3513 0 
L 2938 0 
L 2938 2094 
Q 2938 2591 2744 2837 
Q 2550 3084 2163 3084 
Q 1697 3084 1428 2787 
Q 1159 2491 1159 1978 
L 1159 0 
L 581 0 
L 581 3500 
L 1159 3500 
L 1159 2956 
Q 1366 3272 1645 3428 
Q 1925 3584 2291 3584 
Q 2894 3584 3203 3211 
Q 3513 2838 3513 2113 
z
" transform="scale(0.015625)"/>
        <path id="DejaVuSans-64" d="M 2906 2969 
L 2906 4863 
L 3481 4863 
L 3481 0 
L 2906 0 
L 2906 525 
Q 2725 213 2448 61 
Q 2172 -91 1784 -91 
Q 1150 -91 751 415 
Q 353 922 353 1747 
Q 353 2572 751 3078 
Q 1150 3584 1784 3584 
Q 2172 3584 2448 3432 
Q 2725 3281 2906 2969 
z
M 947 1747 
Q 947 1113 1208 752 
Q 1469 391 1925 391 
Q 2381 391 2643 752 
Q 2906 1113 2906 1747 
Q 2906 2381 2643 2742 
Q 2381 3103 1925 3103 
Q 1469 3103 1208 2742 
Q 947 2381 947 1747 
z
" transform="scale(0.015625)"/>
        <path id="DejaVuSans-6d" d="M 3328 2828 
Q 3544 3216 3844 3400 
Q 4144 3584 4550 3584 
Q 5097 3584 5394 3201 
Q 5691 2819 5691 2113 
L 5691 0 
L 5113 0 
L 5113 2094 
Q 5113 2597 4934 2840 
Q 4756 3084 4391 3084 
Q 3944 3084 3684 2787 
Q 3425 2491 3425 1978 
L 3425 0 
L 2847 0 
L 2847 2094 
Q 2847 2600 2669 2842 
Q 2491 3084 2119 3084 
Q 1678 3084 1418 2786 
Q 1159 2488 1159 1978 
L 1159 0 
L 581 0 
L 581 3500 
L 1159 3500 
L 1159 2956 
Q 1356 3278 1631 3431 
Q 1906 3584 2284 3584 
Q 2666 3584 2933 3390 
Q 3200 3197 3328 2828 
z
" transform="scale(0.015625)"/>
       </defs>
       <use xlink:href="#DejaVuSans-32"/>
       <use xlink:href="#DejaVuSans-30" x="63.623047"/>
       <use xlink:href="#DejaVuSans-30" x="127.246094"/>
       <use xlink:href="#DejaVuSans-20" x="190.869141"/>
       <use xlink:href="#DejaVuSans-52" x="222.65625"/>
       <use xlink:href="#DejaVuSans-61" x="289.888672"/>
       <use xlink:href="#DejaVuSans-6e" x="351.167969"/>
       <use xlink:href="#DejaVuSans-64" x="414.546875"/>
       <use xlink:href="#DejaVuSans-6f" x="478.023438"/>
       <use xlink:href="#DejaVuSans-6d" x="539.205078"/>
       <use xlink:href="#DejaVuSans-20" x="636.617188"/>
       <use xlink:href="#DejaVuSans-75" x="668.404297"/>
       <use xlink:href="#DejaVuSans-73" x="731.783203"/>
       <use xlink:href="#DejaVuSans-65" x="783.882812"/>
       <use xlink:href="#DejaVuSans-72" x="845.40625"/>
       <use xlink:href="#DejaVuSans-73" x="886.519531"/>
      </g>
     </g>
    </g>
   </g>
   <g id="matplotlib.axis_2">
    <g id="ytick_1">
     <g id="line2d_1">
      <path d="M 53.28 312.477273 
L 419.04 312.477273 
" clip-path="url(#p6517801c06)" style="fill: none; stroke: #ffffff; stroke-linecap: round"/>
     </g>
     <g id="text_3">
      <!-- 0 -->
      <g style="fill: #262626" transform="translate(36.78125 316.656413) scale(0.11 -0.11)">
       <use xlink:href="#DejaVuSans-30"/>
      </g>
     </g>
    </g>
    <g id="ytick_2">
     <g id="line2d_2">
      <path d="M 53.28 266.836545 
L 419.04 266.836545 
" clip-path="url(#p6517801c06)" style="fill: none; stroke: #ffffff; stroke-linecap: round"/>
     </g>
     <g id="text_4">
      <!-- 2 -->
      <g style="fill: #262626" transform="translate(36.78125 271.015686) scale(0.11 -0.11)">
       <use xlink:href="#DejaVuSans-32"/>
      </g>
     </g>
    </g>
    <g id="ytick_3">
     <g id="line2d_3">
      <path d="M 53.28 221.195818 
L 419.04 221.195818 
" clip-path="url(#p6517801c06)" style="fill: none; stroke: #ffffff; stroke-linecap: round"/>
     </g>
     <g id="text_5">
      <!-- 4 -->
      <g style="fill: #262626" transform="translate(36.78125 225.374959) scale(0.11 -0.11)">
       <defs>
        <path id="DejaVuSans-34" d="M 2419 4116 
L 825 1625 
L 2419 1625 
L 2419 4116 
z
M 2253 4666 
L 3047 4666 
L 3047 1625 
L 3713 1625 
L 3713 1100 
L 3047 1100 
L 3047 0 
L 2419 0 
L 2419 1100 
L 313 1100 
L 313 1709 
L 2253 4666 
z
" transform="scale(0.015625)"/>
       </defs>
       <use xlink:href="#DejaVuSans-34"/>
      </g>
     </g>
    </g>
    <g id="ytick_4">
     <g id="line2d_4">
      <path d="M 53.28 175.555091 
L 419.04 175.555091 
" clip-path="url(#p6517801c06)" style="fill: none; stroke: #ffffff; stroke-linecap: round"/>
     </g>
     <g id="text_6">
      <!-- 6 -->
      <g style="fill: #262626" transform="translate(36.78125 179.734232) scale(0.11 -0.11)">
       <defs>
        <path id="DejaVuSans-36" d="M 2113 2584 
Q 1688 2584 1439 2293 
Q 1191 2003 1191 1497 
Q 1191 994 1439 701 
Q 1688 409 2113 409 
Q 2538 409 2786 701 
Q 3034 994 3034 1497 
Q 3034 2003 2786 2293 
Q 2538 2584 2113 2584 
z
M 3366 4563 
L 3366 3988 
Q 3128 4100 2886 4159 
Q 2644 4219 2406 4219 
Q 1781 4219 1451 3797 
Q 1122 3375 1075 2522 
Q 1259 2794 1537 2939 
Q 1816 3084 2150 3084 
Q 2853 3084 3261 2657 
Q 3669 2231 3669 1497 
Q 3669 778 3244 343 
Q 2819 -91 2113 -91 
Q 1303 -91 875 529 
Q 447 1150 447 2328 
Q 447 3434 972 4092 
Q 1497 4750 2381 4750 
Q 2619 4750 2861 4703 
Q 3103 4656 3366 4563 
z
" transform="scale(0.015625)"/>
       </defs>
       <use xlink:href="#DejaVuSans-36"/>
      </g>
     </g>
    </g>
    <g id="ytick_5">
     <g id="line2d_5">
      <path d="M 53.28 129.914364 
L 419.04 129.914364 
" clip-path="url(#p6517801c06)" style="fill: none; stroke: #ffffff; stroke-linecap: round"/>
     </g>
     <g id="text_7">
      <!-- 8 -->
      <g style="fill: #262626" transform="translate(36.78125 134.093504) scale(0.11 -0.11)">
       <defs>
        <path id="DejaVuSans-38" d="M 2034 2216 
Q 1584 2216 1326 1975 
Q 1069 1734 1069 1313 
Q 1069 891 1326 650 
Q 1584 409 2034 409 
Q 2484 409 2743 651 
Q 3003 894 3003 1313 
Q 3003 1734 2745 1975 
Q 2488 2216 2034 2216 
z
M 1403 2484 
Q 997 2584 770 2862 
Q 544 3141 544 3541 
Q 544 4100 942 4425 
Q 1341 4750 2034 4750 
Q 2731 4750 3128 4425 
Q 3525 4100 3525 3541 
Q 3525 3141 3298 2862 
Q 3072 2584 2669 2484 
Q 3125 2378 3379 2068 
Q 3634 1759 3634 1313 
Q 3634 634 3220 271 
Q 2806 -91 2034 -91 
Q 1263 -91 848 271 
Q 434 634 434 1313 
Q 434 1759 690 2068 
Q 947 2378 1403 2484 
z
M 1172 3481 
Q 1172 3119 1398 2916 
Q 1625 2713 2034 2713 
Q 2441 2713 2670 2916 
Q 2900 3119 2900 3481 
Q 2900 3844 2670 4047 
Q 2441 4250 2034 4250 
Q 1625 4250 1398 4047 
Q 1172 3844 1172 3481 
z
" transform="scale(0.015625)"/>
       </defs>
       <use xlink:href="#DejaVuSans-38"/>
      </g>
     </g>
    </g>
    <g id="ytick_6">
     <g id="line2d_6">
      <path d="M 53.28 84.273636 
L 419.04 84.273636 
" clip-path="url(#p6517801c06)" style="fill: none; stroke: #ffffff; stroke-linecap: round"/>
     </g>
     <g id="text_8">
      <!-- 10 -->
      <g style="fill: #262626" transform="translate(29.7825 88.452777) scale(0.11 -0.11)">
       <defs>
        <path id="DejaVuSans-31" d="M 794 531 
L 1825 531 
L 1825 4091 
L 703 3866 
L 703 4441 
L 1819 4666 
L 2450 4666 
L 2450 531 
L 3481 531 
L 3481 0 
L 794 0 
L 794 531 
z
" transform="scale(0.015625)"/>
       </defs>
       <use xlink:href="#DejaVuSans-31"/>
       <use xlink:href="#DejaVuSans-30" x="63.623047"/>
      </g>
     </g>
    </g>
    <g id="ytick_7">
     <g id="line2d_7">
      <path d="M 53.28 38.632909 
L 419.04 38.632909 
" clip-path="url(#p6517801c06)" style="fill: none; stroke: #ffffff; stroke-linecap: round"/>
     </g>
     <g id="text_9">
      <!-- 12 -->
      <g style="fill: #262626" transform="translate(29.7825 42.81205) scale(0.11 -0.11)">
       <use xlink:href="#DejaVuSans-31"/>
       <use xlink:href="#DejaVuSans-32" x="63.623047"/>
      </g>
     </g>
    </g>
    <g id="text_10">
     <!-- ROUGE-2 -->
     <g style="fill: #262626" transform="translate(23.286875 197.555938) rotate(-90) scale(0.12 -0.12)">
      <defs>
       <path id="DejaVuSans-4f" d="M 2522 4238 
Q 1834 4238 1429 3725 
Q 1025 3213 1025 2328 
Q 1025 1447 1429 934 
Q 1834 422 2522 422 
Q 3209 422 3611 934 
Q 4013 1447 4013 2328 
Q 4013 3213 3611 3725 
Q 3209 4238 2522 4238 
z
M 2522 4750 
Q 3503 4750 4090 4092 
Q 4678 3434 4678 2328 
Q 4678 1225 4090 567 
Q 3503 -91 2522 -91 
Q 1538 -91 948 565 
Q 359 1222 359 2328 
Q 359 3434 948 4092 
Q 1538 4750 2522 4750 
z
" transform="scale(0.015625)"/>
       <path id="DejaVuSans-55" d="M 556 4666 
L 1191 4666 
L 1191 1831 
Q 1191 1081 1462 751 
Q 1734 422 2344 422 
Q 2950 422 3222 751 
Q 3494 1081 3494 1831 
L 3494 4666 
L 4128 4666 
L 4128 1753 
Q 4128 841 3676 375 
Q 3225 -91 2344 -91 
Q 1459 -91 1007 375 
Q 556 841 556 1753 
L 556 4666 
z
" transform="scale(0.015625)"/>
       <path id="DejaVuSans-47" d="M 3809 666 
L 3809 1919 
L 2778 1919 
L 2778 2438 
L 4434 2438 
L 4434 434 
Q 4069 175 3628 42 
Q 3188 -91 2688 -91 
Q 1594 -91 976 548 
Q 359 1188 359 2328 
Q 359 3472 976 4111 
Q 1594 4750 2688 4750 
Q 3144 4750 3555 4637 
Q 3966 4525 4313 4306 
L 4313 3634 
Q 3963 3931 3569 4081 
Q 3175 4231 2741 4231 
Q 1884 4231 1454 3753 
Q 1025 3275 1025 2328 
Q 1025 1384 1454 906 
Q 1884 428 2741 428 
Q 3075 428 3337 486 
Q 3600 544 3809 666 
z
" transform="scale(0.015625)"/>
       <path id="DejaVuSans-45" d="M 628 4666 
L 3578 4666 
L 3578 4134 
L 1259 4134 
L 1259 2753 
L 3481 2753 
L 3481 2222 
L 1259 2222 
L 1259 531 
L 3634 531 
L 3634 0 
L 628 0 
L 628 4666 
z
" transform="scale(0.015625)"/>
       <path id="DejaVuSans-2d" d="M 313 2009 
L 1997 2009 
L 1997 1497 
L 313 1497 
L 313 2009 
z
" transform="scale(0.015625)"/>
      </defs>
      <use xlink:href="#DejaVuSans-52"/>
      <use xlink:href="#DejaVuSans-4f" x="69.482422"/>
      <use xlink:href="#DejaVuSans-55" x="148.193359"/>
      <use xlink:href="#DejaVuSans-47" x="221.386719"/>
      <use xlink:href="#DejaVuSans-45" x="298.876953"/>
      <use xlink:href="#DejaVuSans-2d" x="362.060547"/>
      <use xlink:href="#DejaVuSans-32" x="398.144531"/>
     </g>
    </g>
   </g>
   <g id="PolyCollection_1">
    <path d="M 109.368731 312.477273 
L 81.153731 312.477273 
L 80.024813 311.738847 
L 78.903868 311.00042 
L 77.802813 310.261994 
L 76.733675 309.523568 
L 75.708348 308.785142 
L 74.738356 308.046715 
L 73.834603 307.308289 
L 73.007138 306.569863 
L 72.264929 305.831437 
L 71.615658 305.093011 
L 71.065551 304.354584 
L 70.619242 303.616158 
L 70.279687 302.877732 
L 70.048123 302.139306 
L 69.924082 301.40088 
L 69.905455 300.662453 
L 69.988603 299.924027 
L 70.16851 299.185601 
L 70.438964 298.447175 
L 70.792762 297.708748 
L 71.221937 296.970322 
L 71.717971 296.231896 
L 72.272022 295.49347 
L 72.87513 294.755044 
L 73.518409 294.016617 
L 74.193221 293.278191 
L 74.891329 292.539765 
L 75.605028 291.801339 
L 76.327249 291.062913 
L 77.051648 290.324486 
L 77.772661 289.58606 
L 78.485538 288.847634 
L 79.186359 288.109208 
L 79.872013 287.370781 
L 80.540162 286.632355 
L 81.189181 285.893929 
L 81.818079 285.155503 
L 82.426398 284.417077 
L 83.014118 283.67865 
L 83.581537 282.940224 
L 84.129167 282.201798 
L 84.657632 281.463372 
L 85.167579 280.724946 
L 85.659602 279.986519 
L 86.134194 279.248093 
L 86.591708 278.509667 
L 87.032351 277.771241 
L 87.456188 277.032814 
L 87.863165 276.294388 
L 88.253148 275.555962 
L 88.625965 274.817536 
L 88.981452 274.07911 
L 89.319503 273.340683 
L 89.640105 272.602257 
L 89.943376 271.863831 
L 90.229576 271.125405 
L 90.499121 270.386979 
L 90.752574 269.648552 
L 90.990624 268.910126 
L 91.21406 268.1717 
L 91.423731 267.433274 
L 91.620511 266.694847 
L 91.805256 265.956421 
L 91.978769 265.217995 
L 92.141775 264.479569 
L 92.294899 263.741143 
L 92.438663 263.002716 
L 92.573488 262.26429 
L 92.699711 261.525864 
L 92.817604 260.787438 
L 92.927409 260.049012 
L 93.029356 259.310585 
L 93.123697 258.572159 
L 93.210719 257.833733 
L 93.290759 257.095307 
L 93.364203 256.35688 
L 93.431479 255.618454 
L 93.49304 254.880028 
L 93.549341 254.141602 
L 93.600821 253.403176 
L 93.647877 252.664749 
L 93.690853 251.926323 
L 93.730032 251.187897 
L 93.765641 250.449471 
L 93.797863 249.711045 
L 93.826868 248.972618 
L 93.852839 248.234192 
L 93.876007 247.495766 
L 93.896686 246.75734 
L 93.915296 246.018913 
L 93.932385 245.280487 
L 93.948628 244.542061 
L 93.964814 243.803635 
L 93.981824 243.065209 
L 94.000585 242.326782 
L 94.022025 241.588356 
L 94.047012 240.84993 
L 94.076298 240.111504 
L 94.110465 239.373078 
L 96.411996 239.373078 
L 96.411996 239.373078 
L 96.446164 240.111504 
L 96.475449 240.84993 
L 96.500436 241.588356 
L 96.521876 242.326782 
L 96.540638 243.065209 
L 96.557647 243.803635 
L 96.573834 244.542061 
L 96.590076 245.280487 
L 96.607165 246.018913 
L 96.625776 246.75734 
L 96.646454 247.495766 
L 96.669622 248.234192 
L 96.695593 248.972618 
L 96.724598 249.711045 
L 96.756821 250.449471 
L 96.792429 251.187897 
L 96.831608 251.926323 
L 96.874584 252.664749 
L 96.921641 253.403176 
L 96.973121 254.141602 
L 97.029422 254.880028 
L 97.090982 255.618454 
L 97.158258 256.35688 
L 97.231702 257.095307 
L 97.311742 257.833733 
L 97.398764 258.572159 
L 97.493105 259.310585 
L 97.595052 260.049012 
L 97.704857 260.787438 
L 97.822751 261.525864 
L 97.948973 262.26429 
L 98.083798 263.002716 
L 98.227562 263.741143 
L 98.380686 264.479569 
L 98.543692 265.217995 
L 98.717206 265.956421 
L 98.901951 266.694847 
L 99.098731 267.433274 
L 99.308402 268.1717 
L 99.531837 268.910126 
L 99.769887 269.648552 
L 100.02334 270.386979 
L 100.292886 271.125405 
L 100.579086 271.863831 
L 100.882356 272.602257 
L 101.202959 273.340683 
L 101.541009 274.07911 
L 101.896497 274.817536 
L 102.269313 275.555962 
L 102.659296 276.294388 
L 103.066274 277.032814 
L 103.49011 277.771241 
L 103.930753 278.509667 
L 104.388268 279.248093 
L 104.862859 279.986519 
L 105.354882 280.724946 
L 105.864829 281.463372 
L 106.393294 282.201798 
L 106.940924 282.940224 
L 107.508343 283.67865 
L 108.096063 284.417077 
L 108.704383 285.155503 
L 109.33328 285.893929 
L 109.9823 286.632355 
L 110.650449 287.370781 
L 111.336102 288.109208 
L 112.036923 288.847634 
L 112.749801 289.58606 
L 113.470813 290.324486 
L 114.195212 291.062913 
L 114.917434 291.801339 
L 115.631132 292.539765 
L 116.32924 293.278191 
L 117.004052 294.016617 
L 117.647331 294.755044 
L 118.250439 295.49347 
L 118.804491 296.231896 
L 119.300525 296.970322 
L 119.729699 297.708748 
L 120.083498 298.447175 
L 120.353951 299.185601 
L 120.533858 299.924027 
L 120.617007 300.662453 
L 120.59838 301.40088 
L 120.474339 302.139306 
L 120.242774 302.877732 
L 119.903219 303.616158 
L 119.456911 304.354584 
L 118.906804 305.093011 
L 118.257533 305.831437 
L 117.515323 306.569863 
L 116.687859 307.308289 
L 115.784106 308.046715 
L 114.814113 308.785142 
L 113.788787 309.523568 
L 112.719648 310.261994 
L 111.618593 311.00042 
L 110.497648 311.738847 
L 109.368731 312.477273 
L 109.368731 312.477273 
z
" clip-path="url(#p6517801c06)" style="fill: none; stroke: #4c72b0; stroke-width: 1.5"/>
   </g>
   <g id="PolyCollection_2">
    <path d="M 158.405659 312.477273 
L 133.539907 312.477273 
L 132.157733 311.133562 
L 130.764627 309.789851 
L 129.381327 308.446141 
L 128.029382 307.10243 
L 126.730715 305.758719 
L 125.507176 304.415008 
L 124.380081 303.071298 
L 123.369704 301.727587 
L 122.494729 300.383876 
L 121.771648 299.040166 
L 121.214135 297.696455 
L 120.832428 296.352744 
L 120.632777 295.009034 
L 120.617007 293.665323 
L 120.782268 292.321612 
L 121.12101 290.977901 
L 121.621209 289.634191 
L 122.266851 288.29048 
L 123.038636 286.946769 
L 123.914868 285.603059 
L 124.872435 284.259348 
L 125.887833 282.915637 
L 126.938133 281.571926 
L 128.001849 280.228216 
L 129.059639 278.884505 
L 130.094834 277.540794 
L 131.093777 276.197084 
L 132.045985 274.853373 
L 132.944162 273.509662 
L 133.784075 272.165951 
L 134.564329 270.822241 
L 135.286068 269.47853 
L 135.952598 268.134819 
L 136.568959 266.791109 
L 137.141463 265.447398 
L 137.677184 264.103687 
L 138.183441 262.759977 
L 138.667287 261.416266 
L 139.135022 260.072555 
L 139.591776 258.728844 
L 140.041183 257.385134 
L 140.485176 256.041423 
L 140.923929 254.697712 
L 141.355932 253.354002 
L 141.778221 252.010291 
L 142.186721 250.66658 
L 142.576676 249.322869 
L 142.943129 247.979159 
L 143.281402 246.635448 
L 143.587541 245.291737 
L 143.858676 243.948027 
L 144.093281 242.604316 
L 144.291302 241.260605 
L 144.45417 239.916894 
L 144.584678 238.573184 
L 144.686761 237.229473 
L 144.765192 235.885762 
L 144.825237 234.542052 
L 144.872283 233.198341 
L 144.911489 231.85463 
L 144.947474 230.51092 
L 144.984078 229.167209 
L 145.0242 227.823498 
L 145.069722 226.479787 
L 145.121522 225.136077 
L 145.179563 223.792366 
L 145.243039 222.448655 
L 145.310562 221.104945 
L 145.380372 219.761234 
L 145.450534 218.417523 
L 145.519124 217.073812 
L 145.58437 215.730102 
L 145.644757 214.386391 
L 145.699083 213.04268 
L 145.746467 211.69897 
L 145.78633 210.355259 
L 145.818341 209.011548 
L 145.842351 207.667837 
L 145.858328 206.324127 
L 145.866286 204.980416 
L 145.86625 203.636705 
L 145.858224 202.292995 
L 145.842193 200.949284 
L 145.818153 199.605573 
L 145.786158 198.261863 
L 145.746388 196.918152 
L 145.699221 195.574441 
L 145.645309 194.23073 
L 145.585638 192.88702 
L 145.521567 191.543309 
L 145.454834 190.199598 
L 145.387522 188.855888 
L 145.321986 187.512177 
L 145.260742 186.168466 
L 145.206323 184.824755 
L 145.161113 183.481045 
L 145.127187 182.137334 
L 145.106153 180.793623 
L 145.09903 179.449913 
L 146.846537 179.449913 
L 146.846537 179.449913 
L 146.839413 180.793623 
L 146.818379 182.137334 
L 146.784453 183.481045 
L 146.739243 184.824755 
L 146.684824 186.168466 
L 146.62358 187.512177 
L 146.558045 188.855888 
L 146.490732 190.199598 
L 146.423999 191.543309 
L 146.359928 192.88702 
L 146.300257 194.23073 
L 146.246345 195.574441 
L 146.199178 196.918152 
L 146.159408 198.261863 
L 146.127413 199.605573 
L 146.103373 200.949284 
L 146.087342 202.292995 
L 146.079316 203.636705 
L 146.07928 204.980416 
L 146.087239 206.324127 
L 146.103215 207.667837 
L 146.127225 209.011548 
L 146.159236 210.355259 
L 146.199099 211.69897 
L 146.246483 213.04268 
L 146.300809 214.386391 
L 146.361196 215.730102 
L 146.426442 217.073812 
L 146.495032 218.417523 
L 146.565194 219.761234 
L 146.635004 221.104945 
L 146.702527 222.448655 
L 146.766003 223.792366 
L 146.824044 225.136077 
L 146.875844 226.479787 
L 146.921366 227.823498 
L 146.961488 229.167209 
L 146.998092 230.51092 
L 147.034077 231.85463 
L 147.073283 233.198341 
L 147.120329 234.542052 
L 147.180374 235.885762 
L 147.258806 237.229473 
L 147.360888 238.573184 
L 147.491396 239.916894 
L 147.654264 241.260605 
L 147.852286 242.604316 
L 148.08689 243.948027 
L 148.358025 245.291737 
L 148.664164 246.635448 
L 149.002437 247.979159 
L 149.36889 249.322869 
L 149.758845 250.66658 
L 150.167345 252.010291 
L 150.589634 253.354002 
L 151.021637 254.697712 
L 151.46039 256.041423 
L 151.904384 257.385134 
L 152.35379 258.728844 
L 152.810544 260.072555 
L 153.278279 261.416266 
L 153.762125 262.759977 
L 154.268382 264.103687 
L 154.804103 265.447398 
L 155.376607 266.791109 
L 155.992968 268.134819 
L 156.659498 269.47853 
L 157.381237 270.822241 
L 158.161492 272.165951 
L 159.001404 273.509662 
L 159.899581 274.853373 
L 160.851789 276.197084 
L 161.850732 277.540794 
L 162.885927 278.884505 
L 163.943717 280.228216 
L 165.007433 281.571926 
L 166.057733 282.915637 
L 167.073131 284.259348 
L 168.030698 285.603059 
L 168.90693 286.946769 
L 169.678716 288.29048 
L 170.324357 289.634191 
L 170.824556 290.977901 
L 171.163298 292.321612 
L 171.328559 293.665323 
L 171.312789 295.009034 
L 171.113138 296.352744 
L 170.731432 297.696455 
L 170.173919 299.040166 
L 169.450838 300.383876 
L 168.575862 301.727587 
L 167.565485 303.071298 
L 166.43839 304.415008 
L 165.214851 305.758719 
L 163.916184 307.10243 
L 162.56424 308.446141 
L 161.18094 309.789851 
L 159.787833 311.133562 
L 158.405659 312.477273 
L 158.405659 312.477273 
z
" clip-path="url(#p6517801c06)" style="fill: none; stroke: #dd8452; stroke-width: 1.5"/>
   </g>
   <g id="PolyCollection_3">
    <path d="M 207.142977 312.477273 
L 186.225694 312.477273 
L 185.099946 311.783666 
L 183.938921 311.090058 
L 182.754356 310.396451 
L 181.559326 309.702844 
L 180.367979 309.009237 
L 179.195225 308.31563 
L 178.056371 307.622022 
L 176.966726 306.928415 
L 175.941178 306.234808 
L 174.993759 305.541201 
L 174.137225 304.847594 
L 173.382659 304.153986 
L 172.739102 303.460379 
L 172.21326 302.766772 
L 171.809264 302.073165 
L 171.528524 301.379558 
L 171.369663 300.68595 
L 171.328559 299.992343 
L 171.398479 299.298736 
L 171.570307 298.605129 
L 171.832864 297.911522 
L 172.173308 297.217914 
L 172.577589 296.524307 
L 173.030951 295.8307 
L 173.518462 295.137093 
L 174.025537 294.443486 
L 174.538442 293.749878 
L 175.044759 293.056271 
L 175.533779 292.362664 
L 175.996825 291.669057 
L 176.427478 290.97545 
L 176.821702 290.281843 
L 177.177872 289.588235 
L 177.496694 288.894628 
L 177.781034 288.201021 
L 178.03566 287.507414 
L 178.266916 286.813807 
L 178.48234 286.120199 
L 178.690242 285.426592 
L 178.899271 284.732985 
L 179.117985 284.039378 
L 179.354439 283.345771 
L 179.615815 282.652163 
L 179.908113 281.958556 
L 180.235901 281.264949 
L 180.602153 280.571342 
L 181.008165 279.877735 
L 181.453558 279.184127 
L 181.936364 278.49052 
L 182.453183 277.796913 
L 182.999407 277.103306 
L 183.569486 276.409699 
L 184.157229 275.716091 
L 184.756116 275.022484 
L 185.359598 274.328877 
L 185.961375 273.63527 
L 186.555634 272.941663 
L 187.137241 272.248055 
L 187.70186 271.554448 
L 188.246031 270.860841 
L 188.767178 270.167234 
L 189.263567 269.473627 
L 189.734228 268.780019 
L 190.178844 268.086412 
L 190.597624 267.392805 
L 190.991172 266.699198 
L 191.360363 266.005591 
L 191.706232 265.311984 
L 192.029888 264.618376 
L 192.332446 263.924769 
L 192.614984 263.231162 
L 192.878516 262.537555 
L 193.123988 261.843948 
L 193.352273 261.15034 
L 193.564178 260.456733 
L 193.760455 259.763126 
L 193.9418 259.069519 
L 194.108858 258.375912 
L 194.262227 257.682304 
L 194.402452 256.988697 
L 194.530029 256.29509 
L 194.645414 255.601483 
L 194.749033 254.907876 
L 194.841302 254.214268 
L 194.922658 253.520661 
L 194.993589 252.827054 
L 195.054673 252.133447 
L 195.106608 251.43984 
L 195.150248 250.746232 
L 195.186613 250.052625 
L 195.216896 249.359018 
L 195.242455 248.665411 
L 195.264774 247.971804 
L 195.285423 247.278196 
L 195.305997 246.584589 
L 195.328045 245.890982 
L 195.352995 245.197375 
L 195.382089 244.503768 
L 195.416316 243.810161 
L 197.952355 243.810161 
L 197.952355 243.810161 
L 197.986582 244.503768 
L 198.015676 245.197375 
L 198.040626 245.890982 
L 198.062673 246.584589 
L 198.083247 247.278196 
L 198.103897 247.971804 
L 198.126216 248.665411 
L 198.151774 249.359018 
L 198.182058 250.052625 
L 198.218423 250.746232 
L 198.262062 251.43984 
L 198.313998 252.133447 
L 198.375082 252.827054 
L 198.446013 253.520661 
L 198.527369 254.214268 
L 198.619638 254.907876 
L 198.723257 255.601483 
L 198.838642 256.29509 
L 198.966219 256.988697 
L 199.106444 257.682304 
L 199.259812 258.375912 
L 199.426871 259.069519 
L 199.608216 259.763126 
L 199.804492 260.456733 
L 200.016398 261.15034 
L 200.244683 261.843948 
L 200.490154 262.537555 
L 200.753687 263.231162 
L 201.036225 263.924769 
L 201.338783 264.618376 
L 201.662439 265.311984 
L 202.008308 266.005591 
L 202.377499 266.699198 
L 202.771047 267.392805 
L 203.189827 268.086412 
L 203.634443 268.780019 
L 204.105104 269.473627 
L 204.601493 270.167234 
L 205.12264 270.860841 
L 205.666811 271.554448 
L 206.23143 272.248055 
L 206.813036 272.941663 
L 207.407296 273.63527 
L 208.009073 274.328877 
L 208.612554 275.022484 
L 209.211442 275.716091 
L 209.799185 276.409699 
L 210.369264 277.103306 
L 210.915487 277.796913 
L 211.432307 278.49052 
L 211.915113 279.184127 
L 212.360506 279.877735 
L 212.766518 280.571342 
L 213.13277 281.264949 
L 213.460558 281.958556 
L 213.752856 282.652163 
L 214.014232 283.345771 
L 214.250685 284.039378 
L 214.469399 284.732985 
L 214.678429 285.426592 
L 214.886331 286.120199 
L 215.101754 286.813807 
L 215.333011 287.507414 
L 215.587637 288.201021 
L 215.871977 288.894628 
L 216.190799 289.588235 
L 216.546969 290.281843 
L 216.941193 290.97545 
L 217.371846 291.669057 
L 217.834892 292.362664 
L 218.323912 293.056271 
L 218.830228 293.749878 
L 219.343134 294.443486 
L 219.850208 295.137093 
L 220.33772 295.8307 
L 220.791082 296.524307 
L 221.195362 297.217914 
L 221.535807 297.911522 
L 221.798364 298.605129 
L 221.970192 299.298736 
L 222.040112 299.992343 
L 221.999008 300.68595 
L 221.840147 301.379558 
L 221.559407 302.073165 
L 221.155411 302.766772 
L 220.629569 303.460379 
L 219.986012 304.153986 
L 219.231445 304.847594 
L 218.374912 305.541201 
L 217.427493 306.234808 
L 216.401945 306.928415 
L 215.3123 307.622022 
L 214.173446 308.31563 
L 213.000692 309.009237 
L 211.809345 309.702844 
L 210.614315 310.396451 
L 209.42975 311.090058 
L 208.268725 311.783666 
L 207.142977 312.477273 
L 207.142977 312.477273 
z
" clip-path="url(#p6517801c06)" style="fill: none; stroke: #55a868; stroke-width: 1.5"/>
   </g>
   <g id="PolyCollection_4">
    <path d="M 299.349067 312.477273 
L 271.510037 312.477273 
L 271.270116 309.788004 
L 271.341089 307.098736 
L 271.697768 304.409467 
L 272.294146 301.720199 
L 273.070039 299.030931 
L 273.959044 296.341662 
L 274.896449 293.652394 
L 275.82587 290.963125 
L 276.703767 288.273857 
L 277.501496 285.584588 
L 278.205028 282.89532 
L 278.812854 280.206051 
L 279.332768 277.516783 
L 279.778278 274.827515 
L 280.165272 272.138246 
L 280.509339 269.448978 
L 280.823965 266.759709 
L 281.119612 264.070441 
L 281.403507 261.381172 
L 281.679968 258.691904 
L 281.950994 256.002635 
L 282.216944 253.313367 
L 282.477145 250.624099 
L 282.730369 247.93483 
L 282.975142 245.245562 
L 283.20993 242.556293 
L 283.433232 239.867025 
L 283.64364 237.177756 
L 283.839889 234.488488 
L 284.020913 231.799219 
L 284.18591 229.109951 
L 284.334405 226.420683 
L 284.466286 223.731414 
L 284.581811 221.042146 
L 284.681585 218.352877 
L 284.766498 215.663609 
L 284.837654 212.97434 
L 284.896284 210.285072 
L 284.943666 207.595803 
L 284.981059 204.906535 
L 285.009645 202.217267 
L 285.030501 199.527998 
L 285.044578 196.83873 
L 285.052702 194.149461 
L 285.0556 191.460193 
L 285.053926 188.770924 
L 285.048319 186.081656 
L 285.039454 183.392388 
L 285.028101 180.703119 
L 285.015169 178.013851 
L 285.001722 175.324582 
L 284.988969 172.635314 
L 284.978216 169.946045 
L 284.970781 167.256777 
L 284.967887 164.567508 
L 284.970546 161.87824 
L 284.979451 159.188972 
L 284.994894 156.499703 
L 285.016721 153.810435 
L 285.044338 151.121166 
L 285.076752 148.431898 
L 285.112668 145.742629 
L 285.150599 143.053361 
L 285.188998 140.364092 
L 285.226385 137.674824 
L 285.261447 134.985556 
L 285.293114 132.296287 
L 285.320599 129.607019 
L 285.343394 126.91775 
L 285.361241 124.228482 
L 285.374089 121.539213 
L 285.382038 118.849945 
L 285.385295 116.160676 
L 285.384151 113.471408 
L 285.378974 110.78214 
L 285.370223 108.092871 
L 285.358473 105.403603 
L 285.344439 102.714334 
L 285.328975 100.025066 
L 285.313056 97.335797 
L 285.297715 94.646529 
L 285.283958 91.95726 
L 285.272645 89.267992 
L 285.264388 86.578724 
L 285.259449 83.889455 
L 285.257701 81.200187 
L 285.258633 78.510918 
L 285.261422 75.82165 
L 285.265064 73.132381 
L 285.26853 70.443113 
L 285.270944 67.753845 
L 285.271726 65.064576 
L 285.27069 62.375308 
L 285.268083 59.686039 
L 285.264533 56.996771 
L 285.260952 54.307502 
L 285.258374 51.618234 
L 285.257791 48.928965 
L 285.259993 46.239697 
L 285.599111 46.239697 
L 285.599111 46.239697 
L 285.601313 48.928965 
L 285.60073 51.618234 
L 285.598152 54.307502 
L 285.594571 56.996771 
L 285.591021 59.686039 
L 285.588414 62.375308 
L 285.587379 65.064576 
L 285.58816 67.753845 
L 285.590574 70.443113 
L 285.59404 73.132381 
L 285.597682 75.82165 
L 285.600471 78.510918 
L 285.601403 81.200187 
L 285.599655 83.889455 
L 285.594717 86.578724 
L 285.586459 89.267992 
L 285.575146 91.95726 
L 285.561389 94.646529 
L 285.546048 97.335797 
L 285.530129 100.025066 
L 285.514665 102.714334 
L 285.500631 105.403603 
L 285.488881 108.092871 
L 285.48013 110.78214 
L 285.474953 113.471408 
L 285.473809 116.160676 
L 285.477066 118.849945 
L 285.485015 121.539213 
L 285.497863 124.228482 
L 285.51571 126.91775 
L 285.538505 129.607019 
L 285.56599 132.296287 
L 285.597658 134.985556 
L 285.632719 137.674824 
L 285.670106 140.364092 
L 285.708505 143.053361 
L 285.746436 145.742629 
L 285.782352 148.431898 
L 285.814766 151.121166 
L 285.842383 153.810435 
L 285.86421 156.499703 
L 285.879653 159.188972 
L 285.888558 161.87824 
L 285.891217 164.567508 
L 285.888323 167.256777 
L 285.880888 169.946045 
L 285.870135 172.635314 
L 285.857383 175.324582 
L 285.843935 178.013851 
L 285.831003 180.703119 
L 285.81965 183.392388 
L 285.810786 186.081656 
L 285.805178 188.770924 
L 285.803505 191.460193 
L 285.806402 194.149461 
L 285.814526 196.83873 
L 285.828603 199.527998 
L 285.849459 202.217267 
L 285.878045 204.906535 
L 285.915438 207.595803 
L 285.96282 210.285072 
L 286.02145 212.97434 
L 286.092606 215.663609 
L 286.177519 218.352877 
L 286.277293 221.042146 
L 286.392818 223.731414 
L 286.524699 226.420683 
L 286.673194 229.109951 
L 286.838192 231.799219 
L 287.019215 234.488488 
L 287.215464 237.177756 
L 287.425872 239.867025 
L 287.649174 242.556293 
L 287.883962 245.245562 
L 288.128735 247.93483 
L 288.381959 250.624099 
L 288.64216 253.313367 
L 288.90811 256.002635 
L 289.179136 258.691904 
L 289.455597 261.381172 
L 289.739492 264.070441 
L 290.035139 266.759709 
L 290.349766 269.448978 
L 290.693832 272.138246 
L 291.080826 274.827515 
L 291.526337 277.516783 
L 292.04625 280.206051 
L 292.654076 282.89532 
L 293.357608 285.584588 
L 294.155337 288.273857 
L 295.033234 290.963125 
L 295.962655 293.652394 
L 296.90006 296.341662 
L 297.789065 299.030931 
L 298.564958 301.720199 
L 299.161336 304.409467 
L 299.518015 307.098736 
L 299.588989 309.788004 
L 299.349067 312.477273 
L 299.349067 312.477273 
z
" clip-path="url(#p6517801c06)" style="fill: none; stroke: #4c72b0; stroke-width: 1.5"/>
   </g>
   <g id="PolyCollection_5">
    <path d="M 359.054533 312.477273 
L 313.227676 312.477273 
L 312.964136 310.172185 
L 313.280385 307.867098 
L 314.113462 305.562011 
L 315.359937 303.256924 
L 316.892341 300.951837 
L 318.577543 298.646749 
L 320.293569 296.341662 
L 321.942103 294.036575 
L 323.455179 291.731488 
L 324.795974 289.4264 
L 325.954812 287.121313 
L 326.942175 284.816226 
L 327.780651 282.511139 
L 328.497484 280.206051 
L 329.118806 277.900964 
L 329.666018 275.595877 
L 330.154263 273.29079 
L 330.592591 270.985702 
L 330.98525 268.680615 
L 331.333504 266.375528 
L 331.637508 264.070441 
L 331.897841 261.765354 
L 332.1165 259.460266 
L 332.297274 257.155179 
L 332.445563 254.850092 
L 332.567812 252.545005 
L 332.670763 250.239917 
L 332.76077 247.93483 
L 332.843319 245.629743 
L 332.922861 243.324656 
L 333.002895 241.019568 
L 333.086225 238.714481 
L 333.175225 236.409394 
L 333.27199 234.104307 
L 333.378312 231.799219 
L 333.495507 229.494132 
L 333.624163 227.189045 
L 333.763934 224.883958 
L 333.91349 222.578871 
L 334.07064 220.273783 
L 334.232629 217.968696 
L 334.39651 215.663609 
L 334.559502 213.358522 
L 334.719223 211.053434 
L 334.873768 208.748347 
L 335.021631 206.44326 
L 335.161525 204.138173 
L 335.292185 201.833085 
L 335.412238 199.527998 
L 335.520188 197.222911 
L 335.614521 194.917824 
L 335.693931 192.612736 
L 335.757583 190.307649 
L 335.805369 188.002562 
L 335.838076 185.697475 
L 335.857444 183.392388 
L 335.86607 181.0873 
L 335.867181 178.782213 
L 335.864309 176.477126 
L 335.860899 174.172039 
L 335.859942 171.866951 
L 335.863666 169.561864 
L 335.873346 167.256777 
L 335.889254 164.95169 
L 335.91076 162.646602 
L 335.936539 160.341515 
L 335.964857 158.036428 
L 335.993868 155.731341 
L 336.021881 153.426253 
L 336.047547 151.121166 
L 336.069966 148.816079 
L 336.088694 146.510992 
L 336.103691 144.205904 
L 336.115224 141.900817 
L 336.123746 139.59573 
L 336.129797 137.290643 
L 336.133909 134.985556 
L 336.136552 132.680468 
L 336.138095 130.375381 
L 336.138783 128.070294 
L 336.138738 125.765207 
L 336.137952 123.460119 
L 336.136289 121.155032 
L 336.133484 118.849945 
L 336.129157 116.544858 
L 336.122829 114.23977 
L 336.113961 111.934683 
L 336.102022 109.629596 
L 336.086578 107.324509 
L 336.067402 105.019421 
L 336.044591 102.714334 
L 336.018666 100.409247 
L 335.990626 98.10416 
L 335.96194 95.799073 
L 335.934447 93.493985 
L 335.910178 91.188898 
L 335.891117 88.883811 
L 335.878933 86.578724 
L 335.874741 84.273636 
L 336.407467 84.273636 
L 336.407467 84.273636 
L 336.403276 86.578724 
L 336.391092 88.883811 
L 336.372031 91.188898 
L 336.347762 93.493985 
L 336.320269 95.799073 
L 336.291583 98.10416 
L 336.263543 100.409247 
L 336.237618 102.714334 
L 336.214806 105.019421 
L 336.19563 107.324509 
L 336.180186 109.629596 
L 336.168248 111.934683 
L 336.15938 114.23977 
L 336.153051 116.544858 
L 336.148725 118.849945 
L 336.14592 121.155032 
L 336.144256 123.460119 
L 336.143471 125.765207 
L 336.143426 128.070294 
L 336.144114 130.375381 
L 336.145656 132.680468 
L 336.1483 134.985556 
L 336.152412 137.290643 
L 336.158463 139.59573 
L 336.166985 141.900817 
L 336.178517 144.205904 
L 336.193515 146.510992 
L 336.212243 148.816079 
L 336.234662 151.121166 
L 336.260328 153.426253 
L 336.288341 155.731341 
L 336.317352 158.036428 
L 336.345669 160.341515 
L 336.371448 162.646602 
L 336.392954 164.95169 
L 336.408863 167.256777 
L 336.418542 169.561864 
L 336.422267 171.866951 
L 336.42131 174.172039 
L 336.4179 176.477126 
L 336.415027 178.782213 
L 336.416139 181.0873 
L 336.424765 183.392388 
L 336.444132 185.697475 
L 336.47684 188.002562 
L 336.524625 190.307649 
L 336.588278 192.612736 
L 336.667688 194.917824 
L 336.762021 197.222911 
L 336.86997 199.527998 
L 336.990024 201.833085 
L 337.120684 204.138173 
L 337.260578 206.44326 
L 337.408441 208.748347 
L 337.562986 211.053434 
L 337.722707 213.358522 
L 337.885698 215.663609 
L 338.04958 217.968696 
L 338.211568 220.273783 
L 338.368719 222.578871 
L 338.518275 224.883958 
L 338.658046 227.189045 
L 338.786701 229.494132 
L 338.903897 231.799219 
L 339.010219 234.104307 
L 339.106983 236.409394 
L 339.195983 238.714481 
L 339.279314 241.019568 
L 339.359348 243.324656 
L 339.438889 245.629743 
L 339.521439 247.93483 
L 339.611446 250.239917 
L 339.714397 252.545005 
L 339.836646 254.850092 
L 339.984935 257.155179 
L 340.165709 259.460266 
L 340.384367 261.765354 
L 340.644701 264.070441 
L 340.948705 266.375528 
L 341.296959 268.680615 
L 341.689617 270.985702 
L 342.127946 273.29079 
L 342.616191 275.595877 
L 343.163402 277.900964 
L 343.784725 280.206051 
L 344.501558 282.511139 
L 345.340033 284.816226 
L 346.327396 287.121313 
L 347.486235 289.4264 
L 348.827029 291.731488 
L 350.340105 294.036575 
L 351.98864 296.341662 
L 353.704666 298.646749 
L 355.389868 300.951837 
L 356.922272 303.256924 
L 358.168747 305.562011 
L 359.001824 307.867098 
L 359.318073 310.172185 
L 359.054533 312.477273 
L 359.054533 312.477273 
z
" clip-path="url(#p6517801c06)" style="fill: none; stroke: #dd8452; stroke-width: 1.5"/>
   </g>
   <g id="PolyCollection_6">
    <path d="M 402.213987 312.477273 
L 371.491327 312.477273 
L 371.290768 309.595914 
L 371.428717 306.714555 
L 371.882589 303.833196 
L 372.609161 300.951837 
L 373.550421 298.070478 
L 374.6406 295.189118 
L 375.813233 292.307759 
L 377.007231 289.4264 
L 378.171241 286.545041 
L 379.266042 283.663682 
L 380.265059 280.782323 
L 381.153395 277.900964 
L 381.925935 275.019605 
L 382.585036 272.138246 
L 383.138256 269.256887 
L 383.59638 266.375528 
L 383.971868 263.494169 
L 384.277701 260.61281 
L 384.526573 257.731451 
L 384.730318 254.850092 
L 384.899512 251.968733 
L 385.043207 249.087374 
L 385.16877 246.206015 
L 385.281854 243.324656 
L 385.386468 240.443297 
L 385.485168 237.561938 
L 385.57932 234.680579 
L 385.669413 231.799219 
L 385.75537 228.91786 
L 385.836829 226.036501 
L 385.913357 223.155142 
L 385.984592 220.273783 
L 386.050307 217.392424 
L 386.11042 214.511065 
L 386.164961 211.629706 
L 386.214023 208.748347 
L 386.257717 205.866988 
L 386.296138 202.985629 
L 386.329356 200.10427 
L 386.357425 197.222911 
L 386.380417 194.341552 
L 386.398458 191.460193 
L 386.411774 188.578834 
L 386.420728 185.697475 
L 386.425852 182.816116 
L 386.427861 179.934757 
L 386.427642 177.053398 
L 386.426235 174.172039 
L 386.424783 171.29068 
L 386.424469 168.40932 
L 386.426435 165.527961 
L 386.431697 162.646602 
L 386.441061 159.765243 
L 386.45504 156.883884 
L 386.473806 154.002525 
L 386.497161 151.121166 
L 386.524546 148.239807 
L 386.555082 145.358448 
L 386.587649 142.477089 
L 386.620979 139.59573 
L 386.653758 136.714371 
L 386.684726 133.833012 
L 386.712757 130.951653 
L 386.736914 128.070294 
L 386.756473 125.188935 
L 386.770929 122.307576 
L 386.779979 119.426217 
L 386.783505 116.544858 
L 386.781552 113.663499 
L 386.774322 110.78214 
L 386.762176 107.900781 
L 386.745648 105.019421 
L 386.72546 102.138062 
L 386.702526 99.256703 
L 386.67795 96.375344 
L 386.652984 93.493985 
L 386.628977 90.612626 
L 386.607282 87.731267 
L 386.589157 84.849908 
L 386.575656 81.968549 
L 386.567523 79.08719 
L 386.565114 76.205831 
L 386.568349 73.324472 
L 386.576708 70.443113 
L 386.589272 67.561754 
L 386.604811 64.680395 
L 386.621902 61.799036 
L 386.639079 58.917677 
L 386.65498 56.036318 
L 386.668497 53.154959 
L 386.678882 50.2736 
L 386.685826 47.392241 
L 386.68947 44.510882 
L 386.690375 41.629522 
L 386.689433 38.748163 
L 386.687736 35.866804 
L 386.686432 32.985445 
L 386.686572 30.104086 
L 386.688983 27.222727 
L 387.016331 27.222727 
L 387.016331 27.222727 
L 387.018741 30.104086 
L 387.018881 32.985445 
L 387.017577 35.866804 
L 387.015881 38.748163 
L 387.014938 41.629522 
L 387.015844 44.510882 
L 387.019488 47.392241 
L 387.026431 50.2736 
L 387.036816 53.154959 
L 387.050333 56.036318 
L 387.066235 58.917677 
L 387.083411 61.799036 
L 387.100502 64.680395 
L 387.116041 67.561754 
L 387.128605 70.443113 
L 387.136964 73.324472 
L 387.140199 76.205831 
L 387.13779 79.08719 
L 387.129657 81.968549 
L 387.116156 84.849908 
L 387.098032 87.731267 
L 387.076337 90.612626 
L 387.052329 93.493985 
L 387.027364 96.375344 
L 387.002787 99.256703 
L 386.979854 102.138062 
L 386.959665 105.019421 
L 386.943137 107.900781 
L 386.930991 110.78214 
L 386.923761 113.663499 
L 386.921808 116.544858 
L 386.925334 119.426217 
L 386.934385 122.307576 
L 386.94884 125.188935 
L 386.968399 128.070294 
L 386.992556 130.951653 
L 387.020588 133.833012 
L 387.051556 136.714371 
L 387.084335 139.59573 
L 387.117664 142.477089 
L 387.150231 145.358448 
L 387.180768 148.239807 
L 387.208152 151.121166 
L 387.231507 154.002525 
L 387.250274 156.883884 
L 387.264253 159.765243 
L 387.273616 162.646602 
L 387.278879 165.527961 
L 387.280845 168.40932 
L 387.28053 171.29068 
L 387.279078 174.172039 
L 387.277671 177.053398 
L 387.277453 179.934757 
L 387.279461 182.816116 
L 387.284586 185.697475 
L 387.29354 188.578834 
L 387.306855 191.460193 
L 387.324896 194.341552 
L 387.347888 197.222911 
L 387.375958 200.10427 
L 387.409175 202.985629 
L 387.447596 205.866988 
L 387.49129 208.748347 
L 387.540353 211.629706 
L 387.594893 214.511065 
L 387.655006 217.392424 
L 387.720721 220.273783 
L 387.791956 223.155142 
L 387.868485 226.036501 
L 387.949944 228.91786 
L 388.035901 231.799219 
L 388.125993 234.680579 
L 388.220146 237.561938 
L 388.318845 240.443297 
L 388.42346 243.324656 
L 388.536543 246.206015 
L 388.662107 249.087374 
L 388.805801 251.968733 
L 388.974996 254.850092 
L 389.178741 257.731451 
L 389.427613 260.61281 
L 389.733446 263.494169 
L 390.108933 266.375528 
L 390.567058 269.256887 
L 391.120278 272.138246 
L 391.779378 275.019605 
L 392.551918 277.900964 
L 393.440255 280.782323 
L 394.439271 283.663682 
L 395.534073 286.545041 
L 396.698083 289.4264 
L 397.89208 292.307759 
L 399.064714 295.189118 
L 400.154892 298.070478 
L 401.096152 300.951837 
L 401.822725 303.833196 
L 402.276597 306.714555 
L 402.414545 309.595914 
L 402.213987 312.477273 
L 402.213987 312.477273 
z
" clip-path="url(#p6517801c06)" style="fill: none; stroke: #55a868; stroke-width: 1.5"/>
   </g>
   <g id="patch_3">
    <path d="M 145.972783 312.477273 
L 145.972783 312.477273 
L 145.972783 312.477273 
L 145.972783 312.477273 
L 145.972783 312.477273 
z
" clip-path="url(#p6517801c06)" style="fill: none; stroke: #4c72b0; stroke-width: 1.5; stroke-linejoin: miter"/>
   </g>
   <g id="patch_4">
    <path d="M 145.972783 312.477273 
L 145.972783 312.477273 
L 145.972783 312.477273 
L 145.972783 312.477273 
L 145.972783 312.477273 
z
" clip-path="url(#p6517801c06)" style="fill: none; stroke: #dd8452; stroke-width: 1.5; stroke-linejoin: miter"/>
   </g>
   <g id="patch_5">
    <path d="M 145.972783 312.477273 
L 145.972783 312.477273 
L 145.972783 312.477273 
L 145.972783 312.477273 
L 145.972783 312.477273 
z
" clip-path="url(#p6517801c06)" style="fill: none; stroke: #55a868; stroke-width: 1.5; stroke-linejoin: miter"/>
   </g>
   <g id="line2d_8">
    <path d="M 95.261231 312.477273 
L 95.261231 267.392853 
" clip-path="url(#p6517801c06)" style="fill: none; stroke: #4c72b0; stroke-width: 2.25; stroke-linecap: round"/>
   </g>
   <g id="line2d_9">
    <path d="M 95.261231 304.190215 
L 95.261231 287.660267 
" clip-path="url(#p6517801c06)" style="fill: none; stroke: #4c72b0; stroke-width: 6.75; stroke-linecap: round"/>
   </g>
   <g id="line2d_10">
    <path d="M 95.261231 297.212496 
" clip-path="url(#p6517801c06)" style="fill: none; stroke: #4c72b0; stroke-width: 1.5; stroke-linecap: round"/>
    <defs>
     <path id="ma3ed6e11d9" d="M 2.8125 0 
L -2.8125 -0 
" style="stroke: #ffffff; stroke-width: 1.35"/>
    </defs>
    <g clip-path="url(#p6517801c06)">
     <use xlink:href="#ma3ed6e11d9" x="95.261231" y="297.212496" style="fill: #ffffff; stroke: #ffffff; stroke-width: 1.35"/>
    </g>
   </g>
   <g id="line2d_11">
    <path d="M 145.972783 312.477273 
L 145.972783 253.616016 
" clip-path="url(#p6517801c06)" style="fill: none; stroke: #dd8452; stroke-width: 2.25; stroke-linecap: round"/>
   </g>
   <g id="line2d_12">
    <path d="M 145.972783 300.217856 
L 145.972783 280.014682 
" clip-path="url(#p6517801c06)" style="fill: none; stroke: #dd8452; stroke-width: 6.75; stroke-linecap: round"/>
   </g>
   <g id="line2d_13">
    <path d="M 145.972783 291.775491 
" clip-path="url(#p6517801c06)" style="fill: none; stroke: #dd8452; stroke-width: 1.5; stroke-linecap: round"/>
    <g clip-path="url(#p6517801c06)">
     <use xlink:href="#ma3ed6e11d9" x="145.972783" y="291.775491" style="fill: #ffffff; stroke: #ffffff; stroke-width: 1.35"/>
    </g>
   </g>
   <g id="line2d_14">
    <path d="M 196.684335 312.477273 
L 196.684335 256.664565 
" clip-path="url(#p6517801c06)" style="fill: none; stroke: #55a868; stroke-width: 2.25; stroke-linecap: round"/>
   </g>
   <g id="line2d_15">
    <path d="M 196.684335 302.207585 
L 196.684335 281.517171 
" clip-path="url(#p6517801c06)" style="fill: none; stroke: #55a868; stroke-width: 6.75; stroke-linecap: round"/>
   </g>
   <g id="line2d_16">
    <path d="M 196.684335 295.043946 
" clip-path="url(#p6517801c06)" style="fill: none; stroke: #55a868; stroke-width: 1.5; stroke-linecap: round"/>
    <g clip-path="url(#p6517801c06)">
     <use xlink:href="#ma3ed6e11d9" x="196.684335" y="295.043946" style="fill: #ffffff; stroke: #ffffff; stroke-width: 1.35"/>
    </g>
   </g>
   <g id="line2d_17">
    <path d="M 285.429552 312.477273 
L 285.429552 229.176444 
" clip-path="url(#p6517801c06)" style="fill: none; stroke: #4c72b0; stroke-width: 2.25; stroke-linecap: round"/>
   </g>
   <g id="line2d_18">
    <path d="M 285.429552 312.477273 
L 285.429552 277.893978 
" clip-path="url(#p6517801c06)" style="fill: none; stroke: #4c72b0; stroke-width: 6.75; stroke-linecap: round"/>
   </g>
   <g id="line2d_19">
    <path d="M 285.429552 312.477273 
" clip-path="url(#p6517801c06)" style="fill: none; stroke: #4c72b0; stroke-width: 1.5; stroke-linecap: round"/>
    <g clip-path="url(#p6517801c06)">
     <use xlink:href="#ma3ed6e11d9" x="285.429552" y="312.477273" style="fill: #ffffff; stroke: #ffffff; stroke-width: 1.35"/>
    </g>
   </g>
   <g id="line2d_20">
    <path d="M 336.141104 312.477273 
L 336.141104 240.031674 
" clip-path="url(#p6517801c06)" style="fill: none; stroke: #dd8452; stroke-width: 2.25; stroke-linecap: round"/>
   </g>
   <g id="line2d_21">
    <path d="M 336.141104 312.477273 
L 336.141104 283.215587 
" clip-path="url(#p6517801c06)" style="fill: none; stroke: #dd8452; stroke-width: 6.75; stroke-linecap: round"/>
   </g>
   <g id="line2d_22">
    <path d="M 336.141104 312.477273 
" clip-path="url(#p6517801c06)" style="fill: none; stroke: #dd8452; stroke-width: 1.5; stroke-linecap: round"/>
    <g clip-path="url(#p6517801c06)">
     <use xlink:href="#ma3ed6e11d9" x="336.141104" y="312.477273" style="fill: #ffffff; stroke: #ffffff; stroke-width: 1.35"/>
    </g>
   </g>
   <g id="line2d_23">
    <path d="M 386.852657 312.477273 
L 386.852657 255.426364 
" clip-path="url(#p6517801c06)" style="fill: none; stroke: #55a868; stroke-width: 2.25; stroke-linecap: round"/>
   </g>
   <g id="line2d_24">
    <path d="M 386.852657 312.477273 
L 386.852657 289.191187 
" clip-path="url(#p6517801c06)" style="fill: none; stroke: #55a868; stroke-width: 6.75; stroke-linecap: round"/>
   </g>
   <g id="line2d_25">
    <path d="M 386.852657 312.477273 
" clip-path="url(#p6517801c06)" style="fill: none; stroke: #55a868; stroke-width: 1.5; stroke-linecap: round"/>
    <g clip-path="url(#p6517801c06)">
     <use xlink:href="#ma3ed6e11d9" x="386.852657" y="312.477273" style="fill: #ffffff; stroke: #ffffff; stroke-width: 1.35"/>
    </g>
   </g>
   <g id="patch_6">
    <path d="M 53.28 326.74 
L 53.28 12.96 
" style="fill: none; stroke: #ffffff; stroke-width: 1.25; stroke-linejoin: miter; stroke-linecap: square"/>
   </g>
   <g id="patch_7">
    <path d="M 419.04 326.74 
L 419.04 12.96 
" style="fill: none; stroke: #ffffff; stroke-width: 1.25; stroke-linejoin: miter; stroke-linecap: square"/>
   </g>
   <g id="patch_8">
    <path d="M 53.28 326.74 
L 419.04 326.74 
" style="fill: none; stroke: #ffffff; stroke-width: 1.25; stroke-linejoin: miter; stroke-linecap: square"/>
   </g>
   <g id="patch_9">
    <path d="M 53.28 12.96 
L 419.04 12.96 
" style="fill: none; stroke: #ffffff; stroke-width: 1.25; stroke-linejoin: miter; stroke-linecap: square"/>
   </g>
   <g id="legend_1">
    <g id="patch_10">
     <path d="M 60.98 86.34375 
L 141.716563 86.34375 
Q 143.916562 86.34375 143.916562 84.14375 
L 143.916562 20.66 
Q 143.916562 18.46 141.716563 18.46 
L 60.98 18.46 
Q 58.78 18.46 58.78 20.66 
L 58.78 84.14375 
Q 58.78 86.34375 60.98 86.34375 
z
" style="fill: #eaeaf2; opacity: 0.8; stroke: #cccccc; stroke-linejoin: miter"/>
    </g>
    <g id="patch_11">
     <path d="M 63.18 31.218281 
L 85.18 31.218281 
L 85.18 23.518281 
L 63.18 23.518281 
L 63.18 31.218281 
z
" style="fill: none; stroke: #4c72b0; stroke-width: 1.5; stroke-linejoin: miter"/>
    </g>
    <g id="text_11">
     <!-- Distant -->
     <g style="fill: #262626" transform="translate(93.98 31.218281) scale(0.11 -0.11)">
      <defs>
       <path id="DejaVuSans-44" d="M 1259 4147 
L 1259 519 
L 2022 519 
Q 2988 519 3436 956 
Q 3884 1394 3884 2338 
Q 3884 3275 3436 3711 
Q 2988 4147 2022 4147 
L 1259 4147 
z
M 628 4666 
L 1925 4666 
Q 3281 4666 3915 4102 
Q 4550 3538 4550 2338 
Q 4550 1131 3912 565 
Q 3275 0 1925 0 
L 628 0 
L 628 4666 
z
" transform="scale(0.015625)"/>
      </defs>
      <use xlink:href="#DejaVuSans-44"/>
      <use xlink:href="#DejaVuSans-69" x="77.001953"/>
      <use xlink:href="#DejaVuSans-73" x="104.785156"/>
      <use xlink:href="#DejaVuSans-74" x="156.884766"/>
      <use xlink:href="#DejaVuSans-61" x="196.09375"/>
      <use xlink:href="#DejaVuSans-6e" x="257.373047"/>
      <use xlink:href="#DejaVuSans-74" x="320.751953"/>
     </g>
    </g>
    <g id="patch_12">
     <path d="M 63.18 47.364219 
L 85.18 47.364219 
L 85.18 39.664219 
L 63.18 39.664219 
L 63.18 47.364219 
z
" style="fill: none; stroke: #dd8452; stroke-width: 1.5; stroke-linejoin: miter"/>
    </g>
    <g id="text_12">
     <!-- Random -->
     <g style="fill: #262626" transform="translate(93.98 47.364219) scale(0.11 -0.11)">
      <use xlink:href="#DejaVuSans-52"/>
      <use xlink:href="#DejaVuSans-61" x="67.232422"/>
      <use xlink:href="#DejaVuSans-6e" x="128.511719"/>
      <use xlink:href="#DejaVuSans-64" x="191.890625"/>
      <use xlink:href="#DejaVuSans-6f" x="255.367188"/>
      <use xlink:href="#DejaVuSans-6d" x="316.548828"/>
     </g>
    </g>
    <g id="patch_13">
     <path d="M 63.18 63.510156 
L 85.18 63.510156 
L 85.18 55.810156 
L 63.18 55.810156 
L 63.18 63.510156 
z
" style="fill: none; stroke: #55a868; stroke-width: 1.5; stroke-linejoin: miter"/>
    </g>
    <g id="text_13">
     <!-- Similar -->
     <g style="fill: #262626" transform="translate(93.98 63.510156) scale(0.11 -0.11)">
      <defs>
       <path id="DejaVuSans-53" d="M 3425 4513 
L 3425 3897 
Q 3066 4069 2747 4153 
Q 2428 4238 2131 4238 
Q 1616 4238 1336 4038 
Q 1056 3838 1056 3469 
Q 1056 3159 1242 3001 
Q 1428 2844 1947 2747 
L 2328 2669 
Q 3034 2534 3370 2195 
Q 3706 1856 3706 1288 
Q 3706 609 3251 259 
Q 2797 -91 1919 -91 
Q 1588 -91 1214 -16 
Q 841 59 441 206 
L 441 856 
Q 825 641 1194 531 
Q 1563 422 1919 422 
Q 2459 422 2753 634 
Q 3047 847 3047 1241 
Q 3047 1584 2836 1778 
Q 2625 1972 2144 2069 
L 1759 2144 
Q 1053 2284 737 2584 
Q 422 2884 422 3419 
Q 422 4038 858 4394 
Q 1294 4750 2059 4750 
Q 2388 4750 2728 4690 
Q 3069 4631 3425 4513 
z
" transform="scale(0.015625)"/>
       <path id="DejaVuSans-6c" d="M 603 4863 
L 1178 4863 
L 1178 0 
L 603 0 
L 603 4863 
z
" transform="scale(0.015625)"/>
      </defs>
      <use xlink:href="#DejaVuSans-53"/>
      <use xlink:href="#DejaVuSans-69" x="63.476562"/>
      <use xlink:href="#DejaVuSans-6d" x="91.259766"/>
      <use xlink:href="#DejaVuSans-69" x="188.671875"/>
      <use xlink:href="#DejaVuSans-6c" x="216.455078"/>
      <use xlink:href="#DejaVuSans-61" x="244.238281"/>
      <use xlink:href="#DejaVuSans-72" x="305.517578"/>
     </g>
    </g>
    <g id="PathCollection_1">
     <defs>
      <path id="m312418fb47" d="M 0 3 
C 0.795609 3 1.55874 2.683901 2.12132 2.12132 
C 2.683901 1.55874 3 0.795609 3 0 
C 3 -0.795609 2.683901 -1.55874 2.12132 -2.12132 
C 1.55874 -2.683901 0.795609 -3 0 -3 
C -0.795609 -3 -1.55874 -2.683901 -2.12132 -2.12132 
C -2.683901 -1.55874 -3 -0.795609 -3 0 
C -3 0.795609 -2.683901 1.55874 -2.12132 2.12132 
C -1.55874 2.683901 -0.795609 3 0 3 
z
" style="stroke: #000000; stroke-opacity: 0.7"/>
     </defs>
     <g>
      <use xlink:href="#m312418fb47" x="74.18" y="76.768594" style="fill-opacity: 0.7; stroke: #000000; stroke-opacity: 0.7"/>
     </g>
    </g>
    <g id="text_14">
     <!-- Mean -->
     <g style="fill: #262626" transform="translate(93.98 79.656094) scale(0.11 -0.11)">
      <use xlink:href="#DejaVuSans-4d"/>
      <use xlink:href="#DejaVuSans-65" x="86.279297"/>
      <use xlink:href="#DejaVuSans-61" x="147.802734"/>
      <use xlink:href="#DejaVuSans-6e" x="209.082031"/>
     </g>
    </g>
   </g>
   <g id="PathCollection_2">
    <g clip-path="url(#p6517801c06)">
     <use xlink:href="#m312418fb47" x="285.366163" y="289.037588" style="fill-opacity: 0.7; stroke: #000000; stroke-opacity: 0.7"/>
    </g>
   </g>
   <g id="PathCollection_3">
    <g clip-path="url(#p6517801c06)">
     <use xlink:href="#m312418fb47" x="336.141104" y="292.231272" style="fill-opacity: 0.7; stroke: #000000; stroke-opacity: 0.7"/>
    </g>
   </g>
   <g id="PathCollection_4">
    <g clip-path="url(#p6517801c06)">
     <use xlink:href="#m312418fb47" x="386.916046" y="291.49792" style="fill-opacity: 0.7; stroke: #000000; stroke-opacity: 0.7"/>
    </g>
   </g>
   <g id="PathCollection_5">
    <g clip-path="url(#p6517801c06)">
     <use xlink:href="#m312418fb47" x="95.197841" y="294.09657" style="fill-opacity: 0.7; stroke: #000000; stroke-opacity: 0.7"/>
    </g>
   </g>
   <g id="PathCollection_6">
    <g clip-path="url(#p6517801c06)">
     <use xlink:href="#m312418fb47" x="145.972783" y="286.2187" style="fill-opacity: 0.7; stroke: #000000; stroke-opacity: 0.7"/>
    </g>
   </g>
   <g id="PathCollection_7">
    <g clip-path="url(#p6517801c06)">
     <use xlink:href="#m312418fb47" x="196.747725" y="291.040525" style="fill-opacity: 0.7; stroke: #000000; stroke-opacity: 0.7"/>
    </g>
   </g>
  </g>
 </g>
 <defs>
  <clipPath id="p6517801c06">
   <rect x="53.28" y="12.96" width="365.76" height="313.78"/>
  </clipPath>
 </defs>
</svg>
