<?xml version="1.0" encoding="utf-8" standalone="no"?>
<!DOCTYPE svg PUBLIC "-//W3C//DTD SVG 1.1//EN"
  "http://www.w3.org/Graphics/SVG/1.1/DTD/svg11.dtd">
<svg xmlns:xlink="http://www.w3.org/1999/xlink" width="432pt" height="360pt" viewBox="0 0 432 360" xmlns="http://www.w3.org/2000/svg" version="1.1">
 <metadata>
  <rdf:RDF xmlns:dc="http://purl.org/dc/elements/1.1/" xmlns:cc="http://creativecommons.org/ns#" xmlns:rdf="http://www.w3.org/1999/02/22-rdf-syntax-ns#">
   <cc:Work>
    <dc:type rdf:resource="http://purl.org/dc/dcmitype/StillImage"/>
    <dc:date>2025-05-19T12:20:53.451828</dc:date>
    <dc:format>image/svg+xml</dc:format>
    <dc:creator>
     <cc:Agent>
      <dc:title>Matplotlib v3.9.2, https://matplotlib.org/</dc:title>
     </cc:Agent>
    </dc:creator>
   </cc:Work>
  </rdf:RDF>
 </metadata>
 <defs>
  <style type="text/css">*{stroke-linejoin: round; stroke-linecap: butt}</style>
 </defs>
 <g id="figure_1">
  <g id="patch_1">
   <path d="M 0 360 
L 432 360 
L 432 0 
L 0 0 
z
" style="fill: #ffffff"/>
  </g>
  <g id="axes_1">
   <g id="patch_2">
    <path d="M 53.28 326.74 
L 419.04 326.74 
L 419.04 12.96 
L 53.28 12.96 
z
" style="fill: #eaeaf2"/>
   </g>
   <g id="matplotlib.axis_1">
    <g id="xtick_1">
     <g id="text_1">
      <!-- 50 Most active users -->
      <g style="fill: #262626" transform="translate(89.024879 344.598281) scale(0.11 -0.11)">
       <defs>
        <path id="DejaVuSans-35" d="M 691 4666 
L 3169 4666 
L 3169 4134 
L 1269 4134 
L 1269 2991 
Q 1406 3038 1543 3061 
Q 1681 3084 1819 3084 
Q 2600 3084 3056 2656 
Q 3513 2228 3513 1497 
Q 3513 744 3044 326 
Q 2575 -91 1722 -91 
Q 1428 -91 1123 -41 
Q 819 9 494 109 
L 494 744 
Q 775 591 1075 516 
Q 1375 441 1709 441 
Q 2250 441 2565 725 
Q 2881 1009 2881 1497 
Q 2881 1984 2565 2268 
Q 2250 2553 1709 2553 
Q 1456 2553 1204 2497 
Q 953 2441 691 2322 
L 691 4666 
z
" transform="scale(0.015625)"/>
        <path id="DejaVuSans-30" d="M 2034 4250 
Q 1547 4250 1301 3770 
Q 1056 3291 1056 2328 
Q 1056 1369 1301 889 
Q 1547 409 2034 409 
Q 2525 409 2770 889 
Q 3016 1369 3016 2328 
Q 3016 3291 2770 3770 
Q 2525 4250 2034 4250 
z
M 2034 4750 
Q 2819 4750 3233 4129 
Q 3647 3509 3647 2328 
Q 3647 1150 3233 529 
Q 2819 -91 2034 -91 
Q 1250 -91 836 529 
Q 422 1150 422 2328 
Q 422 3509 836 4129 
Q 1250 4750 2034 4750 
z
" transform="scale(0.015625)"/>
        <path id="DejaVuSans-20" transform="scale(0.015625)"/>
        <path id="DejaVuSans-4d" d="M 628 4666 
L 1569 4666 
L 2759 1491 
L 3956 4666 
L 4897 4666 
L 4897 0 
L 4281 0 
L 4281 4097 
L 3078 897 
L 2444 897 
L 1241 4097 
L 1241 0 
L 628 0 
L 628 4666 
z
" transform="scale(0.015625)"/>
        <path id="DejaVuSans-6f" d="M 1959 3097 
Q 1497 3097 1228 2736 
Q 959 2375 959 1747 
Q 959 1119 1226 758 
Q 1494 397 1959 397 
Q 2419 397 2687 759 
Q 2956 1122 2956 1747 
Q 2956 2369 2687 2733 
Q 2419 3097 1959 3097 
z
M 1959 3584 
Q 2709 3584 3137 3096 
Q 3566 2609 3566 1747 
Q 3566 888 3137 398 
Q 2709 -91 1959 -91 
Q 1206 -91 779 398 
Q 353 888 353 1747 
Q 353 2609 779 3096 
Q 1206 3584 1959 3584 
z
" transform="scale(0.015625)"/>
        <path id="DejaVuSans-73" d="M 2834 3397 
L 2834 2853 
Q 2591 2978 2328 3040 
Q 2066 3103 1784 3103 
Q 1356 3103 1142 2972 
Q 928 2841 928 2578 
Q 928 2378 1081 2264 
Q 1234 2150 1697 2047 
L 1894 2003 
Q 2506 1872 2764 1633 
Q 3022 1394 3022 966 
Q 3022 478 2636 193 
Q 2250 -91 1575 -91 
Q 1294 -91 989 -36 
Q 684 19 347 128 
L 347 722 
Q 666 556 975 473 
Q 1284 391 1588 391 
Q 1994 391 2212 530 
Q 2431 669 2431 922 
Q 2431 1156 2273 1281 
Q 2116 1406 1581 1522 
L 1381 1569 
Q 847 1681 609 1914 
Q 372 2147 372 2553 
Q 372 3047 722 3315 
Q 1072 3584 1716 3584 
Q 2034 3584 2315 3537 
Q 2597 3491 2834 3397 
z
" transform="scale(0.015625)"/>
        <path id="DejaVuSans-74" d="M 1172 4494 
L 1172 3500 
L 2356 3500 
L 2356 3053 
L 1172 3053 
L 1172 1153 
Q 1172 725 1289 603 
Q 1406 481 1766 481 
L 2356 481 
L 2356 0 
L 1766 0 
Q 1100 0 847 248 
Q 594 497 594 1153 
L 594 3053 
L 172 3053 
L 172 3500 
L 594 3500 
L 594 4494 
L 1172 4494 
z
" transform="scale(0.015625)"/>
        <path id="DejaVuSans-61" d="M 2194 1759 
Q 1497 1759 1228 1600 
Q 959 1441 959 1056 
Q 959 750 1161 570 
Q 1363 391 1709 391 
Q 2188 391 2477 730 
Q 2766 1069 2766 1631 
L 2766 1759 
L 2194 1759 
z
M 3341 1997 
L 3341 0 
L 2766 0 
L 2766 531 
Q 2569 213 2275 61 
Q 1981 -91 1556 -91 
Q 1019 -91 701 211 
Q 384 513 384 1019 
Q 384 1609 779 1909 
Q 1175 2209 1959 2209 
L 2766 2209 
L 2766 2266 
Q 2766 2663 2505 2880 
Q 2244 3097 1772 3097 
Q 1472 3097 1187 3025 
Q 903 2953 641 2809 
L 641 3341 
Q 956 3463 1253 3523 
Q 1550 3584 1831 3584 
Q 2591 3584 2966 3190 
Q 3341 2797 3341 1997 
z
" transform="scale(0.015625)"/>
        <path id="DejaVuSans-63" d="M 3122 3366 
L 3122 2828 
Q 2878 2963 2633 3030 
Q 2388 3097 2138 3097 
Q 1578 3097 1268 2742 
Q 959 2388 959 1747 
Q 959 1106 1268 751 
Q 1578 397 2138 397 
Q 2388 397 2633 464 
Q 2878 531 3122 666 
L 3122 134 
Q 2881 22 2623 -34 
Q 2366 -91 2075 -91 
Q 1284 -91 818 406 
Q 353 903 353 1747 
Q 353 2603 823 3093 
Q 1294 3584 2113 3584 
Q 2378 3584 2631 3529 
Q 2884 3475 3122 3366 
z
" transform="scale(0.015625)"/>
        <path id="DejaVuSans-69" d="M 603 3500 
L 1178 3500 
L 1178 0 
L 603 0 
L 603 3500 
z
M 603 4863 
L 1178 4863 
L 1178 4134 
L 603 4134 
L 603 4863 
z
" transform="scale(0.015625)"/>
        <path id="DejaVuSans-76" d="M 191 3500 
L 800 3500 
L 1894 563 
L 2988 3500 
L 3597 3500 
L 2284 0 
L 1503 0 
L 191 3500 
z
" transform="scale(0.015625)"/>
        <path id="DejaVuSans-65" d="M 3597 1894 
L 3597 1613 
L 953 1613 
Q 991 1019 1311 708 
Q 1631 397 2203 397 
Q 2534 397 2845 478 
Q 3156 559 3463 722 
L 3463 178 
Q 3153 47 2828 -22 
Q 2503 -91 2169 -91 
Q 1331 -91 842 396 
Q 353 884 353 1716 
Q 353 2575 817 3079 
Q 1281 3584 2069 3584 
Q 2775 3584 3186 3129 
Q 3597 2675 3597 1894 
z
M 3022 2063 
Q 3016 2534 2758 2815 
Q 2500 3097 2075 3097 
Q 1594 3097 1305 2825 
Q 1016 2553 972 2059 
L 3022 2063 
z
" transform="scale(0.015625)"/>
        <path id="DejaVuSans-75" d="M 544 1381 
L 544 3500 
L 1119 3500 
L 1119 1403 
Q 1119 906 1312 657 
Q 1506 409 1894 409 
Q 2359 409 2629 706 
Q 2900 1003 2900 1516 
L 2900 3500 
L 3475 3500 
L 3475 0 
L 2900 0 
L 2900 538 
Q 2691 219 2414 64 
Q 2138 -91 1772 -91 
Q 1169 -91 856 284 
Q 544 659 544 1381 
z
M 1991 3584 
L 1991 3584 
z
" transform="scale(0.015625)"/>
        <path id="DejaVuSans-72" d="M 2631 2963 
Q 2534 3019 2420 3045 
Q 2306 3072 2169 3072 
Q 1681 3072 1420 2755 
Q 1159 2438 1159 1844 
L 1159 0 
L 581 0 
L 581 3500 
L 1159 3500 
L 1159 2956 
Q 1341 3275 1631 3429 
Q 1922 3584 2338 3584 
Q 2397 3584 2469 3576 
Q 2541 3569 2628 3553 
L 2631 2963 
z
" transform="scale(0.015625)"/>
       </defs>
       <use xlink:href="#DejaVuSans-35"/>
       <use xlink:href="#DejaVuSans-30" x="63.623047"/>
       <use xlink:href="#DejaVuSans-20" x="127.246094"/>
       <use xlink:href="#DejaVuSans-4d" x="159.033203"/>
       <use xlink:href="#DejaVuSans-6f" x="245.3125"/>
       <use xlink:href="#DejaVuSans-73" x="306.494141"/>
       <use xlink:href="#DejaVuSans-74" x="358.59375"/>
       <use xlink:href="#DejaVuSans-20" x="397.802734"/>
       <use xlink:href="#DejaVuSans-61" x="429.589844"/>
       <use xlink:href="#DejaVuSans-63" x="490.869141"/>
       <use xlink:href="#DejaVuSans-74" x="545.849609"/>
       <use xlink:href="#DejaVuSans-69" x="585.058594"/>
       <use xlink:href="#DejaVuSans-76" x="612.841797"/>
       <use xlink:href="#DejaVuSans-65" x="672.021484"/>
       <use xlink:href="#DejaVuSans-20" x="733.544922"/>
       <use xlink:href="#DejaVuSans-75" x="765.332031"/>
       <use xlink:href="#DejaVuSans-73" x="828.710938"/>
       <use xlink:href="#DejaVuSans-65" x="880.810547"/>
       <use xlink:href="#DejaVuSans-72" x="942.333984"/>
       <use xlink:href="#DejaVuSans-73" x="983.447266"/>
      </g>
     </g>
    </g>
    <g id="xtick_2">
     <g id="text_2">
      <!-- 200 Random users -->
      <g style="fill: #262626" transform="translate(284.539691 344.598281) scale(0.11 -0.11)">
       <defs>
        <path id="DejaVuSans-32" d="M 1228 531 
L 3431 531 
L 3431 0 
L 469 0 
L 469 531 
Q 828 903 1448 1529 
Q 2069 2156 2228 2338 
Q 2531 2678 2651 2914 
Q 2772 3150 2772 3378 
Q 2772 3750 2511 3984 
Q 2250 4219 1831 4219 
Q 1534 4219 1204 4116 
Q 875 4013 500 3803 
L 500 4441 
Q 881 4594 1212 4672 
Q 1544 4750 1819 4750 
Q 2544 4750 2975 4387 
Q 3406 4025 3406 3419 
Q 3406 3131 3298 2873 
Q 3191 2616 2906 2266 
Q 2828 2175 2409 1742 
Q 1991 1309 1228 531 
z
" transform="scale(0.015625)"/>
        <path id="DejaVuSans-52" d="M 2841 2188 
Q 3044 2119 3236 1894 
Q 3428 1669 3622 1275 
L 4263 0 
L 3584 0 
L 2988 1197 
Q 2756 1666 2539 1819 
Q 2322 1972 1947 1972 
L 1259 1972 
L 1259 0 
L 628 0 
L 628 4666 
L 2053 4666 
Q 2853 4666 3247 4331 
Q 3641 3997 3641 3322 
Q 3641 2881 3436 2590 
Q 3231 2300 2841 2188 
z
M 1259 4147 
L 1259 2491 
L 2053 2491 
Q 2509 2491 2742 2702 
Q 2975 2913 2975 3322 
Q 2975 3731 2742 3939 
Q 2509 4147 2053 4147 
L 1259 4147 
z
" transform="scale(0.015625)"/>
        <path id="DejaVuSans-6e" d="M 3513 2113 
L 3513 0 
L 2938 0 
L 2938 2094 
Q 2938 2591 2744 2837 
Q 2550 3084 2163 3084 
Q 1697 3084 1428 2787 
Q 1159 2491 1159 1978 
L 1159 0 
L 581 0 
L 581 3500 
L 1159 3500 
L 1159 2956 
Q 1366 3272 1645 3428 
Q 1925 3584 2291 3584 
Q 2894 3584 3203 3211 
Q 3513 2838 3513 2113 
z
" transform="scale(0.015625)"/>
        <path id="DejaVuSans-64" d="M 2906 2969 
L 2906 4863 
L 3481 4863 
L 3481 0 
L 2906 0 
L 2906 525 
Q 2725 213 2448 61 
Q 2172 -91 1784 -91 
Q 1150 -91 751 415 
Q 353 922 353 1747 
Q 353 2572 751 3078 
Q 1150 3584 1784 3584 
Q 2172 3584 2448 3432 
Q 2725 3281 2906 2969 
z
M 947 1747 
Q 947 1113 1208 752 
Q 1469 391 1925 391 
Q 2381 391 2643 752 
Q 2906 1113 2906 1747 
Q 2906 2381 2643 2742 
Q 2381 3103 1925 3103 
Q 1469 3103 1208 2742 
Q 947 2381 947 1747 
z
" transform="scale(0.015625)"/>
        <path id="DejaVuSans-6d" d="M 3328 2828 
Q 3544 3216 3844 3400 
Q 4144 3584 4550 3584 
Q 5097 3584 5394 3201 
Q 5691 2819 5691 2113 
L 5691 0 
L 5113 0 
L 5113 2094 
Q 5113 2597 4934 2840 
Q 4756 3084 4391 3084 
Q 3944 3084 3684 2787 
Q 3425 2491 3425 1978 
L 3425 0 
L 2847 0 
L 2847 2094 
Q 2847 2600 2669 2842 
Q 2491 3084 2119 3084 
Q 1678 3084 1418 2786 
Q 1159 2488 1159 1978 
L 1159 0 
L 581 0 
L 581 3500 
L 1159 3500 
L 1159 2956 
Q 1356 3278 1631 3431 
Q 1906 3584 2284 3584 
Q 2666 3584 2933 3390 
Q 3200 3197 3328 2828 
z
" transform="scale(0.015625)"/>
       </defs>
       <use xlink:href="#DejaVuSans-32"/>
       <use xlink:href="#DejaVuSans-30" x="63.623047"/>
       <use xlink:href="#DejaVuSans-30" x="127.246094"/>
       <use xlink:href="#DejaVuSans-20" x="190.869141"/>
       <use xlink:href="#DejaVuSans-52" x="222.65625"/>
       <use xlink:href="#DejaVuSans-61" x="289.888672"/>
       <use xlink:href="#DejaVuSans-6e" x="351.167969"/>
       <use xlink:href="#DejaVuSans-64" x="414.546875"/>
       <use xlink:href="#DejaVuSans-6f" x="478.023438"/>
       <use xlink:href="#DejaVuSans-6d" x="539.205078"/>
       <use xlink:href="#DejaVuSans-20" x="636.617188"/>
       <use xlink:href="#DejaVuSans-75" x="668.404297"/>
       <use xlink:href="#DejaVuSans-73" x="731.783203"/>
       <use xlink:href="#DejaVuSans-65" x="783.882812"/>
       <use xlink:href="#DejaVuSans-72" x="845.40625"/>
       <use xlink:href="#DejaVuSans-73" x="886.519531"/>
      </g>
     </g>
    </g>
   </g>
   <g id="matplotlib.axis_2">
    <g id="ytick_1">
     <g id="line2d_1">
      <path d="M 53.28 312.477273 
L 419.04 312.477273 
" clip-path="url(#p1004ad565f)" style="fill: none; stroke: #ffffff; stroke-linecap: round"/>
     </g>
     <g id="text_3">
      <!-- 0 -->
      <g style="fill: #262626" transform="translate(36.78125 316.656413) scale(0.11 -0.11)">
       <use xlink:href="#DejaVuSans-30"/>
      </g>
     </g>
    </g>
    <g id="ytick_2">
     <g id="line2d_2">
      <path d="M 53.28 266.836545 
L 419.04 266.836545 
" clip-path="url(#p1004ad565f)" style="fill: none; stroke: #ffffff; stroke-linecap: round"/>
     </g>
     <g id="text_4">
      <!-- 2 -->
      <g style="fill: #262626" transform="translate(36.78125 271.015686) scale(0.11 -0.11)">
       <use xlink:href="#DejaVuSans-32"/>
      </g>
     </g>
    </g>
    <g id="ytick_3">
     <g id="line2d_3">
      <path d="M 53.28 221.195818 
L 419.04 221.195818 
" clip-path="url(#p1004ad565f)" style="fill: none; stroke: #ffffff; stroke-linecap: round"/>
     </g>
     <g id="text_5">
      <!-- 4 -->
      <g style="fill: #262626" transform="translate(36.78125 225.374959) scale(0.11 -0.11)">
       <defs>
        <path id="DejaVuSans-34" d="M 2419 4116 
L 825 1625 
L 2419 1625 
L 2419 4116 
z
M 2253 4666 
L 3047 4666 
L 3047 1625 
L 3713 1625 
L 3713 1100 
L 3047 1100 
L 3047 0 
L 2419 0 
L 2419 1100 
L 313 1100 
L 313 1709 
L 2253 4666 
z
" transform="scale(0.015625)"/>
       </defs>
       <use xlink:href="#DejaVuSans-34"/>
      </g>
     </g>
    </g>
    <g id="ytick_4">
     <g id="line2d_4">
      <path d="M 53.28 175.555091 
L 419.04 175.555091 
" clip-path="url(#p1004ad565f)" style="fill: none; stroke: #ffffff; stroke-linecap: round"/>
     </g>
     <g id="text_6">
      <!-- 6 -->
      <g style="fill: #262626" transform="translate(36.78125 179.734232) scale(0.11 -0.11)">
       <defs>
        <path id="DejaVuSans-36" d="M 2113 2584 
Q 1688 2584 1439 2293 
Q 1191 2003 1191 1497 
Q 1191 994 1439 701 
Q 1688 409 2113 409 
Q 2538 409 2786 701 
Q 3034 994 3034 1497 
Q 3034 2003 2786 2293 
Q 2538 2584 2113 2584 
z
M 3366 4563 
L 3366 3988 
Q 3128 4100 2886 4159 
Q 2644 4219 2406 4219 
Q 1781 4219 1451 3797 
Q 1122 3375 1075 2522 
Q 1259 2794 1537 2939 
Q 1816 3084 2150 3084 
Q 2853 3084 3261 2657 
Q 3669 2231 3669 1497 
Q 3669 778 3244 343 
Q 2819 -91 2113 -91 
Q 1303 -91 875 529 
Q 447 1150 447 2328 
Q 447 3434 972 4092 
Q 1497 4750 2381 4750 
Q 2619 4750 2861 4703 
Q 3103 4656 3366 4563 
z
" transform="scale(0.015625)"/>
       </defs>
       <use xlink:href="#DejaVuSans-36"/>
      </g>
     </g>
    </g>
    <g id="ytick_5">
     <g id="line2d_5">
      <path d="M 53.28 129.914364 
L 419.04 129.914364 
" clip-path="url(#p1004ad565f)" style="fill: none; stroke: #ffffff; stroke-linecap: round"/>
     </g>
     <g id="text_7">
      <!-- 8 -->
      <g style="fill: #262626" transform="translate(36.78125 134.093504) scale(0.11 -0.11)">
       <defs>
        <path id="DejaVuSans-38" d="M 2034 2216 
Q 1584 2216 1326 1975 
Q 1069 1734 1069 1313 
Q 1069 891 1326 650 
Q 1584 409 2034 409 
Q 2484 409 2743 651 
Q 3003 894 3003 1313 
Q 3003 1734 2745 1975 
Q 2488 2216 2034 2216 
z
M 1403 2484 
Q 997 2584 770 2862 
Q 544 3141 544 3541 
Q 544 4100 942 4425 
Q 1341 4750 2034 4750 
Q 2731 4750 3128 4425 
Q 3525 4100 3525 3541 
Q 3525 3141 3298 2862 
Q 3072 2584 2669 2484 
Q 3125 2378 3379 2068 
Q 3634 1759 3634 1313 
Q 3634 634 3220 271 
Q 2806 -91 2034 -91 
Q 1263 -91 848 271 
Q 434 634 434 1313 
Q 434 1759 690 2068 
Q 947 2378 1403 2484 
z
M 1172 3481 
Q 1172 3119 1398 2916 
Q 1625 2713 2034 2713 
Q 2441 2713 2670 2916 
Q 2900 3119 2900 3481 
Q 2900 3844 2670 4047 
Q 2441 4250 2034 4250 
Q 1625 4250 1398 4047 
Q 1172 3844 1172 3481 
z
" transform="scale(0.015625)"/>
       </defs>
       <use xlink:href="#DejaVuSans-38"/>
      </g>
     </g>
    </g>
    <g id="ytick_6">
     <g id="line2d_6">
      <path d="M 53.28 84.273636 
L 419.04 84.273636 
" clip-path="url(#p1004ad565f)" style="fill: none; stroke: #ffffff; stroke-linecap: round"/>
     </g>
     <g id="text_8">
      <!-- 10 -->
      <g style="fill: #262626" transform="translate(29.7825 88.452777) scale(0.11 -0.11)">
       <defs>
        <path id="DejaVuSans-31" d="M 794 531 
L 1825 531 
L 1825 4091 
L 703 3866 
L 703 4441 
L 1819 4666 
L 2450 4666 
L 2450 531 
L 3481 531 
L 3481 0 
L 794 0 
L 794 531 
z
" transform="scale(0.015625)"/>
       </defs>
       <use xlink:href="#DejaVuSans-31"/>
       <use xlink:href="#DejaVuSans-30" x="63.623047"/>
      </g>
     </g>
    </g>
    <g id="ytick_7">
     <g id="line2d_7">
      <path d="M 53.28 38.632909 
L 419.04 38.632909 
" clip-path="url(#p1004ad565f)" style="fill: none; stroke: #ffffff; stroke-linecap: round"/>
     </g>
     <g id="text_9">
      <!-- 12 -->
      <g style="fill: #262626" transform="translate(29.7825 42.81205) scale(0.11 -0.11)">
       <use xlink:href="#DejaVuSans-31"/>
       <use xlink:href="#DejaVuSans-32" x="63.623047"/>
      </g>
     </g>
    </g>
    <g id="text_10">
     <!-- ROUGE-2 -->
     <g style="fill: #262626" transform="translate(23.286875 197.555938) rotate(-90) scale(0.12 -0.12)">
      <defs>
       <path id="DejaVuSans-4f" d="M 2522 4238 
Q 1834 4238 1429 3725 
Q 1025 3213 1025 2328 
Q 1025 1447 1429 934 
Q 1834 422 2522 422 
Q 3209 422 3611 934 
Q 4013 1447 4013 2328 
Q 4013 3213 3611 3725 
Q 3209 4238 2522 4238 
z
M 2522 4750 
Q 3503 4750 4090 4092 
Q 4678 3434 4678 2328 
Q 4678 1225 4090 567 
Q 3503 -91 2522 -91 
Q 1538 -91 948 565 
Q 359 1222 359 2328 
Q 359 3434 948 4092 
Q 1538 4750 2522 4750 
z
" transform="scale(0.015625)"/>
       <path id="DejaVuSans-55" d="M 556 4666 
L 1191 4666 
L 1191 1831 
Q 1191 1081 1462 751 
Q 1734 422 2344 422 
Q 2950 422 3222 751 
Q 3494 1081 3494 1831 
L 3494 4666 
L 4128 4666 
L 4128 1753 
Q 4128 841 3676 375 
Q 3225 -91 2344 -91 
Q 1459 -91 1007 375 
Q 556 841 556 1753 
L 556 4666 
z
" transform="scale(0.015625)"/>
       <path id="DejaVuSans-47" d="M 3809 666 
L 3809 1919 
L 2778 1919 
L 2778 2438 
L 4434 2438 
L 4434 434 
Q 4069 175 3628 42 
Q 3188 -91 2688 -91 
Q 1594 -91 976 548 
Q 359 1188 359 2328 
Q 359 3472 976 4111 
Q 1594 4750 2688 4750 
Q 3144 4750 3555 4637 
Q 3966 4525 4313 4306 
L 4313 3634 
Q 3963 3931 3569 4081 
Q 3175 4231 2741 4231 
Q 1884 4231 1454 3753 
Q 1025 3275 1025 2328 
Q 1025 1384 1454 906 
Q 1884 428 2741 428 
Q 3075 428 3337 486 
Q 3600 544 3809 666 
z
" transform="scale(0.015625)"/>
       <path id="DejaVuSans-45" d="M 628 4666 
L 3578 4666 
L 3578 4134 
L 1259 4134 
L 1259 2753 
L 3481 2753 
L 3481 2222 
L 1259 2222 
L 1259 531 
L 3634 531 
L 3634 0 
L 628 0 
L 628 4666 
z
" transform="scale(0.015625)"/>
       <path id="DejaVuSans-2d" d="M 313 2009 
L 1997 2009 
L 1997 1497 
L 313 1497 
L 313 2009 
z
" transform="scale(0.015625)"/>
      </defs>
      <use xlink:href="#DejaVuSans-52"/>
      <use xlink:href="#DejaVuSans-4f" x="69.482422"/>
      <use xlink:href="#DejaVuSans-55" x="148.193359"/>
      <use xlink:href="#DejaVuSans-47" x="221.386719"/>
      <use xlink:href="#DejaVuSans-45" x="298.876953"/>
      <use xlink:href="#DejaVuSans-2d" x="362.060547"/>
      <use xlink:href="#DejaVuSans-32" x="398.144531"/>
     </g>
    </g>
   </g>
   <g id="PolyCollection_1">
    <path d="M 109.391321 312.477273 
L 81.135351 312.477273 
L 80.005395 311.738847 
L 78.883543 311.00042 
L 77.78175 310.261994 
L 76.712083 309.523568 
L 75.68648 308.785142 
L 74.716507 308.046715 
L 73.813113 307.308289 
L 72.986384 306.569863 
L 72.245323 305.831437 
L 71.597636 305.093011 
L 71.04956 304.354584 
L 70.605727 303.616158 
L 70.269067 302.877732 
L 70.040772 302.139306 
L 69.920303 301.40088 
L 69.905455 300.662453 
L 69.992466 299.924027 
L 70.176174 299.185601 
L 70.450204 298.447175 
L 70.807177 297.708748 
L 71.238943 296.970322 
L 71.736811 296.231896 
L 72.291779 295.49347 
L 72.894753 294.755044 
L 73.536753 294.016617 
L 74.209091 293.278191 
L 74.903534 292.539765 
L 75.612437 291.801339 
L 76.328848 291.062913 
L 77.046591 290.324486 
L 77.760315 289.58606 
L 78.465523 288.847634 
L 79.158561 288.109208 
L 79.836596 287.370781 
L 80.49756 286.632355 
L 81.140074 285.893929 
L 81.763356 285.155503 
L 82.367114 284.417077 
L 82.951438 283.67865 
L 83.516683 282.940224 
L 84.063362 282.201798 
L 84.592049 281.463372 
L 85.103294 280.724946 
L 85.597562 279.986519 
L 86.07519 279.248093 
L 86.536361 278.509667 
L 86.981108 277.771241 
L 87.409325 277.032814 
L 87.820803 276.294388 
L 88.215269 275.555962 
L 88.592436 274.817536 
L 88.952049 274.07911 
L 89.293935 273.340683 
L 89.618039 272.602257 
L 89.924453 271.863831 
L 90.213434 271.125405 
L 90.485407 270.386979 
L 90.740954 269.648552 
L 90.98079 268.910126 
L 91.205735 268.1717 
L 91.416673 267.433274 
L 91.614509 266.694847 
L 91.800131 265.956421 
L 91.974372 265.217995 
L 92.13798 264.479569 
L 92.291605 263.741143 
L 92.435787 263.002716 
L 92.570964 262.26429 
L 92.697485 261.525864 
L 92.815635 260.787438 
L 92.925662 260.049012 
L 93.027806 259.310585 
L 93.122321 258.572159 
L 93.2095 257.833733 
L 93.289683 257.095307 
L 93.363257 256.35688 
L 93.430652 255.618454 
L 93.492321 254.880028 
L 93.548721 254.141602 
L 93.600291 253.403176 
L 93.647429 252.664749 
L 93.690478 251.926323 
L 93.729723 251.187897 
L 93.76539 250.449471 
L 93.797666 249.711045 
L 93.82672 248.972618 
L 93.852736 248.234192 
L 93.875948 247.495766 
L 93.896669 246.75734 
L 93.915323 246.018913 
L 93.932456 245.280487 
L 93.948744 244.542061 
L 93.964979 243.803635 
L 93.98204 243.065209 
L 94.000855 242.326782 
L 94.022351 241.588356 
L 94.047396 240.84993 
L 94.076742 240.111504 
L 94.110972 239.373078 
L 96.4157 239.373078 
L 96.4157 239.373078 
L 96.44993 240.111504 
L 96.479275 240.84993 
L 96.50432 241.588356 
L 96.525816 242.326782 
L 96.544632 243.065209 
L 96.561692 243.803635 
L 96.577927 244.542061 
L 96.594215 245.280487 
L 96.611349 246.018913 
L 96.630002 246.75734 
L 96.650723 247.495766 
L 96.673935 248.234192 
L 96.699951 248.972618 
L 96.729005 249.711045 
L 96.761281 250.449471 
L 96.796949 251.187897 
L 96.836193 251.926323 
L 96.879243 252.664749 
L 96.92638 253.403176 
L 96.97795 254.141602 
L 97.03435 254.880028 
L 97.096019 255.618454 
L 97.163414 256.35688 
L 97.236989 257.095307 
L 97.317171 257.833733 
L 97.404351 258.572159 
L 97.498866 259.310585 
L 97.601009 260.049012 
L 97.711037 260.787438 
L 97.829187 261.525864 
L 97.955708 262.26429 
L 98.090884 263.002716 
L 98.235066 263.741143 
L 98.388691 264.479569 
L 98.5523 265.217995 
L 98.72654 265.956421 
L 98.912162 266.694847 
L 99.109998 267.433274 
L 99.320936 268.1717 
L 99.545882 268.910126 
L 99.785718 269.648552 
L 100.041264 270.386979 
L 100.313237 271.125405 
L 100.602219 271.863831 
L 100.908632 272.602257 
L 101.232736 273.340683 
L 101.574622 274.07911 
L 101.934235 274.817536 
L 102.311402 275.555962 
L 102.705869 276.294388 
L 103.117347 277.032814 
L 103.545564 277.771241 
L 103.99031 278.509667 
L 104.451481 279.248093 
L 104.929109 279.986519 
L 105.423378 280.724946 
L 105.934623 281.463372 
L 106.463309 282.201798 
L 107.009988 282.940224 
L 107.575233 283.67865 
L 108.159557 284.417077 
L 108.763315 285.155503 
L 109.386597 285.893929 
L 110.029111 286.632355 
L 110.690075 287.370781 
L 111.368111 288.109208 
L 112.061149 288.847634 
L 112.766356 289.58606 
L 113.480081 290.324486 
L 114.197824 291.062913 
L 114.914235 291.801339 
L 115.623138 292.539765 
L 116.317581 293.278191 
L 116.989919 294.016617 
L 117.631918 294.755044 
L 118.234893 295.49347 
L 118.78986 296.231896 
L 119.287728 296.970322 
L 119.719494 297.708748 
L 120.076468 298.447175 
L 120.350497 299.185601 
L 120.534206 299.924027 
L 120.621217 300.662453 
L 120.606368 301.40088 
L 120.485899 302.139306 
L 120.257604 302.877732 
L 119.920945 303.616158 
L 119.477111 304.354584 
L 118.929036 305.093011 
L 118.281349 305.831437 
L 117.540287 306.569863 
L 116.713559 307.308289 
L 115.810164 308.046715 
L 114.840192 308.785142 
L 113.814589 309.523568 
L 112.744922 310.261994 
L 111.643129 311.00042 
L 110.521276 311.738847 
L 109.391321 312.477273 
L 109.391321 312.477273 
z
" clip-path="url(#p1004ad565f)" style="fill: none; stroke: #4c72b0; stroke-width: 1.5"/>
   </g>
   <g id="PolyCollection_2">
    <path d="M 158.557849 312.477273 
L 133.400347 312.477273 
L 132.010898 311.133562 
L 130.612638 309.789851 
L 129.226774 308.446141 
L 127.875294 307.10243 
L 126.580495 305.758719 
L 125.364488 304.415008 
L 124.24869 303.071298 
L 123.253261 301.727587 
L 122.396499 300.383876 
L 121.694202 299.040166 
L 121.159017 297.696455 
L 120.799822 296.352744 
L 120.621217 295.009034 
L 120.623162 293.665323 
L 120.800846 292.321612 
L 121.144809 290.977901 
L 121.641348 289.634191 
L 122.273171 288.29048 
L 123.02028 286.946769 
L 123.860976 285.603059 
L 124.772924 284.259348 
L 125.734175 282.915637 
L 126.724068 281.571926 
L 127.723939 280.228216 
L 128.717629 278.884505 
L 129.691757 277.540794 
L 130.635799 276.197084 
L 131.542002 274.853373 
L 132.405192 273.509662 
L 133.222511 272.165951 
L 133.993121 270.822241 
L 134.717912 269.47853 
L 135.399216 268.134819 
L 136.040513 266.791109 
L 136.646145 265.447398 
L 137.221 264.103687 
L 137.770178 262.759977 
L 138.298638 261.416266 
L 138.81084 260.072555 
L 139.310409 258.728844 
L 139.799843 257.385134 
L 140.280313 256.041423 
L 140.751572 254.697712 
L 141.211979 253.354002 
L 141.658667 252.010291 
L 142.08782 250.66658 
L 142.495041 249.322869 
L 142.875784 247.979159 
L 143.22579 246.635448 
L 143.541502 245.291737 
L 143.820415 243.948027 
L 144.061318 242.604316 
L 144.264429 241.260605 
L 144.431402 239.916894 
L 144.565219 238.573184 
L 144.669968 237.229473 
L 144.750552 235.885762 
L 144.812343 234.542052 
L 144.860821 233.198341 
L 144.901221 231.85463 
L 144.938227 230.51092 
L 144.975737 229.167209 
L 145.016692 227.823498 
L 145.063011 226.479787 
L 145.115599 225.136077 
L 145.174436 223.792366 
L 145.238725 222.448655 
L 145.307082 221.104945 
L 145.377741 219.761234 
L 145.448758 218.417523 
L 145.518196 217.073812 
L 145.584267 215.730102 
L 145.64544 214.386391 
L 145.700494 213.04268 
L 145.748534 211.69897 
L 145.788965 210.355259 
L 145.821446 209.011548 
L 145.845817 207.667837 
L 145.862038 206.324127 
L 145.87012 204.980416 
L 145.870084 203.636705 
L 145.861934 202.292995 
L 145.845659 200.949284 
L 145.82126 199.605573 
L 145.788799 198.261863 
L 145.748467 196.918152 
L 145.700655 195.574441 
L 145.646032 194.23073 
L 145.585604 192.88702 
L 145.52075 191.543309 
L 145.453231 190.199598 
L 145.385153 188.855888 
L 145.318897 187.512177 
L 145.257 186.168466 
L 145.202014 184.824755 
L 145.156344 183.481045 
L 145.122079 182.137334 
L 145.100836 180.793623 
L 145.093643 179.449913 
L 146.864553 179.449913 
L 146.864553 179.449913 
L 146.85736 180.793623 
L 146.836117 182.137334 
L 146.801852 183.481045 
L 146.756182 184.824755 
L 146.701196 186.168466 
L 146.639299 187.512177 
L 146.573043 188.855888 
L 146.504965 190.199598 
L 146.437446 191.543309 
L 146.372592 192.88702 
L 146.312164 194.23073 
L 146.257541 195.574441 
L 146.209729 196.918152 
L 146.169397 198.261863 
L 146.136936 199.605573 
L 146.112537 200.949284 
L 146.096262 202.292995 
L 146.088112 203.636705 
L 146.088076 204.980416 
L 146.096159 206.324127 
L 146.112379 207.667837 
L 146.13675 209.011548 
L 146.169231 210.355259 
L 146.209662 211.69897 
L 146.257702 213.04268 
L 146.312756 214.386391 
L 146.373929 215.730102 
L 146.44 217.073812 
L 146.509438 218.417523 
L 146.580455 219.761234 
L 146.651114 221.104945 
L 146.719471 222.448655 
L 146.78376 223.792366 
L 146.842597 225.136077 
L 146.895185 226.479787 
L 146.941504 227.823498 
L 146.982459 229.167209 
L 147.019969 230.51092 
L 147.056976 231.85463 
L 147.097375 233.198341 
L 147.145853 234.542052 
L 147.207644 235.885762 
L 147.288228 237.229473 
L 147.392977 238.573184 
L 147.526794 239.916894 
L 147.693768 241.260605 
L 147.896878 242.604316 
L 148.137781 243.948027 
L 148.416694 245.291737 
L 148.732407 246.635448 
L 149.082412 247.979159 
L 149.463155 249.322869 
L 149.870376 250.66658 
L 150.299529 252.010291 
L 150.746217 253.354002 
L 151.206624 254.697712 
L 151.677883 256.041423 
L 152.158353 257.385134 
L 152.647787 258.728844 
L 153.147356 260.072555 
L 153.659558 261.416266 
L 154.188019 262.759977 
L 154.737196 264.103687 
L 155.312051 265.447398 
L 155.917683 266.791109 
L 156.55898 268.134819 
L 157.240284 269.47853 
L 157.965075 270.822241 
L 158.735685 272.165951 
L 159.553004 273.509662 
L 160.416194 274.853373 
L 161.322398 276.197084 
L 162.266439 277.540794 
L 163.240567 278.884505 
L 164.234257 280.228216 
L 165.234129 281.571926 
L 166.224021 282.915637 
L 167.185272 284.259348 
L 168.09722 285.603059 
L 168.937916 286.946769 
L 169.685025 288.29048 
L 170.316848 289.634191 
L 170.813387 290.977901 
L 171.15735 292.321612 
L 171.335034 293.665323 
L 171.336979 295.009034 
L 171.158374 296.352744 
L 170.79918 297.696455 
L 170.263994 299.040166 
L 169.561697 300.383876 
L 168.704935 301.727587 
L 167.709506 303.071298 
L 166.593708 304.415008 
L 165.377702 305.758719 
L 164.082902 307.10243 
L 162.731422 308.446141 
L 161.345558 309.789851 
L 159.947298 311.133562 
L 158.557849 312.477273 
L 158.557849 312.477273 
z
" clip-path="url(#p1004ad565f)" style="fill: none; stroke: #dd8452; stroke-width: 1.5"/>
   </g>
   <g id="PolyCollection_3">
    <path d="M 207.15437 312.477273 
L 186.235351 312.477273 
L 185.109509 311.783666 
L 183.948387 311.090058 
L 182.763725 310.396451 
L 181.568596 309.702844 
L 180.37715 309.009237 
L 179.204298 308.31563 
L 178.065349 307.622022 
L 176.975614 306.928415 
L 175.949981 306.234808 
L 175.002483 305.541201 
L 174.145879 304.847594 
L 173.391249 304.153986 
L 172.747639 303.460379 
L 172.221753 302.766772 
L 171.817724 302.073165 
L 171.53696 301.379558 
L 171.378086 300.68595 
L 171.336979 299.992343 
L 171.406905 299.298736 
L 171.578747 298.605129 
L 171.841326 297.911522 
L 172.181799 297.217914 
L 172.586113 296.524307 
L 173.039513 295.8307 
L 173.527064 295.137093 
L 174.034181 294.443486 
L 174.547129 293.749878 
L 175.053487 293.056271 
L 175.542548 292.362664 
L 176.005633 291.669057 
L 176.436321 290.97545 
L 176.830578 290.281843 
L 177.186778 289.588235 
L 177.505626 288.894628 
L 177.789989 288.201021 
L 178.044636 287.507414 
L 178.275912 286.813807 
L 178.491354 286.120199 
L 178.699273 285.426592 
L 178.90832 284.732985 
L 179.127052 284.039378 
L 179.363525 283.345771 
L 179.624923 282.652163 
L 179.917245 281.958556 
L 180.24506 281.264949 
L 180.611342 280.571342 
L 181.017388 279.877735 
L 181.462818 279.184127 
L 181.945665 278.49052 
L 182.462527 277.796913 
L 183.008796 277.103306 
L 183.578922 276.409699 
L 184.166714 275.716091 
L 184.765651 275.022484 
L 185.369183 274.328877 
L 185.971009 273.63527 
L 186.565318 272.941663 
L 187.146973 272.248055 
L 187.711639 271.554448 
L 188.255856 270.860841 
L 188.777046 270.167234 
L 189.273476 269.473627 
L 189.744176 268.780019 
L 190.188829 268.086412 
L 190.607644 267.392805 
L 191.001225 266.699198 
L 191.370446 266.005591 
L 191.716344 265.311984 
L 192.040027 264.618376 
L 192.34261 263.924769 
L 192.625171 263.231162 
L 192.888725 262.537555 
L 193.134218 261.843948 
L 193.362521 261.15034 
L 193.574444 260.456733 
L 193.770737 259.763126 
L 193.952097 259.069519 
L 194.11917 258.375912 
L 194.272551 257.682304 
L 194.412787 256.988697 
L 194.540375 256.29509 
L 194.65577 255.601483 
L 194.759397 254.907876 
L 194.851674 254.214268 
L 194.933037 253.520661 
L 195.003974 252.827054 
L 195.065062 252.133447 
L 195.117002 251.43984 
L 195.160646 250.746232 
L 195.197013 250.052625 
L 195.2273 249.359018 
L 195.25286 248.665411 
L 195.275181 247.971804 
L 195.295832 247.278196 
L 195.316408 246.584589 
L 195.338457 245.890982 
L 195.363409 245.197375 
L 195.392506 244.503768 
L 195.426735 243.810161 
L 197.962985 243.810161 
L 197.962985 243.810161 
L 197.997215 244.503768 
L 198.026312 245.197375 
L 198.051264 245.890982 
L 198.073313 246.584589 
L 198.093889 247.278196 
L 198.11454 247.971804 
L 198.136861 248.665411 
L 198.162421 249.359018 
L 198.192708 250.052625 
L 198.229075 250.746232 
L 198.272718 251.43984 
L 198.324658 252.133447 
L 198.385747 252.827054 
L 198.456684 253.520661 
L 198.538047 254.214268 
L 198.630324 254.907876 
L 198.733951 255.601483 
L 198.849346 256.29509 
L 198.976934 256.988697 
L 199.11717 257.682304 
L 199.270551 258.375912 
L 199.437624 259.069519 
L 199.618983 259.763126 
L 199.815276 260.456733 
L 200.0272 261.15034 
L 200.255503 261.843948 
L 200.500995 262.537555 
L 200.76455 263.231162 
L 201.047111 263.924769 
L 201.349694 264.618376 
L 201.673377 265.311984 
L 202.019275 266.005591 
L 202.388496 266.699198 
L 202.782077 267.392805 
L 203.200892 268.086412 
L 203.645545 268.780019 
L 204.116245 269.473627 
L 204.612675 270.167234 
L 205.133865 270.860841 
L 205.678082 271.554448 
L 206.242748 272.248055 
L 206.824402 272.941663 
L 207.418711 273.63527 
L 208.020538 274.328877 
L 208.62407 275.022484 
L 209.223006 275.716091 
L 209.810799 276.409699 
L 210.380925 277.103306 
L 210.927194 277.796913 
L 211.444056 278.49052 
L 211.926902 279.184127 
L 212.372333 279.877735 
L 212.778378 280.571342 
L 213.144661 281.264949 
L 213.472476 281.958556 
L 213.764798 282.652163 
L 214.026196 283.345771 
L 214.262669 284.039378 
L 214.481401 284.732985 
L 214.690448 285.426592 
L 214.898367 286.120199 
L 215.113808 286.813807 
L 215.345084 287.507414 
L 215.599732 288.201021 
L 215.884095 288.894628 
L 216.202943 289.588235 
L 216.559142 290.281843 
L 216.9534 290.97545 
L 217.384088 291.669057 
L 217.847173 292.362664 
L 218.336233 293.056271 
L 218.842592 293.749878 
L 219.35554 294.443486 
L 219.862657 295.137093 
L 220.350208 295.8307 
L 220.803608 296.524307 
L 221.207922 297.217914 
L 221.548395 297.911522 
L 221.810974 298.605129 
L 221.982816 299.298736 
L 222.052742 299.992343 
L 222.011635 300.68595 
L 221.852761 301.379558 
L 221.571997 302.073165 
L 221.167968 302.766772 
L 220.642082 303.460379 
L 219.998472 304.153986 
L 219.243842 304.847594 
L 218.387238 305.541201 
L 217.43974 306.234808 
L 216.414106 306.928415 
L 215.324371 307.622022 
L 214.185423 308.31563 
L 213.012571 309.009237 
L 211.821125 309.702844 
L 210.625996 310.396451 
L 209.441333 311.090058 
L 208.280211 311.783666 
L 207.15437 312.477273 
L 207.15437 312.477273 
z
" clip-path="url(#p1004ad565f)" style="fill: none; stroke: #55a868; stroke-width: 1.5"/>
   </g>
   <g id="PolyCollection_4">
    <path d="M 299.364174 312.477273 
L 271.530715 312.477273 
L 271.292588 309.788004 
L 271.364708 307.098736 
L 271.721516 304.409467 
L 272.316718 301.720199 
L 273.089984 299.030931 
L 273.974956 296.341662 
L 274.907163 293.652394 
L 275.830641 290.963125 
L 276.702389 288.273857 
L 277.494342 285.584588 
L 278.193005 282.89532 
L 278.797281 280.206051 
L 279.315202 277.516783 
L 279.760325 274.827515 
L 280.148407 272.138246 
L 280.494769 269.448978 
L 280.81255 266.759709 
L 281.111839 264.070441 
L 281.399524 261.381172 
L 281.679644 258.691904 
L 281.954002 256.002635 
L 282.222844 253.313367 
L 282.48546 250.624099 
L 282.740635 247.93483 
L 282.986944 245.245562 
L 283.222921 242.556293 
L 283.447135 239.867025 
L 283.658244 237.177756 
L 283.855035 234.488488 
L 284.036484 231.799219 
L 284.201822 229.109951 
L 284.350594 226.420683 
L 284.482704 223.731414 
L 284.598419 221.042146 
L 284.698352 218.352877 
L 284.783396 215.663609 
L 284.854661 212.97434 
L 284.913379 210.285072 
L 284.960832 207.595803 
L 284.998281 204.906535 
L 285.02691 202.217267 
L 285.047796 199.527998 
L 285.061893 196.83873 
L 285.07003 194.149461 
L 285.07293 191.460193 
L 285.071253 188.770924 
L 285.065637 186.081656 
L 285.056758 183.392388 
L 285.045388 180.703119 
L 285.032435 178.013851 
L 285.018966 175.324582 
L 285.006192 172.635314 
L 284.995422 169.946045 
L 284.987975 167.256777 
L 284.985076 164.567508 
L 284.987738 161.87824 
L 284.996656 159.188972 
L 285.012122 156.499703 
L 285.033983 153.810435 
L 285.061642 151.121166 
L 285.094107 148.431898 
L 285.130079 145.742629 
L 285.168069 143.053361 
L 285.206528 140.364092 
L 285.243972 137.674824 
L 285.279088 134.985556 
L 285.310804 132.296287 
L 285.338331 129.607019 
L 285.361161 126.91775 
L 285.379035 124.228482 
L 285.391903 121.539213 
L 285.399863 118.849945 
L 285.403125 116.160676 
L 285.401979 113.471408 
L 285.396793 110.78214 
L 285.388028 108.092871 
L 285.376261 105.403603 
L 285.362204 102.714334 
L 285.346716 100.025066 
L 285.330771 97.335797 
L 285.315407 94.646529 
L 285.301627 91.95726 
L 285.290297 89.267992 
L 285.282027 86.578724 
L 285.277081 83.889455 
L 285.275331 81.200187 
L 285.276265 78.510918 
L 285.279059 75.82165 
L 285.282707 73.132381 
L 285.28618 70.443113 
L 285.288598 67.753845 
L 285.289381 65.064576 
L 285.288344 62.375308 
L 285.285732 59.686039 
L 285.282176 56.996771 
L 285.278588 54.307502 
L 285.276005 51.618234 
L 285.275421 48.928965 
L 285.277625 46.239697 
L 285.617264 46.239697 
L 285.617264 46.239697 
L 285.619468 48.928965 
L 285.618884 51.618234 
L 285.616301 54.307502 
L 285.612713 56.996771 
L 285.609157 59.686039 
L 285.606545 62.375308 
L 285.605508 65.064576 
L 285.606291 67.753845 
L 285.608709 70.443113 
L 285.612181 73.132381 
L 285.61583 75.82165 
L 285.618624 78.510918 
L 285.619558 81.200187 
L 285.617808 83.889455 
L 285.612862 86.578724 
L 285.604592 89.267992 
L 285.593262 91.95726 
L 285.579482 94.646529 
L 285.564118 97.335797 
L 285.548173 100.025066 
L 285.532685 102.714334 
L 285.518628 105.403603 
L 285.50686 108.092871 
L 285.498096 110.78214 
L 285.49291 113.471408 
L 285.491764 116.160676 
L 285.495026 118.849945 
L 285.502986 121.539213 
L 285.515854 124.228482 
L 285.533728 126.91775 
L 285.556558 129.607019 
L 285.584085 132.296287 
L 285.615801 134.985556 
L 285.650917 137.674824 
L 285.688361 140.364092 
L 285.72682 143.053361 
L 285.76481 145.742629 
L 285.800782 148.431898 
L 285.833246 151.121166 
L 285.860906 153.810435 
L 285.882767 156.499703 
L 285.898233 159.188972 
L 285.907151 161.87824 
L 285.909813 164.567508 
L 285.906914 167.256777 
L 285.899467 169.946045 
L 285.888696 172.635314 
L 285.875923 175.324582 
L 285.862454 178.013851 
L 285.849501 180.703119 
L 285.838131 183.392388 
L 285.829252 186.081656 
L 285.823635 188.770924 
L 285.821958 191.460193 
L 285.824859 194.149461 
L 285.832996 196.83873 
L 285.847092 199.527998 
L 285.867979 202.217267 
L 285.896608 204.906535 
L 285.934056 207.595803 
L 285.98151 210.285072 
L 286.040228 212.97434 
L 286.111493 215.663609 
L 286.196537 218.352877 
L 286.296469 221.042146 
L 286.412185 223.731414 
L 286.544295 226.420683 
L 286.693067 229.109951 
L 286.858405 231.799219 
L 287.039854 234.488488 
L 287.236645 237.177756 
L 287.447753 239.867025 
L 287.671968 242.556293 
L 287.907945 245.245562 
L 288.154254 247.93483 
L 288.409429 250.624099 
L 288.672044 253.313367 
L 288.940887 256.002635 
L 289.215245 258.691904 
L 289.495365 261.381172 
L 289.78305 264.070441 
L 290.082339 266.759709 
L 290.40012 269.448978 
L 290.746482 272.138246 
L 291.134564 274.827515 
L 291.579687 277.516783 
L 292.097608 280.206051 
L 292.701884 282.89532 
L 293.400547 285.584588 
L 294.1925 288.273857 
L 295.064248 290.963125 
L 295.987726 293.652394 
L 296.919933 296.341662 
L 297.804904 299.030931 
L 298.578171 301.720199 
L 299.173373 304.409467 
L 299.530181 307.098736 
L 299.602301 309.788004 
L 299.364174 312.477273 
L 299.364174 312.477273 
z
" clip-path="url(#p1004ad565f)" style="fill: none; stroke: #4c72b0; stroke-width: 1.5"/>
   </g>
   <g id="PolyCollection_5">
    <path d="M 359.187637 312.477273 
L 313.138777 312.477273 
L 312.886462 310.172185 
L 313.212503 307.867098 
L 314.053443 305.562011 
L 315.305907 303.256924 
L 316.842906 300.951837 
L 318.531986 298.646749 
L 320.251772 296.341662 
L 321.904222 294.036575 
L 323.421156 291.731488 
L 324.765016 289.4264 
L 325.924965 287.121313 
L 326.910093 284.816226 
L 327.741638 282.511139 
L 328.445807 280.206051 
L 329.048245 277.900964 
L 329.570567 275.595877 
L 330.028896 273.29079 
L 330.433966 270.985702 
L 330.792263 268.680615 
L 331.107613 266.375528 
L 331.38276 264.070441 
L 331.620606 261.765354 
L 331.824929 259.460266 
L 332.000543 257.155179 
L 332.153024 254.850092 
L 332.288141 252.545005 
L 332.411247 250.239917 
L 332.526803 247.93483 
L 332.638169 245.629743 
L 332.747695 243.324656 
L 332.857039 241.019568 
L 332.967572 238.714481 
L 333.080711 236.409394 
L 333.19807 234.104307 
L 333.321367 231.799219 
L 333.45215 229.494132 
L 333.591438 227.189045 
L 333.739417 224.883958 
L 333.895296 222.578871 
L 334.057383 220.273783 
L 334.223339 217.968696 
L 334.390537 215.663609 
L 334.556421 213.358522 
L 334.718751 211.053434 
L 334.875697 208.748347 
L 335.025783 206.44326 
L 335.167724 204.138173 
L 335.30025 201.833085 
L 335.421978 199.527998 
L 335.531409 197.222911 
L 335.627035 194.917824 
L 335.707561 192.612736 
L 335.772167 190.307649 
L 335.820762 188.002562 
L 335.854152 185.697475 
L 335.874092 183.392388 
L 335.883196 181.0873 
L 335.884703 178.782213 
L 335.882158 176.477126 
L 335.879017 174.172039 
L 335.878285 171.866951 
L 335.882203 169.561864 
L 335.892058 167.256777 
L 335.908139 164.95169 
L 335.929829 162.646602 
L 335.955812 160.341515 
L 335.98436 158.036428 
L 336.013629 155.731341 
L 336.041922 153.426253 
L 336.067881 151.121166 
L 336.090593 148.816079 
L 336.109601 146.510992 
L 336.124855 144.205904 
L 336.136611 141.900817 
L 336.14532 139.59573 
L 336.15152 137.290643 
L 336.155745 134.985556 
L 336.158468 132.680468 
L 336.16006 130.375381 
L 336.160772 128.070294 
L 336.160726 125.765207 
L 336.159913 123.460119 
L 336.158196 121.155032 
L 336.155308 118.849945 
L 336.150864 116.544858 
L 336.144382 114.23977 
L 336.135322 111.934683 
L 336.123156 109.629596 
L 336.107453 107.324509 
L 336.087996 105.019421 
L 336.064895 102.714334 
L 336.038683 100.409247 
L 336.010376 98.10416 
L 335.981452 95.799073 
L 335.953761 93.493985 
L 335.929337 91.188898 
L 335.910167 88.883811 
L 335.897918 86.578724 
L 335.893705 84.273636 
L 336.432708 84.273636 
L 336.432708 84.273636 
L 336.428495 86.578724 
L 336.416247 88.883811 
L 336.397076 91.188898 
L 336.372653 93.493985 
L 336.344961 95.799073 
L 336.316038 98.10416 
L 336.28773 100.409247 
L 336.261519 102.714334 
L 336.238417 105.019421 
L 336.21896 107.324509 
L 336.203258 109.629596 
L 336.191091 111.934683 
L 336.182031 114.23977 
L 336.175549 116.544858 
L 336.171105 118.849945 
L 336.168217 121.155032 
L 336.1665 123.460119 
L 336.165688 125.765207 
L 336.165642 128.070294 
L 336.166353 130.375381 
L 336.167945 132.680468 
L 336.170668 134.985556 
L 336.174893 137.290643 
L 336.181093 139.59573 
L 336.189803 141.900817 
L 336.201559 144.205904 
L 336.216813 146.510992 
L 336.235821 148.816079 
L 336.258532 151.121166 
L 336.284491 153.426253 
L 336.312784 155.731341 
L 336.342053 158.036428 
L 336.370602 160.341515 
L 336.396585 162.646602 
L 336.418274 164.95169 
L 336.434355 167.256777 
L 336.444211 169.561864 
L 336.448128 171.866951 
L 336.447396 174.172039 
L 336.444256 176.477126 
L 336.44171 178.782213 
L 336.443218 181.0873 
L 336.452321 183.392388 
L 336.472262 185.697475 
L 336.505652 188.002562 
L 336.554247 190.307649 
L 336.618853 192.612736 
L 336.699378 194.917824 
L 336.795004 197.222911 
L 336.904435 199.527998 
L 337.026164 201.833085 
L 337.158689 204.138173 
L 337.300631 206.44326 
L 337.450717 208.748347 
L 337.607663 211.053434 
L 337.769992 213.358522 
L 337.935876 215.663609 
L 338.103075 217.968696 
L 338.26903 220.273783 
L 338.431117 222.578871 
L 338.586997 224.883958 
L 338.734975 227.189045 
L 338.874264 229.494132 
L 339.005047 231.799219 
L 339.128344 234.104307 
L 339.245702 236.409394 
L 339.358842 238.714481 
L 339.469375 241.019568 
L 339.578719 243.324656 
L 339.688245 245.629743 
L 339.79961 247.93483 
L 339.915166 250.239917 
L 340.038273 252.545005 
L 340.17339 254.850092 
L 340.32587 257.155179 
L 340.501485 259.460266 
L 340.705807 261.765354 
L 340.943654 264.070441 
L 341.218801 266.375528 
L 341.53415 268.680615 
L 341.892448 270.985702 
L 342.297518 273.29079 
L 342.755846 275.595877 
L 343.278169 277.900964 
L 343.880606 280.206051 
L 344.584776 282.511139 
L 345.416321 284.816226 
L 346.401449 287.121313 
L 347.561398 289.4264 
L 348.905258 291.731488 
L 350.422192 294.036575 
L 352.074642 296.341662 
L 353.794427 298.646749 
L 355.483507 300.951837 
L 357.020507 303.256924 
L 358.272971 305.562011 
L 359.113911 307.867098 
L 359.439951 310.172185 
L 359.187637 312.477273 
L 359.187637 312.477273 
z
" clip-path="url(#p1004ad565f)" style="fill: none; stroke: #dd8452; stroke-width: 1.5"/>
   </g>
   <g id="PolyCollection_6">
    <path d="M 402.215502 312.477273 
L 371.542436 312.477273 
L 371.343393 309.595914 
L 371.481798 306.714555 
L 371.93548 303.833196 
L 372.661784 300.951837 
L 373.603314 298.070478 
L 374.694853 295.189118 
L 375.870318 292.307759 
L 377.06873 289.4264 
L 378.238544 286.545041 
L 379.340024 283.663682 
L 380.345811 280.782323 
L 381.240043 277.900964 
L 382.01657 275.019605 
L 382.676795 272.138246 
L 383.227536 269.256887 
L 383.679174 266.375528 
L 384.044185 263.494169 
L 384.336013 260.61281 
L 384.568226 257.731451 
L 384.753851 254.850092 
L 384.904832 251.968733 
L 385.031592 249.087374 
L 385.142712 246.206015 
L 385.244754 243.324656 
L 385.34225 240.443297 
L 385.43786 237.561938 
L 385.532668 234.680579 
L 385.626575 231.799219 
L 385.718725 228.91786 
L 385.807901 226.036501 
L 385.892848 223.155142 
L 385.972499 220.273783 
L 386.046088 217.392424 
L 386.113177 214.511065 
L 386.173613 211.629706 
L 386.227447 208.748347 
L 386.274855 205.866988 
L 386.316061 202.985629 
L 386.351296 200.10427 
L 386.38078 197.222911 
L 386.404737 194.341552 
L 386.423422 191.460193 
L 386.437162 188.578834 
L 386.4464 185.697475 
L 386.451722 182.816116 
L 386.453879 179.934757 
L 386.453781 177.053398 
L 386.45248 174.172039 
L 386.451125 171.29068 
L 386.450897 168.40932 
L 386.452938 165.527961 
L 386.458259 162.646602 
L 386.46766 159.765243 
L 386.481653 156.883884 
L 386.500407 154.002525 
L 386.523725 151.121166 
L 386.551051 148.239807 
L 386.581511 145.358448 
L 386.613993 142.477089 
L 386.647234 139.59573 
L 386.679927 136.714371 
L 386.71082 133.833012 
L 386.738788 130.951653 
L 386.762897 128.070294 
L 386.782422 125.188935 
L 386.796858 122.307576 
L 386.805901 119.426217 
L 386.809431 116.544858 
L 386.807492 113.663499 
L 386.800286 110.78214 
L 386.788176 107.900781 
L 386.771697 105.019421 
L 386.75157 102.138062 
L 386.728711 99.256703 
L 386.70422 96.375344 
L 386.679346 93.493985 
L 386.655432 90.612626 
L 386.633822 87.731267 
L 386.61577 84.849908 
L 386.60232 81.968549 
L 386.594211 79.08719 
L 386.591796 76.205831 
L 386.594995 73.324472 
L 386.603291 70.443113 
L 386.61577 67.561754 
L 386.631211 64.680395 
L 386.648201 61.799036 
L 386.665284 58.917677 
L 386.681109 56.036318 
L 386.694575 53.154959 
L 386.70494 50.2736 
L 386.711893 47.392241 
L 386.715577 44.510882 
L 386.716545 41.629522 
L 386.715679 38.748163 
L 386.714063 35.866804 
L 386.712832 32.985445 
L 386.71303 30.104086 
L 386.715476 27.222727 
L 387.042462 27.222727 
L 387.042462 27.222727 
L 387.044908 30.104086 
L 387.045106 32.985445 
L 387.043876 35.866804 
L 387.042259 38.748163 
L 387.041393 41.629522 
L 387.042361 44.510882 
L 387.046045 47.392241 
L 387.052998 50.2736 
L 387.063363 53.154959 
L 387.076829 56.036318 
L 387.092654 58.917677 
L 387.109737 61.799036 
L 387.126727 64.680395 
L 387.142168 67.561754 
L 387.154647 70.443113 
L 387.162943 73.324472 
L 387.166142 76.205831 
L 387.163727 79.08719 
L 387.155618 81.968549 
L 387.142168 84.849908 
L 387.124116 87.731267 
L 387.102507 90.612626 
L 387.078592 93.493985 
L 387.053718 96.375344 
L 387.029227 99.256703 
L 387.006368 102.138062 
L 386.986241 105.019421 
L 386.969762 107.900781 
L 386.957652 110.78214 
L 386.950446 113.663499 
L 386.948507 116.544858 
L 386.952037 119.426217 
L 386.96108 122.307576 
L 386.975516 125.188935 
L 386.995041 128.070294 
L 387.01915 130.951653 
L 387.047118 133.833012 
L 387.078011 136.714371 
L 387.110705 139.59573 
L 387.143945 142.477089 
L 387.176427 145.358448 
L 387.206887 148.239807 
L 387.234213 151.121166 
L 387.257531 154.002525 
L 387.276286 156.883884 
L 387.290278 159.765243 
L 387.299679 162.646602 
L 387.305 165.527961 
L 387.307041 168.40932 
L 387.306814 171.29068 
L 387.305458 174.172039 
L 387.304157 177.053398 
L 387.304059 179.934757 
L 387.306216 182.816116 
L 387.311538 185.697475 
L 387.320776 188.578834 
L 387.334517 191.460193 
L 387.353201 194.341552 
L 387.377158 197.222911 
L 387.406642 200.10427 
L 387.441877 202.985629 
L 387.483084 205.866988 
L 387.530491 208.748347 
L 387.584326 211.629706 
L 387.644761 214.511065 
L 387.71185 217.392424 
L 387.785439 220.273783 
L 387.86509 223.155142 
L 387.950038 226.036501 
L 388.039213 228.91786 
L 388.131363 231.799219 
L 388.22527 234.680579 
L 388.320078 237.561938 
L 388.415688 240.443297 
L 388.513184 243.324656 
L 388.615226 246.206015 
L 388.726346 249.087374 
L 388.853106 251.968733 
L 389.004087 254.850092 
L 389.189712 257.731451 
L 389.421926 260.61281 
L 389.713753 263.494169 
L 390.078764 266.375528 
L 390.530403 269.256887 
L 391.081143 272.138246 
L 391.741368 275.019605 
L 392.517895 277.900964 
L 393.412127 280.782323 
L 394.417914 283.663682 
L 395.519395 286.545041 
L 396.689208 289.4264 
L 397.88762 292.307759 
L 399.063085 295.189118 
L 400.154624 298.070478 
L 401.096154 300.951837 
L 401.822458 303.833196 
L 402.27614 306.714555 
L 402.414545 309.595914 
L 402.215502 312.477273 
L 402.215502 312.477273 
z
" clip-path="url(#p1004ad565f)" style="fill: none; stroke: #55a868; stroke-width: 1.5"/>
   </g>
   <g id="patch_3">
    <path d="M 145.979098 312.477273 
L 145.979098 312.477273 
L 145.979098 312.477273 
L 145.979098 312.477273 
L 145.979098 312.477273 
z
" clip-path="url(#p1004ad565f)" style="fill: none; stroke: #4c72b0; stroke-width: 1.5; stroke-linejoin: miter"/>
   </g>
   <g id="patch_4">
    <path d="M 145.979098 312.477273 
L 145.979098 312.477273 
L 145.979098 312.477273 
L 145.979098 312.477273 
L 145.979098 312.477273 
z
" clip-path="url(#p1004ad565f)" style="fill: none; stroke: #dd8452; stroke-width: 1.5; stroke-linejoin: miter"/>
   </g>
   <g id="patch_5">
    <path d="M 145.979098 312.477273 
L 145.979098 312.477273 
L 145.979098 312.477273 
L 145.979098 312.477273 
L 145.979098 312.477273 
z
" clip-path="url(#p1004ad565f)" style="fill: none; stroke: #55a868; stroke-width: 1.5; stroke-linejoin: miter"/>
   </g>
   <g id="line2d_8">
    <path d="M 95.263336 312.477273 
L 95.263336 262.670924 
" clip-path="url(#p1004ad565f)" style="fill: none; stroke: #4c72b0; stroke-width: 2.25; stroke-linecap: round"/>
   </g>
   <g id="line2d_9">
    <path d="M 95.263336 304.190215 
L 95.263336 287.50456 
" clip-path="url(#p1004ad565f)" style="fill: none; stroke: #4c72b0; stroke-width: 6.75; stroke-linecap: round"/>
   </g>
   <g id="line2d_10">
    <path d="M 95.263336 297.212496 
" clip-path="url(#p1004ad565f)" style="fill: none; stroke: #4c72b0; stroke-width: 1.5; stroke-linecap: round"/>
    <defs>
     <path id="mc00153d514" d="M 2.8125 0 
L -2.8125 -0 
" style="stroke: #ffffff; stroke-width: 1.35"/>
    </defs>
    <g clip-path="url(#p1004ad565f)">
     <use xlink:href="#mc00153d514" x="95.263336" y="297.212496" style="fill: #ffffff; stroke: #ffffff; stroke-width: 1.35"/>
    </g>
   </g>
   <g id="line2d_11">
    <path d="M 145.979098 312.477273 
L 145.979098 253.616016 
" clip-path="url(#p1004ad565f)" style="fill: none; stroke: #dd8452; stroke-width: 2.25; stroke-linecap: round"/>
   </g>
   <g id="line2d_12">
    <path d="M 145.979098 300.217856 
L 145.979098 278.568992 
" clip-path="url(#p1004ad565f)" style="fill: none; stroke: #dd8452; stroke-width: 6.75; stroke-linecap: round"/>
   </g>
   <g id="line2d_13">
    <path d="M 145.979098 291.775491 
" clip-path="url(#p1004ad565f)" style="fill: none; stroke: #dd8452; stroke-width: 1.5; stroke-linecap: round"/>
    <g clip-path="url(#p1004ad565f)">
     <use xlink:href="#mc00153d514" x="145.979098" y="291.775491" style="fill: #ffffff; stroke: #ffffff; stroke-width: 1.35"/>
    </g>
   </g>
   <g id="line2d_14">
    <path d="M 196.69486 312.477273 
L 196.69486 256.664565 
" clip-path="url(#p1004ad565f)" style="fill: none; stroke: #55a868; stroke-width: 2.25; stroke-linecap: round"/>
   </g>
   <g id="line2d_15">
    <path d="M 196.69486 302.207585 
L 196.69486 281.517171 
" clip-path="url(#p1004ad565f)" style="fill: none; stroke: #55a868; stroke-width: 6.75; stroke-linecap: round"/>
   </g>
   <g id="line2d_16">
    <path d="M 196.69486 295.043946 
" clip-path="url(#p1004ad565f)" style="fill: none; stroke: #55a868; stroke-width: 1.5; stroke-linecap: round"/>
    <g clip-path="url(#p1004ad565f)">
     <use xlink:href="#mc00153d514" x="196.69486" y="295.043946" style="fill: #ffffff; stroke: #ffffff; stroke-width: 1.35"/>
    </g>
   </g>
   <g id="line2d_17">
    <path d="M 285.447444 312.477273 
L 285.447444 229.176444 
" clip-path="url(#p1004ad565f)" style="fill: none; stroke: #4c72b0; stroke-width: 2.25; stroke-linecap: round"/>
   </g>
   <g id="line2d_18">
    <path d="M 285.447444 312.477273 
L 285.447444 277.893978 
" clip-path="url(#p1004ad565f)" style="fill: none; stroke: #4c72b0; stroke-width: 6.75; stroke-linecap: round"/>
   </g>
   <g id="line2d_19">
    <path d="M 285.447444 312.477273 
" clip-path="url(#p1004ad565f)" style="fill: none; stroke: #4c72b0; stroke-width: 1.5; stroke-linecap: round"/>
    <g clip-path="url(#p1004ad565f)">
     <use xlink:href="#mc00153d514" x="285.447444" y="312.477273" style="fill: #ffffff; stroke: #ffffff; stroke-width: 1.35"/>
    </g>
   </g>
   <g id="line2d_20">
    <path d="M 336.163207 312.477273 
L 336.163207 240.031674 
" clip-path="url(#p1004ad565f)" style="fill: none; stroke: #dd8452; stroke-width: 2.25; stroke-linecap: round"/>
   </g>
   <g id="line2d_21">
    <path d="M 336.163207 312.477273 
L 336.163207 281.973493 
" clip-path="url(#p1004ad565f)" style="fill: none; stroke: #dd8452; stroke-width: 6.75; stroke-linecap: round"/>
   </g>
   <g id="line2d_22">
    <path d="M 336.163207 312.477273 
" clip-path="url(#p1004ad565f)" style="fill: none; stroke: #dd8452; stroke-width: 1.5; stroke-linecap: round"/>
    <g clip-path="url(#p1004ad565f)">
     <use xlink:href="#mc00153d514" x="336.163207" y="312.477273" style="fill: #ffffff; stroke: #ffffff; stroke-width: 1.35"/>
    </g>
   </g>
   <g id="line2d_23">
    <path d="M 386.878969 312.477273 
L 386.878969 255.426364 
" clip-path="url(#p1004ad565f)" style="fill: none; stroke: #55a868; stroke-width: 2.25; stroke-linecap: round"/>
   </g>
   <g id="line2d_24">
    <path d="M 386.878969 312.477273 
L 386.878969 289.191187 
" clip-path="url(#p1004ad565f)" style="fill: none; stroke: #55a868; stroke-width: 6.75; stroke-linecap: round"/>
   </g>
   <g id="line2d_25">
    <path d="M 386.878969 312.477273 
" clip-path="url(#p1004ad565f)" style="fill: none; stroke: #55a868; stroke-width: 1.5; stroke-linecap: round"/>
    <g clip-path="url(#p1004ad565f)">
     <use xlink:href="#mc00153d514" x="386.878969" y="312.477273" style="fill: #ffffff; stroke: #ffffff; stroke-width: 1.35"/>
    </g>
   </g>
   <g id="patch_6">
    <path d="M 53.28 326.74 
L 53.28 12.96 
" style="fill: none; stroke: #ffffff; stroke-width: 1.25; stroke-linejoin: miter; stroke-linecap: square"/>
   </g>
   <g id="patch_7">
    <path d="M 419.04 326.74 
L 419.04 12.96 
" style="fill: none; stroke: #ffffff; stroke-width: 1.25; stroke-linejoin: miter; stroke-linecap: square"/>
   </g>
   <g id="patch_8">
    <path d="M 53.28 326.74 
L 419.04 326.74 
" style="fill: none; stroke: #ffffff; stroke-width: 1.25; stroke-linejoin: miter; stroke-linecap: square"/>
   </g>
   <g id="patch_9">
    <path d="M 53.28 12.96 
L 419.04 12.96 
" style="fill: none; stroke: #ffffff; stroke-width: 1.25; stroke-linejoin: miter; stroke-linecap: square"/>
   </g>
   <g id="legend_1">
    <g id="patch_10">
     <path d="M 60.98 86.34375 
L 141.716563 86.34375 
Q 143.916562 86.34375 143.916562 84.14375 
L 143.916562 20.66 
Q 143.916562 18.46 141.716563 18.46 
L 60.98 18.46 
Q 58.78 18.46 58.78 20.66 
L 58.78 84.14375 
Q 58.78 86.34375 60.98 86.34375 
z
" style="fill: #eaeaf2; opacity: 0.8; stroke: #cccccc; stroke-linejoin: miter"/>
    </g>
    <g id="patch_11">
     <path d="M 63.18 31.218281 
L 85.18 31.218281 
L 85.18 23.518281 
L 63.18 23.518281 
L 63.18 31.218281 
z
" style="fill: none; stroke: #4c72b0; stroke-width: 1.5; stroke-linejoin: miter"/>
    </g>
    <g id="text_11">
     <!-- Distant -->
     <g style="fill: #262626" transform="translate(93.98 31.218281) scale(0.11 -0.11)">
      <defs>
       <path id="DejaVuSans-44" d="M 1259 4147 
L 1259 519 
L 2022 519 
Q 2988 519 3436 956 
Q 3884 1394 3884 2338 
Q 3884 3275 3436 3711 
Q 2988 4147 2022 4147 
L 1259 4147 
z
M 628 4666 
L 1925 4666 
Q 3281 4666 3915 4102 
Q 4550 3538 4550 2338 
Q 4550 1131 3912 565 
Q 3275 0 1925 0 
L 628 0 
L 628 4666 
z
" transform="scale(0.015625)"/>
      </defs>
      <use xlink:href="#DejaVuSans-44"/>
      <use xlink:href="#DejaVuSans-69" x="77.001953"/>
      <use xlink:href="#DejaVuSans-73" x="104.785156"/>
      <use xlink:href="#DejaVuSans-74" x="156.884766"/>
      <use xlink:href="#DejaVuSans-61" x="196.09375"/>
      <use xlink:href="#DejaVuSans-6e" x="257.373047"/>
      <use xlink:href="#DejaVuSans-74" x="320.751953"/>
     </g>
    </g>
    <g id="patch_12">
     <path d="M 63.18 47.364219 
L 85.18 47.364219 
L 85.18 39.664219 
L 63.18 39.664219 
L 63.18 47.364219 
z
" style="fill: none; stroke: #dd8452; stroke-width: 1.5; stroke-linejoin: miter"/>
    </g>
    <g id="text_12">
     <!-- Random -->
     <g style="fill: #262626" transform="translate(93.98 47.364219) scale(0.11 -0.11)">
      <use xlink:href="#DejaVuSans-52"/>
      <use xlink:href="#DejaVuSans-61" x="67.232422"/>
      <use xlink:href="#DejaVuSans-6e" x="128.511719"/>
      <use xlink:href="#DejaVuSans-64" x="191.890625"/>
      <use xlink:href="#DejaVuSans-6f" x="255.367188"/>
      <use xlink:href="#DejaVuSans-6d" x="316.548828"/>
     </g>
    </g>
    <g id="patch_13">
     <path d="M 63.18 63.510156 
L 85.18 63.510156 
L 85.18 55.810156 
L 63.18 55.810156 
L 63.18 63.510156 
z
" style="fill: none; stroke: #55a868; stroke-width: 1.5; stroke-linejoin: miter"/>
    </g>
    <g id="text_13">
     <!-- Similar -->
     <g style="fill: #262626" transform="translate(93.98 63.510156) scale(0.11 -0.11)">
      <defs>
       <path id="DejaVuSans-53" d="M 3425 4513 
L 3425 3897 
Q 3066 4069 2747 4153 
Q 2428 4238 2131 4238 
Q 1616 4238 1336 4038 
Q 1056 3838 1056 3469 
Q 1056 3159 1242 3001 
Q 1428 2844 1947 2747 
L 2328 2669 
Q 3034 2534 3370 2195 
Q 3706 1856 3706 1288 
Q 3706 609 3251 259 
Q 2797 -91 1919 -91 
Q 1588 -91 1214 -16 
Q 841 59 441 206 
L 441 856 
Q 825 641 1194 531 
Q 1563 422 1919 422 
Q 2459 422 2753 634 
Q 3047 847 3047 1241 
Q 3047 1584 2836 1778 
Q 2625 1972 2144 2069 
L 1759 2144 
Q 1053 2284 737 2584 
Q 422 2884 422 3419 
Q 422 4038 858 4394 
Q 1294 4750 2059 4750 
Q 2388 4750 2728 4690 
Q 3069 4631 3425 4513 
z
" transform="scale(0.015625)"/>
       <path id="DejaVuSans-6c" d="M 603 4863 
L 1178 4863 
L 1178 0 
L 603 0 
L 603 4863 
z
" transform="scale(0.015625)"/>
      </defs>
      <use xlink:href="#DejaVuSans-53"/>
      <use xlink:href="#DejaVuSans-69" x="63.476562"/>
      <use xlink:href="#DejaVuSans-6d" x="91.259766"/>
      <use xlink:href="#DejaVuSans-69" x="188.671875"/>
      <use xlink:href="#DejaVuSans-6c" x="216.455078"/>
      <use xlink:href="#DejaVuSans-61" x="244.238281"/>
      <use xlink:href="#DejaVuSans-72" x="305.517578"/>
     </g>
    </g>
    <g id="PathCollection_1">
     <defs>
      <path id="mfe2209d7fc" d="M 0 3 
C 0.795609 3 1.55874 2.683901 2.12132 2.12132 
C 2.683901 1.55874 3 0.795609 3 0 
C 3 -0.795609 2.683901 -1.55874 2.12132 -2.12132 
C 1.55874 -2.683901 0.795609 -3 0 -3 
C -0.795609 -3 -1.55874 -2.683901 -2.12132 -2.12132 
C -2.683901 -1.55874 -3 -0.795609 -3 0 
C -3 0.795609 -2.683901 1.55874 -2.12132 2.12132 
C -1.55874 2.683901 -0.795609 3 0 3 
z
" style="stroke: #000000; stroke-opacity: 0.7"/>
     </defs>
     <g>
      <use xlink:href="#mfe2209d7fc" x="74.18" y="76.768594" style="fill-opacity: 0.7; stroke: #000000; stroke-opacity: 0.7"/>
     </g>
    </g>
    <g id="text_14">
     <!-- Mean -->
     <g style="fill: #262626" transform="translate(93.98 79.656094) scale(0.11 -0.11)">
      <use xlink:href="#DejaVuSans-4d"/>
      <use xlink:href="#DejaVuSans-65" x="86.279297"/>
      <use xlink:href="#DejaVuSans-61" x="147.802734"/>
      <use xlink:href="#DejaVuSans-6e" x="209.082031"/>
     </g>
    </g>
   </g>
   <g id="PathCollection_2">
    <g clip-path="url(#p1004ad565f)">
     <use xlink:href="#mfe2209d7fc" x="285.38405" y="289.003544" style="fill-opacity: 0.7; stroke: #000000; stroke-opacity: 0.7"/>
    </g>
   </g>
   <g id="PathCollection_3">
    <g clip-path="url(#p1004ad565f)">
     <use xlink:href="#mfe2209d7fc" x="336.163207" y="291.923218" style="fill-opacity: 0.7; stroke: #000000; stroke-opacity: 0.7"/>
    </g>
   </g>
   <g id="PathCollection_4">
    <g clip-path="url(#p1004ad565f)">
     <use xlink:href="#mfe2209d7fc" x="386.942364" y="291.387222" style="fill-opacity: 0.7; stroke: #000000; stroke-opacity: 0.7"/>
    </g>
   </g>
   <g id="PathCollection_5">
    <g clip-path="url(#p1004ad565f)">
     <use xlink:href="#mfe2209d7fc" x="95.199941" y="294.084113" style="fill-opacity: 0.7; stroke: #000000; stroke-opacity: 0.7"/>
    </g>
   </g>
   <g id="PathCollection_6">
    <g clip-path="url(#p1004ad565f)">
     <use xlink:href="#mfe2209d7fc" x="145.979098" y="286.039299" style="fill-opacity: 0.7; stroke: #000000; stroke-opacity: 0.7"/>
    </g>
   </g>
   <g id="PathCollection_7">
    <g clip-path="url(#p1004ad565f)">
     <use xlink:href="#mfe2209d7fc" x="196.758255" y="291.040525" style="fill-opacity: 0.7; stroke: #000000; stroke-opacity: 0.7"/>
    </g>
   </g>
  </g>
 </g>
 <defs>
  <clipPath id="p1004ad565f">
   <rect x="53.28" y="12.96" width="365.76" height="313.78"/>
  </clipPath>
 </defs>
</svg>
