<?xml version="1.0" encoding="utf-8" standalone="no"?>
<!DOCTYPE svg PUBLIC "-//W3C//DTD SVG 1.1//EN"
  "http://www.w3.org/Graphics/SVG/1.1/DTD/svg11.dtd">
<svg xmlns:xlink="http://www.w3.org/1999/xlink" width="432pt" height="360pt" viewBox="0 0 432 360" xmlns="http://www.w3.org/2000/svg" version="1.1">
 <metadata>
  <rdf:RDF xmlns:dc="http://purl.org/dc/elements/1.1/" xmlns:cc="http://creativecommons.org/ns#" xmlns:rdf="http://www.w3.org/1999/02/22-rdf-syntax-ns#">
   <cc:Work>
    <dc:type rdf:resource="http://purl.org/dc/dcmitype/StillImage"/>
    <dc:date>2025-05-19T12:05:23.847317</dc:date>
    <dc:format>image/svg+xml</dc:format>
    <dc:creator>
     <cc:Agent>
      <dc:title>Matplotlib v3.9.2, https://matplotlib.org/</dc:title>
     </cc:Agent>
    </dc:creator>
   </cc:Work>
  </rdf:RDF>
 </metadata>
 <defs>
  <style type="text/css">*{stroke-linejoin: round; stroke-linecap: butt}</style>
 </defs>
 <g id="figure_1">
  <g id="patch_1">
   <path d="M 0 360 
L 432 360 
L 432 0 
L 0 0 
z
" style="fill: #ffffff"/>
  </g>
  <g id="axes_1">
   <g id="patch_2">
    <path d="M 53.37 326.74 
L 419.04 326.74 
L 419.04 12.96 
L 53.37 12.96 
z
" style="fill: #eaeaf2"/>
   </g>
   <g id="matplotlib.axis_1">
    <g id="xtick_1">
     <g id="text_1">
      <!-- 50 Most active users -->
      <g style="fill: #262626" transform="translate(91.217525 344.598281) scale(0.11 -0.11)">
       <defs>
        <path id="DejaVuSans-35" d="M 691 4666 
L 3169 4666 
L 3169 4134 
L 1269 4134 
L 1269 2991 
Q 1406 3038 1543 3061 
Q 1681 3084 1819 3084 
Q 2600 3084 3056 2656 
Q 3513 2228 3513 1497 
Q 3513 744 3044 326 
Q 2575 -91 1722 -91 
Q 1428 -91 1123 -41 
Q 819 9 494 109 
L 494 744 
Q 775 591 1075 516 
Q 1375 441 1709 441 
Q 2250 441 2565 725 
Q 2881 1009 2881 1497 
Q 2881 1984 2565 2268 
Q 2250 2553 1709 2553 
Q 1456 2553 1204 2497 
Q 953 2441 691 2322 
L 691 4666 
z
" transform="scale(0.015625)"/>
        <path id="DejaVuSans-30" d="M 2034 4250 
Q 1547 4250 1301 3770 
Q 1056 3291 1056 2328 
Q 1056 1369 1301 889 
Q 1547 409 2034 409 
Q 2525 409 2770 889 
Q 3016 1369 3016 2328 
Q 3016 3291 2770 3770 
Q 2525 4250 2034 4250 
z
M 2034 4750 
Q 2819 4750 3233 4129 
Q 3647 3509 3647 2328 
Q 3647 1150 3233 529 
Q 2819 -91 2034 -91 
Q 1250 -91 836 529 
Q 422 1150 422 2328 
Q 422 3509 836 4129 
Q 1250 4750 2034 4750 
z
" transform="scale(0.015625)"/>
        <path id="DejaVuSans-20" transform="scale(0.015625)"/>
        <path id="DejaVuSans-4d" d="M 628 4666 
L 1569 4666 
L 2759 1491 
L 3956 4666 
L 4897 4666 
L 4897 0 
L 4281 0 
L 4281 4097 
L 3078 897 
L 2444 897 
L 1241 4097 
L 1241 0 
L 628 0 
L 628 4666 
z
" transform="scale(0.015625)"/>
        <path id="DejaVuSans-6f" d="M 1959 3097 
Q 1497 3097 1228 2736 
Q 959 2375 959 1747 
Q 959 1119 1226 758 
Q 1494 397 1959 397 
Q 2419 397 2687 759 
Q 2956 1122 2956 1747 
Q 2956 2369 2687 2733 
Q 2419 3097 1959 3097 
z
M 1959 3584 
Q 2709 3584 3137 3096 
Q 3566 2609 3566 1747 
Q 3566 888 3137 398 
Q 2709 -91 1959 -91 
Q 1206 -91 779 398 
Q 353 888 353 1747 
Q 353 2609 779 3096 
Q 1206 3584 1959 3584 
z
" transform="scale(0.015625)"/>
        <path id="DejaVuSans-73" d="M 2834 3397 
L 2834 2853 
Q 2591 2978 2328 3040 
Q 2066 3103 1784 3103 
Q 1356 3103 1142 2972 
Q 928 2841 928 2578 
Q 928 2378 1081 2264 
Q 1234 2150 1697 2047 
L 1894 2003 
Q 2506 1872 2764 1633 
Q 3022 1394 3022 966 
Q 3022 478 2636 193 
Q 2250 -91 1575 -91 
Q 1294 -91 989 -36 
Q 684 19 347 128 
L 347 722 
Q 666 556 975 473 
Q 1284 391 1588 391 
Q 1994 391 2212 530 
Q 2431 669 2431 922 
Q 2431 1156 2273 1281 
Q 2116 1406 1581 1522 
L 1381 1569 
Q 847 1681 609 1914 
Q 372 2147 372 2553 
Q 372 3047 722 3315 
Q 1072 3584 1716 3584 
Q 2034 3584 2315 3537 
Q 2597 3491 2834 3397 
z
" transform="scale(0.015625)"/>
        <path id="DejaVuSans-74" d="M 1172 4494 
L 1172 3500 
L 2356 3500 
L 2356 3053 
L 1172 3053 
L 1172 1153 
Q 1172 725 1289 603 
Q 1406 481 1766 481 
L 2356 481 
L 2356 0 
L 1766 0 
Q 1100 0 847 248 
Q 594 497 594 1153 
L 594 3053 
L 172 3053 
L 172 3500 
L 594 3500 
L 594 4494 
L 1172 4494 
z
" transform="scale(0.015625)"/>
        <path id="DejaVuSans-61" d="M 2194 1759 
Q 1497 1759 1228 1600 
Q 959 1441 959 1056 
Q 959 750 1161 570 
Q 1363 391 1709 391 
Q 2188 391 2477 730 
Q 2766 1069 2766 1631 
L 2766 1759 
L 2194 1759 
z
M 3341 1997 
L 3341 0 
L 2766 0 
L 2766 531 
Q 2569 213 2275 61 
Q 1981 -91 1556 -91 
Q 1019 -91 701 211 
Q 384 513 384 1019 
Q 384 1609 779 1909 
Q 1175 2209 1959 2209 
L 2766 2209 
L 2766 2266 
Q 2766 2663 2505 2880 
Q 2244 3097 1772 3097 
Q 1472 3097 1187 3025 
Q 903 2953 641 2809 
L 641 3341 
Q 956 3463 1253 3523 
Q 1550 3584 1831 3584 
Q 2591 3584 2966 3190 
Q 3341 2797 3341 1997 
z
" transform="scale(0.015625)"/>
        <path id="DejaVuSans-63" d="M 3122 3366 
L 3122 2828 
Q 2878 2963 2633 3030 
Q 2388 3097 2138 3097 
Q 1578 3097 1268 2742 
Q 959 2388 959 1747 
Q 959 1106 1268 751 
Q 1578 397 2138 397 
Q 2388 397 2633 464 
Q 2878 531 3122 666 
L 3122 134 
Q 2881 22 2623 -34 
Q 2366 -91 2075 -91 
Q 1284 -91 818 406 
Q 353 903 353 1747 
Q 353 2603 823 3093 
Q 1294 3584 2113 3584 
Q 2378 3584 2631 3529 
Q 2884 3475 3122 3366 
z
" transform="scale(0.015625)"/>
        <path id="DejaVuSans-69" d="M 603 3500 
L 1178 3500 
L 1178 0 
L 603 0 
L 603 3500 
z
M 603 4863 
L 1178 4863 
L 1178 4134 
L 603 4134 
L 603 4863 
z
" transform="scale(0.015625)"/>
        <path id="DejaVuSans-76" d="M 191 3500 
L 800 3500 
L 1894 563 
L 2988 3500 
L 3597 3500 
L 2284 0 
L 1503 0 
L 191 3500 
z
" transform="scale(0.015625)"/>
        <path id="DejaVuSans-65" d="M 3597 1894 
L 3597 1613 
L 953 1613 
Q 991 1019 1311 708 
Q 1631 397 2203 397 
Q 2534 397 2845 478 
Q 3156 559 3463 722 
L 3463 178 
Q 3153 47 2828 -22 
Q 2503 -91 2169 -91 
Q 1331 -91 842 396 
Q 353 884 353 1716 
Q 353 2575 817 3079 
Q 1281 3584 2069 3584 
Q 2775 3584 3186 3129 
Q 3597 2675 3597 1894 
z
M 3022 2063 
Q 3016 2534 2758 2815 
Q 2500 3097 2075 3097 
Q 1594 3097 1305 2825 
Q 1016 2553 972 2059 
L 3022 2063 
z
" transform="scale(0.015625)"/>
        <path id="DejaVuSans-75" d="M 544 1381 
L 544 3500 
L 1119 3500 
L 1119 1403 
Q 1119 906 1312 657 
Q 1506 409 1894 409 
Q 2359 409 2629 706 
Q 2900 1003 2900 1516 
L 2900 3500 
L 3475 3500 
L 3475 0 
L 2900 0 
L 2900 538 
Q 2691 219 2414 64 
Q 2138 -91 1772 -91 
Q 1169 -91 856 284 
Q 544 659 544 1381 
z
M 1991 3584 
L 1991 3584 
z
" transform="scale(0.015625)"/>
        <path id="DejaVuSans-72" d="M 2631 2963 
Q 2534 3019 2420 3045 
Q 2306 3072 2169 3072 
Q 1681 3072 1420 2755 
Q 1159 2438 1159 1844 
L 1159 0 
L 581 0 
L 581 3500 
L 1159 3500 
L 1159 2956 
Q 1341 3275 1631 3429 
Q 1922 3584 2338 3584 
Q 2397 3584 2469 3576 
Q 2541 3569 2628 3553 
L 2631 2963 
z
" transform="scale(0.015625)"/>
       </defs>
       <use xlink:href="#DejaVuSans-35"/>
       <use xlink:href="#DejaVuSans-30" x="63.623047"/>
       <use xlink:href="#DejaVuSans-20" x="127.246094"/>
       <use xlink:href="#DejaVuSans-4d" x="159.033203"/>
       <use xlink:href="#DejaVuSans-6f" x="245.3125"/>
       <use xlink:href="#DejaVuSans-73" x="306.494141"/>
       <use xlink:href="#DejaVuSans-74" x="358.59375"/>
       <use xlink:href="#DejaVuSans-20" x="397.802734"/>
       <use xlink:href="#DejaVuSans-61" x="429.589844"/>
       <use xlink:href="#DejaVuSans-63" x="490.869141"/>
       <use xlink:href="#DejaVuSans-74" x="545.849609"/>
       <use xlink:href="#DejaVuSans-69" x="585.058594"/>
       <use xlink:href="#DejaVuSans-76" x="612.841797"/>
       <use xlink:href="#DejaVuSans-65" x="672.021484"/>
       <use xlink:href="#DejaVuSans-20" x="733.544922"/>
       <use xlink:href="#DejaVuSans-75" x="765.332031"/>
       <use xlink:href="#DejaVuSans-73" x="828.710938"/>
       <use xlink:href="#DejaVuSans-65" x="880.810547"/>
       <use xlink:href="#DejaVuSans-72" x="942.333984"/>
       <use xlink:href="#DejaVuSans-73" x="983.447266"/>
      </g>
     </g>
    </g>
    <g id="xtick_2">
     <g id="text_2">
      <!-- 200 Random users -->
      <g style="fill: #262626" transform="translate(291.999178 344.598281) scale(0.11 -0.11)">
       <defs>
        <path id="DejaVuSans-32" d="M 1228 531 
L 3431 531 
L 3431 0 
L 469 0 
L 469 531 
Q 828 903 1448 1529 
Q 2069 2156 2228 2338 
Q 2531 2678 2651 2914 
Q 2772 3150 2772 3378 
Q 2772 3750 2511 3984 
Q 2250 4219 1831 4219 
Q 1534 4219 1204 4116 
Q 875 4013 500 3803 
L 500 4441 
Q 881 4594 1212 4672 
Q 1544 4750 1819 4750 
Q 2544 4750 2975 4387 
Q 3406 4025 3406 3419 
Q 3406 3131 3298 2873 
Q 3191 2616 2906 2266 
Q 2828 2175 2409 1742 
Q 1991 1309 1228 531 
z
" transform="scale(0.015625)"/>
        <path id="DejaVuSans-52" d="M 2841 2188 
Q 3044 2119 3236 1894 
Q 3428 1669 3622 1275 
L 4263 0 
L 3584 0 
L 2988 1197 
Q 2756 1666 2539 1819 
Q 2322 1972 1947 1972 
L 1259 1972 
L 1259 0 
L 628 0 
L 628 4666 
L 2053 4666 
Q 2853 4666 3247 4331 
Q 3641 3997 3641 3322 
Q 3641 2881 3436 2590 
Q 3231 2300 2841 2188 
z
M 1259 4147 
L 1259 2491 
L 2053 2491 
Q 2509 2491 2742 2702 
Q 2975 2913 2975 3322 
Q 2975 3731 2742 3939 
Q 2509 4147 2053 4147 
L 1259 4147 
z
" transform="scale(0.015625)"/>
        <path id="DejaVuSans-6e" d="M 3513 2113 
L 3513 0 
L 2938 0 
L 2938 2094 
Q 2938 2591 2744 2837 
Q 2550 3084 2163 3084 
Q 1697 3084 1428 2787 
Q 1159 2491 1159 1978 
L 1159 0 
L 581 0 
L 581 3500 
L 1159 3500 
L 1159 2956 
Q 1366 3272 1645 3428 
Q 1925 3584 2291 3584 
Q 2894 3584 3203 3211 
Q 3513 2838 3513 2113 
z
" transform="scale(0.015625)"/>
        <path id="DejaVuSans-64" d="M 2906 2969 
L 2906 4863 
L 3481 4863 
L 3481 0 
L 2906 0 
L 2906 525 
Q 2725 213 2448 61 
Q 2172 -91 1784 -91 
Q 1150 -91 751 415 
Q 353 922 353 1747 
Q 353 2572 751 3078 
Q 1150 3584 1784 3584 
Q 2172 3584 2448 3432 
Q 2725 3281 2906 2969 
z
M 947 1747 
Q 947 1113 1208 752 
Q 1469 391 1925 391 
Q 2381 391 2643 752 
Q 2906 1113 2906 1747 
Q 2906 2381 2643 2742 
Q 2381 3103 1925 3103 
Q 1469 3103 1208 2742 
Q 947 2381 947 1747 
z
" transform="scale(0.015625)"/>
        <path id="DejaVuSans-6d" d="M 3328 2828 
Q 3544 3216 3844 3400 
Q 4144 3584 4550 3584 
Q 5097 3584 5394 3201 
Q 5691 2819 5691 2113 
L 5691 0 
L 5113 0 
L 5113 2094 
Q 5113 2597 4934 2840 
Q 4756 3084 4391 3084 
Q 3944 3084 3684 2787 
Q 3425 2491 3425 1978 
L 3425 0 
L 2847 0 
L 2847 2094 
Q 2847 2600 2669 2842 
Q 2491 3084 2119 3084 
Q 1678 3084 1418 2786 
Q 1159 2488 1159 1978 
L 1159 0 
L 581 0 
L 581 3500 
L 1159 3500 
L 1159 2956 
Q 1356 3278 1631 3431 
Q 1906 3584 2284 3584 
Q 2666 3584 2933 3390 
Q 3200 3197 3328 2828 
z
" transform="scale(0.015625)"/>
       </defs>
       <use xlink:href="#DejaVuSans-32"/>
       <use xlink:href="#DejaVuSans-30" x="63.623047"/>
       <use xlink:href="#DejaVuSans-30" x="127.246094"/>
       <use xlink:href="#DejaVuSans-20" x="190.869141"/>
       <use xlink:href="#DejaVuSans-52" x="222.65625"/>
       <use xlink:href="#DejaVuSans-61" x="289.888672"/>
       <use xlink:href="#DejaVuSans-6e" x="351.167969"/>
       <use xlink:href="#DejaVuSans-64" x="414.546875"/>
       <use xlink:href="#DejaVuSans-6f" x="478.023438"/>
       <use xlink:href="#DejaVuSans-6d" x="539.205078"/>
       <use xlink:href="#DejaVuSans-20" x="636.617188"/>
       <use xlink:href="#DejaVuSans-75" x="668.404297"/>
       <use xlink:href="#DejaVuSans-73" x="731.783203"/>
       <use xlink:href="#DejaVuSans-65" x="783.882812"/>
       <use xlink:href="#DejaVuSans-72" x="845.40625"/>
       <use xlink:href="#DejaVuSans-73" x="886.519531"/>
      </g>
     </g>
    </g>
   </g>
   <g id="matplotlib.axis_2">
    <g id="ytick_1">
     <g id="line2d_1">
      <path d="M 53.37 312.477273 
L 419.04 312.477273 
" clip-path="url(#pb9c55cdfa3)" style="fill: none; stroke: #ffffff; stroke-linecap: round"/>
     </g>
     <g id="text_3">
      <!-- 0 -->
      <g style="fill: #262626" transform="translate(36.87125 316.656413) scale(0.11 -0.11)">
       <use xlink:href="#DejaVuSans-30"/>
      </g>
     </g>
    </g>
    <g id="ytick_2">
     <g id="line2d_2">
      <path d="M 53.37 271.273838 
L 419.04 271.273838 
" clip-path="url(#pb9c55cdfa3)" style="fill: none; stroke: #ffffff; stroke-linecap: round"/>
     </g>
     <g id="text_4">
      <!-- 10 -->
      <g style="fill: #262626" transform="translate(29.8725 275.452979) scale(0.11 -0.11)">
       <defs>
        <path id="DejaVuSans-31" d="M 794 531 
L 1825 531 
L 1825 4091 
L 703 3866 
L 703 4441 
L 1819 4666 
L 2450 4666 
L 2450 531 
L 3481 531 
L 3481 0 
L 794 0 
L 794 531 
z
" transform="scale(0.015625)"/>
       </defs>
       <use xlink:href="#DejaVuSans-31"/>
       <use xlink:href="#DejaVuSans-30" x="63.623047"/>
      </g>
     </g>
    </g>
    <g id="ytick_3">
     <g id="line2d_3">
      <path d="M 53.37 230.070404 
L 419.04 230.070404 
" clip-path="url(#pb9c55cdfa3)" style="fill: none; stroke: #ffffff; stroke-linecap: round"/>
     </g>
     <g id="text_5">
      <!-- 20 -->
      <g style="fill: #262626" transform="translate(29.8725 234.249545) scale(0.11 -0.11)">
       <use xlink:href="#DejaVuSans-32"/>
       <use xlink:href="#DejaVuSans-30" x="63.623047"/>
      </g>
     </g>
    </g>
    <g id="ytick_4">
     <g id="line2d_4">
      <path d="M 53.37 188.86697 
L 419.04 188.86697 
" clip-path="url(#pb9c55cdfa3)" style="fill: none; stroke: #ffffff; stroke-linecap: round"/>
     </g>
     <g id="text_6">
      <!-- 30 -->
      <g style="fill: #262626" transform="translate(29.8725 193.04611) scale(0.11 -0.11)">
       <defs>
        <path id="DejaVuSans-33" d="M 2597 2516 
Q 3050 2419 3304 2112 
Q 3559 1806 3559 1356 
Q 3559 666 3084 287 
Q 2609 -91 1734 -91 
Q 1441 -91 1130 -33 
Q 819 25 488 141 
L 488 750 
Q 750 597 1062 519 
Q 1375 441 1716 441 
Q 2309 441 2620 675 
Q 2931 909 2931 1356 
Q 2931 1769 2642 2001 
Q 2353 2234 1838 2234 
L 1294 2234 
L 1294 2753 
L 1863 2753 
Q 2328 2753 2575 2939 
Q 2822 3125 2822 3475 
Q 2822 3834 2567 4026 
Q 2313 4219 1838 4219 
Q 1578 4219 1281 4162 
Q 984 4106 628 3988 
L 628 4550 
Q 988 4650 1302 4700 
Q 1616 4750 1894 4750 
Q 2613 4750 3031 4423 
Q 3450 4097 3450 3541 
Q 3450 3153 3228 2886 
Q 3006 2619 2597 2516 
z
" transform="scale(0.015625)"/>
       </defs>
       <use xlink:href="#DejaVuSans-33"/>
       <use xlink:href="#DejaVuSans-30" x="63.623047"/>
      </g>
     </g>
    </g>
    <g id="ytick_5">
     <g id="line2d_5">
      <path d="M 53.37 147.663535 
L 419.04 147.663535 
" clip-path="url(#pb9c55cdfa3)" style="fill: none; stroke: #ffffff; stroke-linecap: round"/>
     </g>
     <g id="text_7">
      <!-- 40 -->
      <g style="fill: #262626" transform="translate(29.8725 151.842676) scale(0.11 -0.11)">
       <defs>
        <path id="DejaVuSans-34" d="M 2419 4116 
L 825 1625 
L 2419 1625 
L 2419 4116 
z
M 2253 4666 
L 3047 4666 
L 3047 1625 
L 3713 1625 
L 3713 1100 
L 3047 1100 
L 3047 0 
L 2419 0 
L 2419 1100 
L 313 1100 
L 313 1709 
L 2253 4666 
z
" transform="scale(0.015625)"/>
       </defs>
       <use xlink:href="#DejaVuSans-34"/>
       <use xlink:href="#DejaVuSans-30" x="63.623047"/>
      </g>
     </g>
    </g>
    <g id="ytick_6">
     <g id="line2d_6">
      <path d="M 53.37 106.460101 
L 419.04 106.460101 
" clip-path="url(#pb9c55cdfa3)" style="fill: none; stroke: #ffffff; stroke-linecap: round"/>
     </g>
     <g id="text_8">
      <!-- 50 -->
      <g style="fill: #262626" transform="translate(29.8725 110.639242) scale(0.11 -0.11)">
       <use xlink:href="#DejaVuSans-35"/>
       <use xlink:href="#DejaVuSans-30" x="63.623047"/>
      </g>
     </g>
    </g>
    <g id="ytick_7">
     <g id="line2d_7">
      <path d="M 53.37 65.256667 
L 419.04 65.256667 
" clip-path="url(#pb9c55cdfa3)" style="fill: none; stroke: #ffffff; stroke-linecap: round"/>
     </g>
     <g id="text_9">
      <!-- 60 -->
      <g style="fill: #262626" transform="translate(29.8725 69.435807) scale(0.11 -0.11)">
       <defs>
        <path id="DejaVuSans-36" d="M 2113 2584 
Q 1688 2584 1439 2293 
Q 1191 2003 1191 1497 
Q 1191 994 1439 701 
Q 1688 409 2113 409 
Q 2538 409 2786 701 
Q 3034 994 3034 1497 
Q 3034 2003 2786 2293 
Q 2538 2584 2113 2584 
z
M 3366 4563 
L 3366 3988 
Q 3128 4100 2886 4159 
Q 2644 4219 2406 4219 
Q 1781 4219 1451 3797 
Q 1122 3375 1075 2522 
Q 1259 2794 1537 2939 
Q 1816 3084 2150 3084 
Q 2853 3084 3261 2657 
Q 3669 2231 3669 1497 
Q 3669 778 3244 343 
Q 2819 -91 2113 -91 
Q 1303 -91 875 529 
Q 447 1150 447 2328 
Q 447 3434 972 4092 
Q 1497 4750 2381 4750 
Q 2619 4750 2861 4703 
Q 3103 4656 3366 4563 
z
" transform="scale(0.015625)"/>
       </defs>
       <use xlink:href="#DejaVuSans-36"/>
       <use xlink:href="#DejaVuSans-30" x="63.623047"/>
      </g>
     </g>
    </g>
    <g id="ytick_8">
     <g id="line2d_8">
      <path d="M 53.37 24.053232 
L 419.04 24.053232 
" clip-path="url(#pb9c55cdfa3)" style="fill: none; stroke: #ffffff; stroke-linecap: round"/>
     </g>
     <g id="text_10">
      <!-- 70 -->
      <g style="fill: #262626" transform="translate(29.8725 28.232373) scale(0.11 -0.11)">
       <defs>
        <path id="DejaVuSans-37" d="M 525 4666 
L 3525 4666 
L 3525 4397 
L 1831 0 
L 1172 0 
L 2766 4134 
L 525 4134 
L 525 4666 
z
" transform="scale(0.015625)"/>
       </defs>
       <use xlink:href="#DejaVuSans-37"/>
       <use xlink:href="#DejaVuSans-30" x="63.623047"/>
      </g>
     </g>
    </g>
    <g id="text_11">
     <!-- ROUGE-1 -->
     <g style="fill: #262626" transform="translate(23.376875 197.555938) rotate(-90) scale(0.12 -0.12)">
      <defs>
       <path id="DejaVuSans-4f" d="M 2522 4238 
Q 1834 4238 1429 3725 
Q 1025 3213 1025 2328 
Q 1025 1447 1429 934 
Q 1834 422 2522 422 
Q 3209 422 3611 934 
Q 4013 1447 4013 2328 
Q 4013 3213 3611 3725 
Q 3209 4238 2522 4238 
z
M 2522 4750 
Q 3503 4750 4090 4092 
Q 4678 3434 4678 2328 
Q 4678 1225 4090 567 
Q 3503 -91 2522 -91 
Q 1538 -91 948 565 
Q 359 1222 359 2328 
Q 359 3434 948 4092 
Q 1538 4750 2522 4750 
z
" transform="scale(0.015625)"/>
       <path id="DejaVuSans-55" d="M 556 4666 
L 1191 4666 
L 1191 1831 
Q 1191 1081 1462 751 
Q 1734 422 2344 422 
Q 2950 422 3222 751 
Q 3494 1081 3494 1831 
L 3494 4666 
L 4128 4666 
L 4128 1753 
Q 4128 841 3676 375 
Q 3225 -91 2344 -91 
Q 1459 -91 1007 375 
Q 556 841 556 1753 
L 556 4666 
z
" transform="scale(0.015625)"/>
       <path id="DejaVuSans-47" d="M 3809 666 
L 3809 1919 
L 2778 1919 
L 2778 2438 
L 4434 2438 
L 4434 434 
Q 4069 175 3628 42 
Q 3188 -91 2688 -91 
Q 1594 -91 976 548 
Q 359 1188 359 2328 
Q 359 3472 976 4111 
Q 1594 4750 2688 4750 
Q 3144 4750 3555 4637 
Q 3966 4525 4313 4306 
L 4313 3634 
Q 3963 3931 3569 4081 
Q 3175 4231 2741 4231 
Q 1884 4231 1454 3753 
Q 1025 3275 1025 2328 
Q 1025 1384 1454 906 
Q 1884 428 2741 428 
Q 3075 428 3337 486 
Q 3600 544 3809 666 
z
" transform="scale(0.015625)"/>
       <path id="DejaVuSans-45" d="M 628 4666 
L 3578 4666 
L 3578 4134 
L 1259 4134 
L 1259 2753 
L 3481 2753 
L 3481 2222 
L 1259 2222 
L 1259 531 
L 3634 531 
L 3634 0 
L 628 0 
L 628 4666 
z
" transform="scale(0.015625)"/>
       <path id="DejaVuSans-2d" d="M 313 2009 
L 1997 2009 
L 1997 1497 
L 313 1497 
L 313 2009 
z
" transform="scale(0.015625)"/>
      </defs>
      <use xlink:href="#DejaVuSans-52"/>
      <use xlink:href="#DejaVuSans-4f" x="69.482422"/>
      <use xlink:href="#DejaVuSans-55" x="148.193359"/>
      <use xlink:href="#DejaVuSans-47" x="221.386719"/>
      <use xlink:href="#DejaVuSans-45" x="298.876953"/>
      <use xlink:href="#DejaVuSans-2d" x="362.060547"/>
      <use xlink:href="#DejaVuSans-31" x="398.144531"/>
     </g>
    </g>
   </g>
   <g id="PolyCollection_1">
    <path d="M 107.441778 290.933556 
L 84.661203 290.933556 
L 83.679765 290.406135 
L 82.687714 289.878715 
L 81.692115 289.351295 
L 80.700032 288.823874 
L 79.718454 288.296454 
L 78.754246 287.769033 
L 77.814111 287.241613 
L 76.904562 286.714192 
L 76.031884 286.186772 
L 75.202097 285.659351 
L 74.42089 285.131931 
L 73.693541 284.604511 
L 73.024807 284.07709 
L 72.418801 283.54967 
L 71.878855 283.022249 
L 71.407374 282.494829 
L 71.005722 281.967408 
L 70.674112 281.439988 
L 70.411555 280.912567 
L 70.215853 280.385147 
L 70.083654 279.857726 
L 70.010571 279.330306 
L 69.991364 278.802886 
L 70.020169 278.275465 
L 70.090781 277.748045 
L 70.196944 277.220624 
L 70.332662 276.693204 
L 70.492491 276.165783 
L 70.67179 275.638363 
L 70.866933 275.110942 
L 71.075454 274.583522 
L 71.296114 274.056102 
L 71.528902 273.528681 
L 71.774959 273.001261 
L 72.036427 272.47384 
L 72.316255 271.94642 
L 72.617951 271.418999 
L 72.945311 270.891579 
L 73.302133 270.364158 
L 73.69194 269.836738 
L 74.117725 269.309317 
L 74.58172 268.781897 
L 75.085214 268.254477 
L 75.628428 267.727056 
L 76.21043 267.199636 
L 76.829119 266.672215 
L 77.481261 266.144795 
L 78.162576 265.617374 
L 78.867866 265.089954 
L 79.591193 264.562533 
L 80.326074 264.035113 
L 81.065709 263.507693 
L 81.803206 262.980272 
L 82.531822 262.452852 
L 83.24518 261.925431 
L 83.937475 261.398011 
L 84.603653 260.87059 
L 85.239554 260.34317 
L 85.842008 259.815749 
L 86.408897 259.288329 
L 86.939162 258.760908 
L 87.432768 258.233488 
L 87.890625 257.706068 
L 88.314466 257.178647 
L 88.706709 256.651227 
L 89.070276 256.123806 
L 89.408422 255.596386 
L 89.724546 255.068965 
L 90.022021 254.541545 
L 90.304034 254.014124 
L 90.573455 253.486704 
L 90.832733 252.959284 
L 91.083826 252.431863 
L 91.328162 251.904443 
L 91.566633 251.377022 
L 91.799621 250.849602 
L 92.027038 250.322181 
L 92.248403 249.794761 
L 92.462915 249.26734 
L 92.669548 248.73992 
L 92.867147 248.212499 
L 93.054524 247.685079 
L 93.230547 247.157659 
L 93.39423 246.630238 
L 93.544803 246.102818 
L 93.681777 245.575397 
L 93.80499 245.047977 
L 93.914639 244.520556 
L 94.011288 243.993136 
L 94.095859 243.465715 
L 94.16961 242.938295 
L 94.234081 242.410874 
L 94.291035 241.883454 
L 94.342382 241.356034 
L 94.390088 240.828613 
L 94.436088 240.301193 
L 94.482198 239.773772 
L 94.53003 239.246352 
L 94.58092 238.718931 
L 97.522061 238.718931 
L 97.522061 238.718931 
L 97.572951 239.246352 
L 97.620782 239.773772 
L 97.666892 240.301193 
L 97.712893 240.828613 
L 97.760599 241.356034 
L 97.811946 241.883454 
L 97.8689 242.410874 
L 97.933371 242.938295 
L 98.007122 243.465715 
L 98.091693 243.993136 
L 98.188341 244.520556 
L 98.29799 245.047977 
L 98.421204 245.575397 
L 98.558178 246.102818 
L 98.708751 246.630238 
L 98.872434 247.157659 
L 99.048457 247.685079 
L 99.235834 248.212499 
L 99.433433 248.73992 
L 99.640066 249.26734 
L 99.854578 249.794761 
L 100.075942 250.322181 
L 100.30336 250.849602 
L 100.536347 251.377022 
L 100.774819 251.904443 
L 101.019155 252.431863 
L 101.270248 252.959284 
L 101.529526 253.486704 
L 101.798946 254.014124 
L 102.080959 254.541545 
L 102.378434 255.068965 
L 102.694559 255.596386 
L 103.032705 256.123806 
L 103.396272 256.651227 
L 103.788514 257.178647 
L 104.212356 257.706068 
L 104.670212 258.233488 
L 105.163819 258.760908 
L 105.694084 259.288329 
L 106.260973 259.815749 
L 106.863427 260.34317 
L 107.499327 260.87059 
L 108.165506 261.398011 
L 108.857801 261.925431 
L 109.571158 262.452852 
L 110.299774 262.980272 
L 111.037272 263.507693 
L 111.776907 264.035113 
L 112.511788 264.562533 
L 113.235115 265.089954 
L 113.940405 265.617374 
L 114.621719 266.144795 
L 115.273862 266.672215 
L 115.892551 267.199636 
L 116.474553 267.727056 
L 117.017766 268.254477 
L 117.521261 268.781897 
L 117.985255 269.309317 
L 118.41104 269.836738 
L 118.800848 270.364158 
L 119.15767 270.891579 
L 119.485029 271.418999 
L 119.786726 271.94642 
L 120.066554 272.47384 
L 120.328022 273.001261 
L 120.574078 273.528681 
L 120.806867 274.056102 
L 121.027527 274.583522 
L 121.236048 275.110942 
L 121.431191 275.638363 
L 121.61049 276.165783 
L 121.770318 276.693204 
L 121.906037 277.220624 
L 122.0122 277.748045 
L 122.082811 278.275465 
L 122.111617 278.802886 
L 122.092409 279.330306 
L 122.019327 279.857726 
L 121.887128 280.385147 
L 121.691426 280.912567 
L 121.428869 281.439988 
L 121.097259 281.967408 
L 120.695606 282.494829 
L 120.224126 283.022249 
L 119.684179 283.54967 
L 119.078174 284.07709 
L 118.40944 284.604511 
L 117.682091 285.131931 
L 116.900884 285.659351 
L 116.071097 286.186772 
L 115.198419 286.714192 
L 114.288869 287.241613 
L 113.348735 287.769033 
L 112.384527 288.296454 
L 111.402949 288.823874 
L 110.410866 289.351295 
L 109.415267 289.878715 
L 108.423215 290.406135 
L 107.441778 290.933556 
L 107.441778 290.933556 
z
" clip-path="url(#pb9c55cdfa3)" style="fill: none; stroke: #4c72b0; stroke-width: 1.5"/>
   </g>
   <g id="PolyCollection_2">
    <path d="M 156.791889 286.271219 
L 139.551598 286.271219 
L 138.73753 285.684466 
L 137.898873 285.097714 
L 137.039346 284.510961 
L 136.162724 283.924208 
L 135.272823 283.337455 
L 134.373518 282.750702 
L 133.468779 282.163949 
L 132.56273 281.577196 
L 131.659704 280.990444 
L 130.764314 280.403691 
L 129.881502 279.816938 
L 129.016569 279.230185 
L 128.175188 278.643432 
L 127.36337 278.056679 
L 126.587407 277.469926 
L 125.853771 276.883174 
L 125.168992 276.296421 
L 124.539511 275.709668 
L 123.971508 275.122915 
L 123.470746 274.536162 
L 123.042404 273.949409 
L 122.690934 273.362656 
L 122.419943 272.775904 
L 122.232106 272.189151 
L 122.129105 271.602398 
L 122.111617 271.015645 
L 122.179322 270.428892 
L 122.330946 269.842139 
L 122.564331 269.255386 
L 122.876511 268.668634 
L 123.263815 268.081881 
L 123.721958 267.495128 
L 124.246144 266.908375 
L 124.831154 266.321622 
L 125.471432 265.734869 
L 126.161154 265.148116 
L 126.894296 264.561364 
L 127.664681 263.974611 
L 128.466027 263.387858 
L 129.291988 262.801105 
L 130.136187 262.214352 
L 130.992263 261.627599 
L 131.853907 261.040847 
L 132.714915 260.454094 
L 133.569245 259.867341 
L 134.411083 259.280588 
L 135.234914 258.693835 
L 136.035601 258.107082 
L 136.808466 257.520329 
L 137.549369 256.933577 
L 138.254779 256.346824 
L 138.921835 255.760071 
L 139.54839 255.173318 
L 140.133039 254.586565 
L 140.67512 253.999812 
L 141.174694 253.413059 
L 141.632499 252.826307 
L 142.049894 252.239554 
L 142.428769 251.652801 
L 142.771457 251.066048 
L 143.08063 250.479295 
L 143.359194 249.892542 
L 143.610187 249.305789 
L 143.83668 248.719037 
L 144.041692 248.132284 
L 144.228111 247.545531 
L 144.398625 246.958778 
L 144.555674 246.372025 
L 144.7014 245.785272 
L 144.837622 245.198519 
L 144.965807 244.611767 
L 145.087065 244.025014 
L 145.202144 243.438261 
L 145.311439 242.851508 
L 145.41502 242.264755 
L 145.512658 241.678002 
L 145.603882 241.091249 
L 145.688033 240.504497 
L 145.76434 239.917744 
L 145.832001 239.330991 
L 145.890272 238.744238 
L 145.93856 238.157485 
L 145.976502 237.570732 
L 146.004048 236.983979 
L 146.021519 236.397227 
L 146.029644 235.810474 
L 146.029579 235.223721 
L 146.022891 234.636968 
L 146.011515 234.050215 
L 145.997691 233.463462 
L 145.983862 232.876709 
L 145.972576 232.289957 
L 145.966353 231.703204 
L 145.967569 231.116451 
L 145.978332 230.529698 
L 146.000379 229.942945 
L 146.034985 229.356192 
L 146.08291 228.769439 
L 146.144361 228.182687 
L 150.199126 228.182687 
L 150.199126 228.182687 
L 150.260577 228.769439 
L 150.308502 229.356192 
L 150.343109 229.942945 
L 150.365155 230.529698 
L 150.375918 231.116451 
L 150.377134 231.703204 
L 150.370912 232.289957 
L 150.359625 232.876709 
L 150.345797 233.463462 
L 150.331972 234.050215 
L 150.320597 234.636968 
L 150.313908 235.223721 
L 150.313843 235.810474 
L 150.321969 236.397227 
L 150.339439 236.983979 
L 150.366986 237.570732 
L 150.404928 238.157485 
L 150.453215 238.744238 
L 150.511487 239.330991 
L 150.579148 239.917744 
L 150.655454 240.504497 
L 150.739605 241.091249 
L 150.830829 241.678002 
L 150.928468 242.264755 
L 151.032048 242.851508 
L 151.141344 243.438261 
L 151.256422 244.025014 
L 151.37768 244.611767 
L 151.505865 245.198519 
L 151.642087 245.785272 
L 151.787814 246.372025 
L 151.944862 246.958778 
L 152.115377 247.545531 
L 152.301795 248.132284 
L 152.506807 248.719037 
L 152.733301 249.305789 
L 152.984293 249.892542 
L 153.262857 250.479295 
L 153.57203 251.066048 
L 153.914719 251.652801 
L 154.293594 252.239554 
L 154.710988 252.826307 
L 155.168794 253.413059 
L 155.668367 253.999812 
L 156.210448 254.586565 
L 156.795097 255.173318 
L 157.421653 255.760071 
L 158.088708 256.346824 
L 158.794118 256.933577 
L 159.535021 257.520329 
L 160.307887 258.107082 
L 161.108573 258.693835 
L 161.932404 259.280588 
L 162.774242 259.867341 
L 163.628573 260.454094 
L 164.489581 261.040847 
L 165.351225 261.627599 
L 166.2073 262.214352 
L 167.0515 262.801105 
L 167.87746 263.387858 
L 168.678806 263.974611 
L 169.449191 264.561364 
L 170.182333 265.148116 
L 170.872056 265.734869 
L 171.512333 266.321622 
L 172.097343 266.908375 
L 172.621529 267.495128 
L 173.079673 268.081881 
L 173.466976 268.668634 
L 173.779157 269.255386 
L 174.012541 269.842139 
L 174.164166 270.428892 
L 174.23187 271.015645 
L 174.214382 271.602398 
L 174.111382 272.189151 
L 173.923544 272.775904 
L 173.652554 273.362656 
L 173.301083 273.949409 
L 172.872741 274.536162 
L 172.371979 275.122915 
L 171.803977 275.709668 
L 171.174495 276.296421 
L 170.489717 276.883174 
L 169.756081 277.469926 
L 168.980117 278.056679 
L 168.168299 278.643432 
L 167.326918 279.230185 
L 166.461986 279.816938 
L 165.579173 280.403691 
L 164.683783 280.990444 
L 163.780758 281.577196 
L 162.874708 282.163949 
L 161.96997 282.750702 
L 161.070665 283.337455 
L 160.180764 283.924208 
L 159.304141 284.510961 
L 158.444615 285.097714 
L 157.605957 285.684466 
L 156.791889 286.271219 
L 156.791889 286.271219 
z
" clip-path="url(#pb9c55cdfa3)" style="fill: none; stroke: #dd8452; stroke-width: 1.5"/>
   </g>
   <g id="PolyCollection_3">
    <path d="M 206.05267 290.792442 
L 194.531325 290.792442 
L 194.161145 290.255351 
L 193.804186 289.718261 
L 193.462568 289.181171 
L 193.137624 288.64408 
L 192.829815 288.10699 
L 192.538677 287.5699 
L 192.262783 287.032809 
L 191.999737 286.495719 
L 191.746189 285.958629 
L 191.497874 285.421539 
L 191.249684 284.884448 
L 190.995758 284.347358 
L 190.729618 283.810268 
L 190.444338 283.273177 
L 190.132749 282.736087 
L 189.787689 282.198997 
L 189.402296 281.661906 
L 188.97032 281.124816 
L 188.486474 280.587726 
L 187.946776 280.050635 
L 187.348881 279.513545 
L 186.69238 278.976455 
L 185.979024 278.439364 
L 185.212872 277.902274 
L 184.400328 277.365184 
L 183.550045 276.828093 
L 182.672714 276.291003 
L 181.780715 275.753913 
L 180.887653 275.216822 
L 180.007809 274.679732 
L 179.155529 274.142642 
L 178.34459 273.605552 
L 177.587599 273.068461 
L 176.895449 272.531371 
L 176.276892 271.994281 
L 175.738242 271.45719 
L 175.283245 270.9201 
L 174.913114 270.38301 
L 174.626729 269.845919 
L 174.420983 269.308829 
L 174.29124 268.771739 
L 174.23187 268.234648 
L 174.236813 267.697558 
L 174.300123 267.160468 
L 174.416455 266.623377 
L 174.58145 266.086287 
L 174.791991 265.549197 
L 175.046321 265.012106 
L 175.344007 264.475016 
L 175.685771 263.937926 
L 176.073204 263.400836 
L 176.508391 262.863745 
L 176.993482 262.326655 
L 177.530258 261.789565 
L 178.119716 261.252474 
L 178.761717 260.715384 
L 179.454724 260.178294 
L 180.195642 259.641203 
L 180.979788 259.104113 
L 181.800965 258.567023 
L 182.651655 258.029932 
L 183.523298 257.492842 
L 184.406641 256.955752 
L 185.292127 256.418661 
L 186.17029 255.881571 
L 187.032147 255.344481 
L 187.869527 254.80739 
L 188.675361 254.2703 
L 189.443879 253.73321 
L 190.170734 253.19612 
L 190.853034 252.659029 
L 191.489308 252.121939 
L 192.079386 251.584849 
L 192.624237 251.047758 
L 193.125766 250.510668 
L 193.586581 249.973578 
L 194.00977 249.436487 
L 194.398669 248.899397 
L 194.756674 248.362307 
L 195.087063 247.825216 
L 195.392878 247.288126 
L 195.676828 246.751036 
L 195.941252 246.213945 
L 196.188102 245.676855 
L 196.418976 245.139765 
L 196.635161 244.602674 
L 196.837703 244.065584 
L 197.02748 243.528494 
L 197.205284 242.991403 
L 197.371882 242.454313 
L 197.528078 241.917223 
L 197.674745 241.380133 
L 197.812847 240.843042 
L 197.943436 240.305952 
L 198.067625 239.768862 
L 198.186555 239.231771 
L 198.301345 238.694681 
L 198.413039 238.157591 
L 198.522547 237.6205 
L 202.061447 237.6205 
L 202.061447 237.6205 
L 202.170956 238.157591 
L 202.282649 238.694681 
L 202.397439 239.231771 
L 202.51637 239.768862 
L 202.640558 240.305952 
L 202.771147 240.843042 
L 202.909249 241.380133 
L 203.055916 241.917223 
L 203.212112 242.454313 
L 203.37871 242.991403 
L 203.556514 243.528494 
L 203.746292 244.065584 
L 203.948833 244.602674 
L 204.165018 245.139765 
L 204.395892 245.676855 
L 204.642742 246.213945 
L 204.907166 246.751036 
L 205.191116 247.288126 
L 205.496931 247.825216 
L 205.82732 248.362307 
L 206.185325 248.899397 
L 206.574224 249.436487 
L 206.997413 249.973578 
L 207.458229 250.510668 
L 207.959757 251.047758 
L 208.504609 251.584849 
L 209.094686 252.121939 
L 209.73096 252.659029 
L 210.413261 253.19612 
L 211.140115 253.73321 
L 211.908633 254.2703 
L 212.714467 254.80739 
L 213.551847 255.344481 
L 214.413704 255.881571 
L 215.291868 256.418661 
L 216.177353 256.955752 
L 217.060696 257.492842 
L 217.932339 258.029932 
L 218.783029 258.567023 
L 219.604206 259.104113 
L 220.388352 259.641203 
L 221.129271 260.178294 
L 221.822277 260.715384 
L 222.464278 261.252474 
L 223.053736 261.789565 
L 223.590512 262.326655 
L 224.075603 262.863745 
L 224.51079 263.400836 
L 224.898223 263.937926 
L 225.239987 264.475016 
L 225.537673 265.012106 
L 225.792003 265.549197 
L 226.002544 266.086287 
L 226.167539 266.623377 
L 226.283871 267.160468 
L 226.347181 267.697558 
L 226.352124 268.234648 
L 226.292754 268.771739 
L 226.163011 269.308829 
L 225.957265 269.845919 
L 225.67088 270.38301 
L 225.300749 270.9201 
L 224.845752 271.45719 
L 224.307102 271.994281 
L 223.688545 272.531371 
L 222.996395 273.068461 
L 222.239404 273.605552 
L 221.428465 274.142642 
L 220.576185 274.679732 
L 219.696341 275.216822 
L 218.803279 275.753913 
L 217.91128 276.291003 
L 217.033949 276.828093 
L 216.183666 277.365184 
L 215.371122 277.902274 
L 214.604971 278.439364 
L 213.891614 278.976455 
L 213.235113 279.513545 
L 212.637218 280.050635 
L 212.09752 280.587726 
L 211.613674 281.124816 
L 211.181698 281.661906 
L 210.796305 282.198997 
L 210.451245 282.736087 
L 210.139656 283.273177 
L 209.854376 283.810268 
L 209.588237 284.347358 
L 209.33431 284.884448 
L 209.08612 285.421539 
L 208.837806 285.958629 
L 208.584257 286.495719 
L 208.321211 287.032809 
L 208.045317 287.5699 
L 207.754179 288.10699 
L 207.44637 288.64408 
L 207.121426 289.181171 
L 206.779808 289.718261 
L 206.422849 290.255351 
L 206.05267 290.792442 
L 206.05267 290.792442 
z
" clip-path="url(#pb9c55cdfa3)" style="fill: none; stroke: #55a868; stroke-width: 1.5"/>
   </g>
   <g id="PolyCollection_4">
    <path d="M 292.005498 312.477273 
L 290.999383 312.477273 
L 290.927389 309.595914 
L 290.84986 306.714555 
L 290.766705 303.833196 
L 290.677901 300.951837 
L 290.58356 298.070478 
L 290.483978 295.189118 
L 290.379664 292.307759 
L 290.271338 289.4264 
L 290.159881 286.545041 
L 290.046253 283.663682 
L 289.931378 280.782323 
L 289.816008 277.900964 
L 289.700605 275.019605 
L 289.585233 272.138246 
L 289.469507 269.256887 
L 289.352577 266.375528 
L 289.233182 263.494169 
L 289.109753 260.61281 
L 288.980552 257.731451 
L 288.843855 254.850092 
L 288.698136 251.968733 
L 288.542253 249.087374 
L 288.375611 246.206015 
L 288.19827 243.324656 
L 288.011009 240.443297 
L 287.815303 237.561938 
L 287.613238 234.680579 
L 287.407353 231.799219 
L 287.200432 228.91786 
L 286.995281 226.036501 
L 286.794514 223.155142 
L 286.60039 220.273783 
L 286.414718 217.392424 
L 286.23886 214.511065 
L 286.073808 211.629706 
L 285.920336 208.748347 
L 285.77918 205.866988 
L 285.651208 202.985629 
L 285.537549 200.10427 
L 285.439647 197.222911 
L 285.359231 194.341552 
L 285.298214 191.460193 
L 285.258545 188.578834 
L 285.242043 185.697475 
L 285.250255 182.816116 
L 285.284357 179.934757 
L 285.345115 177.053398 
L 285.432894 174.172039 
L 285.547686 171.29068 
L 285.689139 168.40932 
L 285.856556 165.527961 
L 286.048833 162.646602 
L 286.264366 159.765243 
L 286.500917 156.883884 
L 286.755504 154.002525 
L 287.02434 151.121166 
L 287.302864 148.239807 
L 287.585893 145.358448 
L 287.867889 142.477089 
L 288.143316 139.59573 
L 288.407054 136.714371 
L 288.654796 133.833012 
L 288.883385 130.951653 
L 289.091023 128.070294 
L 289.277337 125.188935 
L 289.443283 122.307576 
L 289.590904 119.426217 
L 289.72298 116.544858 
L 289.842624 113.663499 
L 289.952878 110.78214 
L 290.056361 107.900781 
L 290.155015 105.019421 
L 290.249976 102.138062 
L 290.341574 99.256703 
L 290.429456 96.375344 
L 290.512794 93.493985 
L 290.590544 90.612626 
L 290.661719 87.731267 
L 290.725617 84.849908 
L 290.781982 81.968549 
L 290.831077 79.08719 
L 290.87366 76.205831 
L 290.910879 73.324472 
L 290.944104 70.443113 
L 290.974734 67.561754 
L 291.004019 64.680395 
L 291.032904 61.799036 
L 291.061952 58.917677 
L 291.091326 56.036318 
L 291.120838 53.154959 
L 291.150051 50.2736 
L 291.178407 47.392241 
L 291.205357 44.510882 
L 291.230473 41.629522 
L 291.253517 38.748163 
L 291.274465 35.866804 
L 291.293495 32.985445 
L 291.310928 30.104086 
L 291.327159 27.222727 
L 291.677722 27.222727 
L 291.677722 27.222727 
L 291.693953 30.104086 
L 291.711386 32.985445 
L 291.730416 35.866804 
L 291.751365 38.748163 
L 291.774408 41.629522 
L 291.799524 44.510882 
L 291.826474 47.392241 
L 291.85483 50.2736 
L 291.884043 53.154959 
L 291.913555 56.036318 
L 291.942929 58.917677 
L 291.971977 61.799036 
L 292.000862 64.680395 
L 292.030147 67.561754 
L 292.060777 70.443113 
L 292.094002 73.324472 
L 292.131221 76.205831 
L 292.173804 79.08719 
L 292.222899 81.968549 
L 292.279264 84.849908 
L 292.343162 87.731267 
L 292.414337 90.612626 
L 292.492088 93.493985 
L 292.575425 96.375344 
L 292.663307 99.256703 
L 292.754905 102.138062 
L 292.849866 105.019421 
L 292.94852 107.900781 
L 293.052003 110.78214 
L 293.162257 113.663499 
L 293.281901 116.544858 
L 293.413977 119.426217 
L 293.561598 122.307576 
L 293.727544 125.188935 
L 293.913858 128.070294 
L 294.121496 130.951653 
L 294.350085 133.833012 
L 294.597827 136.714371 
L 294.861565 139.59573 
L 295.136992 142.477089 
L 295.418988 145.358448 
L 295.702017 148.239807 
L 295.980541 151.121166 
L 296.249377 154.002525 
L 296.503965 156.883884 
L 296.740515 159.765243 
L 296.956048 162.646602 
L 297.148326 165.527961 
L 297.315742 168.40932 
L 297.457195 171.29068 
L 297.571987 174.172039 
L 297.659766 177.053398 
L 297.720524 179.934757 
L 297.754626 182.816116 
L 297.762838 185.697475 
L 297.746336 188.578834 
L 297.706667 191.460193 
L 297.64565 194.341552 
L 297.565234 197.222911 
L 297.467332 200.10427 
L 297.353673 202.985629 
L 297.225701 205.866988 
L 297.084545 208.748347 
L 296.931073 211.629706 
L 296.766021 214.511065 
L 296.590163 217.392424 
L 296.404491 220.273783 
L 296.210367 223.155142 
L 296.0096 226.036501 
L 295.804449 228.91786 
L 295.597528 231.799219 
L 295.391643 234.680579 
L 295.189578 237.561938 
L 294.993872 240.443297 
L 294.806611 243.324656 
L 294.62927 246.206015 
L 294.462628 249.087374 
L 294.306745 251.968733 
L 294.161026 254.850092 
L 294.024329 257.731451 
L 293.895128 260.61281 
L 293.771699 263.494169 
L 293.652304 266.375528 
L 293.535374 269.256887 
L 293.419648 272.138246 
L 293.304276 275.019605 
L 293.188873 277.900964 
L 293.073503 280.782323 
L 292.958628 283.663682 
L 292.845 286.545041 
L 292.733543 289.4264 
L 292.625217 292.307759 
L 292.520903 295.189118 
L 292.421321 298.070478 
L 292.32698 300.951837 
L 292.238176 303.833196 
L 292.155021 306.714555 
L 292.077493 309.595914 
L 292.005498 312.477273 
L 292.005498 312.477273 
z
" clip-path="url(#pb9c55cdfa3)" style="fill: none; stroke: #4c72b0; stroke-width: 1.5"/>
   </g>
   <g id="PolyCollection_5">
    <path d="M 344.593883 285.008316 
L 342.651505 285.008316 
L 342.523584 282.665285 
L 342.387734 280.322254 
L 342.244078 277.979223 
L 342.092724 275.636192 
L 341.933816 273.293161 
L 341.767601 270.95013 
L 341.594507 268.607099 
L 341.415209 266.264068 
L 341.230679 263.921037 
L 341.042205 261.578006 
L 340.851371 259.234975 
L 340.660001 256.891944 
L 340.470061 254.548913 
L 340.283543 252.205882 
L 340.102339 249.862851 
L 339.92811 247.51982 
L 339.762188 245.176788 
L 339.605494 242.833757 
L 339.458495 240.490726 
L 339.321195 238.147695 
L 339.193151 235.804664 
L 339.073517 233.461633 
L 338.961095 231.118602 
L 338.854408 228.775571 
L 338.751775 226.43254 
L 338.6514 224.089509 
L 338.551478 221.746478 
L 338.450324 219.403447 
L 338.346513 217.060416 
L 338.239048 214.717385 
L 338.127522 212.374354 
L 338.01228 210.031323 
L 337.894535 207.688292 
L 337.776435 205.34526 
L 337.661059 203.002229 
L 337.552311 200.659198 
L 337.454736 198.316167 
L 337.373245 195.973136 
L 337.312782 193.630105 
L 337.277957 191.287074 
L 337.272685 188.944043 
L 337.29986 186.601012 
L 337.361111 184.257981 
L 337.456647 181.91495 
L 337.585222 179.571919 
L 337.744214 177.228888 
L 337.929805 174.885857 
L 338.137256 172.542826 
L 338.361231 170.199795 
L 338.596154 167.856764 
L 338.836558 165.513732 
L 339.077396 163.170701 
L 339.314301 160.82767 
L 339.543765 158.484639 
L 339.763236 156.141608 
L 339.971137 153.798577 
L 340.166809 151.455546 
L 340.35039 149.112515 
L 340.522651 146.769484 
L 340.684812 144.426453 
L 340.838338 142.083422 
L 340.984754 139.740391 
L 341.125482 137.39736 
L 341.261702 135.054329 
L 341.394259 132.711298 
L 341.523617 130.368267 
L 341.64984 128.025236 
L 341.772627 125.682204 
L 341.891374 123.339173 
L 342.005255 120.996142 
L 342.113331 118.653111 
L 342.214655 116.31008 
L 342.308375 113.967049 
L 342.39383 111.624018 
L 342.470618 109.280987 
L 342.538643 106.937956 
L 342.59813 104.594925 
L 342.649616 102.251894 
L 342.693909 99.908863 
L 342.732032 97.565832 
L 342.765145 95.222801 
L 342.794466 92.87977 
L 342.821193 90.536739 
L 342.846427 88.193708 
L 342.871122 85.850676 
L 342.896043 83.507645 
L 342.921747 81.164614 
L 342.948587 78.821583 
L 342.97673 76.478552 
L 343.006189 74.135521 
L 343.036859 71.79249 
L 343.068558 69.449459 
L 343.101061 67.106428 
L 343.134129 64.763397 
L 343.167528 62.420366 
L 343.201036 60.077335 
L 343.234444 57.734304 
L 343.267551 55.391273 
L 343.300155 53.048242 
L 343.945233 53.048242 
L 343.945233 53.048242 
L 343.977837 55.391273 
L 344.010944 57.734304 
L 344.044352 60.077335 
L 344.07786 62.420366 
L 344.111259 64.763397 
L 344.144327 67.106428 
L 344.17683 69.449459 
L 344.208528 71.79249 
L 344.239198 74.135521 
L 344.268657 76.478552 
L 344.296801 78.821583 
L 344.323641 81.164614 
L 344.349345 83.507645 
L 344.374265 85.850676 
L 344.398961 88.193708 
L 344.424195 90.536739 
L 344.450921 92.87977 
L 344.480243 95.222801 
L 344.513355 97.565832 
L 344.551478 99.908863 
L 344.595772 102.251894 
L 344.647258 104.594925 
L 344.706745 106.937956 
L 344.77477 109.280987 
L 344.851558 111.624018 
L 344.937013 113.967049 
L 345.030733 116.31008 
L 345.132056 118.653111 
L 345.240133 120.996142 
L 345.354014 123.339173 
L 345.472761 125.682204 
L 345.595548 128.025236 
L 345.721771 130.368267 
L 345.851128 132.711298 
L 345.983686 135.054329 
L 346.119906 137.39736 
L 346.260633 139.740391 
L 346.40705 142.083422 
L 346.560576 144.426453 
L 346.722736 146.769484 
L 346.894998 149.112515 
L 347.078579 151.455546 
L 347.274251 153.798577 
L 347.482152 156.141608 
L 347.701623 158.484639 
L 347.931086 160.82767 
L 348.167992 163.170701 
L 348.40883 165.513732 
L 348.649234 167.856764 
L 348.884157 170.199795 
L 349.108132 172.542826 
L 349.315583 174.885857 
L 349.501174 177.228888 
L 349.660166 179.571919 
L 349.788741 181.91495 
L 349.884277 184.257981 
L 349.945528 186.601012 
L 349.972703 188.944043 
L 349.96743 191.287074 
L 349.932606 193.630105 
L 349.872143 195.973136 
L 349.790652 198.316167 
L 349.693077 200.659198 
L 349.584329 203.002229 
L 349.468953 205.34526 
L 349.350853 207.688292 
L 349.233108 210.031323 
L 349.117865 212.374354 
L 349.00634 214.717385 
L 348.898875 217.060416 
L 348.795064 219.403447 
L 348.69391 221.746478 
L 348.593988 224.089509 
L 348.493613 226.43254 
L 348.39098 228.775571 
L 348.284293 231.118602 
L 348.171871 233.461633 
L 348.052237 235.804664 
L 347.924193 238.147695 
L 347.786893 240.490726 
L 347.639894 242.833757 
L 347.4832 245.176788 
L 347.317278 247.51982 
L 347.143049 249.862851 
L 346.961844 252.205882 
L 346.775327 254.548913 
L 346.585387 256.891944 
L 346.394016 259.234975 
L 346.203183 261.578006 
L 346.014709 263.921037 
L 345.830178 266.264068 
L 345.650881 268.607099 
L 345.477787 270.95013 
L 345.311572 273.293161 
L 345.152664 275.636192 
L 345.001309 277.979223 
L 344.857653 280.322254 
L 344.721804 282.665285 
L 344.593883 285.008316 
L 344.593883 285.008316 
z
" clip-path="url(#pb9c55cdfa3)" style="fill: none; stroke: #dd8452; stroke-width: 1.5"/>
   </g>
   <g id="PolyCollection_6">
    <path d="M 396.624585 289.586476 
L 394.86131 289.586476 
L 394.760962 287.320518 
L 394.659775 285.054561 
L 394.558756 282.788603 
L 394.458614 280.522645 
L 394.359664 278.256688 
L 394.261752 275.99073 
L 394.164227 273.724772 
L 394.065952 271.458815 
L 393.965377 269.192857 
L 393.860662 266.926899 
L 393.749844 264.660942 
L 393.631043 262.394984 
L 393.502675 260.129026 
L 393.363651 257.863069 
L 393.213546 255.597111 
L 393.052691 253.331153 
L 392.882206 251.065196 
L 392.703932 248.799238 
L 392.520285 246.53328 
L 392.334038 244.267322 
L 392.148064 242.001365 
L 391.965058 239.735407 
L 391.787278 237.469449 
L 391.61634 235.203492 
L 391.453084 232.937534 
L 391.29754 230.671576 
L 391.148977 228.405619 
L 391.006057 226.139661 
L 390.86704 223.873703 
L 390.730051 221.607746 
L 390.593342 219.341788 
L 390.455549 217.07583 
L 390.315892 214.809873 
L 390.174314 212.543915 
L 390.031544 210.277957 
L 389.889079 208.012 
L 389.749094 205.746042 
L 389.614293 203.480084 
L 389.48773 201.214127 
L 389.372602 198.948169 
L 389.272051 196.682211 
L 389.188981 194.416254 
L 389.125908 192.150296 
L 389.084851 189.884338 
L 389.067258 187.618381 
L 389.073989 185.352423 
L 389.105318 183.086465 
L 389.160984 180.820508 
L 389.240255 178.55455 
L 389.342015 176.288592 
L 389.464852 174.022635 
L 389.607159 171.756677 
L 389.767211 169.490719 
L 389.943241 167.224762 
L 390.133489 164.958804 
L 390.336231 162.692846 
L 390.549782 160.426889 
L 390.772478 158.160931 
L 391.002639 155.894973 
L 391.238522 153.629016 
L 391.478278 151.363058 
L 391.719919 149.0971 
L 391.961306 146.831143 
L 392.20017 144.565185 
L 392.434169 142.299227 
L 392.660969 140.03327 
L 392.878357 137.767312 
L 393.084369 135.501354 
L 393.277406 133.235397 
L 393.456346 130.969439 
L 393.620606 128.703481 
L 393.770178 126.437524 
L 393.905601 124.171566 
L 394.02789 121.905608 
L 394.13843 119.639651 
L 394.23883 117.373693 
L 394.330777 115.107735 
L 394.415887 112.841778 
L 394.495581 110.57582 
L 394.570996 108.309862 
L 394.642938 106.043905 
L 394.711875 103.777947 
L 394.777976 101.511989 
L 394.841174 99.246032 
L 394.901257 96.980074 
L 394.957955 94.714116 
L 395.01103 92.448159 
L 395.060341 90.182201 
L 395.105892 87.916243 
L 395.147848 85.650286 
L 395.186525 83.384328 
L 395.222365 81.11837 
L 395.255888 78.852413 
L 395.287642 76.586455 
L 395.318151 74.320497 
L 395.347866 72.05454 
L 395.377134 69.788582 
L 395.406174 67.522624 
L 395.435069 65.256667 
L 396.050826 65.256667 
L 396.050826 65.256667 
L 396.079721 67.522624 
L 396.10876 69.788582 
L 396.138028 72.05454 
L 396.167743 74.320497 
L 396.198252 76.586455 
L 396.230007 78.852413 
L 396.26353 81.11837 
L 396.29937 83.384328 
L 396.338047 85.650286 
L 396.380002 87.916243 
L 396.425554 90.182201 
L 396.474865 92.448159 
L 396.52794 94.714116 
L 396.584638 96.980074 
L 396.644721 99.246032 
L 396.707919 101.511989 
L 396.77402 103.777947 
L 396.842957 106.043905 
L 396.914898 108.309862 
L 396.990314 110.57582 
L 397.070007 112.841778 
L 397.155117 115.107735 
L 397.247064 117.373693 
L 397.347465 119.639651 
L 397.458005 121.905608 
L 397.580294 124.171566 
L 397.715716 126.437524 
L 397.865288 128.703481 
L 398.029549 130.969439 
L 398.208488 133.235397 
L 398.401526 135.501354 
L 398.607537 137.767312 
L 398.824926 140.03327 
L 399.051725 142.299227 
L 399.285724 144.565185 
L 399.524589 146.831143 
L 399.765976 149.0971 
L 400.007617 151.363058 
L 400.247373 153.629016 
L 400.483256 155.894973 
L 400.713416 158.160931 
L 400.936113 160.426889 
L 401.149664 162.692846 
L 401.352406 164.958804 
L 401.542654 167.224762 
L 401.718683 169.490719 
L 401.878735 171.756677 
L 402.021042 174.022635 
L 402.14388 176.288592 
L 402.245639 178.55455 
L 402.32491 180.820508 
L 402.380576 183.086465 
L 402.411906 185.352423 
L 402.418636 187.618381 
L 402.401044 189.884338 
L 402.359986 192.150296 
L 402.296914 194.416254 
L 402.213844 196.682211 
L 402.113293 198.948169 
L 401.998165 201.214127 
L 401.871602 203.480084 
L 401.736801 205.746042 
L 401.596815 208.012 
L 401.45435 210.277957 
L 401.311581 212.543915 
L 401.170003 214.809873 
L 401.030345 217.07583 
L 400.892552 219.341788 
L 400.755844 221.607746 
L 400.618855 223.873703 
L 400.479838 226.139661 
L 400.336917 228.405619 
L 400.188355 230.671576 
L 400.03281 232.937534 
L 399.869555 235.203492 
L 399.698616 237.469449 
L 399.520836 239.735407 
L 399.33783 242.001365 
L 399.151857 244.267322 
L 398.96561 246.53328 
L 398.781962 248.799238 
L 398.603688 251.065196 
L 398.433204 253.331153 
L 398.272349 255.597111 
L 398.122243 257.863069 
L 397.98322 260.129026 
L 397.854852 262.394984 
L 397.736051 264.660942 
L 397.625233 266.926899 
L 397.520517 269.192857 
L 397.419942 271.458815 
L 397.321668 273.724772 
L 397.224142 275.99073 
L 397.126231 278.256688 
L 397.027281 280.522645 
L 396.927139 282.788603 
L 396.82612 285.054561 
L 396.724933 287.320518 
L 396.624585 289.586476 
L 396.624585 289.586476 
z
" clip-path="url(#pb9c55cdfa3)" style="fill: none; stroke: #55a868; stroke-width: 1.5"/>
   </g>
   <g id="patch_3">
    <path d="M 148.171744 312.477273 
L 148.171744 312.477273 
L 148.171744 312.477273 
L 148.171744 312.477273 
L 148.171744 312.477273 
z
" clip-path="url(#pb9c55cdfa3)" style="fill: none; stroke: #4c72b0; stroke-width: 1.5; stroke-linejoin: miter"/>
   </g>
   <g id="patch_4">
    <path d="M 148.171744 312.477273 
L 148.171744 312.477273 
L 148.171744 312.477273 
L 148.171744 312.477273 
L 148.171744 312.477273 
z
" clip-path="url(#pb9c55cdfa3)" style="fill: none; stroke: #dd8452; stroke-width: 1.5; stroke-linejoin: miter"/>
   </g>
   <g id="patch_5">
    <path d="M 148.171744 312.477273 
L 148.171744 312.477273 
L 148.171744 312.477273 
L 148.171744 312.477273 
L 148.171744 312.477273 
z
" clip-path="url(#pb9c55cdfa3)" style="fill: none; stroke: #55a868; stroke-width: 1.5; stroke-linejoin: miter"/>
   </g>
   <g id="line2d_9">
    <path d="M 96.05149 290.933556 
L 96.05149 248.232885 
" clip-path="url(#pb9c55cdfa3)" style="fill: none; stroke: #4c72b0; stroke-width: 2.25; stroke-linecap: round"/>
   </g>
   <g id="line2d_10">
    <path d="M 96.05149 282.341294 
L 96.05149 267.606762 
" clip-path="url(#pb9c55cdfa3)" style="fill: none; stroke: #4c72b0; stroke-width: 6.75; stroke-linecap: round"/>
   </g>
   <g id="line2d_11">
    <path d="M 96.05149 274.82433 
" clip-path="url(#pb9c55cdfa3)" style="fill: none; stroke: #4c72b0; stroke-width: 1.5; stroke-linecap: round"/>
    <defs>
     <path id="mfa59b357de" d="M 2.8125 0 
L -2.8125 -0 
" style="stroke: #ffffff; stroke-width: 1.35"/>
    </defs>
    <g clip-path="url(#pb9c55cdfa3)">
     <use xlink:href="#mfa59b357de" x="96.05149" y="274.82433" style="fill: #ffffff; stroke: #ffffff; stroke-width: 1.35"/>
    </g>
   </g>
   <g id="line2d_12">
    <path d="M 148.171744 286.271219 
L 148.171744 245.255009 
" clip-path="url(#pb9c55cdfa3)" style="fill: none; stroke: #dd8452; stroke-width: 2.25; stroke-linecap: round"/>
   </g>
   <g id="line2d_13">
    <path d="M 148.171744 275.509967 
L 148.171744 263.305611 
" clip-path="url(#pb9c55cdfa3)" style="fill: none; stroke: #dd8452; stroke-width: 6.75; stroke-linecap: round"/>
   </g>
   <g id="line2d_14">
    <path d="M 148.171744 269.356267 
" clip-path="url(#pb9c55cdfa3)" style="fill: none; stroke: #dd8452; stroke-width: 1.5; stroke-linecap: round"/>
    <g clip-path="url(#pb9c55cdfa3)">
     <use xlink:href="#mfa59b357de" x="148.171744" y="269.356267" style="fill: #ffffff; stroke: #ffffff; stroke-width: 1.35"/>
    </g>
   </g>
   <g id="line2d_15">
    <path d="M 200.291997 290.027977 
L 200.291997 245.012677 
" clip-path="url(#pb9c55cdfa3)" style="fill: none; stroke: #55a868; stroke-width: 2.25; stroke-linecap: round"/>
   </g>
   <g id="line2d_16">
    <path d="M 200.291997 272.60835 
L 200.291997 260.788486 
" clip-path="url(#pb9c55cdfa3)" style="fill: none; stroke: #55a868; stroke-width: 6.75; stroke-linecap: round"/>
   </g>
   <g id="line2d_17">
    <path d="M 200.291997 268.747985 
" clip-path="url(#pb9c55cdfa3)" style="fill: none; stroke: #55a868; stroke-width: 1.5; stroke-linecap: round"/>
    <g clip-path="url(#pb9c55cdfa3)">
     <use xlink:href="#mfa59b357de" x="200.291997" y="268.747985" style="fill: #ffffff; stroke: #ffffff; stroke-width: 1.35"/>
    </g>
   </g>
   <g id="line2d_18">
    <path d="M 291.502441 312.477273 
L 291.502441 65.256667 
" clip-path="url(#pb9c55cdfa3)" style="fill: none; stroke: #4c72b0; stroke-width: 2.25; stroke-linecap: round"/>
   </g>
   <g id="line2d_19">
    <path d="M 291.502441 220.914085 
L 291.502441 157.964394 
" clip-path="url(#pb9c55cdfa3)" style="fill: none; stroke: #4c72b0; stroke-width: 6.75; stroke-linecap: round"/>
   </g>
   <g id="line2d_20">
    <path d="M 291.502441 187.60788 
" clip-path="url(#pb9c55cdfa3)" style="fill: none; stroke: #4c72b0; stroke-width: 1.5; stroke-linecap: round"/>
    <g clip-path="url(#pb9c55cdfa3)">
     <use xlink:href="#mfa59b357de" x="291.502441" y="187.60788" style="fill: #ffffff; stroke: #ffffff; stroke-width: 1.35"/>
    </g>
   </g>
   <g id="line2d_21">
    <path d="M 343.622694 285.008316 
L 343.622694 92.725623 
" clip-path="url(#pb9c55cdfa3)" style="fill: none; stroke: #dd8452; stroke-width: 2.25; stroke-linecap: round"/>
   </g>
   <g id="line2d_22">
    <path d="M 343.622694 224.184199 
L 343.622694 170.731348 
" clip-path="url(#pb9c55cdfa3)" style="fill: none; stroke: #dd8452; stroke-width: 6.75; stroke-linecap: round"/>
   </g>
   <g id="line2d_23">
    <path d="M 343.622694 192.573683 
" clip-path="url(#pb9c55cdfa3)" style="fill: none; stroke: #dd8452; stroke-width: 1.5; stroke-linecap: round"/>
    <g clip-path="url(#pb9c55cdfa3)">
     <use xlink:href="#mfa59b357de" x="343.622694" y="192.573683" style="fill: #ffffff; stroke: #ffffff; stroke-width: 1.35"/>
    </g>
   </g>
   <g id="line2d_24">
    <path d="M 395.742947 289.586476 
L 395.742947 78.991145 
" clip-path="url(#pb9c55cdfa3)" style="fill: none; stroke: #55a868; stroke-width: 2.25; stroke-linecap: round"/>
   </g>
   <g id="line2d_25">
    <path d="M 395.742947 222.34476 
L 395.742947 163.70357 
" clip-path="url(#pb9c55cdfa3)" style="fill: none; stroke: #55a868; stroke-width: 6.75; stroke-linecap: round"/>
   </g>
   <g id="line2d_26">
    <path d="M 395.742947 191.290701 
" clip-path="url(#pb9c55cdfa3)" style="fill: none; stroke: #55a868; stroke-width: 1.5; stroke-linecap: round"/>
    <g clip-path="url(#pb9c55cdfa3)">
     <use xlink:href="#mfa59b357de" x="395.742947" y="191.290701" style="fill: #ffffff; stroke: #ffffff; stroke-width: 1.35"/>
    </g>
   </g>
   <g id="patch_6">
    <path d="M 53.37 326.74 
L 53.37 12.96 
" style="fill: none; stroke: #ffffff; stroke-width: 1.25; stroke-linejoin: miter; stroke-linecap: square"/>
   </g>
   <g id="patch_7">
    <path d="M 419.04 326.74 
L 419.04 12.96 
" style="fill: none; stroke: #ffffff; stroke-width: 1.25; stroke-linejoin: miter; stroke-linecap: square"/>
   </g>
   <g id="patch_8">
    <path d="M 53.37 326.74 
L 419.04 326.74 
" style="fill: none; stroke: #ffffff; stroke-width: 1.25; stroke-linejoin: miter; stroke-linecap: square"/>
   </g>
   <g id="patch_9">
    <path d="M 53.37 12.96 
L 419.04 12.96 
" style="fill: none; stroke: #ffffff; stroke-width: 1.25; stroke-linejoin: miter; stroke-linecap: square"/>
   </g>
   <g id="legend_1">
    <g id="patch_10">
     <path d="M 61.07 86.34375 
L 141.806563 86.34375 
Q 144.006563 86.34375 144.006563 84.14375 
L 144.006563 20.66 
Q 144.006563 18.46 141.806563 18.46 
L 61.07 18.46 
Q 58.87 18.46 58.87 20.66 
L 58.87 84.14375 
Q 58.87 86.34375 61.07 86.34375 
z
" style="fill: #eaeaf2; opacity: 0.8; stroke: #cccccc; stroke-linejoin: miter"/>
    </g>
    <g id="patch_11">
     <path d="M 63.27 31.218281 
L 85.27 31.218281 
L 85.27 23.518281 
L 63.27 23.518281 
L 63.27 31.218281 
z
" style="fill: none; stroke: #4c72b0; stroke-width: 1.5; stroke-linejoin: miter"/>
    </g>
    <g id="text_12">
     <!-- Distant -->
     <g style="fill: #262626" transform="translate(94.07 31.218281) scale(0.11 -0.11)">
      <defs>
       <path id="DejaVuSans-44" d="M 1259 4147 
L 1259 519 
L 2022 519 
Q 2988 519 3436 956 
Q 3884 1394 3884 2338 
Q 3884 3275 3436 3711 
Q 2988 4147 2022 4147 
L 1259 4147 
z
M 628 4666 
L 1925 4666 
Q 3281 4666 3915 4102 
Q 4550 3538 4550 2338 
Q 4550 1131 3912 565 
Q 3275 0 1925 0 
L 628 0 
L 628 4666 
z
" transform="scale(0.015625)"/>
      </defs>
      <use xlink:href="#DejaVuSans-44"/>
      <use xlink:href="#DejaVuSans-69" x="77.001953"/>
      <use xlink:href="#DejaVuSans-73" x="104.785156"/>
      <use xlink:href="#DejaVuSans-74" x="156.884766"/>
      <use xlink:href="#DejaVuSans-61" x="196.09375"/>
      <use xlink:href="#DejaVuSans-6e" x="257.373047"/>
      <use xlink:href="#DejaVuSans-74" x="320.751953"/>
     </g>
    </g>
    <g id="patch_12">
     <path d="M 63.27 47.364219 
L 85.27 47.364219 
L 85.27 39.664219 
L 63.27 39.664219 
L 63.27 47.364219 
z
" style="fill: none; stroke: #dd8452; stroke-width: 1.5; stroke-linejoin: miter"/>
    </g>
    <g id="text_13">
     <!-- Random -->
     <g style="fill: #262626" transform="translate(94.07 47.364219) scale(0.11 -0.11)">
      <use xlink:href="#DejaVuSans-52"/>
      <use xlink:href="#DejaVuSans-61" x="67.232422"/>
      <use xlink:href="#DejaVuSans-6e" x="128.511719"/>
      <use xlink:href="#DejaVuSans-64" x="191.890625"/>
      <use xlink:href="#DejaVuSans-6f" x="255.367188"/>
      <use xlink:href="#DejaVuSans-6d" x="316.548828"/>
     </g>
    </g>
    <g id="patch_13">
     <path d="M 63.27 63.510156 
L 85.27 63.510156 
L 85.27 55.810156 
L 63.27 55.810156 
L 63.27 63.510156 
z
" style="fill: none; stroke: #55a868; stroke-width: 1.5; stroke-linejoin: miter"/>
    </g>
    <g id="text_14">
     <!-- Similar -->
     <g style="fill: #262626" transform="translate(94.07 63.510156) scale(0.11 -0.11)">
      <defs>
       <path id="DejaVuSans-53" d="M 3425 4513 
L 3425 3897 
Q 3066 4069 2747 4153 
Q 2428 4238 2131 4238 
Q 1616 4238 1336 4038 
Q 1056 3838 1056 3469 
Q 1056 3159 1242 3001 
Q 1428 2844 1947 2747 
L 2328 2669 
Q 3034 2534 3370 2195 
Q 3706 1856 3706 1288 
Q 3706 609 3251 259 
Q 2797 -91 1919 -91 
Q 1588 -91 1214 -16 
Q 841 59 441 206 
L 441 856 
Q 825 641 1194 531 
Q 1563 422 1919 422 
Q 2459 422 2753 634 
Q 3047 847 3047 1241 
Q 3047 1584 2836 1778 
Q 2625 1972 2144 2069 
L 1759 2144 
Q 1053 2284 737 2584 
Q 422 2884 422 3419 
Q 422 4038 858 4394 
Q 1294 4750 2059 4750 
Q 2388 4750 2728 4690 
Q 3069 4631 3425 4513 
z
" transform="scale(0.015625)"/>
       <path id="DejaVuSans-6c" d="M 603 4863 
L 1178 4863 
L 1178 0 
L 603 0 
L 603 4863 
z
" transform="scale(0.015625)"/>
      </defs>
      <use xlink:href="#DejaVuSans-53"/>
      <use xlink:href="#DejaVuSans-69" x="63.476562"/>
      <use xlink:href="#DejaVuSans-6d" x="91.259766"/>
      <use xlink:href="#DejaVuSans-69" x="188.671875"/>
      <use xlink:href="#DejaVuSans-6c" x="216.455078"/>
      <use xlink:href="#DejaVuSans-61" x="244.238281"/>
      <use xlink:href="#DejaVuSans-72" x="305.517578"/>
     </g>
    </g>
    <g id="PathCollection_1">
     <defs>
      <path id="md42d444d13" d="M 0 3 
C 0.795609 3 1.55874 2.683901 2.12132 2.12132 
C 2.683901 1.55874 3 0.795609 3 0 
C 3 -0.795609 2.683901 -1.55874 2.12132 -2.12132 
C 1.55874 -2.683901 0.795609 -3 0 -3 
C -0.795609 -3 -1.55874 -2.683901 -2.12132 -2.12132 
C -2.683901 -1.55874 -3 -0.795609 -3 0 
C -3 0.795609 -2.683901 1.55874 -2.12132 2.12132 
C -1.55874 2.683901 -0.795609 3 0 3 
z
" style="stroke: #000000; stroke-opacity: 0.7"/>
     </defs>
     <g>
      <use xlink:href="#md42d444d13" x="74.27" y="76.768594" style="fill-opacity: 0.7; stroke: #000000; stroke-opacity: 0.7"/>
     </g>
    </g>
    <g id="text_15">
     <!-- Mean -->
     <g style="fill: #262626" transform="translate(94.07 79.656094) scale(0.11 -0.11)">
      <use xlink:href="#DejaVuSans-4d"/>
      <use xlink:href="#DejaVuSans-65" x="86.279297"/>
      <use xlink:href="#DejaVuSans-61" x="147.802734"/>
      <use xlink:href="#DejaVuSans-6e" x="209.082031"/>
     </g>
    </g>
   </g>
   <g id="PathCollection_2">
    <g clip-path="url(#pb9c55cdfa3)">
     <use xlink:href="#md42d444d13" x="291.43729" y="190.255237" style="fill-opacity: 0.7; stroke: #000000; stroke-opacity: 0.7"/>
    </g>
   </g>
   <g id="PathCollection_3">
    <g clip-path="url(#pb9c55cdfa3)">
     <use xlink:href="#md42d444d13" x="343.622694" y="192.710172" style="fill-opacity: 0.7; stroke: #000000; stroke-opacity: 0.7"/>
    </g>
   </g>
   <g id="PathCollection_4">
    <g clip-path="url(#pb9c55cdfa3)">
     <use xlink:href="#md42d444d13" x="395.808098" y="191.94853" style="fill-opacity: 0.7; stroke: #000000; stroke-opacity: 0.7"/>
    </g>
   </g>
   <g id="PathCollection_5">
    <g clip-path="url(#pb9c55cdfa3)">
     <use xlink:href="#md42d444d13" x="95.98634" y="273.908146" style="fill-opacity: 0.7; stroke: #000000; stroke-opacity: 0.7"/>
    </g>
   </g>
   <g id="PathCollection_6">
    <g clip-path="url(#pb9c55cdfa3)">
     <use xlink:href="#md42d444d13" x="148.171744" y="267.780078" style="fill-opacity: 0.7; stroke: #000000; stroke-opacity: 0.7"/>
    </g>
   </g>
   <g id="PathCollection_7">
    <g clip-path="url(#pb9c55cdfa3)">
     <use xlink:href="#md42d444d13" x="200.357147" y="267.925508" style="fill-opacity: 0.7; stroke: #000000; stroke-opacity: 0.7"/>
    </g>
   </g>
  </g>
 </g>
 <defs>
  <clipPath id="pb9c55cdfa3">
   <rect x="53.37" y="12.96" width="365.67" height="313.78"/>
  </clipPath>
 </defs>
</svg>
